<svg xmlns="http://www.w3.org/2000/svg" width="308" height="173" viewBox="0 0 308 173">
    <g fill="none" fill-rule="evenodd">
        <circle cx="283" cy="25" r="12" stroke="#3F3D56"/>
        <path fill="#2691FD" fill-rule="nonzero" d="M307.552 3.372l-2.9-2.91a1.542 1.542 0 0 0-2.187-.015l-18.207 18.019-7.698-7.744a1.537 1.537 0 0 0-2.172-.015l-2.93 2.894c-.605.6-.611 1.574-.016 2.183l11.693 11.76c.601.602 1.577.609 2.186.015l22.216-22.005a1.536 1.536 0 0 0 .015-2.182z"/>
        <rect width="217" height="25" y="19" fill="#F2F2F2" fill-rule="nonzero" rx="12.5"/>
        <rect width="217" height="25" y="62" fill="#F2F2F2" fill-rule="nonzero" rx="12.5"/>
        <rect width="217" height="25" x="1" y="105" fill="#F2F2F2" fill-rule="nonzero" rx="12.5"/>
        <rect width="217" height="25" x="1" y="148" fill="#F2F2F2" fill-rule="nonzero" rx="12.5"/>
        <rect width="217" height="25" x="7" y="13" stroke="#3F3D56" rx="12.5"/>
        <rect width="217" height="25" x="7" y="56" stroke="#3F3D56" rx="12.5"/>
        <rect width="217" height="25" x="7" y="99" stroke="#3F3D56" rx="12.5"/>
        <rect width="217" height="25" x="8" y="142" stroke="#3F3D56" rx="12.5"/>
        <circle cx="283" cy="69" r="12" stroke="#3F3D56"/>
        <circle cx="283" cy="112" r="12" stroke="#3F3D56"/>
        <circle cx="283" cy="155" r="12" stroke="#3F3D56"/>
        <path fill="#2691FD" fill-rule="nonzero" d="M307.552 46.372l-2.9-2.91a1.542 1.542 0 0 0-2.187-.015l-18.207 18.019-7.698-7.744a1.537 1.537 0 0 0-2.172-.015l-2.93 2.894c-.605.6-.611 1.574-.016 2.183l11.693 11.76c.601.602 1.577.609 2.186.015l22.216-22.005a1.536 1.536 0 0 0 .015-2.182zM307.552 133.372l-2.9-2.91a1.542 1.542 0 0 0-2.187-.015l-18.207 18.019-7.698-7.744a1.537 1.537 0 0 0-2.172-.015l-2.93 2.894c-.605.6-.611 1.574-.016 2.183l11.693 11.76c.601.602 1.577.609 2.186.015l22.216-22.005a1.536 1.536 0 0 0 .015-2.182z"/>
    </g>
</svg>
