<svg xmlns="http://www.w3.org/2000/svg" width="209" height="66" viewBox="0 0 209 66">
    <path fill="#46546E" fill-rule="evenodd" d="M165.154 14.056h14.942l7.61 24.598 7.055-24.598h13.935l-14.63 39.489c-1.668 4.5-3.37 7.538-5.108 9.115-2.456 2.227-6.197 3.34-11.225 3.34-2.038 0-5.189-.278-9.452-.835l-1.112-9.88c2.039.649 4.31.973 6.811.973 1.668 0 3.018-.382 4.049-1.148 1.03-.765 1.905-2.134 2.623-4.105l-15.498-36.95zM153.082 0v14.056h7.784v10.333h-7.784v13.117c0 1.577.15 2.62.451 3.13.464.79 1.275 1.184 2.433 1.184 1.042 0 2.502-.302 4.378-.905l1.043 9.777c-3.498.765-6.765 1.148-9.8 1.148-3.521 0-6.116-.453-7.784-1.357-1.668-.905-2.901-2.279-3.7-4.123-.8-1.844-1.2-4.83-1.2-8.959V24.39h-5.212V14.056h5.213V7.27L153.082 0zm-23.158 51.005H116.72V45.02c-1.97 2.458-3.956 4.21-5.96 5.253-2.004 1.044-4.465 1.566-7.384 1.566-3.892 0-6.944-1.166-9.157-3.497-2.212-2.33-3.318-5.92-3.318-10.768v-23.52h14.212v20.32c0 2.319.429 3.966 1.286 4.94.857.974 2.062 1.461 3.614 1.461 1.691 0 3.076-.65 4.153-1.948 1.077-1.3 1.616-3.63 1.616-6.994V14.056h14.143v36.949zM87.133 0v51.005h-13.24v-5.463c-1.854 2.32-3.545 3.886-5.074 4.697-2.038 1.067-4.309 1.6-6.81 1.6-5.028 0-8.868-1.913-11.52-5.74-2.653-3.827-3.98-8.477-3.98-13.951 0-6.124 1.466-10.809 4.397-14.056 2.93-3.248 6.654-4.871 11.172-4.871 2.2 0 4.199.371 5.994 1.113 1.796.742 3.388 1.856 4.778 3.34V0h14.283zM72.995 32.426c0-2.9-.614-5.062-1.842-6.489-1.228-1.426-2.78-2.14-4.657-2.14-1.644 0-3.023.685-4.135 2.053-1.112 1.369-1.668 3.665-1.668 6.89 0 3.014.574 5.224 1.72 6.627 1.147 1.403 2.566 2.105 4.257 2.105 1.807 0 3.313-.708 4.518-2.123 1.204-1.414 1.807-3.722 1.807-6.923zm-30.252 3.618H14.387c.254 2.273.868 3.967 1.841 5.08 1.367 1.6 3.151 2.4 5.352 2.4a8.03 8.03 0 0 0 3.961-1.043c.765-.44 1.587-1.218 2.468-2.331l13.935 1.287c-2.132 3.711-4.703 6.373-7.715 7.985-3.012 1.612-7.332 2.418-12.962 2.418-4.888 0-8.734-.69-11.537-2.07-2.803-1.38-5.126-3.572-6.967-6.576C.92 40.19 0 36.659 0 32.6c0-5.776 1.848-10.45 5.543-14.021 3.695-3.572 8.797-5.358 15.307-5.358 5.282 0 9.452.8 12.51 2.4 3.058 1.6 5.386 3.92 6.985 6.959 1.599 3.038 2.398 6.993 2.398 11.864v1.6zM28.956 29.26c-.278-2.737-1.014-4.697-2.207-5.88-1.193-1.183-2.762-1.774-4.709-1.774-2.247 0-4.042.893-5.386 2.679-.857 1.113-1.401 2.771-1.633 4.975h13.935z" opacity=".9"/>
</svg>
