<svg xmlns="http://www.w3.org/2000/svg" width="127" height="40" viewBox="0 0 127 40">
    <defs>
        <linearGradient id="a" x1="0%" y1="63.271%" y2="63.271%">
            <stop offset="0%" stop-color="#2691FD"/>
            <stop offset="100%" stop-color="#00C6FF"/>
        </linearGradient>
    </defs>
    <path fill="url(#a)" fill-rule="evenodd" d="M100.357 8.519h9.08l4.624 14.907 4.287-14.907h8.467l-8.89 23.932c-1.013 2.727-2.048 4.569-3.104 5.525-1.492 1.35-3.765 2.024-6.82 2.024-1.24 0-3.154-.169-5.744-.506l-.676-5.988c1.24.393 2.619.59 4.14.59 1.013 0 1.833-.232 2.46-.696.626-.464 1.157-1.293 1.593-2.488l-9.417-22.393zM93.02 0v8.519h4.73v6.262h-4.73v7.95c0 .956.091 1.588.274 1.897.282.478.775.717 1.479.717.633 0 1.52-.182 2.66-.548l.634 5.925c-2.126.464-4.111.696-5.955.696-2.14 0-3.717-.274-4.73-.822-1.014-.549-1.763-1.381-2.249-2.499-.486-1.118-.729-2.927-.729-5.43v-7.886h-3.167V8.52h3.167V4.407L93.021 0zM78.949 30.912h-8.024v-3.627c-1.197 1.49-2.404 2.552-3.621 3.184-1.218.633-2.714.949-4.488.949-2.365 0-4.22-.706-5.564-2.12-1.344-1.412-2.016-3.587-2.016-6.525V8.519h8.636v12.314c0 1.406.26 2.404.781 2.994.521.59 1.253.886 2.197.886 1.027 0 1.868-.394 2.523-1.181s.982-2.2.982-4.238V8.519h8.594v22.393zM52.947 0v30.912H44.9v-3.31c-1.126 1.405-2.153 2.354-3.083 2.846-1.238.647-2.618.97-4.138.97-3.055 0-5.388-1.16-7-3.48-1.612-2.319-2.418-5.137-2.418-8.455 0-3.71.89-6.55 2.671-8.518 1.78-1.968 4.044-2.952 6.789-2.952 1.337 0 2.551.225 3.642.674a8.284 8.284 0 0 1 2.904 2.025V0h8.679zm-8.591 19.652c0-1.757-.373-3.068-1.12-3.932-.746-.865-1.689-1.297-2.83-1.297-.999 0-1.836.414-2.512 1.244-.676.83-1.013 2.22-1.013 4.175 0 1.827.348 3.166 1.045 4.017.697.85 1.559 1.275 2.587 1.275 1.098 0 2.013-.428 2.745-1.286.732-.857 1.098-2.256 1.098-4.196zm-18.383 2.193H8.743c.154 1.378.527 2.404 1.118 3.079.83.97 1.915 1.454 3.252 1.454a4.89 4.89 0 0 0 2.407-.632c.465-.267.965-.738 1.5-1.413l8.467.78c-1.295 2.25-2.858 3.863-4.688 4.84-1.83.977-4.455 1.465-7.876 1.465-2.97 0-5.307-.418-7.01-1.255-1.704-.836-3.115-2.164-4.234-3.985C.559 24.358 0 22.218 0 19.758c0-3.5 1.123-6.333 3.368-8.498 2.245-2.165 5.346-3.247 9.302-3.247 3.21 0 5.743.485 7.602 1.455 1.858.97 3.273 2.375 4.244 4.217.971 1.841 1.457 4.238 1.457 7.19v.97zm-8.378-4.112c-.169-1.659-.616-2.846-1.34-3.563-.726-.717-1.68-1.076-2.862-1.076-1.365 0-2.456.542-3.273 1.624-.52.675-.852 1.68-.992 3.015h8.467z"/>
</svg>
