<svg xmlns="http://www.w3.org/2000/svg" width="449" height="345" viewBox="0 0 449 345">
    <g fill="none" fill-rule="evenodd" transform="translate(1)">
        <rect width="406" height="276" x="12" y="69" fill="#F2F2F2" fill-rule="nonzero" rx="19.398"/>
        <rect width="406" height="276" y="53" stroke="#3F3D56" rx="19.398"/>
        <path stroke="#3F3D56" d="M0 78.5h406"/>
        <rect width="111" height="17" x="243" y="142" fill="#2691FD" fill-rule="nonzero" opacity=".3" rx="7.093"/>
        <rect width="154" height="14" x="221" y="189" fill="#2691FD" fill-rule="nonzero" opacity=".3" rx="7"/>
        <rect width="154" height="14" x="221" y="227" fill="#2691FD" fill-rule="nonzero" opacity=".3" rx="7"/>
        <rect width="154" height="14" x="221" y="264" fill="#2691FD" fill-rule="nonzero" opacity=".3" rx="7"/>
        <rect width="111" height="17" x="249" y="137" stroke="#3F3D56" rx="7.093"/>
        <rect width="154" height="14" x="226" y="182" stroke="#3F3D56" rx="7"/>
        <rect width="154" height="14" x="226" y="221" stroke="#3F3D56" rx="7"/>
        <rect width="154" height="14" x="226" y="259" stroke="#3F3D56" rx="7"/>
        <circle cx="30.5" cy="70.5" r="8.5" fill="#2691FD" fill-rule="nonzero" opacity=".3"/>
        <circle cx="54.5" cy="70.5" r="8.5" fill="#2691FD" fill-rule="nonzero" opacity=".3"/>
        <circle cx="77.5" cy="70.5" r="8.5" fill="#2691FD" fill-rule="nonzero" opacity=".3"/>
        <circle cx="33.5" cy="67.5" r="8.5" stroke="#3F3D56"/>
        <circle cx="57.5" cy="67.5" r="8.5" stroke="#3F3D56"/>
        <circle cx="80.5" cy="67.5" r="8.5" stroke="#3F3D56"/>
        <path fill="#2691FD" fill-rule="nonzero" d="M128 318c-1.375-6.404-1.74-15.151-1.278-21.236 0 0-6.954-30.883-12.427-33.764l-.001.002c-.084.109-2.74 3.628-3.077 14.517-.342 11.062-4.217 18.322-4.217 18.322s1.254 13.789.537 22.159H128z"/>
        <path fill="#2691FD" fill-rule="nonzero" d="M179.831 121H52.17a13.225 13.225 0 0 0-9.312 3.824A13.002 13.002 0 0 0 39 134.058v168.884c0 3.463 1.387 6.785 3.857 9.234A13.225 13.225 0 0 0 52.169 316h44.79c-1.496-6.152-3.356-15.76-1.472-22.44l-.001-.004.001.002c.088-.311.181-.619.286-.917a34.599 34.599 0 0 0 1.27-13.378 27.57 27.57 0 0 0 0-11.662c-1.384-6.403-2.353-12.692-2.353-12.692s-.763-8.46-.097-13.647c.015-.114.032-.222.048-.332l-.367-.084s1.96-8.804 2.653-14.407c.163-1.322.378-2.999.61-4.787a11.68 11.68 0 0 1-1.879-.472c-6.226-2.173-8.187-21.839-8.187-21.839v-6.231s-2.075-9.547 5.19-13.778c6.994-4.074 9.787-5.189 9.985-5.266.053-.038.105-.072.16-.114a6.083 6.083 0 0 0 1.822-2.325c.01-.157.012-.313.007-.468-.118-2.234-1.687-4.266-3.175-6.038l-3.807-4.536a4.428 4.428 0 0 1-.98-1.574 3.598 3.598 0 0 1-.105-.99c0-.124 0-.247.003-.37.02-1.127.051-2.254.092-3.381.036-.985.286-2.227 1.258-2.43.506-.104 1.175.08 1.443-.36a.853.853 0 0 0 .064-.582c-.003.015-.004.03-.008.044l-.01-.055c-.2-.789-.32-1.596-.36-2.409-.011-.367.042-.733.156-1.082.563-1.634 2.503-2.305 4.216-2.613 1.714-.308 3.638-.574 4.714-1.932.287-.451.6-.886.935-1.304a3.684 3.684 0 0 1 1.754-.877 9.769 9.769 0 0 1 6.374.56c.829.376 1.661.881 2.57.824.945-.06 1.752-.719 2.685-.879 1.506-.259 2.946.86 3.688 2.185.472.843.708 1.796.683 2.76.018.959-.331 1.89-.977 2.604-.648.682-1.615 1.15-1.885 2.048-.11.366-.084.76-.18 1.129-.013.046-.032.09-.048.134.017.023.037.044.054.067a11.583 11.583 0 0 1 1.856 10.533 11.71 11.71 0 0 1-7.58 7.605c-.004.115-.008.231-.007.347a5.017 5.017 0 0 0 1.573 3.881l10.274 4.178s6.185-.743 8.417 8.41c.358 1.52.487 3.086.382 4.645-.08 1.38.108 3.81 1.694 6.954 2.537 5.031 1.96 16.58-3.229 17.723-4.915 1.083-6.826.628-7.015.576l-.011.203c.08 2.167.859 20.856 3.682 23.117.781.626.632 1.048-.009 1.333l.002.002s.005.12.017.336c.085 1.367.52 6.572 2.411 9.534 2.192 3.43 1.962 23.212 1.962 23.212l1.498 11.662s-.922 7.204 0 8.46c.523.714 1.158 11.758 1.609 21.187h38.517c7.272 0 13.168-5.846 13.168-13.058V134.058c0-3.463-1.387-6.785-3.857-9.234a13.225 13.225 0 0 0-9.312-3.824z"/>
        <rect width="154" height="195" x="25" y="107" stroke="#3F3D56" rx="23.772"/>
        <path stroke="#3F3D56" d="M394.792 4c-4.762.272-8.962 3.246-10.85 7.681-2.712 6.64.78 14.44 6.024 19.282 5.244 4.842 11.98 7.61 18.1 11.247 8.22 4.887 15.607 11.67 19.72 20.377 4.114 8.706 4.551 19.492-.284 27.81-4.487 7.72-12.647 12.341-20.43 16.603"/>
        <ellipse cx="401.5" cy="4.5" fill="#2691FD" fill-rule="nonzero" rx="10.5" ry="4.5"/>
        <ellipse cx="410.5" cy="34.5" fill="#2691FD" fill-rule="nonzero" rx="10.5" ry="4.5"/>
        <ellipse cx="392.5" cy="41.5" fill="#2691FD" fill-rule="nonzero" rx="10.5" ry="4.5"/>
        <ellipse cx="419.5" cy="67.5" fill="#2691FD" fill-rule="nonzero" rx="10.5" ry="4.5"/>
        <ellipse cx="437.5" cy="67.5" fill="#2691FD" fill-rule="nonzero" rx="10.5" ry="4.5"/>
    </g>
</svg>
