<svg xmlns="http://www.w3.org/2000/svg" width="92" height="271" viewBox="0 0 92 271">
    <g fill="none" fill-rule="evenodd">
        <path stroke="#3F3D56" d="M0 270.5h91"/>
        <path fill="#2F2E41" fill-rule="nonzero" d="M55.464 38.675s-5.1-1.61-6.194.142c-1.094 1.752 1.491 14.454 1.491 14.454L62 54l-3.922-10.575-2.614-4.75z"/>
        <path fill="#A0616A" fill-rule="nonzero" d="M15.635 137s10.292 22.697 2.366 21.984C10.076 158.27 7 137 7 137h8.635zM83.344 133.17s-4.513 25.334 3.001 22.628C93.86 153.092 91.718 131 91.718 131l-8.374 2.17zM54.478 31.439s-.115 12.176 4.112 12.81c4.227.634-2.399 7.102-2.399 7.102L48.651 53l-10.853-.888L33 45.263S41.454 40.824 37.798 27l16.68 4.439z"/>
        <path fill="#000" fill-rule="nonzero" d="M54.478 31.439s-.115 12.176 4.112 12.81c4.227.634-2.399 7.102-2.399 7.102L48.651 53l-10.853-.888L33 45.263S41.454 40.824 37.798 27l16.68 4.439z" opacity=".1"/>
        <path fill="#2F2E41" fill-rule="nonzero" d="M73.172 130.021s5.492 11.965 1.169 49.52c0 0 1.285 13.269.233 15.757-1.051 2.488-9.699 36.251-9.699 36.251s-11.102 2.488-12.62-4.975c0 0 1.518-10.663 1.402-12.321-.117-1.659 2.454-19.785 2.454-19.785l-5.26-35.067-3.972 31.632s0 9.122-1.286 11.136c-1.285 2.014 0 42.53 0 42.53s3.623 6.16-1.87 6.28c-5.492.118-10.4-.12-10.867-4.029-.468-3.91-.702-7.819-1.87-10.188-1.169-2.37-2.688-29.499-2.337-38.977.35-9.477-7.713-58.168-5.142-63.262 2.57-5.094 49.665-4.502 49.665-4.502z"/>
        <circle cx="47.5" cy="22.5" r="14.5" fill="#A0616A" fill-rule="nonzero"/>
        <path fill="#F2F2F2" fill-rule="nonzero" d="M33.475 46.99s8.802 6.337 21.582 1.291c0 0 4.22-1.995 3.858-5.045-.362-3.051 8.801 24.523 8.801 24.523L77 115.75l-.482 19.596s-4.1-1.995-16.88 2.464S26 132.764 26 132.764l.723-50.338.724-29.334 1.929-6.454s.964-1.76 4.1.352z"/>
        <path fill="#2F2E41" fill-rule="nonzero" d="M53 39.01s2.07-.34 4.062 2.86c1.991 3.2 6.678 5.216 6.678 5.216s11.365.71 13.005 6.874c1.64 6.164 5.741 14.58 7.733 30.106 1.992 15.527 5.975 40.3 6.561 42.315.586 2.015-.82 8.178.82 10.075 1.64 1.896-11.599 1.896-11.599 1.896s-1.172-9.72-1.992-9.72c-.82 0-.586 6.52.235 11.26.82 4.742-5.976 0-5.976 0s-5.272-21.69-10.31-41.247-7.967-30.343-7.03-34.728c.937-4.386 3.515-16.95 1.64-18.135C54.953 44.597 53 39.01 53 39.01zM35.976 38s-3.1 1.682-10.933 7.243c-7.833 5.56-13.173 9.82-13.173 9.82s-3.086 2.366-4.984 16.444c-1.9 14.08-6.172 50.518-4.51 55.133 1.661 4.614 2.255 7.335 1.661 10.056-.593 2.721 12.461 2.603 12.699 2.011.237-.591-.356-11.358.237-11.594.593-.237 3.798 6.388 4.391 11.949.593 5.56 7.477 9.938 9.02 9.938 1.542 0 9.494-32.062 9.612-53.95.119-21.886-2.61-40.343-4.628-42.945C33.35 49.502 35.976 38 35.976 38z"/>
        <path fill="#3F3D56" fill-rule="nonzero" d="M57.594 230.46s.953-2.633 4.287-1.795c3.335.838 5.597-2.155 5.597-2.155s1.787-.24.596 2.035c-1.191 2.274-2.144 3.83-2.144 3.83s7.145 16.4 2.501 20.35c-4.644 3.95-10.003 1.556-10.003 1.556s-5.24-3.71-5.002-13.526c0 0-.238-3.113-3.096-8.14-2.858-5.028-5.001-12.689-1.548-14.125 3.453-1.437 4.342-1.49 4.342-1.49s-1.616 7.43 2.559 10.026l1.911 3.434zM34.494 251.235s-2.877-5.231 1.918-5.813c4.796-.58 9.95-.93 9.71 1.512-.24 2.441-.839 6.162-.839 6.162l.84 2.674s.24 6.627 1.078 7.44c.84.814 5.395 7.79-4.315 7.79s-12.587-1.046-11.748-3.255c.84-2.21 1.079-13.138 1.079-13.138l2.277-3.372z"/>
        <path fill="#2F2E41" fill-rule="nonzero" d="M43.724 10.537s6.72 1.746 10.2 2.444c3.481.698 3.121-1.28 3.121-1.28s4.561.582 4.32.116c-.24-.465 1.921-2.909-.6-5.701-2.52-2.793-1.8-4.888-1.8-4.888h-2.16l-.6-.814h-3.36s-2.52-.931-9.121 0c-6.601.93-15.602 1.163-16.323 5.003-.72 3.84-4.44 8.611-3.12 10.822 1.32 2.211 8.881 11.287 9.601 15.127.72 3.84 4.083 4.694 3.962 2.289s-3.482-10.783-.601-11.132c2.88-.35 7.8-7.447 6.48-11.986z"/>
    </g>
</svg>
