<svg xmlns="http://www.w3.org/2000/svg" width="569" height="450" viewBox="0 0 569 450">
    <defs>
        <linearGradient id="a" x1="49.998%" x2="49.998%" y1="100.006%" y2="-.002%">
            <stop offset="0%" stop-color="gray" stop-opacity=".25"/>
            <stop offset="54%" stop-color="gray" stop-opacity=".12"/>
            <stop offset="100%" stop-color="gray" stop-opacity=".1"/>
        </linearGradient>
    </defs>
    <g fill="none" fill-rule="evenodd">
        <path fill="#2691FD" fill-rule="nonzero" d="M333.53 73.989c-36.03-1.252-70.35-12.876-103.116-25.596-32.767-12.72-65.222-26.816-100.389-33.554-22.618-4.335-48.487-4.947-66.708 7.173-17.541 11.685-23.208 31.8-26.253 50.486-2.294 14.055-3.641 28.846 2.644 42.006 4.359 9.136 12.102 16.815 17.452 25.596 18.633 30.449 5.467 67.997-14.724 97.728-9.464 13.95-20.459 27.266-27.763 42.1-7.303 14.836-10.688 31.857-4.297 47.004 6.34 15.024 21.444 26.286 37.8 34.215 33.228 16.11 72.369 20.717 110.564 23.326 84.522 5.782 169.49 3.278 254.235.774 31.364-.93 62.862-1.87 93.713-6.716 17.135-2.694 34.821-6.961 47.263-17.278 15.788-13.093 19.702-35.267 9.125-51.682-17.753-27.539-66.803-34.378-79.229-63.936-6.825-16.265.19-34.383 10.11-49.473 21.288-32.363 56.966-60.758 58.848-97.75 1.291-25.414-15.866-50.854-42.387-62.879-27.795-12.648-66.352-11.045-86.85 9.816-21.12 21.495-58.23 29.742-90.038 28.64z" opacity=".1"/>
        <path fill="#2691FD" fill-rule="nonzero" d="M242.489 382l-190.555-.93L33 336.603l66.951-4.866-11.669-48.752L220.704 265.8 93.9 221.664 105.1 219 309 252.306l-11.23 76.082-16.05 41.811z"/>
        <path fill="#2691FD" fill-rule="nonzero" d="M55 363.182s11.25-1.873 18 6.4c0 0-4.95 4.06-15.6-1.56l-2.4-4.84zM52.952 362s-7.691 8.99-3.903 19c0 0 6.268-2.382 6.951-14.519L52.952 362zM47 348.039s4.8-8.78 24 3.51c0 0-2.56 5.902-11.04 5.423-8.48-.478-10.72-4.307-12.96-8.933z"/>
        <path fill="#2691FD" fill-rule="nonzero" d="M46.5 347.01s-9.572-1.104-10.5 20.9c0 0 6.068 1.263 10.378-5.696 4.311-6.96 2.543-10.865.121-15.205zM40 329.1s5.401-14.886 25-4.297c0 0-4.475 13.657-22.994 9.36L40 329.1zM34 307.187s10.459-15.394 29-1.122c0 0-6.497 14.451-27.415 6.597L34 307.187zM31 284.262s12.377-14.089 31 0c0 0-11.734 12.361-31 3.598v-3.598zM30 264.645s12.381-14.426 30-.767c0 0-13.968 12.738-30 4.144v-3.377zM31 244.747s12.807-19.264 29-6.209c0 0-13.72 16.558-29 9.871v-3.662zM34 224.008s13.883-19.151 30-4.469c0 0-16.436 16.598-30 7.98v-3.511zM37.707 204.006S53.886 186.74 68 193.619c0 0-16.858 18.336-31 14.968l.707-4.581zM44.33 186.937S63.088 165.232 74 172.482c0 0-13.82 16.835-31 18.518l1.33-4.063zM51.231 165.625S67.856 148.408 80 152.682c0 0-14.222 17.86-31 18.318l2.231-5.375zM59.765 144.425S77.353 128.535 85 131.33c0 0-12.694 17.657-26 16.627l.765-3.532zM67 126.926s15.526-20.421 24-18.839c0 0-9.415 18.206-24 20.913v-2.074zM75.547 101.826S88.825 85.966 96 86c0 0-10.481 21.193-21 20.999l.547-5.173zM78.692 85.054L91.996 53S92.659 81.975 77 91l1.692-5.946zM84.093 49.399s2.269-26.262.81-28.399c0 0 9.794 21.835-.903 40l.093-11.601zM38.399 328.806S24.803 319.88 16 341.72c0 0 12.1 8.51 24-7.343l-1.601-5.57zM32.498 306.268S16.002 298.873 8 319.798c0 0 12.742 8.617 26-8.24l-1.502-5.29zM31 286.262s-12.377-14.089-31 0c0 0 11.734 12.361 31 3.598v-3.598zM30 264.645s-12.381-14.426-30-.767c0 0 13.968 12.738 30 4.144v-3.377zM30 246.167s-8.508-20.914-27-11.92c0 0 9.996 18.545 26.245 15.392l.755-3.472z"/>
        <path fill="#2691FD" fill-rule="nonzero" d="M35 223.97s-8.392-21.197-27-11.37c0 0 11.395 19.428 26.173 14.641L35 223.97zM40 204.6s-3.353-24.414-19-26.6c0 0 3.32 25.746 16.893 31L40 204.6zM44 187.029S42.715 158.979 30 158c0 0 .428 21.29 12.566 33L44 187.029zM54 164.257s-4.045-23.4-17-26.257c0 0 1.606 22.66 15.716 32L54 164.257zM61 145.895s-.132-24.322-7.895-27.895c0 0-4.812 22.021 5.647 31L61 145.895zM67 126.317S65.964 100.62 58.303 97c0 0-2.62 20.335 7.552 31L67 126.317zM76 103.798S75.958 82.902 70.713 78c0 0-5.213 22.89 2.549 30L76 103.798z"/>
        <path fill="#2691FD" fill-rule="nonzero" d="M77.768 83.882L72.871 50S66.22 77.763 78 90l-.232-6.118z"/>
        <path fill="#2691FD" fill-rule="nonzero" d="M78.642 50.477S64.72 27.547 65.004 25c0 0 1.48 24.031 18.996 36l-5.358-10.523zM81.915 44S68.89 10.696 63 8c0 0 18.605 9.674 20 35.048L81.915 44z"/>
        <path fill="#444053" fill-rule="nonzero" d="M72.909 107l-.909-.27c11.202-35.638 13.995-58.36 7.872-64.058l.65-.672c6.495 6.012 3.86 28.486-7.613 65z"/>
        <path fill="#444053" fill-rule="nonzero" d="M43.302 191L42 190.527a271.455 271.455 0 0 1 3.698-9.953c11.334-28.746 20.983-55.488 27.17-76.017L74 104c-6.198 20.568-15.677 48.335-27.022 77.12a222.078 222.078 0 0 0-3.676 9.88z"/>
        <path fill="#444053" fill-rule="nonzero" d="M71.57 390c-.182-.195-18.446-20.418-31.18-54.94a200.26 200.26 0 0 1-12.303-62.95c-.874-26.865 4.86-56.86 14.682-84.11l1.067 1.228c-22.05 61.158-13.29 113.564-1.669 145.123C54.765 368.56 72.824 388.56 73 388.76L71.57 390z"/>
        <path fill="#D5D6DB" fill-rule="nonzero" d="M351 347s-12.568 15.328-2.589 38.5l-100.346 43.484-9.63 2.016L234 411.612l2.966-24.468v-13.372L351 347z"/>
        <path fill="#2691FD" fill-rule="nonzero" d="M33 336.51L172.782 311 358 340.537 242.958 382z"/>
        <path fill="#2691FD" fill-rule="nonzero" d="M33 336.51L172.782 311 358 340.537 242.958 382z"/>
        <path fill="#2691FD" fill-rule="nonzero" d="M32.257 336s-13.06 24.886 1.99 47.87L241.337 429s-12.855-19.823.663-47.338L32.257 336z"/>
        <path fill="#000" fill-rule="nonzero" d="M32.257 336s-13.06 24.886 1.99 47.87L241.337 429s-12.855-19.823.663-47.338L32.257 336zM39 345s-6.75 18.213 0 30" opacity=".1"/>
        <path fill="#2691FD" fill-rule="nonzero" d="M241.838 429.268L357.312 380s6.458 1.392 2.282 6.124C355.42 390.856 244.066 434 244.066 434L35 384.454l206.838 44.814z"/>
        <path fill="#000" fill-rule="nonzero" d="M241.838 429.268L357.312 380s6.458 1.392 2.282 6.124C355.42 390.856 244.066 434 244.066 434L35 384.454l206.838 44.814zM232 387s-11.25 13.2 0 33" opacity=".1"/>
        <path fill="#000" fill-rule="nonzero" d="M235.974 403.441l49.904-16.646.176.527-49.904 16.647zM235.958 407.918l59.916-22.78.198.52-59.916 22.78zM236.292 413.198l68.762-28.14.21.515-68.761 28.14zM237.095 417.85l77.941-35.201.23.507-77.942 35.201zM237.712 420.117l85.71-37.457.223.51-85.71 37.457zM239.004 423.921l102.762-44.376.221.511-102.762 44.376z" opacity=".1"/>
        <path fill="#FFF" fill-rule="nonzero" d="M84 339.985L182.185 319 242 330.627 161.544 357z" opacity=".3"/>
        <path fill="#2691FD" fill-rule="nonzero" d="M356.967 341s5.074 2.027 2.097 5.159C356.086 349.29 242 382 242 382l114.967-41z"/>
        <path fill="#D5D6DB" fill-rule="nonzero" d="M406 294s-12.563 15.32-2.584 38.494l-100.35 43.479-9.63 2.027L289 358.615l3.01-24.46V320.77L406 294z"/>
        <path fill="#3A3768" fill-rule="nonzero" d="M88 282.504L227.777 257 413 286.537 297.958 328zM87.26 283s-13.065 24.886 1.985 47.87L296.315 376s-12.848-19.84.685-47.344L87.26 283z"/>
        <path fill="#000" fill-rule="nonzero" d="M87.26 283s-13.065 24.886 1.985 47.87L296.315 376s-12.848-19.84.685-47.344L231.518 314.4 87.261 283zM94 292s-6.75 18.207 0 30" opacity=".1"/>
        <path fill="#3A3768" fill-rule="nonzero" d="M295.838 375.268L411.316 326s6.453 1.392 2.278 6.124C409.418 336.856 298.065 380 298.065 380L89 330.454l206.838 44.814z"/>
        <path fill="#000" fill-rule="nonzero" d="M295.838 375.268L411.316 326s6.453 1.392 2.278 6.124C409.418 336.856 298.065 380 298.065 380L89 330.454l206.838 44.814zM287 334s-11.25 13.2 0 33" opacity=".1"/>
        <path fill="#000" fill-rule="nonzero" d="M291.212 349.953l49.905-16.647.176.528-49.905 16.646zM291.204 354.427l59.916-22.78.197.52-59.916 22.78zM291.53 359.7l68.761-28.14.211.514-68.761 28.14zM292.339 364.353l77.941-35.202.23.507-77.942 35.202zM292.948 366.612l85.71-37.456.223.51-85.71 37.456zM294.245 370.416l102.762-44.375.22.51-102.762 44.376z" opacity=".1"/>
        <path fill="#FFF" fill-rule="nonzero" d="M139 285.985L237.185 265 297 276.627 216.544 303z" opacity=".45"/>
        <path fill="#3A3768" fill-rule="nonzero" d="M411.969 287s5.069 2.027 2.097 5.154S297 328 297 328l114.969-41z"/>
        <path fill="#D5D6DB" fill-rule="nonzero" d="M411 233s-12.57 27.509-2.59 50.676l-100.364 31.291-9.61 2.033L294 297.616l2.967-24.463v-13.386L411 233z"/>
        <path fill="#2691FD" fill-rule="nonzero" d="M93 221.51L232.78 196 418 225.537 302.954 267zM93.273 222s-13.083 24.886 1.967 47.87L302.32 315s-12.854-19.84.68-47.338L93.273 222z"/>
        <path fill="#000" fill-rule="nonzero" d="M93.273 222s-13.083 24.886 1.967 47.87L302.32 315s-12.854-19.84.68-47.338L93.273 222zM99 231s-6.75 18.213 0 30" opacity=".1"/>
        <path fill="#2691FD" fill-rule="nonzero" d="M301.838 314.225l115.474-37.36s6.458 1.405 2.282 6.18C415.42 287.82 304.066 319 304.066 319L95 269l206.838 45.225z"/>
        <path fill="#000" fill-rule="nonzero" d="M301.838 314.225l115.474-37.36s6.458 1.405 2.282 6.18C415.42 287.82 304.066 319 304.066 319L95 269l206.838 45.225zM292 272s-11.25 13.2 0 33" opacity=".1"/>
        <path fill="#000" fill-rule="nonzero" d="M296.465 288.754l49.905-16.646.176.527-49.905 16.647zM296.453 293.231l59.916-22.78.197.52-59.916 22.78zM296.774 298.506l68.761-28.14.211.515-68.761 28.14zM297.59 303.155l77.942-35.202.229.507-77.941 35.202zM298.202 305.42l85.711-37.457.223.51-85.71 37.456zM299.497 309.228l102.763-44.376.22.51-102.762 44.376z" opacity=".1"/>
        <path fill="#FFF" fill-rule="nonzero" d="M145 224.985L243.185 204 303 215.627 222.544 242z" opacity=".3"/>
        <path fill="#2691FD" fill-rule="nonzero" d="M416.967 226s5.074 2.027 2.096 5.159C416.086 234.29 302 267 302 267l114.967-41zM172.583 58.027s-20.818-1.245-18.385 13.249c0 0-.488 2.56 1.851 3.724 0 0 .039-1.087 2.137-.712.749.127 1.51.164 2.268.109a4.741 4.741 0 0 0 2.766-1.131s5.857-2.403 8.136-11.907c0 0 1.687-2.07 1.643-2.604l-3.528 1.49s1.2 2.517.258 4.61c0 0-.115-4.518-.795-4.414-.137 0-1.824.875-1.824.875s2.065 4.387.504 7.573c0 0 .592-5.404-1.15-7.258l-2.477 1.436s2.416 4.528.778 8.225c0 0 .422-5.67-1.298-7.878l-2.246 1.74s2.273 4.464.887 7.53c0 0-.18-6.6-1.37-7.1 0 0-1.966 1.718-2.262 2.424 0 0 1.556 3.262.586 4.953 0 0-.586-4.398-1.095-4.42 0 0-1.956 2.914-2.159 4.893a10.524 10.524 0 0 1 1.682-5.186 5.883 5.883 0 0 0-2.991 1.538s.301-2.06 3.479-2.24c0 0 1.616-2.212 2.049-2.343 0 0-3.161-.266-5.073.576 0 0 1.687-1.94 5.648-1.087l2.191-1.794s-4.152-.544-5.916.06c0 0 2.032-1.718 6.513-.468l2.416-1.43s-3.544-.755-5.653-.483c0 0 2.224-1.191 6.36.097l1.72-.766s-2.591-.506-3.353-.587c-.761-.082-.8-.288-.8-.288a9.109 9.109 0 0 1 4.876.543s3.698-1.32 3.627-1.55z"/>
        <path fill="#2691FD" fill-rule="nonzero" d="M469.61 119.027s-20.848-1.245-18.412 13.249c0 0-.488 2.56 1.854 3.724 0 0 .039-1.087 2.14-.712.75.124 1.512.161 2.271.109a4.735 4.735 0 0 0 2.743-1.131s5.87-2.403 8.147-11.907c0 0 1.69-2.07 1.646-2.604l-3.522 1.49s1.201 2.517.258 4.61c0 0-.115-4.518-.79-4.414-.137 0-1.833.875-1.833.875s2.069 4.387.51 7.573c0 0 .593-5.404-1.157-7.258l-2.48 1.436s2.42 4.528.78 8.225c0 0 .422-5.67-1.3-7.878l-2.245 1.74s2.272 4.464.884 7.53c0 0-.181-6.6-1.372-7.1 0 0-1.964 1.718-2.266 2.424 0 0 1.558 3.262.593 4.953 0 0-.593-4.398-1.098-4.42 0 0-1.958 2.914-2.161 4.893a10.482 10.482 0 0 1 1.69-5.186 5.922 5.922 0 0 0-3.001 1.538s.307-2.06 3.483-2.24c0 0 1.619-2.212 2.052-2.348 0 0-3.16-.261-5.08.581 0 0 1.69-1.94 5.656-1.087l2.195-1.794s-4.164-.544-5.925.06c0 0 2.03-1.718 6.523-.468l2.414-1.43s-3.55-.755-5.662-.483c0 0 2.227-1.191 6.37.097l1.728-.766s-2.6-.506-3.363-.587c-.763-.082-.801-.288-.801-.288a9.068 9.068 0 0 1 4.882.543s3.714-1.32 3.649-1.55zM208 149.455s-9.468-19.35-21.52-9.813c0 0-2.601.857-2.476 3.545 0 0 1-.513 1.716 1.561.267.734.62 1.434 1.052 2.086a4.923 4.923 0 0 0 2.452 1.916s5.186 4.047 15.071 1.285c0 0 2.762.468 3.213.141l-3.156-2.406s-1.715 2.35-4.105 2.559c0 0 4.094-2.385 3.654-2.937-.092-.113-1.716-1.2-1.716-1.2s-2.978 4.075-6.694 4.283c0 0 5.26-2.198 6.071-4.706l-2.572-1.5s-2.933 4.464-7.159 4.859c0 0 5.42-2.486 6.57-5.146l-2.733-1.127s-2.945 4.295-6.467 4.605c0 0 5.97-3.5 5.82-4.825 0 0-2.578-.89-3.378-.806 0 0-2.184 3.038-4.242 3.038 0 0 3.733-2.756 3.504-3.202 0 0-3.67-.281-5.603.564a11.268 11.268 0 0 1 5.62-1.127 6.165 6.165 0 0 0-2.938-1.911s2.046-.767 3.825 1.99c0 0 2.858.332 3.196.653 0 0-1.367-2.964-3.11-4.255 0 0 2.64.524 3.847 4.51l2.773 1.081s-1.595-4.013-3.065-5.281c0 0 2.608.953 3.745 5.636l2.539 1.443s-1.104-3.568-2.43-5.32c0 0 2.224 1.397 3.144 5.76l1.584 1.161s-.857-2.587-1.143-3.309c-.286-.721-.143-.868-.143-.868a9.182 9.182 0 0 1 1.99 4.65s3.058 2.582 3.264 2.413zM422 91.453s-9.462-19.347-21.52-9.812c0 0-2.596.857-2.476 3.545 0 0 1.006-.507 1.715 1.561a9.717 9.717 0 0 0 1.058 2.09 4.894 4.894 0 0 0 2.447 1.911s5.191 4.047 15.071 1.29c0 0 2.762.463 3.219.136l-3.139-2.412s-1.715 2.356-4.1 2.564c0 0 4.089-2.39 3.648-2.941-.091-.113-1.715-1.2-1.715-1.2s-2.973 4.074-6.695 4.282c0 0 5.266-2.198 6.078-4.7l-2.613-1.488s-2.927 4.458-7.158 4.858c0 0 5.42-2.49 6.575-5.15l-2.739-1.128s-2.944 4.3-6.46 4.604c0 0 5.963-3.5 5.814-4.818 0 0-2.573-.896-3.373-.806 0 0-2.184 3.032-4.248 3.032 0 0 3.739-2.756 3.51-3.2 0 0-3.67-.283-5.609.563a11.264 11.264 0 0 1 5.62-1.127 6.13 6.13 0 0 0-2.932-1.91s2.046-.767 3.825 1.989c0 0 2.858.338 3.196.659 0 0-1.367-2.97-3.116-4.26 0 0 2.641.53 3.847 4.536l2.78 1.082s-1.596-4.018-3.065-5.286c0 0 2.607.952 3.739 5.635l2.544 1.443s-1.11-3.561-2.436-5.32c0 0 2.23 1.398 3.145 5.76l1.584 1.16s-.852-2.586-1.144-3.307c-.291-.722-.143-.863-.143-.863a9.201 9.201 0 0 1 1.984 4.65s3.105 2.558 3.282 2.378zM452 185.456s-9.456-19.35-21.522-9.815c0 0-2.594.856-2.474 3.544 0 0 1.006-.507 1.714 1.56a9.711 9.711 0 0 0 1.051 2.091 4.891 4.891 0 0 0 2.446 1.91s5.187 4.052 15.066 1.29c0 0 2.753.468 3.21.136l-3.153-2.406s-1.714 2.355-4.102 2.564c0 0 4.085-2.39 3.645-2.942-.092-.112-1.714-1.2-1.714-1.2s-2.971 4.074-6.69 4.288c0 0 5.261-2.203 6.073-4.705l-2.577-1.499s-2.925 4.463-7.153 4.857c0 0 5.416-2.49 6.57-5.15l-2.736-1.127s-2.943 4.294-6.457 4.604c0 0 5.965-3.5 5.817-4.823 0 0-2.577-.896-3.377-.806 0 0-2.182 3.031-4.245 3.031 0 0 3.737-2.755 3.508-3.2 0 0-3.668-.282-5.605.563a11.285 11.285 0 0 1 5.622-1.127 6.115 6.115 0 0 0-2.936-1.91s2.045-.772 3.822 1.99c0 0 2.856.332 3.193.653 0 0-1.365-2.964-3.108-4.26 0 0 2.64.53 3.845 4.536l2.771 1.082s-1.594-4.018-3.062-5.28c0 0 2.605.947 3.737 5.635l2.542 1.437s-1.108-3.562-2.434-5.32c0 0 2.228 1.398 3.148 5.765l1.583 1.127s-.857-2.587-1.143-3.308c-.286-.721-.143-.862-.143-.862a9.147 9.147 0 0 1 1.983 4.649s3.108 2.597 3.285 2.428z" opacity=".1"/>
        <ellipse cx="112" cy="432.5" fill="#2691FD" fill-rule="nonzero" opacity=".1" rx="13" ry="1.5"/>
        <ellipse cx="28" cy="408.5" fill="#2691FD" fill-rule="nonzero" opacity=".1" rx="13" ry="1.5"/>
        <ellipse cx="176" cy="448.5" fill="#2691FD" fill-rule="nonzero" opacity=".1" rx="13" ry="1.5"/>
        <ellipse cx="503" cy="413.5" fill="#2691FD" fill-rule="nonzero" opacity=".1" rx="13" ry="1.5"/>
        <ellipse cx="398" cy="406.5" fill="#2691FD" fill-rule="nonzero" opacity=".1" rx="13" ry="1.5"/>
        <ellipse cx="328.5" cy="439.5" fill="#2691FD" fill-rule="nonzero" opacity=".1" rx="15.5" ry="2.5"/>
        <path fill="#2691FD" fill-rule="nonzero" d="M335.891 413s-21.995 10.76-10.631 23.433c0 0 1.069 2.75 4.16 2.557 0 0-.616-1.067 1.742-1.92.84-.307 1.637-.707 2.376-1.193a5.323 5.323 0 0 0 2.127-2.69s4.496-5.698 1.01-16.243c0 0 .454-2.981.059-3.465l-2.673 3.47s2.76 1.755 3.08 4.335c0 0-2.906-4.33-3.486-3.85-.128.098-1.325 1.897-1.325 1.897s4.787 3.075 5.141 7.068c0 0-2.695-5.594-5.606-6.391l-1.667 2.816s5.228 3.014 5.81 7.547c0 0-3.039-5.748-6.141-6.909l-1.226 2.976s5.043 3.036 5.507 6.81c0 0-4.217-6.31-5.734-6.111 0 0-.952 2.794-.825 3.657 0 0 3.562 2.256 3.626 4.472 0 0-3.289-3.932-3.794-3.674 0 0-.21 3.955.802 6.012 0 0-1.743-2.937-1.459-6.012a6.56 6.56 0 0 0-2.108 3.212s-.947-2.172 2.172-4.175c0 0 .297-3.074.657-3.454 0 0-3.376 1.562-4.81 3.476 0 0 .528-2.854 5.106-4.274l1.162-3.014s-4.578 1.837-5.99 3.455c0 0 1.017-2.833 6.35-4.192l1.58-2.75s-4.066 1.298-6.053 2.75c0 0 1.54-2.437 6.541-3.559l1.284-1.733s-2.951.996-3.776 1.354c-.825.357-.988.181-.988.181a10.97 10.97 0 0 1 5.293-2.277s2.91-3.405 2.707-3.592z"/>
        <path fill="url(#a)" fill-rule="nonzero" d="M297.141 235.38l-.595.194-.4.133-.767.756c-.612-.411-1.268-.845-1.952-1.29 1.206.073 2.446.145 3.714.206z"/>
        <path fill="#BE6F72" fill-rule="nonzero" d="M333 176.997s8.583 22.053 13.463 19.848c4.88-2.205 3.557-11.578 4.488-14.147.931-2.57 1.964-22.054 1.964-22.054s.47-13.783 1.402-16.573c.864-2.564 1.565-15.493 1.683-17.527v-.27l-.926-15.99-5.24-1.284-12.15 4.41-1.683 9.445-.656 3.689-.28 1.571L333 176.997z"/>
        <path fill="#000" fill-rule="nonzero" d="M335 173s8.39 6.647 10.92 7.231c2.528.585 4.08 5.769 4.08 5.769" opacity=".1"/>
        <path fill="#BE6F72" fill-rule="nonzero" d="M266 177.997s-8.583 22.053-13.463 19.848c-4.88-2.205-3.557-11.578-4.488-14.147-.931-2.57-1.964-22.054-1.964-22.054s-.47-13.783-1.402-16.573c-.864-2.564-1.565-15.493-1.683-17.527v-.27l.931-15.99 5.24-1.284 12.15 4.41 1.683 9.445.657 3.689.28 1.571L266 177.997z"/>
        <path fill="#3E373A" fill-rule="nonzero" d="M303 58h19v30h-19z"/>
        <path fill="#000" fill-rule="nonzero" d="M303 58h19v30h-19z" opacity=".1"/>
        <path fill="#4B4B5B" fill-rule="nonzero" d="M263.577 199.777s-6.433 7.166-4.046 8.467c2.387 1.301 17.826 25.69 17.826 25.69s50.71 6.328 60.272-3.166c9.564-9.495 9.371-26.456 9.371-26.456s-7.684 1.676-8.522.765c-.838-.91-5.44-5.3-5.44-5.3s-65.052-3.999-69.461 0z"/>
        <path fill="#000" fill-rule="nonzero" d="M263.577 199.777s-6.433 7.166-4.046 8.467c2.387 1.301 17.826 25.69 17.826 25.69s50.71 6.328 60.272-3.166c9.564-9.495 9.371-26.456 9.371-26.456s-7.684 1.676-8.522.765c-.838-.91-5.44-5.3-5.44-5.3s-65.052-3.999-69.461 0z" opacity=".02"/>
        <path fill="#BE6F72" fill-rule="nonzero" d="M354.984 108.947l-16.734 13.285-5.06.366-1.857.132-31.2 2.27-32.353-2.347-4.814-.349-6.136-.443L244 109.683s9.081-9.653 17.036-16.169c3.135-2.574 6.097-4.655 8.256-5.474l.368-.127a9.183 9.183 0 0 0 3.536-2.447c6.282-6.427 12.088-22.286 12.088-22.286s27.708-14.204 24.36 4.429c-3.346 18.632 12.457 14.026 12.457 14.026l5.21 2.358 2.058.936 5.25 2.386 11.842 5.391c9.293 4.246 8.523 16.241 8.523 16.241z"/>
        <circle cx="299" cy="54" r="25" fill="#000" fill-rule="nonzero" opacity=".1"/>
        <path fill="#000" fill-rule="nonzero" d="M354.464 128H243v-.273l.922-16.185s9.042-9.734 16.962-16.302l69.981-2.79L334.12 89l11.791 5.436c9.259 4.275 8.514 16.369 8.514 16.369s1.267 14.014.04 17.195z" opacity=".1"/>
        <path fill="#E7C7CA" fill-rule="nonzero" d="M354.464 127H243v-.273l.922-16.185s9.042-9.734 16.962-16.302l69.981-2.79L334.12 88l11.791 5.436c9.259 4.275 8.514 16.369 8.514 16.369s1.267 14.014.04 17.195z"/>
        <path fill="#000" fill-rule="nonzero" d="M280.934 81.822s17.561 22.261 40.953-.458c23.391-22.72 2.59 50.676 2.59 50.676L274 138l6.934-56.178z" opacity=".1"/>
        <path fill="#E7C7CA" fill-rule="nonzero" d="M280.934 82.822s17.561 22.261 40.953-.458c23.391-22.72 2.59 50.676 2.59 50.676L274 139l6.934-56.178z"/>
        <path fill="#000" fill-rule="nonzero" d="M328.96 85.92l1.867 28.466 2 9.472 1.528 7.244s3.901 55.719 2.786 58.505c-1.114 2.786.558 5.015.792 6.497.234 1.482-.234 5.204-.05 6.875.184 1.672 0 2.413-4.27 1.817-4.269-.596-10.221-1.633-10.221-1.633s-15.048 1.115-20.248-.74c-5.2-1.856-15.049-1.862-15.049-1.862s-14.864.374-19.69-.184c-4.827-.557-7.435 5.946-10.59 4.085-3.155-1.861 3.712-19.87 5.941-25.074 2.23-5.204-2.97-18.387-2.97-18.387l6.688-37.092 1.488-8.408V89.067l.368-.128a9.174 9.174 0 0 0 3.533-2.462l1.672 26.6 52.39 1.86V85" opacity=".1"/>
        <path fill="#E7C7CA" fill-rule="nonzero" d="M328.96 85.92l1.867 28.466 2 9.472 1.528 7.244s3.901 55.719 2.786 58.505c-1.114 2.786.558 5.015.792 6.497.234 1.482-.234 5.204-.05 6.875.184 1.672 0 2.413-4.27 1.817-4.269-.596-10.221-1.633-10.221-1.633s-15.048 1.115-20.248-.74c-5.2-1.856-15.049-1.862-15.049-1.862s-14.864.374-19.69-.184c-4.827-.557-7.435 5.946-10.59 4.085-3.155-1.861 3.712-19.87 5.941-25.074 2.23-5.204-2.97-18.387-2.97-18.387l6.688-37.092 1.488-8.408V89.067l.368-.128a9.174 9.174 0 0 0 3.533-2.462l1.672 26.6 52.39 1.86V85"/>
        <path fill="#3E373A" fill-rule="nonzero" d="M335.929 26.153c-.319-1.16-.76-2.365-1.675-3.142a6.878 6.878 0 0 0-2.948-1.199 58.55 58.55 0 0 0-7.75-1.476 12.302 12.302 0 0 0-1.674-3.458C316.41 9.197 308.315 1.954 298.79.317c-4.986-.86-10.764-.09-13.958 3.818-1.753 2.148-2.506 4.995-4.276 7.104-3.411 4.096-9.57 4.602-13.868 7.77-2.295 1.666-3.959 4.08-5.584 6.422-1.758 2.537-3.567 5.179-4.125 8.209-1.117 6.055 2.908 11.827 3.65 17.938 1.676 13.67-13.063 25.797-10.277 39.284 1.624 7.865 8.932 13.404 16.492 16.212 2.663.994 5.706 1.982 6.95 4.524.56 1.11.654 2.392 1.179 3.513 1.764 3.74 7.565 3.885 10.68 1.16 3.116-2.725 4.098-7.132 4.467-11.245 1.496-17.96-5.74-35.704-4.897-53.709.252-5.445 1.792-11.622 6.7-14.086 6.605-3.33 14.55 2.22 21.819 1.16a42.794 42.794 0 0 1 2.088 26.258c-1.156 4.79-3.155 9.435-3.3 14.375-.218 7.52 3.863 14.391 7.392 21.04a11.153 11.153 0 0 1 1.49 4.058 9.729 9.729 0 0 1-.798 4.245c-1.993 5.334-5.432 10.285-5.823 15.963a2.569 2.569 0 0 0 .419 1.898c.393.37.9.597 1.44.644 6.03 1.026 11.245-4.285 14.187-9.619a44.892 44.892 0 0 0 5.594-19.159c.609-11.3-3.467-22.417-3.216-33.728.29-12.86 6.136-25.809 2.714-38.213z"/>
        <path fill="#C3C7D9" fill-rule="nonzero" d="M323 272.266l22 .734-3.156-17-16.853 1.67z"/>
        <path fill="#4B4B5B" fill-rule="nonzero" d="M392.382 233.643c-1.497 1.86-7.29 5.214-7.852 6.332-.56 1.118-7.476 4.47-11.032 5.03-3.555.559-14.767 2.984-16.825 4.286-1.475.94-13.315 3.913-21.094 5.561-2.107.497-4.24.88-6.388 1.146-3.365.184-40.191-12.295-40.191-12.295l7.1-7.266.393-.134c2.008-.676 11.284-3.8 16.433-5.287 5.8-1.677 12.53-8.568 12.53-8.568s9.904-3.353 11.217-3.727c1.312-.375-3.365-13.04-3.365-13.04s21.497-2.972 29.91-5.493c8.413-2.52 27.858-1.587 31.408 8.288 3.55 9.876-.724 23.306-2.244 25.167z"/>
        <path fill="#E7C7CA" fill-rule="nonzero" d="M295 264.52s-4.253 4.419-8.51 4.054c-4.259-.364-19.148 1.105-19.148 1.105a29.886 29.886 0 0 0-7.5 4.326c-3.481 2.73-5.33.553-5.674.089l-.061-.089c-1.854 5.807-6.107 1.381-6.107 1.381s1.849-17.679 1.282-19.889c-.566-2.21 3.659-6.005 3.659-6.005l4.996-1.266L270.595 245l18.137 6.26L295 264.52z"/>
        <path fill="#000" fill-rule="nonzero" d="M258 248l-3.78 26.07-.061-.088c-1.87 5.852-6.159 1.392-6.159 1.392s1.865-17.819 1.293-20.046c-.57-2.227 3.69-6.053 3.69-6.053L258 248zM283 174s9.633 4.5 18 0M317 181s3.947 2.25 7 0M317 185.609s6.724 1.58 8-1.609M315 195s13.619-1.286 17-3M276 192s6.881 3.137 12 2.995M335.953 253.835a57.735 57.735 0 0 1-6.303 1.163c-3.32.187-39.65-12.485-39.65-12.485l7.005-7.377.387-.136c1.107.8 2.014 1.487 2.662 2.009 3.048 2.463 5.992-.755 7.099-.755 1.106 0 10.695 8.132 10.695 8.132s8.853 2.083 10.33 3.972c1.478 1.89 6.64 1.516 7.559 2.838.276.408.31 1.413.216 2.639z" opacity=".1"/>
        <path fill="#4B4B5B" fill-rule="nonzero" d="M267.5 206.535s-8.99.513-14.174-1.657c-5.184-2.17-22.407-7.178-27.408-3.66-5 3.516-17.04 6.625-11.484 20.617 5.556 13.992 8.15 14.356 8.15 14.356a19.989 19.989 0 0 1 4.445 4.583c1.667 2.58 17.224 8.465 21.113 8.465 3.89 0 10.74 0 20.369 6.626s18.335 7.366 18.335 7.366 12.223 4.97 16.03 6.074c3.805 1.104 21.196 5.886 25.274 4.417 4.078-1.469 6.667-10.679 6.667-10.679s1.85-8.282.923-9.569c-.928-1.286-6.112-.922-7.59-2.76-1.478-1.84-10.373-3.866-10.373-3.866s-9.607-7.918-10.718-7.918c-1.111 0-4.067 3.125-7.128.735a162.758 162.758 0 0 0-19.174-12.148c-7.034-3.683-13.257-20.982-13.257-20.982z"/>
        <path fill="#000" fill-rule="nonzero" d="M249 211.219c3.3-.675 6.727.23 9.263 2.446C262.785 217.434 278 225 278 225M360 211s-20.224 2.97-24 7" opacity=".1"/>
        <path fill="#E7C7CA" fill-rule="nonzero" d="M382.978 272.753h-.873c-3.136-.11-13.763-.444-15.81 0-2.408.555-34.295 0-34.295 0l6.234-1.293s-2.313-8.093-.845-8.764c0 0-8.342-5.485-2.052-9.187 6.29-3.702 13.068-2.142 13.068-2.142l15.788-5.34 3.03-1.027s17.796.927 22.612 13.138c4.816 12.212-6.857 14.615-6.857 14.615z"/>
        <path fill="#000" fill-rule="nonzero" d="M383.22 273h-.847c5.021-4.305 16.38-17.411-17.373-26.963l2.94-1.037s17.26.936 21.93 13.268c4.671 12.333-6.65 14.732-6.65 14.732z" opacity=".1"/>
        <circle cx="351" cy="257" r="1" fill="#4B4B5B" fill-rule="nonzero"/>
        <circle cx="344" cy="259" r="1" fill="#4B4B5B" fill-rule="nonzero"/>
        <g fill="#000" fill-rule="nonzero" opacity=".1">
            <path d="M316.585 53.686a42.82 42.82 0 0 0-3.18-17.772c-7.204 1.073-15.095-4.473-21.656-1.156-4.854 2.455-6.378 8.61-6.65 14.034a65.345 65.345 0 0 0-.05 4.296c0-.508 0-1.023.05-1.531.255-5.425 1.779-11.579 6.65-14.034 6.56-3.318 14.44 2.212 21.656 1.156a42.707 42.707 0 0 1 3.18 15.007zM260.761 52.674c.095-1.205.071-2.416-.072-3.617-.587-4.865-3.252-9.516-3.735-14.26-.62 5.723 3.032 11.22 3.735 17.025.072.299.072.564.072.852zM289.959 102.295c-.344 4.102-1.313 8.487-4.433 11.208-3.12 2.72-8.866 2.57-10.6-1.156-.555-1.106-.638-2.394-1.176-3.5-1.23-2.533-4.255-3.517-6.899-4.507-7.508-2.803-14.75-8.294-16.363-16.15a16.93 16.93 0 0 1-.294-2.157 17.392 17.392 0 0 0 .294 4.92c1.612 7.836 8.866 13.349 16.363 16.152 2.644.99 5.67 1.974 6.9 4.507.554 1.106.648 2.383 1.174 3.5 1.746 3.727 7.503 3.87 10.6 1.155 3.099-2.715 4.063-7.105 4.434-11.208a63.06 63.06 0 0 0 .172-6.491 46.11 46.11 0 0 1-.172 3.727zM332.76 61.792v2.394c.311-10.285 4.09-20.625 3.72-30.694-.289 9.312-3.509 18.833-3.72 28.3zM320.869 103.395c.136-.656.18-1.328.127-1.996a11.044 11.044 0 0 0-1.48-4.042c-3.202-6.083-6.854-12.309-7.286-19.06 0 .287-.039.553-.044.863-.222 7.486 3.829 14.337 7.33 20.962a13.255 13.255 0 0 1 1.353 3.273zM335.947 95.394a44.92 44.92 0 0 1-5.591 19.087c-2.926 5.314-8.096 10.606-14.086 9.583a2.357 2.357 0 0 1-1.43-.647 1.382 1.382 0 0 1-.26-.431 16.92 16.92 0 0 0-.156 1.31 2.545 2.545 0 0 0 .416 1.886c.388.372.893.6 1.43.647 5.99 1.023 11.16-4.27 14.086-9.583a44.92 44.92 0 0 0 5.591-19.087c.067-1.294.072-2.583.033-3.871-.01.37-.01.735-.033 1.106z"/>
        </g>
        <path stroke="#000" d="M337 262.59s14.463 6.257 24-7.59M340 273s11.434-6.603 26-.216M264 272s4.632-11.447 17-2.719" opacity=".1"/>
        <path fill="#000" fill-rule="nonzero" d="M248 109.909l9.88-8.921s38.308-2.51 39.893 10.499c0 0 13.58-15.423 42.142-11.988L352 109.112l-33.401 14.642L286.14 135l-23.906-10.689L248 109.91z" opacity=".1"/>
        <path fill="#D5D6DB" fill-rule="nonzero" d="M248 110.909l9.88-8.921s38.308-2.51 39.893 10.499c0 0 13.58-15.423 42.142-11.988L352 110.112l-33.401 14.642L286.14 136l-23.906-10.689L248 110.91z"/>
        <path fill="#000" fill-rule="nonzero" d="M243 111l4.396 52.656L294 166l-2.021-52.431-.04-.883z" opacity=".1"/>
        <path fill="#2691FD" fill-rule="nonzero" d="M243 111l4.396 52.656L294 166l-2.021-52.431-.04-.883z"/>
        <path fill="#000" fill-rule="nonzero" d="M354 111l-48 7.085V170l46.907-6.67z" opacity=".1"/>
        <path fill="#2691FD" fill-rule="nonzero" d="M354 110l-48 7.085V169l46.907-6.67z"/>
        <path fill="#FFF" fill-rule="nonzero" d="M343 123l-26 2.951.568 9.049 25.415-2.836z" opacity=".3"/>
        <path fill="#BE6F72" fill-rule="nonzero" d="M250.112 190.913l2.605 6.974s3.872 3.302 8.11 1.65c4.237-1.65 7.932-2.47 9.774-4.078 1.842-1.607 4.425-9.68 4.425-9.68s2.583-8.807 5.16-11.008c2.578-2.202 9.404-32.534 0-29.567-9.403 2.967-16.594 30.486-16.594 30.486s-1.66 2.014-4.055 2.201c-2.395.187-7.19-.369-8.114 1.651-.924 2.02-4.077 7.337-1.311 11.371z"/>
        <path fill="#000" fill-rule="nonzero" d="M306 118.482A16.084 16.084 0 0 1 292 115l2.013 51.877s4.739 5.118 11.987 3.95v-52.345z" opacity=".1"/>
        <path fill="#2691FD" fill-rule="nonzero" d="M306 116.482A16.084 16.084 0 0 1 292 113l2.013 51.877s4.739 5.118 11.987 3.95v-52.345z"/>
        <path fill="#000" fill-rule="nonzero" d="M306 116.482A16.084 16.084 0 0 1 292 113l2.013 51.877s4.739 5.118 11.987 3.95v-52.345zM307 110s19.037-5.729 24-4.922M285 109s-18.85-3.912-22-2.802M319 112s12.486-4.596 17-2.41M313 231a42.907 42.907 0 0 1 6.45-4.07c3.37-1.65 9.55-5.93 9.55-5.93M264 174s-8.397 6.647-10.92 7.231C250.557 181.816 249 187 249 187" opacity=".1"/>
        <path fill="#BE6F72" fill-rule="nonzero" d="M348.883 189.897l-2.579 6.99s-3.873 3.302-8.118 1.65c-4.245-1.65-7.93-2.47-9.779-4.078-1.848-1.607-4.427-9.68-4.427-9.68s-2.579-8.807-5.163-11.008c-2.585-2.202-9.408-32.534 0-29.567 9.408 2.967 16.602 30.486 16.602 30.486s1.66 2.014 4.056 2.201c2.397.187 7.195-.369 8.119 1.651.924 2.02 4.056 7.337 1.29 11.355z"/>
        <path fill="#000" fill-rule="nonzero" d="M344 178s5.021 3.188 5 7" opacity=".1"/>
        <circle cx="299" cy="53" r="25" fill="#BE6F72" fill-rule="nonzero"/>
        <path fill="#3E373A" fill-rule="nonzero" d="M283.26 46.92c3.003-.468 5.636-2.201 8.507-3.198 6.424-2.24 13.529-.704 20.03 1.316 2.494.776 5.027 1.65 7.643 1.65 2.616 0 5.393-1.061 6.729-3.301 1.23-2.059.992-4.734-.045-6.897-1.036-2.163-2.77-3.902-4.522-5.542-5.764-5.405-12.914-10.457-20.823-9.907-3.181.226-6.224 1.354-9.15 2.603a101.152 101.152 0 0 0-10.742 5.372c-2.666 1.536-7.604 3.589-9.14 6.396-3.491 6.323 6.08 12.356 11.512 11.508z"/>
        <path fill="#000" fill-rule="nonzero" d="M326.166 40.517c-1.336 2.32-4.112 3.421-6.728 3.421-2.616 0-5.149-.872-7.648-1.676-6.5-2.093-13.6-3.69-20.028-1.363-2.866 1.032-5.503 2.851-8.507 3.307-4.378.708-11.428-3.216-12.192-8.206-.86 5.766 7.315 10.704 12.192 9.917 3.004-.485 5.641-2.28 8.507-3.307 6.428-2.327 13.527-.73 20.028 1.363 2.5.804 5.027 1.71 7.648 1.676 2.621-.034 5.392-1.095 6.728-3.422a6.842 6.842 0 0 0 .776-4.168 6.273 6.273 0 0 1-.776 2.458z" opacity=".1"/>
        <path fill="#2691FD" fill-rule="nonzero" d="M528.368 343s3.404 4.168-1.573 10.465-9.076 11.61-7.423 15.535c0 0 7.509-11.69 13.617-11.857 6.108-.167 2.09-7.115-4.621-14.143z"/>
        <path fill="#000" fill-rule="nonzero" d="M528.28 342c.3.418.536.874.702 1.356 6.028 6.807 9.245 13.162 3.444 13.319-5.4.15-11.876 9.43-13.426 11.767.05.189.11.375.18.558 0 0 7.595-12.13 13.774-12.303 6.179-.173 2.114-7.404-4.675-14.697z" opacity=".1"/>
        <path fill="#FFD037" fill-rule="nonzero" d="M534 346.783c0 1.225-.226 2.217-.496 2.217s-.504-.992-.504-2.217.277-.646.555-.646c.277 0 .445-.58.445.646zM536.288 350.024c-1.17.691-2.194 1.112-2.282.936-.088-.175.788-.883 1.958-1.596 1.17-.713.71-.192.798 0 .089.191.7-.037-.474.66z"/>
        <path fill="#2691FD" fill-rule="nonzero" d="M510.635 343s-3.404 4.168 1.573 10.465c4.978 6.297 9.076 11.61 7.417 15.535 0 0-7.503-11.69-13.617-11.857-6.114-.167-2.066-7.115 4.627-14.143z"/>
        <path fill="#000" fill-rule="nonzero" d="M510.722 342c-.3.418-.536.874-.703 1.356-6.026 6.807-9.243 13.162-3.442 13.319 5.393.15 11.873 9.43 13.423 11.767-.049.19-.11.376-.186.558 0 0-7.588-12.13-13.772-12.303-6.183-.173-2.09-7.404 4.68-14.697z" opacity=".1"/>
        <path fill="#FFD037" fill-rule="nonzero" d="M504 346.783c0 1.225.219 2.217.496 2.217.278 0 .504-.992.504-2.217s-.285-.646-.555-.646c-.27 0-.445-.58-.445.646zM502.712 350.024c1.17.691 2.194 1.112 2.282.936.088-.175-.788-.883-1.958-1.596-1.17-.713-.71-.192-.798 0-.089.191-.7-.037.474.66z"/>
        <ellipse cx="519.5" cy="396" fill="#2691FD" fill-rule="nonzero" opacity=".1" rx="34.5" ry="5"/>
        <path fill="#65617D" fill-rule="nonzero" d="M536.993 363.029l-.17 1.356-.236 1.917-.096.802-.237 1.917-.101.801-.232 1.911-2.678 21.803c-.236 1.945-3.433 3.464-7.295 3.464h-13.897c-3.862 0-7.053-1.519-7.295-3.464l-2.678-21.803-.237-1.911-.096-.801-.236-1.917-.102-.802-.231-1.917-.17-1.356c-.129-1.121 1.596-2.029 3.784-2.029h28.425c2.182 0 3.913.925 3.778 2.029z"/>
        <path fill="#9D9CB5" fill-rule="nonzero" d="M537 364l-.233 2h-35.528l-.239-2zM537 367l-.231 2h-34.532l-.237-2zM536 370l-.235 2H502.23l-.229-2z"/>
    </g>
</svg>
