<svg xmlns="http://www.w3.org/2000/svg" width="470" height="341" viewBox="0 0 470 341">
    <g fill="none" fill-rule="evenodd">
        <circle cx="201.5" cy="159.5" r="159.5" fill="#F2F2F2" fill-rule="nonzero"/>
        <ellipse cx="63.5" cy="331" fill="#F2F2F2" fill-rule="nonzero" rx="63.5" ry="10"/>
        <ellipse cx="372" cy="314.5" fill="#F2F2F2" fill-rule="nonzero" rx="98" ry="15.5"/>
        <path fill="#2F2E41" fill-rule="nonzero" d="M350.036 164s.832 2.785-3.88 5.29c-4.71 2.507-6.097 11.975-.554 14.76 5.543 2.784 7.205 6.404 4.434 8.91-2.771 2.507-7.76 9.19-1.108 10.86 6.65 1.672 7.482 5.013 5.542 6.406-1.94 1.392 4.434-2.507 4.434-2.507s1.109 6.684 6.928 5.013c5.82-1.67 22.17-33.416 13.857-37.872-8.314-4.455-29.653-10.86-29.653-10.86z"/>
        <path fill="#FFB9B9" fill-rule="nonzero" d="M360.673 191.037s2.846 10.202-2.135 10.931a19.2 19.2 0 0 0-8.538 3.644L359.25 218h17.077L387 207.07s-14.23-10.932-11.385-17.49c2.847-6.559-14.942 1.457-14.942 1.457z"/>
        <path fill="#000" fill-rule="nonzero" d="M360.673 191.037s2.846 10.202-2.135 10.931a19.2 19.2 0 0 0-8.538 3.644L359.25 218h17.077L387 207.07s-14.23-10.932-11.385-17.49c2.847-6.559-14.942 1.457-14.942 1.457z" opacity=".1"/>
        <path fill="#FFB9B9" fill-rule="nonzero" d="M365 316.56l16.513 5.725L393 323l-.718-10.017L368.59 306z"/>
        <path fill="#575A89" fill-rule="nonzero" d="M386 314.56s0 10.074 1.428 10.074 20.706-2.159 26.418 0 14.28-5.757 9.996-10.074c-4.284-4.318-11.272-10.795-15.632-9.355-4.36 1.439-22.21 5.037-22.21 5.037v4.318zM332.925 305s-8.755 17.096-2.919 18.52c5.837 1.425 12.403-.712 13.132-1.424.73-.712 10.944-3.562 12.403-2.137C357 321.384 357 314.26 357 314.26L332.925 305z"/>
        <path fill="#2F2E41" fill-rule="nonzero" d="M340.317 281s-13.702 19.033-3.606 24.157c10.097 5.124 58.416 5.124 62.021 0 3.606-5.124 5.049-21.229 0-22.693C393.684 281 340.317 281 340.317 281z"/>
        <path fill="#000" fill-rule="nonzero" d="M340.317 281s-13.702 19.033-3.606 24.157c10.097 5.124 58.416 5.124 62.021 0 3.606-5.124 5.049-21.229 0-22.693C393.684 281 340.317 281 340.317 281z" opacity=".2"/>
        <circle cx="366.5" cy="179.5" r="16.5" fill="#FFB9B9" fill-rule="nonzero"/>
        <path fill="#2691FD" fill-rule="nonzero" d="M340 205.88l14.318-2.88s3.58 11.52 15.034 9.36c11.455-2.16 14.318-9.36 14.318-9.36s8.591 3.6 9.307 3.6c.716 0 10.023 3.6 10.023 5.76 0 2.16-10.739 23.76-10.739 23.76l1.432 38.88-52.977-1.44 3.58-38.16L340 205.88z"/>
        <path fill="#FFB9B9" fill-rule="nonzero" d="M332.368 224s-4.21 38.278-1.403 41.167C333.772 268.056 345 276 345 276v-8.667l-5.614-10.833L345 231.222 332.368 224zM407 223s-2.561 39.107-2.561 40.542c0 1.435-6.585 6.458-8.78 6.458-2.196 0-3.659-3.588-3.659-3.588l5.122-5.74-3.659-29.42L407 223z"/>
        <path fill="#2F2E41" fill-rule="nonzero" d="M399.67 278.043s32.584-18.097 33.308 0c.724 18.098-16.654 25.337-16.654 25.337s-44.895 13.458-46.705 8.538c-1.81-4.919-5.43-12.882-2.534-13.606 2.896-.724 6.517-2.171 7.965-.724 1.448 1.448 19.55-10.858 19.55-10.858l5.07-8.687z"/>
        <path stroke="#000" stroke-width="2" d="M415 276s-6.429 2.933-8.571 5.133C404.286 283.333 395 287 395 287" opacity=".2"/>
        <path fill="#2691FD" fill-rule="nonzero" d="M344.119 207.429L339.796 206s-15.848 16.429-10.805 20.714c5.042 4.286 7.924 5.715 9.365 7.143C339.796 235.286 347 236 347 236l-2.881-28.571zM396.92 211l6.377 1.429s4.96 10.714 6.378 12.142c1.417 1.429-2.126.715-4.252 3.572S401.172 236 396.92 236c-4.251 0-9.92-7.143-9.92-7.143L396.92 211z"/>
        <path fill="#2F2E41" fill-rule="nonzero" d="M341.972 284.397s-27.42-19.525-36.8-5.062c-9.38 14.463 40.408 33.987 47.624 36.88a445.504 445.504 0 0 1 13.71 5.785S373 306.091 373 303.198c0-2.892-5.051-2.892-6.494-2.892-1.443 0-7.937-1.446-9.38-3.616-1.444-2.17-15.154-12.293-15.154-12.293z"/>
        <path stroke="#000" stroke-width="2" d="M327 280s7.097 5.647 13.484 7.059S349 292 349 292" opacity=".2"/>
        <path fill="#575A89" fill-rule="nonzero" d="M337 252.876l.579 30.391c.04 2.09 1.771 3.756 3.878 3.733l57.02-.636c2.015-.022 3.67-1.589 3.786-3.585l1.73-29.755a3.786 3.786 0 0 0-1.04-2.831 3.85 3.85 0 0 0-2.789-1.193h-59.328c-1.03 0-2.017.41-2.738 1.14a3.788 3.788 0 0 0-1.097 2.736z"/>
        <path fill="#2F2E41" fill-rule="nonzero" d="M366.837 159s.915 3.069-4.266 5.83c-5.181 2.763-6.705 13.197-.61 16.266 6.096 3.068 7.924 7.058 4.876 9.82-3.047 2.762-8.533 10.127-1.219 11.968 7.315 1.842 8.229 5.524 6.096 7.059-2.134 1.534 4.876-2.762 4.876-2.762s1.219 7.365 7.619 5.523c6.4-1.84 12.786-35.311 5.651-43.932-6.633-8.016-23.023-9.772-23.023-9.772z"/>
        <path fill="#2F2E41" fill-rule="nonzero" d="M365 156.103c.001-4.511 13.552-1.27 19.362 5.03 4.023 4.362 10.134 10.925 5.014 15.55-5.121 4.627 8.777 10.69 12.504 12.53 3.728 1.838 11.087 7.46 4.442 11.233-6.645 3.772-6.538 7.58-4.037 8.48 2.5.902-5.514-1.34-5.514-1.34s.81 7.45-5.942 7.414c-6.752-.036-26.124-36.998-21.496-47.272 4.303-9.553-4.333-11.625-4.333-11.625z"/>
        <path fill="#2F2E41" fill-rule="nonzero" d="M367.806 155.063c-18-1.102-19.806 12.665-19.806 12.665.124 7.966 12.576 4.084 16.034 5.272 4.172-3.05 12.214-8.82 17.966-12.937a26.925 26.925 0 0 0-14.194-5z"/>
        <path stroke="#3F3D56" stroke-width="2" d="M363 241s-16.255-75.924-118-131"/>
        <path fill="#3F3D56" fill-rule="nonzero" d="M249.805 109l.195.818-3.945.977 1.243 3.948-.785.257-1.513-4.809z"/>
        <path fill="#2691FD" fill-rule="nonzero" d="M30 318.96c0 9.665-5.82 13.04-13 13.04a22.63 22.63 0 0 1-1.486-.05C9.034 331.497 4 327.949 4 318.96c0-9.302 12.042-21.04 12.946-21.908l.002-.002L17 297s13 12.295 13 21.96z"/>
        <path fill="#3F3D56" fill-rule="nonzero" d="M16.273 330.527l4.799-6.56-4.81 7.28-.013.753a21.882 21.882 0 0 1-.997-.045l.517-9.67-.004-.076.009-.014.049-.913L11 313.984l4.838 6.613.01.194.392-7.308-4.129-7.54 4.18 6.258.406-15.15.002-.051v.05l-.068 11.946 4.11-4.736-4.127 5.765-.109 6.543 3.838-6.28-3.854 7.242-.06 3.637L22 312.428l-5.592 10.009-.135 8.09z"/>
        <path fill="#2F2E41" fill-rule="nonzero" d="M89.557 316.009L92.262 314s1.79 9.998-.207 11.496c-1.998 1.498-9.491 3.994-9.491 6.99s-16.984 6.99-17.484 2.497c-.5-4.494 1.499-6.99 1.499-6.99s7.992-7.99 8.991-9.488c1-1.498 3.497-4.493 3.497-4.493l10.49 1.997z"/>
        <path fill="#2F2E41" fill-rule="nonzero" d="M50 190.556s.075.445.205 1.258c.12.723.286 1.743.486 3 2.105 12.947 8.243 51.06 7.827 52.317-.501 1.516-4.009 7.072 0 8.587.386.147.801.622 1.247 1.37.861 1.61 1.57 3.297 2.12 5.04 2.39 6.991 4.945 18.18 6.423 25.929.647 3.404 1.087 6.142 1.218 7.577.045.331.05.667.015 1-.501 2.02 3.006 9.092 4.51 11.113 1.502 2.02 4.008 4.04 3.506 6.061-.5 2.02 12.527 7.577 14.03 4.041 1.503-3.535 1.503-5.556 2.004-6.566.5-1.01 1.002-8.082-1.503-9.093-2.505-1.01-1.002-18.69-3.508-22.225-.836-1.177-2.114-5.163-3.452-9.957-.526-1.879-1.057-3.879-1.578-5.884-2.114-8.219-3.988-16.488-3.988-16.488l.5-59.1L52.506 185l-.706 1.571-1.408 3.117-.391.868zM48.551 287.778s-3.962-4-5.944 0c-1.981 4-3.963 19.499-7.43 22.999-3.467 3.5-7.925 21-2.972 22 4.953.999 10.402-1.5 10.897-4.5.496-3 10.898-18.5 10.898-20s-6.935-7-6.935-7l1.486-13.5z"/>
        <path fill="#2F2E41" fill-rule="nonzero" d="M110 163.386s-6.586 59.041-8.106 64.592c-1.52 5.55-9.626 26.745-12.16 30.277-2.532 3.533-18.745 32.296-20.771 33.81-2.027 1.514-6.08 5.551-6.08 5.551s-7.6 7.57-8.612 9.083c-1.014 1.514-9.626-3.027-10.133-6.055-.507-3.028.507-8.074 1.013-10.093.507-2.018-1.013-5.046.507-6.56 1.52-1.514 9.12-9.083 9.12-12.615 0-3.533 13.172-24.222 18.238-28.764 5.066-4.542 4.053-12.111 4.053-12.111v-30.782l-27.865-8.579s1.52-24.222 5.067-24.222c3.546 0 50.156-8.074 55.729-3.532z"/>
        <circle cx="69.5" cy="62.5" r="16.5" fill="#9F616A" fill-rule="nonzero"/>
        <path fill="#9F616A" fill-rule="nonzero" d="M75.05 75.654s2.005 7.623 4.51 9.656c2.506 2.033-6.515 10.674-6.515 10.674L56.007 97 53 87.343s5.513-11.181 4.01-18.296c-1.504-7.116 18.04 6.607 18.04 6.607z"/>
        <path fill="#2691FD" fill-rule="nonzero" d="M82.23 84s-4.533.506-5.54 2.023c-1.007 1.517-8.057 6.068-13.597 5.057-5.54-1.012-9.064-2.529-10.072-2.023-1.007.505-3.021 11.125-3.021 11.125l5.54 16.182-1.008 44.5L53.022 173s-3.022-4.045 9.064-1.517 27.697-2.023 32.733-2.528c5.036-.506 13.597-2.023 14.1-5.057.504-3.034-1.51-14.16-1.51-14.16l-8.058-33.88-5.036-18.205L82.23 84z"/>
        <path fill="#D0CDE1" fill-rule="nonzero" d="M77 82.08s4.31-2.258 5.839-.244c1.529 2.013 20.892 5.034 20.892 6.544 0 1.51 4.076 42.29 3.057 45.814-1.02 3.524 2.038 7.552 2.038 7.552l3.567 15.103s9.682 28.697 5.605 29.703c-4.076 1.007-7.643 0-9.172 0-1.528 0-1.019-19.13-5.095-24.165-4.077-5.034-9.682-17.62-10.701-20.138-1.02-2.517-13.758-37.255-13.248-41.282C80.292 96.939 77 82.08 77 82.08zM56.2 84s-4.038 0-4.542 1.006c-.505 1.007-5.553 7.547-7.572 9.057-2.02 1.51-9.086 8.05-9.086 9.56 0 1.509 14.639 12.578 14.639 12.578s6.057 29.686 3.028 39.748c-3.028 10.063-7.571 34.214-5.552 35.724 2.019 1.509 6.562 2.012 6.562 0 0-2.013 3.028-23.648 5.552-28.176 2.524-4.529 10.096-33.208 7.067-41.258C63.267 114.189 56.201 84 56.201 84z"/>
        <path fill="#9F616A" fill-rule="nonzero" d="M122.988 134s.507 15.691-5.069 23.79c-5.575 8.099-9.123 17.21-9.123 17.21s-9.124-2.53-10.645-5.568c-1.52-3.037-11.151-.506-11.151-1.518 0-1.013 11.658-6.074 12.672-7.087 1.014-1.012 4.562-1.012 6.59-3.037 2.027-2.025 2.534-6.58 2.534-6.58l2.027-13.16 12.165-4.05z"/>
        <path fill="#2F2E41" fill-rule="nonzero" d="M80.955 52.365c1.264-.114 2.567-.24 3.684-.843 2.502-1.35 3.166-5.194 1.26-7.306a9.438 9.438 0 0 0-1.749-1.407l-3.783-2.576c-1.674-1.14-3.387-2.298-5.338-2.835-1.766-.485-3.63-.436-5.457-.322-3.548.22-7.117.676-10.453 1.901-3.337 1.225-6.45 3.275-8.47 6.2-3.203 4.636-3.247 10.89-1.483 16.242C50.93 66.772 54.282 71.433 57.584 76l1.714-8.363c.152-.745.35-1.562.97-2.003 1.538-1.095 3.421 1.155 5.31 1.14 1.215-.01 2.234-1.008 2.694-2.132.46-1.124.49-2.368.596-3.578.226-2.562 1.121-6.127 3.547-7.54 2.26-1.317 6-.928 8.54-1.159z"/>
        <path fill="#000" fill-rule="nonzero" d="M80 191.155s-1.617 49.299-2.574 50.813c-.958 1.514 0-50.968 0-50.968l2.574.155z" opacity=".1"/>
        <path fill="#D0CDE1" fill-rule="nonzero" d="M100 88h4.033s17.139 23.219 15.123 24.733c-2.017 1.515 0 5.553 0 5.553l4.032 7.571s5.041 4.543 3.529 5.553c-1.512 1.009-3.529 5.047-3.529 5.047s-10.082-1.514-13.106 4.543l-6.538-8.265L100 88z"/>
        <path fill="#2F2E41" fill-rule="nonzero" d="M87.305 101.378l13.835-5.708 10.647 25.761-13.835 5.708z"/>
        <ellipse cx="98.469" cy="108.239" fill="#2691FD" fill-rule="nonzero" rx="2.993" ry="2.748" transform="rotate(-22.438 98.47 108.239)"/>
        <path fill="#9F616A" fill-rule="nonzero" d="M90.165 128.568s-36.442 30.098-42.515 20.567c-6.074-9.531 6.58-17.558 6.58-17.558s11.134.502 23.788-7.524l12.653-5.518s11.552-16.346 15.488-10.121c3.937 6.224-6.72 17.057-15.994 20.154z"/>
        <path fill="#D0CDE1" fill-rule="nonzero" d="M40.48 102l-5.486 1.995v14.958L33 121.945s.499 5.984 1.994 7.48c1.496 1.495 4.488.997 3.49 4.487a18.9 18.9 0 0 0-.498 6.98s8.975 11.47 9.474 9.973c.498-1.495 7.479-19.945 8.476-19.945.997 0-9.972-28.92-9.972-28.92h-5.485z"/>
        <path fill="#2F2E41" fill-rule="nonzero" d="M106.677 178s5.192-5.174 2.596-5.432c-2.596-.259-11.636-5.433-13.143-2.846-1.506 2.587 10.547 8.278 10.547 8.278z"/>
        <ellipse cx="206.5" cy="78" fill="#57B894" fill-rule="nonzero" rx="7.5" ry="4"/>
        <path stroke="#3F3D56" stroke-width="2" d="M234 91c-16.333-6.262-32.667-6.262-49 0V70.67a83.597 83.597 0 0 1 49 0V91z"/>
        <path stroke="#3F3D56" stroke-width="2" d="M227 87c-11.667-4.436-23.333-4.436-35 0V72.6a60.192 60.192 0 0 1 35 0V87z"/>
        <ellipse cx="208.5" cy="76" stroke="#3F3D56" stroke-width="2" rx="7.5" ry="4"/>
        <ellipse cx="210.709" cy="102.362" fill="#57B894" fill-rule="nonzero" rx="7.27" ry="3.846" transform="rotate(-11.535 210.709 102.362)"/>
        <path stroke="#3F3D56" stroke-width="2" d="M240 109.128c-17.232-2.799-33.23.492-47.996 9.872L188 99.231a84.233 84.233 0 0 1 47.996-9.872L240 109.128z"/>
        <path stroke="#3F3D56" stroke-width="2" d="M233 106.76c-12.593-2.052-24.284.361-35.074 7.24L195 99.503a61.375 61.375 0 0 1 35.074-7.24L233 106.76z"/>
        <ellipse cx="212.881" cy="100.175" stroke="#3F3D56" stroke-width="2" rx="7.27" ry="3.846" transform="rotate(-11.535 212.881 100.175)"/>
        <ellipse cx="209.201" cy="126.266" fill="#57B894" fill-rule="nonzero" rx="3.846" ry="7.27" transform="rotate(-86.019 209.201 126.266)"/>
        <path stroke="#3F3D56" stroke-width="2" d="M235.617 141c-15.78-7.433-31.985-8.59-48.617-3.47l1.383-20.377a82.369 82.369 0 0 1 48.617 3.47L235.617 141z"/>
        <path stroke="#3F3D56" stroke-width="2" d="M229.004 136c-11.361-5.146-23.03-5.947-35.004-2.402l.996-14.107A61.54 61.54 0 0 1 230 121.893L229.004 136z"/>
        <ellipse cx="211.88" cy="124.739" stroke="#3F3D56" stroke-width="2" rx="3.846" ry="7.27" transform="rotate(-86.019 211.88 124.739)"/>
        <path stroke="#3F3D56" stroke-width="2" d="M178 91.705s-31.503-4.513-54 9.295"/>
        <path fill="#3F3D56" fill-rule="nonzero" d="M124.494 96l.786.255-1.228 3.96 3.948.965-.192.82-4.808-1.176z"/>
    </g>
</svg>
