<svg xmlns="http://www.w3.org/2000/svg" width="383" height="471" viewBox="0 0 383 471">
    <defs>
        <linearGradient id="a" x1="50.004%" x2="50.004%" y1="100.01%" y2="-.001%">
            <stop offset="0%" stop-color="gray" stop-opacity=".25"/>
            <stop offset="54%" stop-color="gray" stop-opacity=".12"/>
            <stop offset="100%" stop-color="gray" stop-opacity=".1"/>
        </linearGradient>
    </defs>
    <g fill="none" fill-rule="evenodd" transform="rotate(12 121.4 127.1)">
        <path stroke="#444053" d="M159.732 103c-4.402 1.706-9.372 4.03-10.515 8.607a10.532 10.532 0 0 0 .277 5.316 17.543 17.543 0 0 0 8.452 10.504c5.055 2.717 11.332 2.866 15.946 6.247a13.737 13.737 0 0 1 5.358 8.622c.25 1.446.271 2.95.803 4.322 1.42 3.674 5.884 5.104 9.818 5.316 1.892.112 3.965.117 5.41 1.345a7.804 7.804 0 0 1 1.457 1.871c3.062 4.886 6.23 10.101 6.262 15.88 0 4.529-1.914 8.835-4.151 12.758-2.919 5.12-6.507 10.148-7.176 16.001-.787 6.911 2.657 13.578 3.104 20.504A24.455 24.455 0 0 1 186.59 240"/>
        <path fill="#2691FD" fill-rule="nonzero" d="M142.455 42.71c3.419 24.8 2.838 55.989-19.518 59.046-22.356 3.057-58.016-23.179-61.456-47.974-3.44-24.796 11.933-47.38 34.29-50.437 22.356-3.058 43.266 14.569 46.684 39.364z"/>
        <path fill="#2691FD" fill-rule="nonzero" d="M134.425 111.602s-3.656 1.712-4.21-1.967a6.89 6.89 0 0 1-.064-.99 10.183 10.183 0 0 0-.608-3.334c-.136-.379-.29-.75-.462-1.112A15.9 15.9 0 0 0 126 99.792L134.603 93s-1.517 5.48-.07 6.797c.212.188.484.287.763.278.261-.001.52-.052.764-.15.295-.105.564-.189.811-.256 2.91-.767 2.689 1.151 2.689 1.151 2.296 4.157-5.135 10.782-5.135 10.782z"/>
        <path fill="#444053" fill-rule="nonzero" d="M136 98.284L130.447 104c-.131-.412-.28-.815-.447-1.21 1.503-1.282 3.806-3.423 5.262-4.79.207.198.47.3.738.284z"/>
        <path fill="#2691FD" fill-rule="nonzero" d="M134.875 110.588s-3.365 1.774-3.875-2.039c1.358-.58 2.606-1.465 3.672-2.603 1.41-1.665 2.776-5.426 2.445-7.758 2.677-.795 2.474 1.192 2.474 1.192 2.123 4.343-4.716 11.208-4.716 11.208z"/>
        <path fill="#000" fill-rule="nonzero" d="M134.875 110.588s-3.365 1.774-3.875-2.039c1.358-.58 2.606-1.465 3.672-2.603 1.41-1.665 2.776-5.426 2.445-7.758 2.677-.795 2.474 1.192 2.474 1.192 2.123 4.343-4.716 11.208-4.716 11.208z" opacity=".1"/>
        <path fill="#FFF" fill-rule="nonzero" d="M79 17s-10.384 5.462-8.844 14c0 0 1.782-1.758 3.605-2.176a5.8 5.8 0 0 0 2.535-1.115S75.405 22.992 79 17z" opacity=".1"/>
        <path fill="#2691FD" fill-rule="nonzero" d="M150.794 164.837a30.833 30.833 0 0 1-2.501 8.383 39.005 39.005 0 0 1-1.065 2.249c-10.023 19.26-37.876 38.073-58.677 35.248-19.422-2.638-34.422-16.025-38.462-32.418a47.72 47.72 0 0 1-.532-2.43 36.984 36.984 0 0 1-.223-11.352c2.437-17.928 17.564-31.337 36.332-34.017a45.586 45.586 0 0 1 4.998-.459 41.655 41.655 0 0 1 2.454-.037c2.108.013 4.213.163 6.302.448a97.17 97.17 0 0 1 3.518.533c.101 0 .197.037.298.047a133.223 133.223 0 0 1 21.2 4.946c2.13.709 4.19 1.466 6.17 2.33a60.25 60.25 0 0 1 4.013 1.864c5.807 2.953 10.56 6.646 13.429 11.256.287.458.532.922.798 1.407l.112.224a18.67 18.67 0 0 1 1.879 6.177c.23 1.86.217 3.744-.043 5.6z"/>
        <path fill="#000" fill-rule="nonzero" d="M150.794 164.837a30.833 30.833 0 0 1-2.501 8.383 39.005 39.005 0 0 1-1.065 2.249c-10.023 19.26-37.876 38.073-58.677 35.248-19.422-2.638-34.422-16.025-38.462-32.418a47.72 47.72 0 0 1-.532-2.43 36.984 36.984 0 0 1-.223-11.352c2.437-17.928 17.564-31.337 36.332-34.017a45.586 45.586 0 0 1 4.998-.459 41.655 41.655 0 0 1 2.454-.037c2.108.013 4.213.163 6.302.448a97.17 97.17 0 0 1 3.518.533c.101 0 .197.037.298.047a133.223 133.223 0 0 1 21.2 4.946c2.13.709 4.19 1.466 6.17 2.33a60.25 60.25 0 0 1 4.013 1.864c5.807 2.953 10.56 6.646 13.429 11.256.287.458.532.922.798 1.407l.112.224a18.67 18.67 0 0 1 1.879 6.177c.23 1.86.217 3.744-.043 5.6z" opacity=".1"/>
        <path fill="#2691FD" fill-rule="nonzero" d="M159.055 158.482a4.617 4.617 0 0 1-.921-.19 8.934 8.934 0 0 0-3.211-.276 8.512 8.512 0 0 0-1.169.151 13.793 13.793 0 0 0-3.316 1.052c-.516.228-1.017.489-1.5.781l-2.722-6.978-.037-.103-1.179-3.025c.858.53 1.754.991 2.68 1.382 1.294.542 2.732.96 3.495.456.223-.162.384-.4.453-.673a2.13 2.13 0 0 0 .063-.786c0-.314-.027-.596-.027-.862.074-3.014 1.774-2.315 1.774-2.315 1.953-.493 3.848.987 5.349 2.77.22.272.431.543.626.803a26.936 26.936 0 0 1 2.548 4.24s.6 4.012-2.906 3.573z"/>
        <path fill="#444053" fill-rule="nonzero" d="M155 159.85a5.62 5.62 0 0 0-.935.15c-.422-1.509-1.18-3.732-1.77-5.443-.038-.128-.08-.24-.118-.363-.038-.122-.126-.362-.177-.533.179-.159.307-.393.362-.661l.396 1.034.156.41 2.086 5.407z"/>
        <path fill="#2691FD" fill-rule="nonzero" d="M159.137 158.968a11.78 11.78 0 0 0-1.212-4.33 9.18 9.18 0 0 0-1.737-2.071 7.23 7.23 0 0 0-.622-.518 7.813 7.813 0 0 0-3.566-1.746c.071-2.88 1.717-2.211 1.717-2.211 1.89-.472 3.724.942 5.176 2.646.214.26.417.518.606.767a25.665 25.665 0 0 1 2.466 4.05s.565 3.832-2.828 3.413z"/>
        <path fill="#000" fill-rule="nonzero" d="M159.137 158.968a11.78 11.78 0 0 0-1.212-4.33 9.18 9.18 0 0 0-1.737-2.071 7.23 7.23 0 0 0-.622-.518 7.813 7.813 0 0 0-3.566-1.746c.071-2.88 1.717-2.211 1.717-2.211 1.89-.472 3.724.942 5.176 2.646.214.26.417.518.606.767a25.665 25.665 0 0 1 2.466 4.05s.565 3.832-2.828 3.413z" opacity=".1"/>
        <path fill="#FFF" fill-rule="nonzero" d="M57 184s2.36 12.238 11 13c0 0-1.193-2.325-1.07-4.302a6.472 6.472 0 0 0-.364-2.932S61.762 189.373 57 184z" opacity=".1"/>
        <path fill="#2691FD" fill-rule="nonzero" d="M181.824 60.961c-4.312 9.946-9.875 20.518-16.467 28.579-5.054 6.207-10.729 10.91-16.902 12.698a18.812 18.812 0 0 1-8.21.536 20.532 20.532 0 0 1-5.366-1.607c-12.044-5.33-22.71-21.771-27.382-39.097-3.23-12.013-3.59-24.411.483-33.805 9.95-22.901 34.54-34.175 54.959-25.156 20.417 9.019 28.829 34.92 18.885 57.852z"/>
        <path fill="#000" fill-rule="nonzero" d="M181.824 60.961c-4.312 9.946-9.875 20.518-16.467 28.579-5.054 6.207-10.729 10.91-16.902 12.698a18.812 18.812 0 0 1-8.21.536 20.532 20.532 0 0 1-5.366-1.607c-12.044-5.33-22.71-21.771-27.382-39.097-3.23-12.013-3.59-24.411.483-33.805 9.95-22.901 34.54-34.175 54.959-25.156 20.417 9.019 28.829 34.92 18.885 57.852z" opacity=".1"/>
        <path fill="#2691FD" fill-rule="nonzero" d="M150.771 109.289c-.161 4.25-9.878 5.711-9.878 5.711s-3.997-.462-2.595-3.498c.124-.269.27-.529.437-.777a8.342 8.342 0 0 0 1.187-2.828c.076-.36.14-.714.178-1.068.11-1.084.085-2.177-.075-3.256a11.114 11.114 0 0 0-.33-1.54l10.79-1.033a21.632 21.632 0 0 0-2.109 2.08c-.89 1.034-1.662 2.22-1.397 3.021.088.25.282.457.54.576.221.128.469.214.728.256.277.049.55.113.82.191 2.853.807 1.704 2.165 1.704 2.165z"/>
        <path fill="#444053" fill-rule="nonzero" d="M147 105.962L139 108c.08-.6.149-1.192.189-1.784 2.028-.254 5.245-.821 7.285-1.216.083.406.271.75.526.962z"/>
        <path fill="#2691FD" fill-rule="nonzero" d="M150.773 108.199c-.162 4.317-9.88 5.801-9.88 5.801s-3.997-.47-2.595-3.553c1.548.284 3.141.284 4.69 0 2.114-.5 5.228-2.543 6.059-4.447 2.875.82 1.726 2.199 1.726 2.199z"/>
        <path fill="#000" fill-rule="nonzero" d="M150.773 108.199c-.162 4.317-9.88 5.801-9.88 5.801s-3.997-.47-2.595-3.553c1.548.284 3.141.284 4.69 0 2.114-.5 5.228-2.543 6.059-4.447 2.875.82 1.726 2.199 1.726 2.199z" opacity=".1"/>
        <path fill="#FFF" fill-rule="nonzero" d="M141 7.039s-11.94-1.023-15 7.403c0 0 2.472-.556 4.275.088.888.382 1.85.535 2.806.445 0 0 1.66-4.685 7.919-7.936z" opacity=".1"/>
        <g fill="#000" fill-rule="nonzero" opacity=".1">
            <path d="M20.316 160.88c-.096 1.904 1.103 4.144 1.103 4.144-8.64-.73-11.007-12.544-11.007-12.544 4.765 5.184 9.54 5.568 9.54 5.568.347.902.472 1.873.364 2.832zM102.386 129.179l-4-9.942c.874.521 1.784.976 2.726 1.36a18.935 18.935 0 0 1 2.8 7.814c-.524.225-1.033.482-1.526.768zM103.992 132.581c-.037.475-.086.971-.15 1.462a30.687 30.687 0 0 1-2.527 8.384c-.326.746-.69 1.504-1.07 2.256-8.641 16.533-30.462 32.73-49.713 35.2a36.718 36.718 0 0 1-.75-13.792c2.452-17.942 17.667-31.36 36.543-34.043A50.028 50.028 0 0 1 100.16 132c1.263.197 2.548.373 3.833.581z"/>
            <path d="M112.654 127.685a4.893 4.893 0 0 1-.942-.186 9.36 9.36 0 0 0-3.26-.272 8.72 8.72 0 0 0-1.189.149c-1.725.32-3.384.93-4.904 1.803l-3.999-9.942c.873.521 1.784.976 2.725 1.36 1.312.534 2.773.944 3.55.448a1.2 1.2 0 0 0 .465-.661c.067-.252.086-.514.06-.773v-.843c.074-2.965 1.798-2.283 1.798-2.283 4.491-1.098 8.667 7.686 8.667 7.686s.59 3.941-2.971 3.514z"/>
            <path d="M108.452 127.227a8.72 8.72 0 0 0-1.189.149c-.664-1.781-1.863-4.56-2.629-6.33a1.2 1.2 0 0 0 .466-.662l3.352 6.843zM112.654 127.685a12.093 12.093 0 0 0-1.28-4.458c-1.07-1.872-4.052-4.224-6.236-4.459.075-2.965 1.798-2.283 1.798-2.283 4.492-1.098 8.668 7.686 8.668 7.686s.61 3.941-2.95 3.514z"/>
            <path d="M112.654 127.685a12.093 12.093 0 0 0-1.28-4.458c-1.07-1.872-4.052-4.224-6.236-4.459.075-2.965 1.798-2.283 1.798-2.283 4.492-1.098 8.668 7.686 8.668 7.686s.61 3.941-2.95 3.514zM21.42 165.024c-8.642-.73-11.008-12.544-11.008-12.544 4.765 5.184 9.54 5.568 9.54 5.568.347.902.472 1.873.364 2.832-.096 1.904 1.103 4.144 1.103 4.144z"/>
        </g>
        <path fill="#2691FD" fill-rule="nonzero" d="M101.81 130.83c-.047.325-.1.65-.148.986a32.043 32.043 0 0 1-2.369 7.397c-.1.223-.202.458-.314.682a19.442 19.442 0 0 1-.771 1.567c-8.675 16.67-30.683 32.993-49.943 35.258-2.898.373-5.831.373-8.729 0-24.652-3.352-42.2-24.04-39.203-46.2 2.438-17.927 17.563-31.336 36.335-34.016a45.39 45.39 0 0 1 1.761-.224 49.712 49.712 0 0 1 11.986.176c8.244 1.108 17.057 2.851 25.014 5.505a88.681 88.681 0 0 1 4.907 1.801c.426.165.846.352 1.256.533.772.325 1.533.677 2.278 1.023.596.272 1.165.56 1.74.848 5.807 2.952 10.554 6.645 13.428 11.255a18.962 18.962 0 0 1 2.783 7.802 21.468 21.468 0 0 1-.01 5.607z"/>
        <path fill="#2691FD" fill-rule="nonzero" d="M111.045 124.482a4.667 4.667 0 0 1-.926-.19 9.028 9.028 0 0 0-3.203-.282c-.393.028-.783.08-1.168.158-1.144.21-2.258.56-3.32 1.046a14.41 14.41 0 0 0-1.499.786L97 115.894c.859.527 1.754.99 2.677 1.383 1.29.542 2.725.96 3.488.455.223-.163.385-.4.458-.672a2.26 2.26 0 0 0 .057-.786v-.862c.074-3.015 1.768-2.315 1.768-2.315 4.413-1.117 8.516 7.812 8.516 7.812s.579 4.001-2.92 3.573z"/>
        <path fill="#444053" fill-rule="nonzero" d="M107 123.845a6.063 6.063 0 0 0-.934.155c-.522-1.789-1.464-4.565-2.066-6.338a1.24 1.24 0 0 0 .366-.662l2.634 6.845z"/>
        <path fill="#2691FD" fill-rule="nonzero" d="M111.154 123.97a11.9 11.9 0 0 0-1.217-4.33c-1.02-1.819-3.858-4.103-5.937-4.336.071-2.88 1.712-2.212 1.712-2.212 4.275-1.067 8.25 7.464 8.25 7.464s.581 3.823-2.808 3.413z"/>
        <path fill="#000" fill-rule="nonzero" d="M111.154 123.97a11.9 11.9 0 0 0-1.217-4.33c-1.02-1.819-3.858-4.103-5.937-4.336.071-2.88 1.712-2.212 1.712-2.212 4.275-1.067 8.25 7.464 8.25 7.464s.581 3.823-2.808 3.413z" opacity=".1"/>
        <path fill="#FFF" fill-rule="nonzero" d="M10 149s2.364 12.232 11 13c0 0-1.198-2.325-1.096-4.302a6.475 6.475 0 0 0-.364-2.932S14.765 154.379 10 149z" opacity=".1"/>
        <g fill="#000" fill-rule="nonzero" opacity=".1">
            <path d="M25.498 49.136a6.114 6.114 0 0 1-2.129 1.904c-1.628.997-2.81 3.243-2.81 3.243-4.257-7.526 4.178-16.139 4.178-16.139-1.602 6.853.76 10.992.76 10.992zM82.52 104.837a62.306 62.306 0 0 1 4.017 1.872c-1.634.42-3.295.729-4.97.923-13.427 1.6-30.621-2.608-43.947-10.581a49.384 49.384 0 0 1 13.746-.048c8.243 1.109 17.056 2.853 25.012 5.509 2.102.71 4.167 1.467 6.141 2.325zM101.853 94.736a19.124 19.124 0 0 1-4.854 6.715 12.333 12.333 0 0 0-1.49-.822l5.944-8.922c.06 1.018.193 2.03.4 3.029z"/>
            <path d="M107.046 108.688s-2.894 2.73-4.55-.432a6.61 6.61 0 0 1-.372-.885 9.568 9.568 0 0 0-1.597-2.843c-.25-.31-.532-.608-.782-.885a14.326 14.326 0 0 0-2.751-2.192 12.333 12.333 0 0 0-1.49-.822l5.944-8.922c.063 1.018.2 2.03.41 3.029.287 1.397.782 2.816 1.628 3.2.257.091.537.091.793 0 .248-.082.477-.21.676-.379.245-.186.468-.357.681-.496 2.485-1.6 2.885.187 2.885.187 3.427 3.056-1.475 11.44-1.475 11.44z"/>
            <path d="M104.274 97.915l-3.752 6.613c-.25-.31-.532-.608-.782-.885 1.09-1.558 2.709-4.112 3.725-5.728.261.095.548.095.809 0zM107.046 108.688s-2.894 2.73-4.55-.432a12.095 12.095 0 0 0 2.96-3.568c.936-1.941 1.207-5.717.175-7.648 2.485-1.6 2.884.187 2.884.187 3.433 3.077-1.469 11.461-1.469 11.461z"/>
            <path d="M107.046 108.688s-2.894 2.73-4.55-.432a12.095 12.095 0 0 0 2.96-3.568c.936-1.941 1.207-5.717.175-7.648 2.485-1.6 2.884.187 2.884.187 3.433 3.077-1.469 11.461-1.469 11.461zM25.498 49.136a6.114 6.114 0 0 1-2.129 1.904c-1.628.997-2.81 3.243-2.81 3.243-4.257-7.526 4.178-16.139 4.178-16.139-1.602 6.853.76 10.992.76 10.992z"/>
        </g>
        <path fill="#2691FD" fill-rule="nonzero" d="M100.87 93.666a19.193 19.193 0 0 1-4.86 6.757 21.097 21.097 0 0 1-4.67 3.161 29.459 29.459 0 0 1-7.544 2.533 43.12 43.12 0 0 1-3.262.537c-.075 0-.139 0-.214.027-12.826 1.492-29.042-2.335-42.044-9.66-8.855-4.976-16.211-11.562-20.012-19.193C7.107 55.393 14.266 29.03 34.257 18.935c19.99-10.096 45.27-.097 56.421 22.359 3.732 7.514 7.288 15.822 9.596 23.958.213.741.41 1.466.597 2.196 2.527 9.72 3.134 19.047 0 26.218z"/>
        <path fill="#000" fill-rule="nonzero" d="M100.87 93.666a19.193 19.193 0 0 1-4.86 6.757 21.097 21.097 0 0 1-4.67 3.161 29.459 29.459 0 0 1-7.544 2.533 43.12 43.12 0 0 1-3.262.537c-.075 0-.139 0-.214.027-12.826 1.492-29.042-2.335-42.044-9.66-8.855-4.976-16.211-11.562-20.012-19.193C7.107 55.393 14.266 29.03 34.257 18.935c19.99-10.096 45.27-.097 56.421 22.359 3.732 7.514 7.288 15.822 9.596 23.958.213.741.41 1.466.597 2.196 2.527 9.72 3.134 19.047 0 26.218z" opacity=".1"/>
        <path fill="#2691FD" fill-rule="nonzero" d="M107.353 106.853s-2.847 2.865-4.475-.46a6.91 6.91 0 0 1-.366-.93 10.342 10.342 0 0 0-1.57-2.99 11.723 11.723 0 0 0-.77-.925 14.344 14.344 0 0 0-2.706-2.31c-.471-.32-.96-.609-1.466-.863L101.847 89c.062 1.069.196 2.131.403 3.18.282 1.468.77 2.96 1.602 3.363.251.099.528.099.78 0 .242-.086.467-.219.664-.392.241-.196.46-.381.67-.527 2.445-1.682 2.837.196 2.837.196 3.371 3.202-1.45 12.033-1.45 12.033z"/>
        <path fill="#444053" fill-rule="nonzero" d="M104 96l-3.31 7a11.607 11.607 0 0 0-.69-.931c.962-1.649 2.39-4.353 3.286-6.069a.86.86 0 0 0 .714 0z"/>
        <path fill="#2691FD" fill-rule="nonzero" d="M107.4 106.86s-2.8 2.846-4.4-.456a12.427 12.427 0 0 0 2.861-3.72c.906-2.031 1.168-5.968.17-7.989 2.403-1.67 2.79.195 2.79.195 3.319 3.201-1.421 11.97-1.421 11.97z"/>
        <path fill="#000" fill-rule="nonzero" d="M107.4 106.86s-2.8 2.846-4.4-.456a12.427 12.427 0 0 0 2.861-3.72c.906-2.031 1.168-5.968.17-7.989 2.403-1.67 2.79.195 2.79.195 3.319 3.201-1.421 11.97-1.421 11.97z" opacity=".1"/>
        <path fill="#FFF" fill-rule="nonzero" d="M24.245 37s-8.224 8.537-4.076 16c0 0 1.15-2.236 2.749-3.219A5.97 5.97 0 0 0 25 47.899S22.678 43.792 24.245 37z" opacity=".1"/>
        <path fill="#2691FD" fill-rule="nonzero" d="M259.712 108.042c-2.786 22.198-25.07 37.651-49.784 34.566-11.995-1.503-25.204-4.295-35.297-9.32-5.859-2.914-10.652-6.564-13.56-11.158a19.103 19.103 0 0 1-2.887-7.763 21.616 21.616 0 0 1 0-5.627c.671-5.366 3.196-11.04 6.977-16.519 11.862-17.152 36.133-32.338 54.86-29.978 24.697 3.101 42.482 23.605 39.69 45.799z"/>
        <path fill="#2691FD" fill-rule="nonzero" d="M164 123.038a20.484 20.484 0 0 0-2.695-1.364c-1.3-.539-2.731-.927-3.48-.415a1.08 1.08 0 0 0-.452.685c-.062.25-.083.508-.063.765 0 .313.037.604.037.857-.037 3.009-1.74 2.33-1.74 2.33-4.383 1.158-8.562-7.694-8.562-7.694s-.634-3.967 2.857-3.58c.31.036.617.096.918.179a8.86 8.86 0 0 0 3.208.253 9.152 9.152 0 0 0 1.154-.167c1.13-.228 2.232-.59 3.282-1.078.518-.236 1.02-.507 1.504-.809L164 123.038z"/>
        <path fill="#444053" fill-rule="nonzero" d="M159 122.32c-.184.157-.312.401-.356.68L156 116.166c.306-.031.61-.086.912-.166.53 1.791 1.479 4.567 2.088 6.32z"/>
        <path fill="#2691FD" fill-rule="nonzero" d="M157 124.653c-.035 2.901-1.682 2.246-1.682 2.246-4.236 1.118-8.274-7.42-8.274-7.42s-.614-3.828 2.761-3.453a11.812 11.812 0 0 0 1.252 4.326c1.033 1.82 3.87 4.093 5.943 4.3z"/>
        <path fill="#000" fill-rule="nonzero" d="M157 124.653c-.035 2.901-1.682 2.246-1.682 2.246-4.236 1.118-8.274-7.42-8.274-7.42s-.614-3.828 2.761-3.453a11.812 11.812 0 0 0 1.252 4.326c1.033 1.82 3.87 4.093 5.943 4.3z" opacity=".1"/>
        <path fill="#FFF" fill-rule="nonzero" d="M253 90s-2.454-12.315-11-13c0 0 1.2 2.334 1.121 4.333a6.666 6.666 0 0 0 .391 2.952s4.723.346 9.488 5.715z" opacity=".1"/>
        <path fill="#000" fill-rule="nonzero" d="M175.577 134c-5.96-2.91-10.836-6.552-13.794-11.137-1.344-.532-2.823-.915-3.597-.41-.241.156-.409.4-.466.676a2.267 2.267 0 0 0-.065.755c0 .309.038.596.038.846-.038 2.968-1.8 2.297-1.8 2.297-4.528 1.144-8.846-7.589-8.846-7.589s-.656-3.914 2.952-3.531c.32.035.637.093.948.175a9.575 9.575 0 0 0 3.316.25c.4-.03.799-.086 1.192-.165a15.588 15.588 0 0 0 3.392-1.063 21.174 21.174 0 0 1 0-5.617c.682-5.355 3.25-11.02 7.097-16.487 6.458 13.652 11.594 29.135 9.633 41zM159 150.895c-1.128.523-2.29.973-3.476 1.347a33.094 33.094 0 0 1-3.293.857l-.738.15c-.963.175-1.962.324-2.973.436-.765.095-1.535.16-2.326.207-14.81.958-33.386-4.535-46.465-13.962a49.259 49.259 0 0 1-9.656-8.99 33.582 33.582 0 0 1-3.797-5.856 49.093 49.093 0 0 1-5.208-19.162 39.378 39.378 0 0 1-.064-2.092C80.796 88.393 88.265 74.02 101.702 67c2.524 9.661 3.123 18.913 0 26.024.289 1.395.786 2.81 1.636 3.194.258.093.54.093.797 0 .247-.082.477-.208.68-.373.245-.186.47-.362.684-.5 2.497-1.597 2.898.186 2.898.186 3.448 3.071-1.476 11.445-1.476 11.445s-2.909 2.72-4.572-.437a6.292 6.292 0 0 1-.374-.884 9.602 9.602 0 0 0-1.604-2.837 11.36 11.36 0 0 0-.786-.878 14.426 14.426 0 0 0-2.765-2.193 21.175 21.175 0 0 1-4.683 3.135 29.779 29.779 0 0 1-7.566 2.513c.599.271 1.17.559 1.748.846 5.834 2.949 10.603 6.638 13.49 11.242 1.31.532 2.77.942 3.545.447.227-.16.392-.393.466-.66.066-.251.086-.513.058-.772v-.846c.075-2.96 1.797-2.273 1.797-2.273 4.486-1.096 8.657 7.67 8.657 7.67s.61 3.929-2.946 3.508a4.89 4.89 0 0 1-.942-.186 9.489 9.489 0 0 0-3.256-.277 9.666 9.666 0 0 0-1.187.155c-1.162.205-2.295.55-3.374 1.027a21.32 21.32 0 0 1-.037 5.621c-.048.325-.102.65-.15.985.102 0 .198.037.3.048a134.481 134.481 0 0 1 21.296 4.94c2.14.707 4.208 1.463 6.197 2.325a60.69 60.69 0 0 1 4.032 1.864c5.834 2.948 10.608 6.637 13.49 11.242 1.316.532 2.775.942 3.55.447.228-.16.39-.393.46-.66.071-.251.093-.513.065-.772 0-.309-.027-.586-.027-.846.075-2.96 1.802-2.273 1.802-2.273 1.946-.506 3.871.942 5.395 2.698z" opacity=".1"/>
        <g fill="#000" fill-rule="nonzero" opacity=".1">
            <path d="M96.578 91.905a6.117 6.117 0 0 1-2.13 1.907c-1.628 1.005-2.809 3.277-2.809 3.277-4.257-7.58 4.178-16.249 4.178-16.249-1.602 6.903.76 11.065.76 11.065zM162.779 85.395c.782 1.58 1.564 3.223 2.325 4.834-5.071 6.226-10.765 10.942-16.96 12.736-.878 1.128-1.639 2.423-1.378 3.298.087.273.279.5.532.629.22.14.463.234.718.279.274.054.544.124.81.21 2.836.88 1.702 2.363 1.702 2.363-.16 4.64-9.744 6.236-9.744 6.236s-3.943-.505-2.56-3.819c.122-.294.266-.578.432-.849a9.659 9.659 0 0 0 1.17-3.088c.075-.392.139-.78.176-1.166a15.9 15.9 0 0 0-.074-3.556 20.61 20.61 0 0 1-5.386-1.611c-12.085-5.345-22.787-21.835-27.476-39.212 19.845-9.534 44.676.495 55.713 22.716zM172.922 137.82a19.294 19.294 0 0 1-4.848 6.78 12.94 12.94 0 0 0-1.49-.833l5.944-8.982c.062 1.02.194 2.034.394 3.035z"/>
            <path d="M178.11 151.888s-2.895 2.745-4.55-.44a5.81 5.81 0 0 1-.372-.892 9.435 9.435 0 0 0-1.597-2.858 9.105 9.105 0 0 0-.782-.891 14.556 14.556 0 0 0-2.751-2.208 12.94 12.94 0 0 0-1.49-.832l5.944-8.982c.062 1.02.194 2.034.394 3.035.298 1.408.798 2.847 1.644 3.223.255.1.538.1.793 0 .245-.081.473-.209.67-.376.22-.179.45-.345.687-.5 2.485-1.643 2.884.189 2.884.189 3.449 3.088-1.474 11.532-1.474 11.532z"/>
            <path d="M175.364 141.032l-3.762 6.656a11.246 11.246 0 0 0-.777-.881c1.091-1.58 2.714-4.147 3.725-5.78.26.107.552.11.814.005zM178.11 151.888s-2.895 2.745-4.55-.44a11.958 11.958 0 0 0 2.954-3.572c.942-1.96 1.208-5.759.18-7.708 2.486-1.612 2.89.188 2.89.188 3.449 3.083-1.474 11.532-1.474 11.532z"/>
            <path d="M178.11 151.888s-2.895 2.745-4.55-.44a11.958 11.958 0 0 0 2.954-3.572c.942-1.96 1.208-5.759.18-7.708 2.486-1.612 2.89.188 2.89.188 3.449 3.083-1.474 11.532-1.474 11.532zM96.578 91.905a6.117 6.117 0 0 1-2.13 1.907c-1.628 1.005-2.809 3.277-2.809 3.277-4.257-7.58 4.178-16.249 4.178-16.249-1.602 6.903.76 11.065.76 11.065z"/>
        </g>
        <path fill="#2691FD" fill-rule="nonzero" d="M160.702 87.277c11.167 22.429 20.633 52.216.634 62.312-19.999 10.095-61.9-3.317-73.067-25.762-11.167-22.446-4.003-48.798 15.991-58.894 19.994-10.095 45.275-.086 56.442 22.344z"/>
        <path fill="#2691FD" fill-rule="nonzero" d="M177.352 153.856s-2.845 2.86-4.47-.465a8.14 8.14 0 0 1-.362-.926 10.115 10.115 0 0 0-1.568-2.994c-.24-.324-.497-.633-.769-.926a15.062 15.062 0 0 0-4.183-3.174l5.846-9.371s.266 5.737 1.997 6.511c.254.107.536.107.79 0 .24-.09.462-.225.659-.398.24-.202.465-.376.669-.522 2.442-1.71 2.84.191 2.84.191 3.377 3.247-1.45 12.074-1.45 12.074z"/>
        <path fill="#444053" fill-rule="nonzero" d="M173 142.011L169.69 149a10.672 10.672 0 0 0-.69-.93 224.284 224.284 0 0 0 3.283-6.07c.229.114.486.118.717.011z"/>
        <path fill="#2691FD" fill-rule="nonzero" d="M177.395 153.865s-2.796 2.838-4.395-.462a12.332 12.332 0 0 0 2.863-3.716c.905-2.031 1.167-5.965.17-7.979 2.4-1.697 2.79.19 2.79.19 3.316 3.21-1.428 11.967-1.428 11.967z"/>
        <path fill="#000" fill-rule="nonzero" d="M177.395 153.865s-2.796 2.838-4.395-.462a12.332 12.332 0 0 0 2.863-3.716c.905-2.031 1.167-5.965.17-7.979 2.4-1.697 2.79.19 2.79.19 3.316 3.21-1.428 11.967-1.428 11.967z" opacity=".1"/>
        <path fill="#FFF" fill-rule="nonzero" d="M94.245 83s-8.224 8.537-4.076 16c0 0 1.156-2.23 2.749-3.219A5.97 5.97 0 0 0 95 93.899S92.684 89.792 94.245 83z" opacity=".1"/>
        <path stroke="#444053" d="M171.685 147c-3.392 2.422-3.614 8.229-.417 10.919 3.941 3.31 9.829 1.235 14.92 1.79 5.09.557 9.559 3.936 12.793 7.984 6.137 7.79 8.576 17.924 6.668 27.703-.997 4.924-3.08 9.576-4.025 14.511-1.13 5.914-.575 12.02.137 18.004.528 4.459 1.182 9.03 3.329 12.96 3.413 6.24 10.066 9.92 16.697 12.299 6.631 2.38 13.648 3.85 19.826 7.266 8.507 4.78 14.715 12.878 17.182 22.415a3.64 3.64 0 0 1 .053 2.246c-.29.705-1.219 1.176-1.826.727"/>
        <path stroke="#444053" d="M154.058 157c-.33 1.524.8 3.111 2.291 3.637 1.538.453 3.203.2 4.53-.69 1.62-1.014 3.075-2.719 5.01-2.655 1.405.037 2.588 1.035 3.464 2.124.875 1.088 1.578 2.32 2.67 3.185a8.176 8.176 0 0 0 3.2 1.434 9.293 9.293 0 0 0 4.199.196c2.983-.642 5.172-3.254 8.107-4.088 3.88-1.099 7.89 1.152 10.998 3.685 3.724 3.031 7.075 6.737 8.62 11.24 1.028 2.978 1.222 6.153 1.622 9.27.4 3.116 1.113 6.306 2.973 8.86 1.859 2.554 5.14 4.343 8.258 3.653"/>
        <path fill="url(#a)" fill-rule="nonzero" d="M393.149 162.283s-16.86-9.507-18.272-10.474c-1.412-.966 0-2.317 0-2.317-2.701-1.742-8.306 1.837-8.306 1.837s2.04.507 3.97 1.121c-7-1.832-18.71-5.266-24.676-9.127-4.63-2.996-8.678-2.137-11.486-.641l-.064-.176c-.714-2.227-.596-4.663-1.46-6.842-1.065-2.67-3.638-4.556-6.461-5.117-1.599-.32-1.88-.154-2.83-1.372-1.128-1.453-2.018-1.982-3.899-2.388-2.13-.454-4.261-.907-6.456-.758-2.195.15-4.39.993-5.684 2.67-.725.957-1.124 2.11-1.833 3.077-3.41 4.63-11.539 2.526-15.88 6.35-2.664 2.36-3.095 6.228-3.692 9.7-.597 3.47-2.003 7.386-5.412 8.545-1.625.534-3.4.347-5.115.464-1.715.118-3.611.716-4.363 2.222a3.966 3.966 0 0 0-.351 1.933 1.034 1.034 0 0 0 0 .129v.069c.072.99.209 1.976.41 2.948v-.112c.192 1.298.197 2.5-.735 3.375-1.897 1.795-6.01.155-7.192 2.457-.163.331-.235.7-.208 1.068.018 1 .444 1.95 1.178 2.628.9.908 2.05 1.602 2.791 2.622.306.43.53.91.66 1.421.009-.048.02-.097.033-.144.192.805.159 1.648-.096 2.435-6.238-.25-15.45-.827-17.33-2.083-2.876-1.933-16.365-5.202-16.365-5.202l-.154-.096-.442-.256-.416-.23-.08-.042a8.245 8.245 0 0 0-.533-.267h-.037l-.533-.268-.096-.042-.617-.273-.107-.048c-.197-.08-.4-.16-.607-.235l-.07-.026c-.218-.08-.442-.15-.66-.22l-.117-.031a6.952 6.952 0 0 0-1.327-.251h-.671l-.165.026a1.978 1.978 0 0 0-.485.139 1.2 1.2 0 0 0-.49.582l-.959-.368-16.7-6.468s-2.014-1.068-2.904-1.741a34.683 34.683 0 0 0-9.11-3.408l-.117-.08v.054c-3.676-.663-6.797 0-5.7 4.64 2.312 9.785 15.028 8.626 15.028 8.626l18.022 7.702 1.183.507c-.107 5.405.426 11.104 1.774 11.857.219.125.445.237.676.337l.144.069c.218.096.437.182.65.251h.048c.213.075.42.133.618.187h.09c.214.059.427.101.624.139a9.38 9.38 0 0 0 2.045.16H232.065l-.101-6.473c.207.078.408.17.602.278.66.37 1.29.795 1.88 1.27 1.598 1.256 12.2 2.51 12.2 2.51s10.121 3.766 10.712 4.546c.592.78 29.556 1.64 29.556 1.64s-3.964 8.887 7.042 17.78c0 0 1.88 11.59.693 14.778-.746 2.002-.911 5.682-.927 8.14-3.617 1.28-12.253 4.544-14.448 7.268-2.823 3.477-5.055 3.477-5.055 3.477s-2.829 5.34-6.249 6.665c-3.42 1.325-14.431 7.248-15.475 8.84-1.045 1.591-10.266 6.943-10.266 6.943s-9.525 7.536-11.31 10.286c-1.784 2.75-14.282 7.974-14.282 7.974s-3.42 4.807-2.381 9.854c1.039 5.047-8.428 2.318-.197 10.869 1.934 2.008 5.428 4.144 9.78 6.44-.308.188-.617.353-.921.503a8.436 8.436 0 0 1-1.518.593c-4.912 1.303-18.896 23.761-18.896 23.761s-8.56 10.778-15.182 14.704c-.224.133-.448.256-.666.373-.533-1.26-2.584-2.504-4.672-3.466a24.717 24.717 0 0 0-7.458-2.035c-1.69-.203-3.841-.689-5.21-1.842a13.565 13.565 0 0 0-4.166-2.409c-2.067-.652-3.772-.112-2.93 3.813a32.14 32.14 0 0 0 4.464 10.965s9.179 8.065 10.02 10.917c.842 2.852 4.662 6.04 5.258 5.65.192-.128 1.194-.737 2.456-1.602 2.579-1.714 6.254-4.411 6.467-5.955 0-.037-.426.043-1.065.086.085-.16.186-.348.309-.566 1.21-2.137 4.22-6.981 7.762-8.647l14.138-13.588s15.028-7.824 17.58-13.619c1.065-2.42 4.794-5.95 8.822-9.24l.884-.72c11.976 5.917 24.638 12.818 30.317 20.973 8.167 11.75 26.599 16.081 35.24 17.497.053.673.096 1.319.122 1.923.15 2.519.016 5.047-.4 7.535-.447 2.607-.33 22.897-.33 22.897s.927 10.43-1.752 13.763c-1.375 1.715-2.44 5.8-3.149 9.363-.042.213-.08.427-.122.64-1.241.567-2.238 1.8-2.78 4.012 0 0-2.281 1.495-1.732 7.434.133 1.437.176 2.67.24 3.739.207 3.37.575 4.972 4.224 4.935 4.794-.048 14.826-4.973 14.826-4.973a15.828 15.828 0 0 0-.107-3.023 12.096 12.096 0 0 0-1.923-5.426l.037-.101.112-.262c.096-.235.186-.497.272-.764l.032-.07c.206-.61.32-1.25.34-1.895v-6.788s.299-9.854 2.664-15.072c1.918-4.204 7.021-23.837 7.373-33.808.043-.935.026-1.872-.053-2.804a1.42 1.42 0 0 0 1.012-1.357c-.15-3.77-3.122-2.03-1.635-9.421 1.486-7.392 2.53-16.52 5.204-20.867a74.921 74.921 0 0 0 4.912-9.998s5.652-19.13 8.033-23.767c2.382-4.636 11.46-34.78-2.972-48.837l-.789-3.06s0-.048.048-.101c.085-.187.32-.71.624-1.437.255-.598.532-1.34.852-2.136.17-.46.336-.94.5-1.426.24-.722.453-1.459.619-2.137l.08-.352c4.613 1.068 7.399-2.233 8.523-3.969.623-.357.879-.7.565-.998-1.785-1.741-.192-5.507-.192-5.507l.09-16.423s2.083-.39 2.584-6.185a15.02 15.02 0 0 1 4.14-9.202c4.464-4.919 16.855-10.26 16.855-10.26 8.917-2.927 22.225-15.723 22.225-15.723 7.138-5.897-.895-8.567-.895-8.567zm-19.54 6.628c-2.776.577-9.025 3.685-9.025 3.685s-3.76.95-7.143 2.227-7.736-.662-7.736-.662c-2.28-3.071-10.015 1.335-11.805 2.398-1.353.807-2.482.534-3.771-.593-.46-.414-.89-.862-1.284-1.34a5.053 5.053 0 0 0-1.321-1.1 11.772 11.772 0 0 1 2.173-2.762c1.88-1.837 4.108-3.316 6.004-5.143s3.51-4.129 3.681-6.719v-.336a8.857 8.857 0 0 0-1.156-4.63c1.567.34 3.154.58 4.752.72 4.533.278 10.122 2.558 13.456 4.134l.688.326-.368.128.133.17-.133.044.032.042.266.347.038.043c.128.166.287.369.48.604l.058.07c.197.24.42.501.666.779l.064.075c.25.283.532.576.804.87l.075.075c.255.262.532.534.793.78.367.341.751.664 1.151.966l.043.027c.309.231.633.442.97.63l.095.054c.15.08.305.151.464.213 2.663 1.069 4.064-1.447 4.064-1.447.382.106.752.253 1.103.438 2.722 1.362 4.15 4.39 1.689 4.887z"/>
        <path fill="#EFB7B9" fill-rule="nonzero" d="M373 154.22v3.132L360.346 161s-1.158-.68-2.958-1.574c-3.32-1.658-8.82-4.07-13.31-4.362-6.916-.467-29.65-7.578-22.81-9.18 6.841-1.602 6.306 0 6.306 0s6.646-8.809 15.407-2.766c6.652 4.598 20.523 8.618 26.807 10.287 1.99.5 3.212.815 3.212.815z"/>
        <path fill="#925978" fill-rule="nonzero" d="M317.645 126.795c-2.09-.456-4.223-.916-6.356-.766-2.133.15-4.31 1.001-5.607 2.71-.711.958-1.105 2.141-1.805 3.09-3.356 4.658-11.37 2.543-15.648 6.388-2.64 2.372-3.043 6.26-3.63 9.75-.587 3.492-1.977 7.428-5.338 8.595-1.616.536-3.35.348-5.037.46-1.686.113-3.555.724-4.309 2.234-1.276 2.613 1.465 6.372-.635 8.396-1.875 1.8-5.926.15-7.089 2.469-.571 1.135.07 2.522.953 3.438.884.915 2.02 1.606 2.753 2.634a4.481 4.481 0 0 1 .342 4.597 4.532 4.532 0 0 1-3.903 2.488c-1.48.048-3.156-.584-4.341.31a3.048 3.048 0 0 0-.98 2.55c.23 3.38 3.1 5.978 6.506 5.89 2.516-.161 4.638-1.81 6.712-3.213s4.579-2.72 7.002-2.083c1.129.381 2.19.936 3.146 1.644a32.22 32.22 0 0 0 9.534 4.07c2.974.733 6.356.969 8.883-.756 2.86-1.949 3.932-5.938 7.002-7.497 3.232-1.633 7.062.091 10.39 1.527 3.33 1.435 7.687 2.404 10.192-.204 2.693-2.811 1.136-7.54 2.531-11.17a10.522 10.522 0 0 1 2.521-3.599c1.853-1.852 4.046-3.341 5.925-5.172 1.88-1.832 3.464-4.15 3.626-6.758.204-3.138-1.665-6.02-3.68-8.445-2.014-2.426-4.309-4.771-5.251-7.775-.7-2.238-.587-4.686-1.438-6.876a8.661 8.661 0 0 0-6.367-5.146c-1.616-.321-1.853-.155-2.79-1.387a5.54 5.54 0 0 0-3.814-2.393z"/>
        <g fill="#000" fill-rule="nonzero" opacity=".1">
            <path d="M269.68 160.08c-.294 1.306.086 2.802.295 4.206.32-1.225-.086-2.726-.295-4.206zM265.924 176.561c.3.44.518.933.642 1.453a4.751 4.751 0 0 0-.642-3.809c-.727-1.056-1.85-1.747-2.734-2.677a4.628 4.628 0 0 1-.856-1.262 1.27 1.27 0 0 0-.09.141c-.568 1.154.069 2.563.946 3.493.878.93 2.007 1.605 2.734 2.661zM336.923 163.399c-1.857 1.866-4.034 3.373-5.885 5.256a10.74 10.74 0 0 0-2.504 3.662c-1.386 3.689.166 8.488-2.515 11.345-2.488 2.65-6.816 1.665-10.123.207-3.306-1.459-7.11-3.21-10.32-1.551-3.066 1.589-4.13 5.648-6.956 7.617-2.51 1.753-5.885 1.513-8.823.768a31.627 31.627 0 0 1-9.47-4.136 11.29 11.29 0 0 0-3.124-1.67c-2.419-.648-4.901.68-6.956 2.122-2.054 1.442-4.168 3.112-6.666 3.265-2.884.19-5.66-2.073-6.319-4.897-.109.409-.158.833-.144 1.257.23 3.433 3.08 6.072 6.463 5.985 2.498-.163 4.607-1.84 6.666-3.265 2.06-1.425 4.548-2.764 6.956-2.117 1.12.386 2.175.948 3.124 1.665a31.506 31.506 0 0 0 9.47 4.141c2.954.74 6.314.98 8.823-.767 2.841-1.98 3.906-6.034 6.956-7.618 3.21-1.665 7.014.087 10.32 1.546 3.307 1.458 7.635 2.443 10.123-.207 2.675-2.851 1.129-7.656 2.515-11.345a10.789 10.789 0 0 1 2.504-3.662c1.84-1.877 4.018-3.39 5.885-5.25 1.867-1.861 3.44-4.223 3.6-6.867a7.546 7.546 0 0 0-.08-1.67c-.369 2.382-1.813 4.488-3.52 6.186z"/>
        </g>
        <path fill="#4C4981" fill-rule="nonzero" d="M341.07 234l4.93.413s-3.716 8.686-11.646 4.398c-7.93-4.289 6.716-4.811 6.716-4.811z"/>
        <path fill="#000" fill-rule="nonzero" d="M341.07 234l4.93.413s-3.716 8.686-11.646 4.398c-7.93-4.289 6.716-4.811 6.716-4.811z" opacity=".1"/>
        <path fill="#EFB7B9" fill-rule="nonzero" d="M250 317.84s-6.015 4.148-11.53 8.76c-3.949 3.304-7.64 6.848-8.678 9.274-2.513 5.82-17.297 13.7-17.297 13.7L198.58 363.25c-3.48 1.673-6.456 6.52-7.634 8.68-.36.657-.538 1.069-.538 1.069h-6.295l-3.804-3.784s-2.05-9.161 4.39-9.888a9.122 9.122 0 0 0 3.508-1.39c6.521-3.94 14.941-14.757 14.941-14.757s13.763-22.545 18.594-23.855a8.102 8.102 0 0 0 1.496-.593c4.777-2.394 11.1-9.733 11.1-9.733L250 317.84zM320.978 367.647c-.342 9.88-5.348 29.336-7.21 33.5-2.332 5.172-2.62 14.94-2.62 14.94v6.75a7.718 7.718 0 0 1-.632 2.712c-.197.496-.424.981-.68 1.451L297 424.847s.342-2.887.995-6.232c.695-3.536 1.738-7.584 3.08-9.278 2.622-3.303 1.712-13.647 1.712-13.647s-.112-20.106.327-22.692c.407-2.467.538-4.971.39-7.467a60.82 60.82 0 0 0-.39-4.596c-.728-6.032 0-14.935 0-14.935l14.703.718 2.471 15.8c.594.918.781 2.739.69 5.13z"/>
        <path fill="#000" fill-rule="nonzero" d="M190 371.006c-.33.611-.491.994-.491.994h-5.75l-3.476-3.517s-1.872-8.516 4.01-9.191a8.25 8.25 0 0 0 3.205-1.292c.811 2.484-1.774 5.033-1.774 5.033s-1.071 1.033-.27 5.047c.52 2.723 3.017 2.991 4.546 2.926z" opacity=".1"/>
        <path fill="#444053" fill-rule="nonzero" d="M192 371.324c-.214 1.563-3.908 4.312-6.494 6.026-1.268.857-2.272 1.472-2.464 1.617-.599.394-4.435-2.835-5.28-5.719-.846-2.883-10.062-11.05-10.062-11.05a32.693 32.693 0 0 1-4.48-11.098c-.845-3.973.868-4.522 2.937-3.865a13.673 13.673 0 0 1 4.183 2.442c1.378 1.17 3.54 1.66 5.237 1.865 2.588.29 5.112.985 7.476 2.06 2.097.975 4.177 2.23 4.687 3.508 1.098 2.792-1.91 5.676-1.91 5.676s-1.196 1.121-.302 5.476c.895 4.356 6.494 2.916 6.472 3.062z"/>
        <path fill="#000" fill-rule="nonzero" d="M186 377.35c-1.24.857-2.221 1.472-2.41 1.617-.584.394-4.335-2.835-5.16-5.719-.827-2.883-9.836-11.05-9.836-11.05a33.125 33.125 0 0 1-4.378-11.098c-.827-3.973.847-4.522 2.87-3.865.73 3.137 2.34 9.217 4.384 12.225 2.43 3.563 11.95 14.84 14.53 17.89zM310.576 425.279l.147.223c-.2.513-.43 1.013-.69 1.498L297 424.778s.348-2.98 1.01-6.434c4.774-2.048 12.99 5.71 12.99 5.71l-.424 1.225z" opacity=".1"/>
        <path fill="#444053" fill-rule="nonzero" d="M312.968 435.16s-10.324 4.793-15.277 4.84c-3.764.036-4.142-1.524-4.356-4.798-.062-1.037-.112-2.265-.248-3.664-.563-5.777 1.787-7.253 1.787-7.253 2.71-10.435 16.47 1.471 16.47 1.471l-.467 1.166a11.35 11.35 0 0 1 1.984 5.28c.137.98.173 1.971.107 2.958z"/>
        <path fill="#000" fill-rule="nonzero" d="M311.971 435.022s-9.45 4.93-13.984 4.977c-3.445.038-3.791-1.566-3.987-4.935a10.276 10.276 0 0 0 8.382 1.311 31.687 31.687 0 0 0 9.491-4.375c.125 1.002.158 2.014.098 3.022z" opacity=".1"/>
        <path fill="#EFB7B9" fill-rule="nonzero" d="M330 180.115l-1.626 18.214-.334 3.766-7.032 1.92-7.249 1.985-8.4-1.947s-3.231-7.666-2.13-13.906c.317-2.212 1.419-4.219 3.086-5.62a7.81 7.81 0 0 0 1.394-1.464 7.076 7.076 0 0 0 1.055-2.109c.28-.937.394-1.92.34-2.9-.196-4.84-3.725-9.628-3.725-9.628s16.24-8.391 15.402-4.303c-.545 2.657 2.403 6.75 4.538 9.295a51.444 51.444 0 0 0 2.057 2.313l2.624 4.384z"/>
        <circle cx="311.5" cy="159.5" r="15.5" fill="#000" fill-rule="nonzero" opacity=".1"/>
        <circle cx="311.5" cy="158.5" r="15.5" fill="#EFB7B9" fill-rule="nonzero"/>
        <path fill="#444053" fill-rule="nonzero" d="M336.957 237.921c-.287 3.436-2.894 9.115-2.894 9.115L313.505 255l-17.23-13.79v-.096c.276-1.541 3.62-20.942-1.171-24.996-5.003-4.222-5.104-17.902-5.104-17.902s6.445-9.69 7.717-11.986c1.272-2.296 10.917-5.23 10.917-5.23a31.766 31.766 0 0 0-1.086 2.069 18.67 18.67 0 0 0-1.75 5.436c-.423 2.977.388 4.724.928 5.526.291.417.528.87.705 1.346 2.602 7.02 10.033 5.019 12.953 3.91.747-.284 1.203-.527 1.203-.527l7.271-.707 4.558-.438s2.597 35.889 3.461 38.68c.13.532.157 1.084.08 1.626z"/>
        <path fill="#925978" fill-rule="nonzero" d="M307 182v.037a37.673 37.673 0 0 0-.915 2.963H298a21.567 21.567 0 0 1 4.244-2.963L307 182z"/>
        <path fill="#FFF" fill-rule="nonzero" d="M306 186c-.178.882-.313 1.78-.404 2.689 0 .104 0 .207-.027.311H296c.532-1.207 1.01-2.26 1.308-3H306zM307 193h-13c.506-1.02 1.017-2.055 1.494-3h11.213c0 1.012.098 2.02.293 3zM307 196h-16c.425-.9.902-1.942 1.412-3h13.527c.069.173.138.338.207.48.292.59.529 1.23.705 1.905.038.165.096.375.149.615zM291 198.356V200h20c-.867-.749-1.601-1.776-2.145-3h-17.23l-.625 1.356z"/>
        <path fill="#925978" fill-rule="nonzero" d="M334 200h-14l.243-.144a12.23 12.23 0 0 0 1.255-.898l7.587-1.204 4.755-.754s.05 1.114.16 3z"/>
        <path fill="#FFF" fill-rule="nonzero" d="M334 203h-43.802c-.086-1.11-.15-2.13-.198-3h43.802c.086.87.14 1.89.198 3zM334 207h-43.657a96.464 96.464 0 0 1-.343-3h43.818c.054.93.102 1.942.182 3zM335 210h-43.46c-.21-.985-.4-1.993-.54-3h43.854c.033.978.092 1.978.146 3zM336 213h-42.022c-.374-.968-.701-1.97-.978-3h42.833c.054.968.113 1.98.167 3zM335 217h-39.073a5.837 5.837 0 0 0-.863-1.426c-.393-.471-.75-.999-1.064-1.574h40.83c.048 1.002.106 2.035.17 3zM335 222h-38.426a25.564 25.564 0 0 0-.574-3h38.818c.059.99.123 2.01.182 3z"/>
        <path fill="#925978" fill-rule="nonzero" d="M335 225h-37.815a56.215 56.215 0 0 0-.185-3h37.82c.058.998.116 2.01.18 3zM336 229h-39v-3h38.778c.065 1.012.157 2.025.222 3zM336 232h-39c.053-.99.09-2.01.128-3h38.632c.074 1.042.15 2.055.24 3zM337 236h-40c.075-.968.145-1.98.215-3h39.516c.102 1.155.188 2.175.269 3z"/>
        <path fill="#FFF" fill-rule="nonzero" d="M336.972 238.303c0 .232-.031.457-.058.697H297c.095-.893.19-1.92.279-3h39.578v.053a8.56 8.56 0 0 1 .115 2.25zM336 239c-.163.97-.368 2-.594 3h-38.46l-.946-1.074v-.14c.032-.26.105-.875.21-1.786H336zM337 244a63.653 63.653 0 0 1-.837 3h-33.48L300 244h37zM334 247l-.054.163L328.67 250h-22.992L303 247.03z"/>
        <path fill="#925978" fill-rule="nonzero" d="M324 250l-5.417 3h-8.968L307 250zM316 254l-2.026 1-.974-1z"/>
        <path fill="#000" fill-rule="nonzero" d="M336.975 237.026c-3.284.783-6.334 1.356-6.334 1.356L313.378 240 311 221.885s3.305-4.004 6.329-5.522c2.852-1.445 5.969-5.101 4.215-13.476a28.865 28.865 0 0 0-.349-1.492 19.33 19.33 0 0 1-.52-2.827c-.723-6.604 2.415-10.749 3.315-11.784.146-.173.23-.257.23-.257l1.092-13.519a4.83 4.83 0 0 1 .573 0c1.176 1.35 2.081 2.26 2.081 2.26l2.65 4.292-1.645 17.79 4.476-.437s2.55 35.726 3.398 38.506c.144.522.188 1.068.13 1.607z" opacity=".1"/>
        <path fill="#2691FD" d="M352 196.906a14.834 14.834 0 0 0-4.052 9.053c-.483 5.716-2.51 6.1-2.51 6.1l-.095 16.214s-1.547 3.72.191 5.433c1.74 1.712-14.467 4.676-14.467 4.676L313.43 240 311 221.884s3.376-4.004 6.46-5.522c3.084-1.518 6.466-5.533 3.956-14.969-2.19-8.249 1.808-13.434 2.855-14.611.15-.174.234-.258.234-.258l1.117-13.519s3.03-.21 4.865 1.981c.383.473.801.917 1.25 1.33 1.254 1.13 2.35 1.376 3.668.583 1.74-1.051 9.263-5.401 11.48-2.37 2.217 3.032 5.115 22.377 5.115 22.377z"/>
        <path fill="#4C4981" fill-rule="nonzero" d="M331 176.373l-1.949 9.378L323 187c.16-.176.25-.262.25-.262l1.197-13.732s3.248-.214 5.214 2.012c.41.481.858.935 1.339 1.355z"/>
        <path fill="#1C2D4D" d="M331 176.373l-1.949 9.378L323 187c.16-.176.25-.262.25-.262l1.197-13.732s3.248-.214 5.214 2.012c.41.481.858.935 1.339 1.355z"/>
        <path fill="#000" fill-rule="nonzero" d="M373 153.751v2.886L360.842 160s-1.112-.627-2.842-1.45c1.315-.467 7.274-2.591 10.35-4.027 1.138-.518 1.891-.943 1.891-1.15 0-.114-.12-.238-.327-.373 1.912.461 3.086.751 3.086.751z" opacity=".1"/>
        <path fill="#2691FD" d="M390.117 170.9s-12.946 12.83-21.615 15.787c0 0-12.057 5.346-16.397 10.313L344 176.92l2.989-2.7s4.255 1.92 7.526.663c3.27-1.257 6.946-2.219 6.946-2.219s6.079-3.117 8.78-3.7c2.394-.534 1.006-3.539-1.622-4.897a5.786 5.786 0 0 0-1.063-.438s-1.351 2.523-3.952 1.454a9.324 9.324 0 0 1-2.66-1.898 29.997 29.997 0 0 1-3.19-3.715s7.286-2.593 10.86-4.245c1.165-.535 1.936-.973 1.936-1.187 0-.877-7.137-2.716-7.137-2.716s5.451-3.587 8.078-1.844c0 0-1.372 1.358 0 2.33 1.373.974 17.775 10.517 17.775 10.517s7.802 2.662.85 8.575z"/>
        <path fill="#000" fill-rule="nonzero" d="M377 161.73l-7.762 2.063a5.936 5.936 0 0 0-1.058-.414s-1.344 2.38-3.931 1.372a9.284 9.284 0 0 1-2.646-1.79 28.58 28.58 0 0 1-2.603-2.956s7.243-2.446 10.804-4.005l7.196 5.73z" opacity=".1"/>
        <path fill="#4C4981" fill-rule="nonzero" d="M377 162.004l-8.254 2.3s-1.344 2.49-3.93 1.435c-2.585-1.055-5.816-5.55-5.816-5.55s7.244-2.559 10.798-4.189l7.202 6.004z"/>
        <path fill="#1C2D4D" d="M377 162.004l-8.254 2.3s-1.344 2.49-3.93 1.435c-2.585-1.055-5.816-5.55-5.816-5.55s7.244-2.559 10.798-4.189l7.202 6.004z"/>
        <path fill="#000" fill-rule="nonzero" d="M234.76 309l15.24 8.562s-5.843 3.995-11.2 8.438c-5.55-2.739-10.776-5.262-14.8-7.61 4.62-2.306 10.76-9.39 10.76-9.39zM320.978 367.957c-4.083.305-10.592-1.124-10.592-1.124s-2.649-.235-6.68-1.022a63.161 63.161 0 0 0-.386-4.663c-.72-6.118 0-15.148 0-15.148l14.56.728 2.447 16.026c.556.932.741 2.778.651 5.203z" opacity=".1"/>
        <path fill="#444053" fill-rule="nonzero" d="M338.124 300.114c-2.314 4.635-7.815 23.748-7.815 23.748a75.872 75.872 0 0 1-4.787 9.994c-2.607 4.342-3.623 13.462-5.07 20.848-1.447 7.386 1.447 5.651 1.596 9.413.149 3.762-13.901.724-13.901.724s-28.233-2.458-38.798-18.092c-10.566-15.634-46.028-26.51-54.045-35.05-8.017-8.541 1.208-5.796.191-10.861-1.016-5.066 2.315-9.85 2.315-9.85s12.16-5.215 13.9-7.982c1.74-2.767 11.007-10.259 11.007-10.259s8.98-5.358 9.991-6.95c1.01-1.59 11.704-7.529 15.055-8.833 3.352-1.303 6.06-6.667 6.06-6.667s2.176 0 4.926-3.475S294.384 239 294.384 239c24.775 13.612 40.086 9.222 40.086 9.222l.771 3.086c14.034 14.048 5.203 44.171 2.883 48.806z"/>
        <path fill="#000" fill-rule="nonzero" d="M335 251.144s-18.753 8.862-41-12.144c24.86 13.43 40.236 9.099 40.236 9.099l.764 3.045zM303 266.001s-21.468 41.358-22.933 42.957c-1.465 1.6 21.479-43.245 22.933-42.957zM313.99 262s-14.84 30.268-13.952 34c0 0 14.399-29.124 13.952-34zM326.089 269s-1.028 15.887 3.911 24l-3.911-24zM334 268s1.541 13.428 3 16l-3-16zM287 261l-23 13h9.023zM321.194 150.107c-1.137.98-1.99 2.428-3.443 2.815-1.033.272-2.114-.065-3.142-.36-2.601-.745-5.503-1.208-7.945-.038-3.481 1.672-4.919 6.11-8.4 7.808a6.503 6.503 0 0 1-5.508.109 6.402 6.402 0 0 1-3.344-3.534c-1.017-2.678-.055-5.81 1.825-7.976 1.88-2.167 4.547-3.501 7.246-4.481 7.06-2.559 14.694-3 22.203-3.414a3.29 3.29 0 0 1 1.792.234c1.24.686 3.727 4.655 3.508 6.142-.29 1.955-4.792 1.083-4.792 2.695z" opacity=".1"/>
        <path fill="#925978" fill-rule="nonzero" d="M321.194 149.113c-1.137.985-1.99 2.427-3.443 2.813-1.033.278-2.114-.06-3.142-.359-2.601-.745-5.503-1.208-7.945-.038-3.481 1.67-4.919 6.112-8.4 7.804a6.542 6.542 0 0 1-3.442.643 6.36 6.36 0 0 1-2.066-.545 6.4 6.4 0 0 1-3.344-3.532c-1.017-2.677-.055-5.807 1.825-7.967 1.88-2.161 4.547-3.505 7.246-4.485 7.06-2.558 14.694-2.999 22.203-3.412a3.291 3.291 0 0 1 1.792.24c1.24.685 3.727 4.647 3.508 6.133-.29 2.013-4.792 1.094-4.792 2.705z"/>
        <path fill="#EFB7B9" fill-rule="nonzero" d="M229 172.201L227.927 182l-3.266-1.44-17.698-7.839s-12.475 1.181-14.744-8.774c-2.268-9.956 13.794-1.918 14.669-1.252.874.667 2.847 1.76 2.847 1.76l16.385 6.582L229 172.2z"/>
        <path fill="#000" fill-rule="nonzero" d="M228 173.053l-.989 8.947-3.011-1.316c.109-4.005.593-7.74 1.365-8.684l2.635 1.053zM317 222.81l-.765 20.19-19.988-1.567c.275-1.577 3.604-21.438-1.166-25.587-4.98-4.322-5.081-18.326-5.081-18.326s6.395-9.904 7.662-12.254c1.266-2.35 10.87-5.354 10.87-5.354a8.375 8.375 0 0 0 .347-2.912c.405.631.746 1.303 1.019 2.004.432 3.61-.654 6.268-4.19 8.59-.311.206-.638.406-.986.606-.565.319-1.177.637-1.847.945l-.301.14c-6.031 2.745-6.896 6.765-6.896 6.765a15.118 15.118 0 0 0-1.53 10.74c1.408 6.036 22.852 16.02 22.852 16.02z" opacity=".1"/>
        <path fill="#2691FD" d="M316 223.084L315.23 243l-22.621-1.737s-.287-7.461.865-10.659c1.15-3.198-.669-14.789-.669-14.789-10.685-8.9-6.838-17.794-6.838-17.794s-28.118-.869-28.68-1.642c-.563-.772-10.394-4.55-10.394-4.55s-10.303-1.253-11.841-2.511a12.052 12.052 0 0 0-1.825-1.268 4.834 4.834 0 0 0-.579-.283l.096 6.48a1.548 1.548 0 0 1-.223 0h-.122a9.065 9.065 0 0 1-4.663-1.108c-2.5-1.45-2.122-20.987 0-21.946.403-.166.84-.226 1.273-.176 1.735.123 4.032 1.354 5.082 1.961l.425.256.154.096s13.088 3.272 15.879 5.207c2.79 1.934 22.547 2.233 22.547 2.233s8.95.927 9.916-.475c.965-1.401 13.953-5.169 15.3-3.426 1.348 1.742 4.404 1.066 4.404 1.066 1.851-2.814 3.49-2.03 4.605-.71a10.233 10.233 0 0 1 1.533 2.665c.477 3.875-.86 6.635-5.205 9.06-.652.363-1.369.72-2.159 1.066-6.064 2.707-6.929 6.672-6.929 6.672a14.654 14.654 0 0 0-1.544 10.595C294.44 213.236 316 223.084 316 223.084z"/>
        <path fill="#000" fill-rule="nonzero" d="M228.448 171a1.98 1.98 0 0 0-.7.174c-2.137.946-2.517 20.229 0 21.66a9.246 9.246 0 0 0 4.115 1.162h.123c.074.005.15.005.224 0l-.096-6.396c.2.08.395.173.582.279v-.279A16.29 16.29 0 0 1 234 173.21l-5.552-2.21z" opacity=".1"/>
        <path fill="#4C4981" fill-rule="nonzero" d="M231.565 187.585l.094 6.395a8.798 8.798 0 0 1-4.945-1.136c-2.467-1.43-2.096-20.711 0-21.658 1.65-.757 4.95.994 6.286 1.762a16.567 16.567 0 0 0-1.435 14.637z"/>
        <path fill="#FFF" fill-rule="nonzero" d="M231.565 187.585l.094 6.395a8.798 8.798 0 0 1-4.945-1.136c-2.467-1.43-2.096-20.711 0-21.658 1.65-.757 4.95.994 6.286 1.762a16.567 16.567 0 0 0-1.435 14.637z" opacity=".1"/>
        <path fill="#1C2D4D" d="M303.614 189L300 186.585l7.348-8.585a9.446 9.446 0 0 1 1.559 2.5c.485 3.625-.874 6.215-5.293 8.5z"/>
        <path fill="#000" fill-rule="nonzero" d="M303.614 188L300 185.585l7.348-8.585a9.53 9.53 0 0 1 1.559 2.5c.485 3.63-.874 6.215-5.293 8.5zM321.199 148.307c-1.137.949-1.995 2.345-3.443 2.719-1.033.268-2.115-.058-3.143-.343-2.607-.727-5.51-1.174-7.952-.036-3.476 1.617-4.92 5.91-8.4 7.554a6.772 6.772 0 0 1-3.439.616c-2.44-.193-4.545-1.723-5.41-3.93a5.944 5.944 0 0 1-.383-1.664 6.162 6.162 0 0 0 .382 2.808c.603 1.52 1.806 2.75 3.345 3.419a6.495 6.495 0 0 0 2.066.526 6.715 6.715 0 0 0 3.438-.621c3.47-1.639 4.92-5.937 8.4-7.555 2.444-1.132 5.346-.685 7.953.037 1.028.29 2.11.616 3.143.348 1.448-.374 2.306-1.77 3.443-2.724 0-1.58 4.504-.695 4.793-2.608a2.259 2.259 0 0 0-.093-.853c-.694 1.517-4.7.838-4.7 2.307zM314 193.264s2.106 4.76.335 6.736c0 0 1.398-6.935 2.665-7" opacity=".1"/>
        <path fill="#EFB7B9" fill-rule="nonzero" d="M198.704 160s12.648 8.1 4.639 10.67c-8.01 2.568-4.64-10.67-4.64-10.67z"/>
    </g>
</svg>
