<svg xmlns="http://www.w3.org/2000/svg" width="160" height="276" viewBox="0 0 160 276">
    <defs>
        <linearGradient id="a" x1="50%" x2="50%" y1="100%" y2="0%">
            <stop offset="0%" stop-color="gray" stop-opacity=".25"/>
            <stop offset="53.514%" stop-color="gray" stop-opacity=".12"/>
            <stop offset="100%" stop-color="gray" stop-opacity=".1"/>
        </linearGradient>
    </defs>
    <g fill="none" fill-rule="evenodd">
        <ellipse cx="73.5" cy="264.5" fill="#F2F2F2" fill-rule="nonzero" rx="73.5" ry="11.5"/>
        <ellipse cx="85.5" cy="260.5" stroke="#3F3D56" rx="73.5" ry="11.5"/>
        <path fill="url(#a)" fill-rule="nonzero" d="M121.705 52.211c-.213-.24-.43-.475-.655-.702 1.721-1.947 3.502-3.942 3.486-6.443-.019-3.04-2.724-5.372-3.735-8.245-1.375-3.911.533-8.1 1.318-12.165a22.76 22.76 0 0 0-4.963-18.785c-.794-.936-1.717-1.842-2.9-2.213-1.8-.566-3.714.22-5.589.45-6.19.763-11.82-4.554-18.04-4.078a3.363 3.363 0 0 0-1.197.267c-.805.384-1.241 1.23-1.738 1.96-1.932 2.834-5.176 4.242-8.404 5.697a4.399 4.399 0 0 0-1.146.524c-.97.45-1.924.92-2.825 1.45-6.093 3.596-5.21 8.626-1.616 11.733-.702 3.488-4.28 6.56-3.663 10.146.483 2.812 3.42 4.725 3.985 7.521.329 1.625-.189 3.172-.907 4.709-6.82 1.573-14.522 4.47-15.124 9.582-1.045 8.894-4.193 33.458-4.193 33.458s-3.647 19.681 10.21 10.378l-.177.523a114.178 114.178 0 0 0-5.086 23.2c-.141 1.172-.423 2.097-.936 2.399-.186.11.182.283.982.5-.09.33-.188.66-.274.992a94.004 94.004 0 0 0-2.907 17.57 123.21 123.21 0 0 1-2.177 15.648c-3.282 16.461 0 37.574 0 37.574l7.162 33.615 1.226 5.747a8.565 8.565 0 0 0 2.903 2.089c.48 2.06.812 4.15.995 6.256.02.234.035.472.05.71a2.996 2.996 0 0 0-2.125 1.323c-2.553 3.578.365 6.44-9.482 13.598-2.544 1.848-3.77 3.53-4.082 4.958-.335 1.537.393 2.78 1.692 3.622l.002.002c.221.143.451.271.69.384l.01.005c.12.058.244.112.37.164h.002c.127.053.257.101.39.147l.022.008c.125.043.251.083.38.12l.028.01c.134.038.27.074.409.107l.035.008c.127.03.256.057.386.082l.05.01c.14.025.281.048.423.069l.047.006c.127.017.256.032.386.045l.074.008c.142.013.285.023.429.031l.055.002c.128.006.256.01.385.013h.09c.145 0 .29 0 .434-.006.02 0 .038-.002.057-.003.128-.005.257-.012.386-.022l.102-.008c.144-.012.289-.026.434-.044l.051-.007c.13-.016.26-.035.389-.056l.108-.018c.143-.025.287-.053.43-.083l.041-.01a10.583 10.583 0 0 0 .923-.247l.024-.008a9.959 9.959 0 0 0 .913-.343c6.564-2.863 20.057-10.378 20.057-10.378v-.24l-.002-.104v-.093l-.002-.116-.001-.11-.002-.153-.002-.118-.003-.174-.006-.313c-.067-3.127-.377-10.31-1.805-10.03-.487.096-.818.777-1.159 1.562l-.169-.32c-1.39-2.672-3.4-7.258-3.596-11.74a21.054 21.054 0 0 0 3.1-2.742s-.733-3.077-1.356-6.323c-.54-2.813-1-5.754-.832-6.917.365-2.505-4.376-21.828-4.376-21.828s.489-4.251 1.47-10.16c1.907-11.482 5.663-29.228 11.268-34.245.132-.114.26-.225.39-.325 0 0 4.012.715 7.294 23.26l.952 10.04c.273 2.781.746 5.539 1.415 8.252a43.325 43.325 0 0 1 .916 13.197c-.416 5.919-.595 12.886-.671 17.778-.059 3.686-.059 6.198-.059 6.198a13.769 13.769 0 0 0 2.188 1.507v3.283a2.727 2.727 0 0 1-.767 1.866l-.013.014a5.063 5.063 0 0 0-1.101 2.02c-.637 1.141-1.176 2.997-1.4 5.981-.73 9.662-1.095 8.588-1.095 8.588a12.708 12.708 0 0 0-.827 3.258c-.02.21-.034.42-.037.63l-.001.1a6.603 6.603 0 0 0 .031.643 5.28 5.28 0 0 0 .045.327 4.344 4.344 0 0 0 .158.624l.03.08c.029.076.06.152.095.227l.03.067a2.918 2.918 0 0 0 .359.555l.045.052a2.6 2.6 0 0 0 .22.224l.025.022c.08.07.165.134.253.194.013.01.026.02.04.028.097.063.197.12.3.171l.062.03c.111.053.226.1.342.139l.062.02c.133.043.268.08.405.108l.015.003c.142.03.293.051.45.069l.065.007a6.16 6.16 0 0 0 .586.028c.173 0 .353-.005.542-.017l.09-.007c.2-.016.408-.036.627-.067 7.658-1.074 11.305-1.79 10.94-6.083-.22-2.589-.837-6.347-1.293-8.924a13.39 13.39 0 0 0-1.261-3.763c.019-.202.037-.409.053-.621.13-1.775.124-3.887-.416-5.3l.168-3.133c1.9-.48 3.616-1.507 4.937-2.95 0 0 .055-2.323.216-5.4.24-4.756.722-11.319 1.608-13.924 1.459-4.294 0-19.323 0-19.323s-5.47-25.765-.365-36.858c4.505-9.785 4.465-19.574.133-29.114.085-.067.163-.144.232-.229 0 0-1.094-.715-.73-8.946.279-6.281-1.566-12.766-2.456-15.488a38.087 38.087 0 0 0 4.28 1.533c8.388 2.504 9.117-6.8 9.117-6.8L122.36 83.5l2.162-20.802v-.001c.593-1.632 1.388-5.708-2.817-10.485zM84.63 38.423c-.01.23-.026.46-.05.69a9.236 9.236 0 0 1-.467 2.172c.25-.95.401-1.922.453-2.903.02.014.043.027.064.04zm22.047 50.801c.13.236.253.467.371.693l-.921-.47a20.513 20.513 0 0 1 1.644-4.875 34.46 34.46 0 0 0 2.23-5.617c-.027 2.235.081 4.469.323 6.69.73 5.726-3.647 3.58-3.647 3.58z"/>
        <path fill="#3F3D56" fill-rule="nonzero" d="M75.263 11.49c-1.142.796-2.337 1.716-2.744 3.067-.656 2.18.99 4.367 1.154 6.64.296 4.135-4.28 7.552-3.605 11.64.462 2.802 3.273 4.709 3.814 7.496.79 4.064-3.522 7.649-3.182 11.778.18 2.2 1.677 4.068 3.376 5.431A16.246 16.246 0 0 0 82.322 61c-.2-3.536-2.766-6.753-2.326-10.266.302-2.41 1.96-4.379 2.92-6.6 1.685-3.902 1.146-8.417.135-12.555-1.01-4.137-2.47-8.227-2.543-12.49-.044-2.566 1.134-6.338.27-8.774-1.05-2.96-3.557-.19-5.515 1.175z"/>
        <path fill="#000" fill-rule="nonzero" d="M75.263 11.49c-1.142.796-2.337 1.716-2.744 3.067-.656 2.18.99 4.367 1.154 6.64.296 4.135-4.28 7.552-3.605 11.64.462 2.802 3.273 4.709 3.814 7.496.79 4.064-3.522 7.649-3.182 11.778.18 2.2 1.677 4.068 3.376 5.431A16.246 16.246 0 0 0 82.322 61c-.2-3.536-2.766-6.753-2.326-10.266.302-2.41 1.96-4.379 2.92-6.6 1.685-3.902 1.146-8.417.135-12.555-1.01-4.137-2.47-8.227-2.543-12.49-.044-2.566 1.134-6.338.27-8.774-1.05-2.96-3.557-.19-5.515 1.175z" opacity=".1"/>
        <path fill="#FFB9B9" fill-rule="nonzero" d="M79 249.613l-3.214 3.222s-11.429 6.085-10-2.148a29.69 29.69 0 0 0 .246-7.402A46.1 46.1 0 0 0 64 233.148L74.714 231c-1.782 5.613 1.154 12.679 2.986 16.276.74 1.45 1.3 2.337 1.3 2.337zM102.932 242.32a32.267 32.267 0 0 1-.397 3.225s-8.725 5.965-9.423-.702c-.454-4.344.572-6.305 1.347-7.144l.012-.013a2.71 2.71 0 0 0 .735-1.83V228l7.678 2.456-.35 6.667c.517 1.386.524 3.457.398 5.197z"/>
        <path fill="#000" fill-rule="nonzero" d="M79 249.498l-3.133 3.29s-11.139 6.216-9.747-2.193c.381-2.5.462-5.04.24-7.56 2.44-.377 5.33 2.442 5.33 2.442 4.08 6.047 5.18 3.758 6.043 1.634A33.437 33.437 0 0 0 79 249.498z" opacity=".05"/>
        <path fill="#3F3D56" fill-rule="nonzero" d="M71.76 245.45s-4.974-4.698-7.462-1.084c-2.487 3.615.356 6.506-9.239 13.734s0 11.926 6.396 9.035C67.852 264.244 81 256.655 81 256.655s0-11.927-1.777-11.566c-1.777.362-1.421 9.035-7.462.362z"/>
        <path fill="#000" fill-rule="nonzero" d="M103 243.174a33.688 33.688 0 0 1-.4 3.308s-8.785 6.119-9.488-.72c-.456-4.456.577-6.467 1.357-7.328a2.058 2.058 0 0 1 2.157-.23c1.406-.64 2.952.428 4.23 1.81.867.936 1.59 2.002 2.144 3.16z" opacity=".05"/>
        <path fill="#3F3D56" fill-rule="nonzero" d="M96.345 238.204s-3.797-2.155-4.488 7.542c-.69 9.696-1.035 8.619-1.035 8.619s-3.453 8.62 3.797 7.542c7.25-1.078 10.703-1.796 10.357-6.105-.208-2.598-.792-6.37-1.223-8.957a13.38 13.38 0 0 0-3.25-6.836c-1.26-1.38-2.777-2.443-4.158-1.805zM109.05 193.477s1.427 14.986 0 19.268c-.866 2.597-1.337 9.141-1.572 13.883-.157 3.069-.21 5.384-.21 5.384-6.775 7.137-14.62 0-14.62 0s0-2.504.057-6.18c.075-4.877.25-11.824.656-17.726a44.033 44.033 0 0 0-.894-13.16 58.984 58.984 0 0 1-1.384-8.227l-.93-10.013c-3.21-22.479-7.132-23.192-7.132-23.192-.128.1-.253.21-.381.324-5.48 5.003-9.153 22.697-11.018 34.147-.96 5.891-1.437 10.13-1.437 10.13s4.635 19.268 4.279 21.766c-.164 1.16.285 4.092.813 6.897.61 3.236 1.326 6.305 1.326 6.305-8.914 9.634-14.976 2.14-14.976 2.14l-1.198-5.73-7.003-33.519s-3.209-21.052 0-37.465a125.157 125.157 0 0 0 2.129-15.603 95.439 95.439 0 0 1 2.842-17.52 93.485 93.485 0 0 1 1.447-5.056S73.234 118 85.842 118c9.456 0 18.47 1.31 21.069 5.898a42.773 42.773 0 0 1 1.633 3.176c4.514 9.709 4.65 19.682.15 29.65-4.992 11.062.356 36.753.356 36.753z"/>
        <path fill="#FFB9B9" fill-rule="nonzero" d="M79.047 64s-19.06-19.137-4.675-17.72c3.261.323 5.47-.251 6.933-1.329 1.669-1.226 2.37-3.104 2.564-5.064.396-3.909-1.226-8.137-1.226-8.137s19.42-15.239 15.464 3.899a32.175 32.175 0 0 0-.756 5.914c-.064 4.062 1.291 5.618 3.194 6.255 3.208 1.081 7.976-.432 10.148 3.07C114.65 57.266 79.047 64 79.047 64z"/>
        <path fill="#000" fill-rule="nonzero" d="M79.047 64s-19.06-19.137-4.675-17.72c3.261.323 5.47-.251 6.933-1.329 1.669-1.226 2.37-3.104 2.564-5.064.396-3.909-1.226-8.137-1.226-8.137s19.42-15.239 15.464 3.899a32.175 32.175 0 0 0-.756 5.914c-.064 4.062 1.291 5.618 3.194 6.255 3.208 1.081 7.976-.432 10.148 3.07C114.65 57.266 79.047 64 79.047 64z" opacity=".1"/>
        <path fill="#FFB9B9" fill-rule="nonzero" d="M108 26.504C107.995 35.064 101.057 42 92.5 42S77.005 35.064 77 26.504c0-.288.007-.577.025-.861.466-8.382 7.517-14.87 15.907-14.637C101.32 11.24 108 18.11 108 26.504z"/>
        <path fill="#000" fill-rule="nonzero" d="M79.047 64s-19.06-19.088-4.675-17.674c3.261.321 5.47-.251 6.933-1.326-2.783 4.539-5.916 12.7 8.17 11.93 12.893-.703 12.674-5.755 11.07-9.07 3.208 1.078 7.976-.432 10.148 3.06C114.65 57.285 79.047 64 79.047 64z" opacity=".05"/>
        <path fill="#000" fill-rule="nonzero" d="M110 128.46c-3.267 4.19-44.911-1.303-51-3.127.438-1.687.924-3.36 1.458-5.02 0 0 13.48-2.313 26.174-2.313 9.521 0 18.597 1.3 21.214 5.855a42.245 42.245 0 0 1 1.644 3.153c.23 1.268.51 1.452.51 1.452z" opacity=".1"/>
        <path fill="#2691FD" d="M83.645 43s-24.054 1.96-25.123 11.224c-1.022 8.857-4.098 33.317-4.098 33.317s-3.564 19.599 9.978 10.334l-.174.521a115.555 115.555 0 0 0-4.97 23.101c-.138 1.169-.413 2.09-.914 2.39-1.782 1.07 47.752 8.196 51.316 3.563 0 0-1.07-.712-.713-8.908.357-8.195-2.85-16.747-2.85-16.747s-2.852-8.552 1.068-16.748c3.92-8.196 2.495-10.69 2.495-10.69l13.542-10.333s2.924-5.013-2.422-11.201a18.522 18.522 0 0 0-12.728-6.271l-9.34-.665s10.235 11.01-9.008 12.079C70.46 59.035 83.645 43 83.645 43z"/>
        <path fill="#000" fill-rule="nonzero" d="M67.83 63s.68 5.587-.68 7.333c-1.359 1.746-1.699 9.778 0 14.667" opacity=".05"/>
        <path fill="#000" fill-rule="nonzero" d="M83 154.112c-5.278 4.965-8.816 22.525-10.612 33.888-2.5-15.818 7.889-42 7.889-42L83 154.112zM77 232.18c-8.818 9.443-14.815 2.099-14.815 2.099L61 228.662c3.333 1.717 8.966 3.05 14.688-2.662.603 3.172 1.312 6.18 1.312 6.18zM108 226.766a195.989 195.989 0 0 0-.213 5.182c-6.852 6.867-14.787 0-14.787 0s0-2.411.058-5.948c2.975 1.8 8.324 3.78 14.942.766z" opacity=".1"/>
        <rect width="24" height="10" x="69" y="75" fill="#CDD0DB" fill-rule="nonzero" rx="3.75"/>
        <rect width="24" height="10" x="69" y="75" fill="#000" fill-rule="nonzero" opacity=".05" rx="3.75"/>
        <rect width="24" height="10" x="69" y="75" fill="#3F3D56" fill-rule="nonzero" rx="3.75"/>
        <circle cx="88" cy="80" r="1" fill="#9DA7C0" fill-rule="nonzero"/>
        <path fill="#000" fill-rule="nonzero" d="M59.289 90.506c.637-1.984 2.08-3.573 3.944-4.341 1.474-.571 2.685-1.707 3.386-3.177 1.377-3.184 3.821-6.467 10.105-4.278 6.284 2.188-1.745 3.647-1.745 3.647s14.313-2.188 8.727 2.189c-5.585 4.377-12.568 6.93-12.568 6.93L67.7 95.28c-.996 1.124-2.405 1.75-3.871 1.719-1.467-.03-2.85-.714-3.804-1.878a4.81 4.81 0 0 1-.736-4.615z" opacity=".05"/>
        <path fill="#FFB9B9" fill-rule="nonzero" d="M59.289 89.506c.637-1.984 2.08-3.573 3.944-4.341 1.474-.571 2.685-1.707 3.386-3.177 1.377-3.184 3.821-6.467 10.105-4.278 6.284 2.188-1.745 3.647-1.745 3.647s14.313-2.188 8.727 2.189c-5.585 4.377-12.568 6.93-12.568 6.93L67.7 94.28c-.996 1.124-2.405 1.75-3.871 1.719-1.467-.03-2.85-.714-3.804-1.878a4.81 4.81 0 0 1-.736-4.615z"/>
        <path fill="#000" fill-rule="nonzero" d="M108 96.837L105.553 103l-3.131-2.39-8.752-6.674-5.942-3.988c-8.388-6.526 0-7.614 0-7.614-3.145-1.45 0-2.9 0-2.9 11.185-2.538 9.088 6.888 9.088 6.888l7.084 3.81 2.352 1.266L108 96.837z" opacity=".05"/>
        <path fill="#FFB9B9" fill-rule="nonzero" d="M109 96.837L106.553 103l-3.131-2.39-8.752-6.674-5.942-3.988c-8.388-6.526 0-7.614 0-7.614-3.145-1.45 0-2.9 0-2.9 11.185-2.538 9.088 6.888 9.088 6.888l7.084 3.81 2.352 1.266L109 96.837z"/>
        <path fill="#000" fill-rule="nonzero" d="M110 96.773L107.368 103 104 100.586c3.049.106 6.65-1.33 1.59-10.586l2.53 1.278 1.88 5.495z" opacity=".05"/>
        <path fill="#2691FD" d="M122.303 61l.697 2.765-2.141 20.43-1.806 13.707s-.722 9.138-9.026 6.677c-8.305-2.46-9.027-4.92-9.027-4.92s11.915 3.866 4.333-9.84c0 0 4.333 2.108 3.61-3.515-.722-5.623 0-15.463 0-15.463L122.304 61z"/>
        <path fill="#000" fill-rule="nonzero" d="M108 26.187c0 7.094-5.016 13.243-12.082 14.813-.52-1.47-.887-2.931-.509-4.418.733-2.886 4.135-4.991 3.756-7.94a1.93 1.93 0 0 0-.343-.925c-.76-.982-2.312-.495-3.546-.251-3.325.54-6.546-1.406-7.547-4.556-2.825 2.72-6.97 3.66-10.729 2.433.467-8.21 7.523-14.566 15.92-14.337 8.395.229 15.08 6.958 15.08 15.181z" opacity=".05"/>
        <path fill="#3F3D56" fill-rule="nonzero" d="M88.316 22.498c.978 3.193 4.133 5.163 7.389 4.615 1.21-.244 2.728-.738 3.474.257.19.276.306.599.335.934.374 2.991-2.959 5.123-3.676 8.048-.74 3.013 1.427 5.923 1.889 8.991.252 1.68-.015 3.39.004 5.087.02 1.698.395 3.522 1.638 4.662 1.243 1.14 3.54 1.151 4.373-.322 3.976 2.128 2.388 8.724 5.407 12.1 1.666 1.862 4.405 2.31 6.874 2.071a2.874 2.874 0 0 0 1.616-.528c.409-.408.685-.933.79-1.505.623-2.389.516-4.913-.308-7.24-.396-1.111-.964-2.236-.817-3.408a5.07 5.07 0 0 1 1.226-2.433c1.898-2.384 4.489-4.689 4.47-7.751-.019-3.04-2.64-5.373-3.62-8.247-1.332-3.912.517-8.102 1.278-12.167 1.201-6.675-.557-13.547-4.809-18.79-.77-.936-1.664-1.842-2.81-2.214-1.744-.565-3.599.22-5.416.452-5.997.762-11.453-4.556-17.48-4.08-.4.015-.793.106-1.16.267-.78.384-1.202 1.23-1.684 1.96-2.66 4.029-7.89 5.177-11.99 7.674-11.974 7.293 3.85 20.494 13.007 11.567z"/>
        <path fill="#FFF" fill-rule="nonzero" d="M61.454 265.65c-4.153 1.91-9.652.564-10.375-2.626-.87 4.212 5.63 6.278 10.375 4.096C67.85 264.18 81 256.46 81 256.46s0-.571-.018-1.46c-.383.225-13.227 7.753-19.528 10.65zM104.959 256c-.399 3.026-3.844 3.663-10.341 4.567-3.304.46-4.383-.967-4.581-2.656-.216 2.163.415 4.582 4.581 4.002 7.25-1.01 10.704-1.682 10.358-5.72l-.017-.193z" opacity=".3"/>
        <g fill="#000" fill-rule="nonzero" opacity=".1">
            <path d="M118.127 67.478c-2.504.239-5.283-.209-6.972-2.069-3.063-3.373-1.452-9.964-5.486-12.09-.844 1.473-3.175 1.461-4.435.322-1.26-1.138-1.643-2.96-1.662-4.657-.02-1.697.251-3.406-.005-5.083-.467-3.066-2.665-5.973-1.916-8.983.728-2.923 4.109-5.053 3.73-8.041a1.93 1.93 0 0 0-.34-.934c-.757-.994-2.297-.5-3.524-.256a6.7 6.7 0 0 1-7.496-4.611c-8.303 7.972-22.007-1.72-16.147-9.072-9.144 7.414 5.857 19.005 14.713 10.502a6.7 6.7 0 0 0 7.496 4.611c1.227-.244 2.768-.738 3.524.257.193.276.31.598.34.933.38 2.988-3.001 5.118-3.73 8.041-.75 3.01 1.449 5.917 1.917 8.984.256 1.677-.015 3.386.004 5.082.02 1.697.401 3.52 1.662 4.658 1.26 1.139 3.59 1.15 4.435-.322 4.034 2.126 2.423 8.716 5.486 12.09 1.69 1.86 4.468 2.307 6.973 2.069a2.946 2.946 0 0 0 1.639-.528 2.33 2.33 0 0 0 .661-1.047 5.036 5.036 0 0 1-.867.144zM88.99 1.852c.123-.184.242-.375.365-.564-.03.013-.061.022-.09.036-.791.383-1.22 1.23-1.709 1.958-.168.251-.346.491-.534.72a10.23 10.23 0 0 0 1.968-2.15z"/>
        </g>
        <path fill="#000" fill-rule="nonzero" d="M69.05 101s-.924 3.307 5.148 4.776C80.27 107.246 69.05 101 69.05 101zM66.595 111s-2.897 2.231 4.092 6.106c6.99 3.875-4.092-6.106-4.092-6.106zM59 148s8.719-2.468 9.91-6.17C70.103 138.13 59 148 59 148zM60 193s3.44 2.276 5.616 1.972C67.793 194.67 60 193 60 193zM61 198s1.532.867 4.345.99C68.158 199.114 61 198 61 198z" opacity=".1"/>
        <path fill="#57B894" fill-rule="nonzero" d="M121.94 211.548a7.498 7.498 0 0 0 8.964-10.951 7.498 7.498 0 0 0-7.966-3.432l.188 3.86-1.826-3.308a7.471 7.471 0 0 0-3.85 4.224 7.498 7.498 0 0 0 4.489 9.607z"/>
        <path stroke="#3F3D56" d="M131.359 256c-.62-3.245 2.067-6.121 4.721-7.99 2.654-1.87 5.756-3.708 6.661-6.88 1.302-4.56-2.575-8.737-5.593-12.338a44.723 44.723 0 0 1-5.727-8.747 12.258 12.258 0 0 1-1.37-3.976c-.238-2.022.394-4.033 1.031-5.961A438.814 438.814 0 0 1 137.885 191"/>
        <path stroke="#3F3D56" d="M122.94 210.548a7.498 7.498 0 0 0 8.964-10.951 7.498 7.498 0 0 0-7.966-3.432l.188 3.86-1.826-3.308a7.471 7.471 0 0 0-3.85 4.224 7.498 7.498 0 0 0 4.489 9.607z"/>
        <path fill="#57B894" fill-rule="nonzero" d="M130.45 189.941a7.492 7.492 0 0 1 5.399-4.757l.617 3.671 1.145-3.855a7.5 7.5 0 1 1-7.16 4.941z"/>
        <path stroke="#3F3D56" d="M130.45 188.941a7.492 7.492 0 0 1 5.399-4.757l.617 3.671 1.145-3.855a7.5 7.5 0 1 1-7.16 4.941z"/>
        <path fill="#57B894" fill-rule="nonzero" d="M135.944 228.55a7.499 7.499 0 0 0 6.637-13.34l-.88 2.961-.624-3.712a7.499 7.499 0 0 0-5.134 14.09z"/>
        <path stroke="#3F3D56" d="M135.942 227.55a7.5 7.5 0 0 0 6.638-13.342l-.88 2.962-.623-3.713a7.5 7.5 0 1 0-5.134 14.092z"/>
        <path fill="#57B894" fill-rule="nonzero" d="M128.115 240.798a7.499 7.499 0 1 0 1.446-5.875l3.343 5.031-4.568-2.67a7.434 7.434 0 0 0-.22 3.514z"/>
        <path stroke="#3F3D56" d="M128.115 239.798a7.499 7.499 0 1 0 1.446-5.875l3.343 5.031-4.568-2.67a7.434 7.434 0 0 0-.22 3.514z"/>
        <path fill="#656380" fill-rule="nonzero" d="M121 259.936s6.45-2.58 8.394-3.994c1.944-1.413 9.921-3.1 10.403-.834.483 2.267 9.693 11.273 2.412 11.332-7.282.06-16.92 1.22-18.86.014-1.94-1.207-2.349-6.518-2.349-6.518z"/>
        <path fill="#000" fill-rule="nonzero" d="M142.34 265.665c-7.282.06-16.921 1.208-18.861.013-1.478-.909-2.067-4.172-2.264-5.678l-.215.008s.409 5.257 2.349 6.451c1.94 1.195 11.579.047 18.861-.013 2.102-.017 2.828-.773 2.788-1.892-.292.676-1.093 1.099-2.658 1.111z" opacity=".2"/>
    </g>
</svg>
