<svg xmlns="http://www.w3.org/2000/svg" width="570" height="474" viewBox="0 0 570 474">
    <defs>
        <linearGradient id="a" x1="50.459%" x2="50.459%" y1="63.093%" y2="37.093%">
            <stop offset="0%" stop-color="gray" stop-opacity=".25"/>
            <stop offset="54%" stop-color="gray" stop-opacity=".12"/>
            <stop offset="100%" stop-color="gray" stop-opacity=".1"/>
        </linearGradient>
        <linearGradient id="b" x1="50.003%" x2="50.003%" y1="99.987%" y2="0%">
            <stop offset="0%" stop-color="gray" stop-opacity=".25"/>
            <stop offset="54%" stop-color="gray" stop-opacity=".12"/>
            <stop offset="100%" stop-color="gray" stop-opacity=".1"/>
        </linearGradient>
    </defs>
    <g fill="none" fill-rule="evenodd">
        <path fill="#2691FD" fill-rule="nonzero" d="M331.175 62.983C294.634 61.71 259.831 49.9 226.598 36.976 193.365 24.052 160.448 9.731 124.78 2.884c-22.94-4.404-49.177-5.026-67.657 7.288-17.79 11.873-23.539 32.31-26.627 51.296-2.326 14.28-3.693 29.314 2.676 42.679 4.427 9.283 12.275 17.085 17.706 25.979 18.898 30.936 5.54 69.087-14.934 99.295-9.598 14.173-20.749 27.702-28.162 42.775-7.414 15.073-10.84 32.367-4.353 47.756 6.425 15.265 21.743 26.708 38.337 34.765 33.701 16.367 73.4 21.048 112.137 23.7 85.725 5.874 171.902 3.33 257.853.786 31.81-.944 63.755-1.9 95.046-6.824 17.379-2.737 35.317-7.073 47.936-17.555 16.012-13.303 19.981-35.827 9.248-52.51-18-27.98-67.753-34.93-80.35-64.956-6.922-16.531.187-34.94 10.254-50.272 21.59-32.882 57.776-61.732 59.679-99.318 1.31-25.814-16.086-51.668-42.984-63.886-28.19-12.8-67.29-11.194-88.08 10.001-21.426 21.824-59.063 30.22-91.33 29.1z" opacity=".1"/>
        <ellipse cx="273.5" cy="441" fill="#2691FD" fill-rule="nonzero" opacity=".1" rx="171.5" ry="23"/>
        <rect width="5" height="41" x="363" y="163" fill="#3A3768" fill-rule="nonzero" rx="2.29"/>
        <rect width="2" height="13" x="197" y="131" fill="#3A3768" fill-rule="nonzero" rx="1"/>
        <rect width="4" height="23" x="197" y="156" fill="#3A3768" fill-rule="nonzero" rx="2"/>
        <rect width="2" height="24" x="197" y="187" fill="#3A3768" fill-rule="nonzero" rx="1"/>
        <rect width="168" height="340" x="198" y="86" fill="#46546E" opacity=".9" rx="12"/>
        <path fill="#2691FD" fill-rule="nonzero" d="M342.682 95h-19.237v2.306c0 2.9-1.156 5.68-3.213 7.73a10.984 10.984 0 0 1-7.757 3.198h-61.178c-2.909.002-5.699-1.15-7.756-3.199a10.91 10.91 0 0 1-3.214-7.729V95h-18.009C214.963 95 209 100.943 209 108.274v295.452c0 3.52 1.403 6.897 3.9 9.386a13.341 13.341 0 0 0 9.418 3.888h120.364c7.355 0 13.318-5.943 13.318-13.274v-295.43a13.251 13.251 0 0 0-3.893-9.4A13.341 13.341 0 0 0 342.682 95z"/>
        <rect width="23" height="5" x="266" y="96" fill="#E6E8EC" fill-rule="nonzero" rx="2.5"/>
        <circle cx="295.5" cy="98.5" r="2.5" fill="#E6E8EC" fill-rule="nonzero"/>
        <path fill="#2691FD" fill-rule="nonzero" d="M424.089 70.062s-48.315-2.864-42.623 30.393c0 0-1.147 5.879 4.292 8.545 0 0 .086-2.463 4.958-1.623 1.734.282 3.496.365 5.25.248a11.043 11.043 0 0 0 6.416-2.576s13.582-5.513 18.86-27.316c0 0 3.908-4.757 3.754-5.98l-8.154 3.421s2.788 5.778.573 10.58c0 0-.263-10.371-1.83-10.146-.316.045-4.235 2.001-4.235 2.001s4.792 10.062 1.177 17.378c0 0 1.371-12.4-2.674-16.65l-5.738 3.291s5.6 10.394 1.801 18.878c0 0 .976-13.01-3.012-18.077l-5.199 3.985s5.262 10.242 2.054 17.276c0 0-.419-15.14-3.179-16.284 0 0-4.55 3.946-5.244 5.558 0 0 3.603 7.44 1.365 11.363 0 0-1.371-10.09-2.496-10.146 0 0-4.533 6.685-5.003 11.274 0 0 .195-6.815 3.907-11.905 0 0-4.384.738-6.943 3.528 0 0 .706-4.723 8.062-5.14 0 0 3.747-5.073 4.746-5.378 0 0-7.31-.603-11.746 1.33 0 0 3.902-4.458 13.088-2.429l5.136-4.12s-9.629-1.291-13.714.135c0 0 4.7-3.946 15.097-1.07l5.589-3.281s-8.211-1.737-13.1-1.128c0 0 5.164-2.734 14.74.231l4.018-1.764s-6.014-1.161-7.776-1.347c-1.761-.186-1.853-.66-1.853-.66a21.206 21.206 0 0 1 11.298 1.235s8.481-3.106 8.338-3.63zM374.603 56.028s-20.84-1.318-18.405 14.029c0 0-.488 2.711 1.854 3.943 0 0 .038-1.151 2.144-.754.748.132 1.508.17 2.265.115a4.58 4.58 0 0 0 2.77-1.197s5.868-2.545 8.15-12.607c0 0 1.683-2.193 1.617-2.757l-3.52 1.577s1.2 2.665.257 4.881c0 0-.115-4.783-.79-4.674-.137 0-1.832.927-1.832.927s2.074 4.645.51 8.019c0 0 .593-5.722-1.157-7.685l-2.479 1.543s2.419 4.795.78 8.71c0 0 .421-6.005-1.3-8.342l-2.244 1.842s2.27 4.726.889 7.973c0 0-.187-6.989-1.377-7.518 0 0-1.963 1.819-2.265 2.567 0 0 1.558 3.454.592 5.244 0 0-.592-4.657-1.096-4.68 0 0-1.958 3.086-2.161 5.181.098-1.954.68-3.847 1.689-5.491a5.81 5.81 0 0 0-3 1.629s.307-2.182 3.483-2.372c0 0 1.645-2.343 2.05-2.487 0 0-3.158-.276-5.072.616 0 0 1.683-2.055 5.649-1.122l2.193-1.9s-4.162-.576-5.923.063c0 0 2.03-1.819 6.521-.495l2.413-1.514s-3.548-.8-5.66-.512c0 0 2.232-1.26 6.368.104l1.727-.812s-2.6-.535-3.362-.622c-.762-.086-.8-.305-.8-.305a8.596 8.596 0 0 1 4.88.576s3.708-1.45 3.642-1.693z"/>
        <ellipse cx="488" cy="436.5" fill="#2691FD" fill-rule="nonzero" opacity=".1" rx="15" ry="2.5"/>
        <ellipse cx="52" cy="456.5" fill="#2691FD" fill-rule="nonzero" opacity=".1" rx="15" ry="2.5"/>
        <ellipse cx="111" cy="471.5" fill="#2691FD" fill-rule="nonzero" opacity=".1" rx="15" ry="2.5"/>
        <ellipse cx="455.5" cy="464.5" fill="#2691FD" fill-rule="nonzero" rx="22.5" ry="3.5"/>
        <path fill="#2691FD" fill-rule="nonzero" d="M464.788 458.213a7.15 7.15 0 0 0 2.14-3.503c.28-1.386-.268-3.025-1.498-3.564-1.375-.569-2.845.466-3.957 1.507-1.112 1.04-2.392 2.232-3.851 2.008 1.527-1.495 2.217-3.748 1.817-5.935a2.598 2.598 0 0 0-.509-1.21c-.76-.883-2.146-.508-3.057.194-2.907 2.208-3.717 6.485-3.734 10.327-.296-1.385-.045-2.831-.056-4.235-.011-1.403-.363-3.025-1.476-3.769a4.166 4.166 0 0 0-2.236-.569c-1.307-.054-2.76.091-3.655 1.126-1.118 1.282-.816 3.436.145 4.84.962 1.403 2.432 2.305 3.784 3.279a8.715 8.715 0 0 1 2.7 2.789c.084.159.151.327.201.502h8.166a22.99 22.99 0 0 0 5.076-3.787zM111.81 408s3.205 4.176-1.473 10.453c-4.678 6.278-8.535 11.615-6.991 15.547 0 0 7.06-11.702 12.816-11.865 5.756-.162 1.97-7.096-4.351-14.135z"/>
        <path fill="#000" fill-rule="nonzero" d="M111.72 408c.283.404.505.846.66 1.312 5.668 6.558 8.69 12.68 3.24 12.831-5.072.145-11.159 9.083-12.62 11.34.047.175.106.343.17.517 0 0 7.142-11.694 12.963-11.857 5.822-.162 1.98-7.11-4.413-14.143z" opacity=".1"/>
        <path fill="#FFD037" fill-rule="nonzero" d="M118 413.045c0 1.632-.222 2.955-.5 2.955s-.5-1.323-.5-2.955c0-1.632.278-.865.556-.865.277 0 .444-.767.444.865z"/>
        <path fill="#FFD037" fill-rule="nonzero" d="M119.052 414.01c-1.564.704-2.932 1.129-3.044.949-.113-.18 1.05-.896 2.614-1.6 1.565-.703.952-.191 1.064 0 .113.193.93-.052-.634.652z"/>
        <path fill="#2691FD" fill-rule="nonzero" d="M94.192 408s-3.203 4.176 1.474 10.453c4.676 6.278 8.532 11.615 6.988 15.547 0 0-7.052-11.702-12.812-11.865-5.76-.162-1.98-7.096 4.35-14.135z"/>
        <path fill="#000" fill-rule="nonzero" d="M94.285 408a5.194 5.194 0 0 0-.665 1.312c-5.665 6.558-8.68 12.68-3.239 12.831 5.076.145 11.159 9.083 12.619 11.34a4.459 4.459 0 0 1-.177.517s-7.13-11.694-12.954-11.857c-5.824-.162-1.985-7.11 4.416-14.143z" opacity=".1"/>
        <path fill="#FFD037" fill-rule="nonzero" d="M89 413.045c0 1.632.228 2.955.504 2.955s.496-1.323.496-2.955c0-1.632-.276-.865-.551-.865-.276 0-.449-.767-.449.865z"/>
        <path fill="#FFD037" fill-rule="nonzero" d="M86.952 414.01c1.562.704 2.92 1.129 3.04.949.12-.18-1.056-.896-2.618-1.6-1.562-.703-.943-.191-1.062 0-.12.193-.922-.052.64.652z"/>
        <path fill="#A8A8A8" fill-rule="nonzero" d="M90 433.578s8.867-.264 11.546-2.078c2.678-1.814 13.641-3.992 14.3-1.076.657 2.917 13.329 14.496 3.319 14.573-10.01.077-23.265-1.488-25.932-3.038-2.667-1.55-3.233-8.38-3.233-8.38z"/>
        <path fill="#000" fill-rule="nonzero" d="M119.343 443.943c-10.012.08-23.269-1.564-25.936-3.192-2.027-1.246-2.841-5.7-3.113-7.751H90s.577 7.172 3.228 8.805c2.65 1.634 15.924 3.273 25.936 3.192 2.887 0 3.886-1.054 3.834-2.584-.404.939-1.507 1.512-3.655 1.53z" opacity=".2"/>
        <path fill="url(#a)" fill-rule="nonzero" d="M159 250.37a.792.792 0 0 0 1 .14 3.267 3.267 0 0 1-1-.14z"/>
        <path fill="url(#b)" fill-rule="nonzero" d="M227.822 137.687c-1.195-.35-2.893-.921-4.949-1.638a26.42 26.42 0 0 0 4.586-9.335l-.175.067c.057-.209.119-.412.175-.62-3.929 1.614-8.283-1.13-11.052-4.637-2.768-3.507-4.654-7.873-7.683-11.109a35.473 35.473 0 0 0-4.07-3.54c-.895-.701-1.863-1.43-2.956-1.464-1.767-.05-3.154 1.695-4.858 2.22a6.595 6.595 0 0 1-3.397-.124c-4.4-1.023-8.64-2.903-13.107-3.389a15.182 15.182 0 0 0-7.112.808c-2.265.87-3.284 2.592-5.096 3.953-1.964 1.48-5.877 1.446-8.192 1.694-2.808.322-5.635.44-8.46.356a19.231 19.231 0 0 0-4.868.18c-3.364.746-6.064 3.446-8.584 6.043a4.516 4.516 0 0 0-1.42 2.26 2.991 2.991 0 0 0 0 .745 4.84 4.84 0 0 0 .339 1.976 26.182 26.182 0 0 0 3.227 6.585c1.03 1.491 2.225 2.892 2.831 4.654.278.867.425 1.772.436 2.682a20.523 20.523 0 0 1-.3 2.886 36.636 36.636 0 0 1-2.18 7.675c-.532 1.31-1.132 2.615-1.274 4.05a7.289 7.289 0 0 0 0 .858c-.17 4.422 4.252 7.612 5.096 12.012.067.364.108.732.124 1.101-.096 2.745-1.642 5.427-3.918 6.489.199.079.402.147.606.22a6.368 6.368 0 0 1-.606.339c.414.158.838.294 1.269.418a29.73 29.73 0 0 0-6.46 8.008c-7.621 14.418-59.564 42.7-59.564 42.7s.295.164.77.446c-.192.119-.396.254-.622.407-4.496 3.027-15.05 11.86-5.51 22.996 0 0 7.446-11.888 12.66-16.942.238-.226.465-.435.686-.633.235.36.31.803.203 1.22l34.159-19.41s12.139-8.595 15.525-10.538c1.166-.666 4.138-2.519 7.694-3.338l-.396.175a15.409 15.409 0 0 1 3.918-.564c6.047.096 12.592 4.574 14.755 22.313 2.893 23.753 1.551 28.033.622 28.62a1.634 1.634 0 0 1-.34-.061.51.51 0 0 0 .091.067 1.646 1.646 0 0 1-.373-.067.522.522 0 0 0 .498.124c.127.037.264.02.38-.045h.458c0 .214-.034.44-.051.66-.045 0-.272.13 0 .147a47.765 47.765 0 0 0 0 4.32c-3.007.17-6.007.35-8.64.515l.238-1.26.107-.565c2.305-.186 4.496-.87 4.75-2.767.567-4.156-5.095-6.376-9.88-6.652-4.784-.277-33.591 1.666-33.591 1.666s-4.32 5.647 9.376 7.403c.407.215.832.452 1.262.7 5.362 3.095 12.643 8.788 16.125 11.595l.487.39-1.562 1.259c8.492 1.942 16.657 34.664 21.17 49.635 4.512 14.971 14.398 14.418 22.585 12.204 7.671-2.084 8.651-24.611 8.742-27.44v-.289l13.639 17.005 1.036 1.293c.402.209.793.407 1.178.593 10.333 4.975 21.747-4.558 18.497-15.4-3.278-10.957-8.374-27.148-11.77-33.993-2.832-5.732-6.518-15.248-8.748-21.223.289-.118.57-.254.843-.406l-.141-.757.141-.073s-3.284-17.253-3.465-29.502v-.644-.401c2.469-.565 4.031-.79 4.031-.79l.046-.532-.29.062 1.371-15.891s5.04-10.838 1.183-15.356a9.59 9.59 0 0 1-2.264-4.693c-.646-4.156 0-11.074 8.985-16.83 13.832-8.871 19.2-16.083 19.2-16.083s.294-5.297-8.176-7.793zM200.35 148.71v-7.341c2.565-.125 5.187.175 7.763 0 1.267-.09 2.522-.301 3.748-.633l.623.435a68.378 68.378 0 0 1-12.134 7.54zm-39.214 115.1c1.014.712 2.033 1.452 3.035 2.192a160.8 160.8 0 0 0 1.211 6.353 50.91 50.91 0 0 0-4.246-8.545z"/>
        <path fill="#FFBDC6" fill-rule="nonzero" d="M184 260l-.624 3.257-.48 2.49-.873 4.557-8.462 5.696s-.763-.628-2.023-1.617c-3.469-2.746-10.758-8.336-16.11-11.337a18.376 18.376 0 0 0-4.428-1.962L184 260z"/>
        <path fill="#000" fill-rule="nonzero" d="M184 260l-.624 3.955a22.697 22.697 0 0 1-5.584-.338l-19.746.33a51.708 51.708 0 0 1-2.618-.249 16.953 16.953 0 0 0-4.428-2.382L184 260z" opacity=".1"/>
        <path fill="#474463" fill-rule="nonzero" d="M176.781 262.652s9.616 1.753 10.18-2.61c.562-4.362-4.952-6.72-9.622-7.013-4.67-.293-32.71 1.753-32.71 1.753s-4.947 7.008 12.916 8.181l19.236-.311z"/>
        <path fill="#000" fill-rule="nonzero" d="M184 260l-.624 3.257-.48 2.49-.873 4.557-8.462 5.696s-.763-.628-2.023-1.617c-3.469-2.746-10.758-8.336-16.11-11.337a18.376 18.376 0 0 0-4.428-1.962L184 260z" opacity=".1"/>
        <path fill="#000" fill-rule="nonzero" d="M184 260l-.624 3.955a22.697 22.697 0 0 1-5.584-.338l-19.746.33a51.708 51.708 0 0 1-2.618-.249 16.953 16.953 0 0 0-4.428-2.382L184 260z" opacity=".1"/>
        <path fill="#000" fill-rule="nonzero" d="M176.788 262.656s9.622 1.745 10.174-2.63c.552-4.374-4.952-6.704-9.622-6.997-4.67-.293-32.712 1.75-32.712 1.75s-4.946 6.999 12.917 8.164l19.243-.287z" opacity=".1"/>
        <path fill="#474463" fill-rule="nonzero" d="M148 126h50v60h-50z"/>
        <path fill="#000" fill-rule="nonzero" d="M148 126h50v60h-50z" opacity=".1"/>
        <path fill="#FFBDC6" fill-rule="nonzero" d="M88 228.973c-.821.209-1.871 1.011-3.04 2.176C79.934 236.184 72.733 248 72.733 248c-9.206-11.093.983-19.858 5.324-22.87 1.056-.729 1.765-1.13 1.765-1.13L88 228.973zM182.788 146s2.484 17.176 11.048 21.266c8.563 4.09-11.048 11.734-11.048 11.734L156 169.177s15.19-4.911 12.152-19.36L182.788 146zM154 250l-.618 3.247-.503 2.501-.872 4.56-8.456 5.692s-.763-.623-2.022-1.612c-3.466-2.747-10.75-8.34-16.104-11.341a18.242 18.242 0 0 0-4.425-1.963L154 250z"/>
        <path fill="#000" fill-rule="nonzero" d="M154 249l-.618 3.954a22.622 22.622 0 0 1-5.584-.338l-19.746.332c-.93-.068-1.81-.15-2.624-.25a16.832 16.832 0 0 0-4.428-2.391L154 249z" opacity=".1"/>
        <path fill="#474463" fill-rule="nonzero" d="M147.793 252.656s9.623 1.745 10.17-2.624c.546-4.368-4.947-6.71-9.623-7.003-4.676-.293-32.71 1.75-32.71 1.75s-4.952 6.998 12.918 8.17l19.245-.293z"/>
        <path fill="#000" fill-rule="nonzero" d="M153 255.2l-.845 4.802-8.196 5.998s-.739-.656-1.959-1.699L152.838 255l.162.2z" opacity=".1"/>
        <path fill="#46546E" d="M207.464 318.088c-.377-.185-.754-.376-1.125-.561l-1.013-1.275-13.284-16.81v.291c-.09 2.807-1.046 25.054-8.507 27.109-7.961 2.19-17.565 2.74-21.943-12.055-4.377-14.796-12.378-47.126-20.592-49.047l12.22-10s8.091 9.445 11.388 18.485c-.124-.562-5.71-26.615-1.125-31.225h40.087s6.19 17.592 10.432 26.306c3.302 6.766 8.26 22.763 11.45 33.588 3.161 10.691-7.94 20.13-17.988 15.194z"/>
        <path fill="#000" fill-rule="nonzero" d="M207 247.605c-6.229 3.678-33.574 2.18-42.47 1.582l-2.424-.175c-.26 0 .04-.147.04-.147l.25-2.503 6.63-16.817L204.531 209c-.72 2.164-.957 5.475-.9 9.267.164 12.183 3.369 29.338 3.369 29.338z" opacity=".1"/>
        <path fill="#F2F1F2" fill-rule="nonzero" d="M207 246.604c-6.188 3.68-33.355 2.182-42.193 1.583l-2.408-.17-.399-.034.439-.113 2.171-.565 4.664-18.757L204.547 208c-.714 2.165-.95 5.478-.894 9.27.163 12.177 3.347 29.334 3.347 29.334z"/>
        <path fill="#000" fill-rule="nonzero" d="M203.087 218.216c-7.317 1.655-23.422 6.51-29.61 18.23-4.126 7.805-7.598 11.153-10.02 12.554l-2.457-.169c.016-.048.03-.097.04-.146l2.216-.563 4.758-18.67L204 209c-.723 2.144-.97 5.441-.913 9.216zM80.775 224L89 228.866c-.826.205-1.882.992-3.056 2.134-.686-1.973-4.989-4.728-6.944-5.903A28.406 28.406 0 0 1 80.775 224zM160 249.52a.87.87 0 0 1-1-.14 3.47 3.47 0 0 0 1 .14z" opacity=".1"/>
        <path fill="#FF748E" fill-rule="nonzero" d="M179.361 166.068s-7.445.823-12.682-4.679c0 0-22.031 6.33-29.494 20.631C129.723 196.32 79 224.381 79 224.381s8.824 4.95 7.993 7.424l33.358-19.256s11.863-8.522 15.157-10.45c3.293-1.928 21.506-13.754 25.364 18.427 3.858 32.18 0 28.33 0 28.33s5.513 1.928 13.507-13.477c7.993-15.406 32.798-18.98 32.798-18.98l1.379-16.222s4.92-10.756 1.13-15.22a9.574 9.574 0 0 1-2.21-4.656c-.626-4.12 0-10.986 8.78-16.69C229.761 154.804 235 147.657 235 147.657s.276-5.231-7.995-7.706c-8.27-2.474-41.899-15.952-41.899-15.952l-1.13 4.679 26.534 18.686s-13.23 10.71-23.726 10.45c0 0 1.95 7.977-7.423 8.253z"/>
        <path fill="#000" fill-rule="nonzero" d="M184 152.829a53.777 53.777 0 0 1-1.575-6.829l-15.08 3.913c.664 2.828.545 5.78-.345 8.547 6.304 1.653 13.002-.566 17-5.631z" opacity=".1"/>
        <circle cx="171" cy="142" r="16" fill="#FFBDC6" fill-rule="nonzero"/>
        <path fill="#000" fill-rule="nonzero" d="M179.883 106.13c4.374.494 8.527 2.379 12.832 3.407a6.354 6.354 0 0 0 3.32.13c1.672-.522 3.031-2.271 4.765-2.22 1.065 0 2.011.76 2.89 1.46a35.011 35.011 0 0 1 3.965 3.543c2.969 3.231 4.81 7.581 7.518 11.096 2.708 3.515 6.98 6.247 10.827 4.634-2.617 10.222-11.19 18.007-20.464 18.643-3.7.25-7.49-.522-11.07.568a9.76 9.76 0 0 1-2.793.682c-2.062 0-3.722-1.897-5.008-3.743-3.014-4.338-5.4-9.267-8.793-13.225-1.133-1.307-2.442-2.55-4.028-2.789-1.587-.238-3.043.517-4.453 1.25-2.329 1.21-4.709 2.464-6.516 4.543-1.807 2.078-2.946 5.167-2.198 7.95.402 1.51 1.32 2.873 1.337 4.452.034 2.516-2.187 4.361-2.623 6.814a25.66 25.66 0 0 0-.108 3.101c-.192 3.362-2.385 6.116-4.674 8.228-.895.824-1.88 1.704-2.141 2.976-.176.863 0 1.783-.114 2.658-.334 2.18-2.504 3.288-4.424 3.577a12.85 12.85 0 0 1-6.64-.789c2.685-1.278 4.34-4.895 3.716-8.143-.855-4.498-5.365-7.723-4.98-12.306a14.34 14.34 0 0 1 1.247-4.049 37.013 37.013 0 0 0 2.13-7.666c.34-2.033.504-4.186-.13-6.116-.567-1.766-1.751-3.163-2.754-4.651a26.415 26.415 0 0 1-3.19-6.553 4.553 4.553 0 0 1-.305-2.164 4.454 4.454 0 0 1 1.388-2.271c2.464-2.596 5.099-5.299 8.402-6.037a18.613 18.613 0 0 1 4.77-.187c2.768.09 5.538-.028 8.288-.352 2.267-.267 6.097-.228 8.017-1.704 1.79-1.38 2.799-3.1 5.003-3.975a14.596 14.596 0 0 1 6.991-.772zM189 269s9.283 17.592 6.469 23M205.81 317l-13.698-17.214v.3s-.79-5.573 1.819-3.702c5.715 4.1 14.858 10.818 15.056 11.975.197 1.157-1.853 5.78-3.178 8.641z" opacity=".1"/>
        <g fill="#000" fill-rule="nonzero" opacity=".1">
            <path d="M187.05 157.19s1.13 4.655-2.507 6.983c5.592-.955 5.84-5.311 5.648-7.204-1.038.167-2.089.24-3.14.22zM82.316 222.806s50.712-28.122 58.18-42.456c5.337-10.29 18.205-16.46 25.04-19.126-4.982 1.695-21.77 8.085-28.074 20.228-7.439 14.334-58.18 42.461-58.18 42.461l3.034-1.107zM196.924 154.997c8.631-2.684 16.878-9.385 16.878-9.385l-26.48-18.759.604-2.565-2.536-1.017-1.101 4.69 26.463 18.747a63.938 63.938 0 0 1-13.828 8.29zM197.077 218.534a65.818 65.818 0 0 1 10.37-2.622l.046-.53a70.309 70.309 0 0 0-10.416 3.152zM165.005 247.418h-.243a.497.497 0 0 1-.565-.08c.183.054.374.08.565.08.903-.526 2.26-4.645-.565-28.477-3.04-25.426-14.997-23.443-21.538-20.516 6.688-1.842 15.89-.249 18.505 21.618 2.852 23.832 1.49 27.951.564 28.477a6.105 6.105 0 0 0 3.277-1.102zM161.728 248.525a1.982 1.982 0 0 1-.564-.079.497.497 0 0 0 .564.08z"/>
        </g>
        <path fill="#1C2D4D" d="M179.883 106.12c4.373.5 8.526 2.38 12.832 3.408a6.353 6.353 0 0 0 3.32.125c1.671-.517 3.031-2.272 4.765-2.221 1.065.034 2.011.76 2.89 1.46a35.57 35.57 0 0 1 3.965 3.544c2.969 3.231 4.81 7.582 7.518 11.098 2.708 3.516 6.98 6.248 10.827 4.634-2.617 10.224-11.19 18.011-20.464 18.647-3.7.256-7.49-.517-11.07.568a9.572 9.572 0 0 1-2.793.682c-2.063 0-3.723-1.897-5.009-3.743-3.014-4.34-5.399-9.264-8.793-13.223-1.133-1.312-2.442-2.556-4.028-2.794-1.586-.239-3.042.522-4.453 1.255-2.329 1.21-4.708 2.46-6.515 4.544-1.808 2.084-2.946 5.163-2.199 7.951.403 1.511 1.32 2.874 1.337 4.453.034 2.522-2.186 4.362-2.623 6.816a25.623 25.623 0 0 0-.107 3.101c-.193 3.363-2.385 6.112-4.674 8.23-.896.818-1.881 1.704-2.142 2.97-.176.87 0 1.784-.113 2.664-.335 2.182-2.504 3.29-4.425 3.573-2.244.333-4.536.06-6.64-.79 2.685-1.272 4.34-4.895 3.717-8.139-.856-4.498-5.366-7.73-4.98-12.308.212-1.404.632-2.77 1.246-4.05a37.173 37.173 0 0 0 2.13-7.673c.34-2.027.504-4.18-.13-6.117-.567-1.76-1.75-3.163-2.754-4.651a26.478 26.478 0 0 1-3.19-6.55 4.617 4.617 0 0 1-.305-2.169c.227-.87.71-1.652 1.388-2.243 2.464-2.596 5.099-5.294 8.402-6.038a18.865 18.865 0 0 1 4.77-.182c2.768.088 5.538-.03 8.289-.352 2.266-.267 6.096-.233 8.017-1.704 1.79-1.374 2.798-3.1 5.002-3.975a14.696 14.696 0 0 1 6.992-.801z"/>
        <circle cx="282.5" cy="259.5" r="39.5" fill="#FFF" fill-rule="nonzero"/>
        <path fill="#3ACC6C" fill-rule="nonzero" d="M332 255.5a51.5 51.5 0 1 1-51.5-51.5c28.443 0 51.5 23.057 51.5 51.5zm-55.554 26.688l38.72-39.708a3.495 3.495 0 0 0 .988-2.443c0-.917-.356-1.796-.989-2.443l-4.764-4.85a3.316 3.316 0 0 0-2.378-1.013c-.893 0-1.75.364-2.38 1.013l-31.579 32.387-14.745-15.158a3.319 3.319 0 0 0-4.764 0l-4.764 4.915a3.527 3.527 0 0 0 0 4.885l21.89 22.444a3.322 3.322 0 0 0 2.383 1.014c.894 0 1.75-.365 2.382-1.014v-.029z"/>
    </g>
</svg>
