<svg xmlns="http://www.w3.org/2000/svg" xmlns:xlink="http://www.w3.org/1999/xlink" width="313" height="321" viewBox="0 0 313 321">
    <defs>
        <rect id="a" width="1170" height="321" rx="8"/>
        <linearGradient id="c" x1="50.006%" x2="50.006%" y1="100.006%" y2=".284%">
            <stop offset="0%" stop-color="gray" stop-opacity=".25"/>
            <stop offset="54%" stop-color="gray" stop-opacity=".12"/>
            <stop offset="100%" stop-color="gray" stop-opacity=".1"/>
        </linearGradient>
    </defs>
    <g fill="none" fill-rule="evenodd" transform="translate(-3)">
        <mask id="b" fill="#fff">
            <use xlink:href="#a"/>
        </mask>
        <use fill="#FFF" fill-opacity="0" xlink:href="#a"/>
        <g mask="url(#b)">
            <g fill-rule="nonzero" transform="translate(-88)">
                <path fill="#2691FD" d="M345 118.771a15.086 15.086 0 0 0-9.086 1.033 12.904 12.904 0 0 1-10.96-.051 14.761 14.761 0 0 0-12.83.26 7.682 7.682 0 0 1-3.695.964c-5.2 0-9.53-5.455-10.429-12.654a10.331 10.331 0 0 0 2.6-2.923c3.05-5.117 7.775-8.4 13.08-8.4 5.303 0 9.968 3.244 13.002 8.31 1.857 3.117 5.147 4.993 8.669 4.942h.135c4.156.023 7.742 3.481 9.514 8.52z" opacity=".1"/>
                <path fill="#2691FD" d="M360.773 96.752l-8.407 5.413 5.103-9.42a8.267 8.267 0 0 0-5.086-1.84h-.136a9.697 9.697 0 0 1-1.744-.127l-2.838 1.83 1.224-2.253a10.136 10.136 0 0 1-4.983-3.847l-5.103 3.297 3.25-5.94C339.07 80.23 335.05 78 330.63 78c-5.303 0-10.027 3.204-13.076 8.189-1.836 3.047-5.149 4.854-8.667 4.726h-.287c-5.855 0-10.6 6.738-10.6 15.043 0 8.304 4.745 15.042 10.6 15.042a7.882 7.882 0 0 0 3.694-.934 15.086 15.086 0 0 1 12.827-.259 13.208 13.208 0 0 0 10.909.028 15.123 15.123 0 0 1 12.718.247 7.844 7.844 0 0 0 3.65.918c5.856 0 10.601-6.733 10.601-15.042a19.328 19.328 0 0 0-2.226-9.206z" opacity=".1"/>
                <path fill="url(#c)" d="M273.286 153.903c.336-.05.673-.116 1.004-.198a3.142 3.142 0 0 1-.282.956 4.127 4.127 0 0 1-1.566 1.375.481.481 0 0 0-.607-.039c-.711.418-1.28 1.033-2.035 1.396-.265.132-.551.237-.8.38a4.37 4.37 0 0 0-1.489 1.544 1.096 1.096 0 0 0-.176 1.1.892.892 0 0 0 .303.269c.307.212.674.322 1.048.314.226 0 .441-.1.662-.138.22-.039.595 0 .893-.055a5.044 5.044 0 0 0 1.258-.325l1.472-.51c.42-.134.827-.302 1.22-.501.231-.121.452-.27.694-.385.268-.119.544-.216.828-.291l.838-.247a.902.902 0 0 1 .38-.05c.116 0 .216.093.331.126a.99.99 0 0 0 .552-.049l.976-.28a1.84 1.84 0 0 0 .58-.237c.397-.388.589-.94.518-1.49-.005-.83-.1-1.658-.287-2.467a.783.783 0 0 0-.314.236c-.1-.143-.216-.275-.32-.401a4.766 4.766 0 0 1-.971-1.781c.354-.26.65-.589.871-.967-.513-1.952-1.042-3.936-2.084-5.662-.342-.55-.734-1.1-1.104-1.649-1.014-1.605-1.224-3.633-2.382-5.134a.888.888 0 0 1 0-1.05c.132-.17.347-.34.303-.55-.044-.208-.187-.302-.127-.444.061-.143.1-.11.16-.165.193-.182.171-.495.188-.764.11-.676.401-1.308.844-1.83.077-.134.182-.248.309-.336.104-.066.226-.094.33-.16.375-.23.348-.775.524-1.176.232-.55.817-.802 1.203-1.231.485-.55.606-1.314 1.103-1.792.051-.05.107-.096.165-.137a8.717 8.717 0 0 0-.298 2.506c-.05 2.897.668 5.898.331 8.795-.264 2.28 1.137 4.562 3.117 5.7.776.413 1.589.757 2.426 1.028 1.247.445 2.482.901 3.701 1.407.86.366 1.71.753 2.548 1.16a32.722 32.722 0 0 1 3.006 1.676 11.573 11.573 0 0 1 3.243 2.682 2.603 2.603 0 0 0 1.434-.55c.326.259.723.451 1.032.737.42.443.702 1 .81 1.6h-.127l.045.857a.362.362 0 0 1-.033.215.424.424 0 0 1-.116.104l-.662.445c-.48.324-1.01.731-1.037 1.314-.016.17.035.34.143.473.163.149.37.242.59.263 1.14.305 2.322.413 3.497.32a2.298 2.298 0 0 0 1.49-.682c.306-.418.497-.91.551-1.424.143-.863.265-1.731.358-2.605.028-.59.147-1.173.353-1.726a.204.204 0 0 1 .094-.116h.16a.23.23 0 0 0 .105-.165c.21-.847.314-1.716.309-2.589a1.808 1.808 0 0 0-.105-.665 1.334 1.334 0 0 0-.921-.709 7.127 7.127 0 0 0-1.186-.137 5.4 5.4 0 0 1-.987-.187.952.952 0 0 0-.408-.05.292.292 0 0 0-.254.286.33.33 0 0 0 .055.138l-.336-.066c-.27-.05-.657-.17-1.054-.264v-.209c0-.157-.09-.3-.231-.368l-5.676-3.023-1.064-.55c-2.328-1.242-4.732-2.385-7.06-3.628-.16.05-.287-.132-.33-.286-.045-.153-.078-.351-.227-.417-.149-.066-.17-.039-.226-.1a.241.241 0 0 1-.039-.186c.078-1.132.888-2.171.723-3.298a3.967 3.967 0 0 1-.204-1.418c.117-.31.261-.61.43-.896.276-.687 0-1.517.303-2.199.204-.443.343-.913.414-1.396a9.53 9.53 0 0 1 .866-2.748c.204-.443.474-.852.8-1.215.17-.187.364-.352.524-.55.452-.626.733-1.36.816-2.127.325-1.364.364-2.78.116-4.16a5.874 5.874 0 0 1-.265-1.402c0-.55.226-1.22-.05-1.677.294-.226.49-.554.552-.918.003-.128.029-.255.077-.374a.97.97 0 0 1 .359-.324c.45-.346.663-.917.551-1.473.292.132.601-.165.74-.456.137-.291.247-.654.55-.775.213-.048.429-.08.646-.094.342-.088.552-.417.794-.676a6.07 6.07 0 0 1 1.826-1.126c1.903-.962 3.458-2.49 4.964-3.997a16.81 16.81 0 0 0 2.14-2.413c.17-.249.327-.507.468-.775h.04v.044c0 .094.049.187.076.28.066.226.15.446.226.666.186.665.511 1.283.955 1.814a2.424 2.424 0 0 0 .49.379c.393.207.822.336 1.263.38.166 0 .337.032.508.038h.507l3.475.093c-1.191-1.731-1.285-3.974-1.208-6.08.199-5.397 1.252-10.844.276-16.154a4.196 4.196 0 0 0-.667-1.802 3.743 3.743 0 0 0-2.207-1.193 13.34 13.34 0 0 1-2.46-.627c-.61-.373-1.26-.68-1.935-.918a4.294 4.294 0 0 0-1.545 0c-.628.094-1.252.204-1.875.33l-.149.033H298.485l-.06.027-.055.028-.055.027-.056.028-.055.033-.05.033-.049.033-.05.038-.044.033-.05.044-.038.033-.05.05-.033.038a.264.264 0 0 0-.05.06v.034l-.06.088a1.57 1.57 0 0 0-.121.258 1.19 1.19 0 0 0-.039.132 2.488 2.488 0 0 0-.05.28V82.634c0 .093 0 .335.05.478A5.219 5.219 0 0 0 295 87.46a5.217 5.217 0 0 0 2.322 4.485c.005.086.005.172 0 .259v.054a7.034 7.034 0 0 1-.094.902 12.373 12.373 0 0 0-2.587-.225c-.518 0-1.037.044-1.56.087-.552-.66-1.06-1.385-1.556-2.1l-1.147-1.676c-.402-.55-.77-1.125-1.103-1.72-.281-.55-.502-1.1-.81-1.65-.646-1.098-1.705-2.01-1.832-3.27l-.303.066c-.166-.274-.375-.55-.453-.714a13.912 13.912 0 0 1-.954-2.792 4.31 4.31 0 0 0-.458-1.446 3.237 3.237 0 0 0-.667-.704 4.414 4.414 0 0 0-1.434-.901 1.848 1.848 0 0 0-1.461.082c-.078-.027-.15-.06-.227-.082a1.781 1.781 0 0 0-1.621.187 2.196 2.196 0 0 0-.717 1.5 3.71 3.71 0 0 0 .386 2.276c.436.77 1.197 1.286 1.837 1.896.442.427.829.907 1.152 1.43.1 1.157.071 2.322-.088 3.473-.083.495-.21.979-.254 1.473-.16 1.798.778 3.595.447 5.365-.116.544.128 1.1.607 1.385a6.924 6.924 0 0 0 1.572.429c1.037.264 1.941.929 2.984 1.176.485.116.987.138 1.467.264h.077c-.372.419-.636.92-.772 1.462-.21.902 0 1.864-.226 2.748a6.253 6.253 0 0 1-1.054 2.018l-2.526 3.638a23.484 23.484 0 0 1-1.859 2.435c-1.158 1.26-3.16 2.26-3.745 3.777l-.05-.11c-.832.61-1.14 1.748-1.808 2.54-.32.384-.723.697-1.076 1.049-.44.542-.831 1.121-1.169 1.731a26.37 26.37 0 0 0-2.692 4.271c-.37.797-.656 1.65-.948 2.452-1.158 3.248-3.045 6.332-3.828 9.696-.193.819-.695 1.56-.772 2.402 0 .903.262 1.787.756 2.545.65 1.209 1.362 2.385 1.941 3.627.342.726.634 1.474 1.01 2.2.374.725.915 1.483 1.34 2.247a25.837 25.837 0 0 1 2.239 6.206zm14.218-61.392l-.099-.05a3.53 3.53 0 0 1-1.048-.686c-.92-.99-1.323-2.474-1.61-3.798a11.95 11.95 0 0 1-.094-.473 22.45 22.45 0 0 1 2.851 5.007z"/>
                <path fill="#FBBEBE" d="M283.54 79.307a4.95 4.95 0 0 0-.417-1.506 3.271 3.271 0 0 0-.614-.739 3.988 3.988 0 0 0-1.308-.934 1.455 1.455 0 0 0-1.51.196c-.39.402-.625.964-.654 1.563a4.356 4.356 0 0 0 .352 2.372c.403.802 1.097 1.338 1.676 1.979.425.462.794.988 1.097 1.563.138.3.307.581.503.837.198.256.492.389.79.357.245-.072.468-.222.644-.432.236-.237.88-.67.9-1.05.02-.381-.503-1.004-.608-1.293a16.139 16.139 0 0 1-.85-2.913z"/>
                <path fill="#F86D70" d="M299 93.385c-1.15-.31-2.34-.457-3.53-.437-1.987.028-4.035.51-5.926-.101-.488-.17-.963-.376-1.421-.617a3.647 3.647 0 0 1-1.057-.695c-.94-1.004-1.349-2.507-1.64-3.847-.26-1.35-.41-2.72-.447-4.094a3.206 3.206 0 0 1-1.55.41 1.12 1.12 0 0 1-1.08-1.004c.121 1.27.097 2.549-.073 3.813-.084.5-.213.987-.257 1.492-.163 1.816.794 3.639.453 5.433a1.313 1.313 0 0 0 .615 1.402 6.96 6.96 0 0 0 1.6.438c1.052.269 1.976.936 3.033 1.188.493.118 1.002.14 1.488.27.7.185 1.332.56 2.043.712.531.095 1.08.028 1.622.073.543.044.93.162 1.393.179a4.048 4.048 0 0 0 3.005-1.492c.718-.956 1.3-2.007 1.729-3.123z"/>
                <path fill="#000" d="M299 93.385c-1.15-.31-2.34-.457-3.53-.437-1.987.028-4.035.51-5.926-.101-.488-.17-.963-.376-1.421-.617a3.647 3.647 0 0 1-1.057-.695c-.94-1.004-1.349-2.507-1.64-3.847-.26-1.35-.41-2.72-.447-4.094a3.206 3.206 0 0 1-1.55.41 1.12 1.12 0 0 1-1.08-1.004c.121 1.27.097 2.549-.073 3.813-.084.5-.213.987-.257 1.492-.163 1.816.794 3.639.453 5.433a1.313 1.313 0 0 0 .615 1.402 6.96 6.96 0 0 0 1.6.438c1.052.269 1.976.936 3.033 1.188.493.118 1.002.14 1.488.27.7.185 1.332.56 2.043.712.531.095 1.08.028 1.622.073.543.044.93.162 1.393.179a4.048 4.048 0 0 0 3.005-1.492c.718-.956 1.3-2.007 1.729-3.123z" opacity=".1"/>
                <g opacity=".1">
                    <path fill="#3F3D56" d="M222.172 293.317v2.817c0 5.83-4.728 10.557-10.56 10.557-5.832 0-10.56-4.727-10.56-10.557v-2.817c0-5.831 4.728-10.558 10.56-10.558 5.832 0 10.56 4.727 10.56 10.558zM201.052 248.265v-2.812c0-5.83 4.728-10.557 10.56-10.557 5.832 0 10.56 4.727 10.56 10.557v2.812c.001 1.034-.152 2.063-.454 3.052a10.555 10.555 0 0 1-11.654 7.413 10.553 10.553 0 0 1-9.012-10.465z"/>
                    <path fill="#3F3D56" d="M222.172 269.363v2.817c0 5.83-4.728 10.557-10.56 10.557-5.832 0-10.56-4.726-10.56-10.557v-2.817c0-5.83 4.728-10.557 10.56-10.557 5.832 0 10.56 4.726 10.56 10.557zM211.612 306.69c5.827.019 10.545 4.738 10.56 10.564v2.811c0 5.83-4.728 10.558-10.56 10.558-5.832 0-10.56-4.727-10.56-10.558v-2.811c.015-5.826 4.733-10.545 10.56-10.563z"/>
                    <path fill="#000" d="M201.052 245.721v2.544a10.553 10.553 0 0 0 9.015 10.46 10.555 10.555 0 0 0 11.651-7.413l-20.666-5.59zM201.052 269.653v2.55a10.558 10.558 0 0 0 9.017 10.433 10.56 10.56 0 0 0 11.65-7.382l-20.667-5.601zM201.052 293.59v2.544a10.558 10.558 0 0 0 9.017 10.433 10.56 10.56 0 0 0 11.65-7.381l-20.667-5.596zM201.052 317.5v2.543a10.553 10.553 0 0 0 9.012 10.466 10.555 10.555 0 0 0 11.654-7.413l-20.666-5.596z"/>
                    <path fill="#3F3D56" d="M179 272.383l.843.645a3.99 3.99 0 0 0 5.68-5.47 3.9 3.9 0 0 0-.804-.842l-.843-.635a3.989 3.989 0 1 0-4.875 6.318v-.016z"/>
                    <path fill="#3F3D56" d="M191.038 271.584l.843.65a3.989 3.989 0 1 1-4.875 6.319l-.843-.651a3.989 3.989 0 1 1 4.875-6.318z"/>
                    <path fill="#3F3D56" d="M198.195 277.109l.843.65a3.989 3.989 0 1 1-4.875 6.319l-.843-.651a3.989 3.989 0 1 1 4.875-6.318z"/>
                    <path fill="#3F3D56" d="M205.358 282.634l.843.65a3.99 3.99 0 1 1-4.876 6.318l-.853-.65a3.99 3.99 0 1 1 4.875-6.318h.01z"/>
                    <path fill="#000" d="M179.077 272.443l.766.585a3.99 3.99 0 0 0 5.68-5.47l-6.446 4.885zM186.245 277.968l.766.585a3.99 3.99 0 0 0 5.68-5.47l-6.446 4.885zM193.402 283.492l.76.586a3.99 3.99 0 0 0 5.686-5.47l-6.446 4.884z"/>
                    <path fill="#2691FD" d="M182.743 141.27a11.973 11.973 0 0 0-10.58 5.908 11.966 11.966 0 0 0 0 12.116c2.195 3.74 6.243 6 10.58 5.908a11.973 11.973 0 0 0-10.58 5.908 11.966 11.966 0 0 0 0 12.116c2.195 3.74 6.243 6 10.58 5.907-6.612 0-11.972 5.359-11.972 11.969 0 6.61 5.36 11.968 11.972 11.968a11.973 11.973 0 0 0-10.58 5.908 11.966 11.966 0 0 0 0 12.116c2.195 3.74 6.243 6 10.58 5.908h57.738a11.973 11.973 0 0 0 10.58-5.908 11.966 11.966 0 0 0 0-12.116c-2.195-3.74-6.243-6-10.58-5.908 6.612 0 11.972-5.358 11.972-11.968s-5.36-11.969-11.972-11.969a11.973 11.973 0 0 0 10.58-5.907 11.966 11.966 0 0 0 0-12.116c-2.195-3.74-6.243-6.001-10.58-5.908a11.973 11.973 0 0 0 10.58-5.908 11.966 11.966 0 0 0 0-12.116c-2.195-3.74-6.243-6-10.58-5.908 6.612 0 11.972-5.358 11.972-11.968s-5.36-11.969-11.972-11.969a11.973 11.973 0 0 0 10.58-5.908 11.966 11.966 0 0 0 0-12.116c-2.195-3.74-6.243-6-10.58-5.908h-2.638c-1.515-10.294-13.132-18.303-27.287-18.303s-25.772 8.009-27.287 18.303h-.547a11.973 11.973 0 0 0-10.582 5.908 11.966 11.966 0 0 0 0 12.116c2.196 3.74 6.244 6 10.582 5.908-6.612 0-11.973 5.358-11.973 11.969 0 6.61 5.36 11.968 11.973 11.968h.021z"/>
                    <path fill="#000" d="M170.771 105.364c.018 6.603 5.368 11.951 11.972 11.969h57.738l-57.387-23.932h-.35c-6.603.018-11.952 5.363-11.973 11.963zM252.103 129.329c-.036 6.595-5.375 11.933-11.972 11.968h-57.716l57.393-23.937h.35c6.586.051 11.909 5.384 11.945 11.969zM252.103 177.17c-.021 6.6-5.37 11.945-11.972 11.963h-57.716l57.393-23.931h.35c6.594.033 11.927 5.376 11.945 11.968zM252.103 225.055c-.021 6.6-5.37 11.945-11.972 11.963h-57.716l57.393-23.931h.35c6.594.033 11.927 5.376 11.945 11.968z"/>
                    <path fill="#000" d="M170.771 153.233c.018 6.603 5.368 11.95 11.972 11.969h57.738l-57.387-23.932h-.35c-6.603.018-11.952 5.363-11.973 11.963zM170.771 201.102c.036 6.595 5.375 11.933 11.972 11.968h57.738l-57.387-23.937h-.35c-6.598.036-11.937 5.374-11.973 11.969z"/>
                    <path fill="#2691FD" d="M177.387 284.734l19.014-10.235a4.474 4.474 0 0 0-4.246-7.871 4.475 4.475 0 1 0-4.24-7.882l-.87.47c-2.326-3.123-7.58-3.698-12.236-1.192-4.656 2.505-7.064 7.204-5.74 10.863l-.169.093a4.475 4.475 0 1 0 4.24 7.883 4.476 4.476 0 1 0 4.247 7.882v-.011z"/>
                    <path fill="#000" d="M167.094 275.03a4.493 4.493 0 0 0 6.063 1.822l18.998-10.224-23.14 2.292-.115.06a4.49 4.49 0 0 0-1.806 6.05z"/>
                    <path fill="#000" d="M198.102 268.499a4.485 4.485 0 0 1-1.816 6.06l-19.014 10.235 14.653-18.051.115-.066a4.493 4.493 0 0 1 6.062 1.822z"/>
                </g>
                <g opacity=".1">
                    <path fill="#3F3D56" d="M119.032 319.12v.805c-.067 1.626-1.365 2.908-2.944 2.908s-2.877-1.282-2.944-2.908v-.806a3.06 3.06 0 0 1 1.434-2.737 2.872 2.872 0 0 1 3.02 0 3.06 3.06 0 0 1 1.434 2.737zM113.144 306.177v-.81c.067-1.626 1.365-2.909 2.944-2.909s2.877 1.283 2.944 2.908v.811c0 .298-.042.594-.128.878-.417 1.444-1.802 2.354-3.249 2.133-1.447-.22-2.517-1.503-2.511-3.01z"/>
                    <path fill="#3F3D56" d="M119.032 312.245v.806c-.067 1.626-1.365 2.908-2.944 2.908s-2.877-1.282-2.944-2.908v-.806a3.06 3.06 0 0 1 1.434-2.737 2.872 2.872 0 0 1 3.02 0 3.06 3.06 0 0 1 1.434 2.737z"/>
                    <path fill="#000" d="M113.144 305.448v.73c-.006 1.507 1.064 2.79 2.511 3.01 1.447.22 2.832-.689 3.25-2.133l-5.761-1.607zM113.144 312.322v.73c-.006 1.507 1.064 2.79 2.511 3.01 1.447.22 2.832-.689 3.25-2.134l-5.761-1.606zM113.144 319.212v.73c-.006 1.507 1.064 2.79 2.511 3.01 1.447.22 2.832-.689 3.25-2.133l-5.761-1.607z"/>
                    <path fill="#3F3D56" d="M107 313.1l.234.192c.435.371 1.07.347 1.477-.054a1.171 1.171 0 0 0 .119-1.519 1.084 1.084 0 0 0-.224-.246l-.234-.187a1.086 1.086 0 0 0-1.102-.154 1.142 1.142 0 0 0-.681.907c-.054.406.107.81.422 1.062H107z"/>
                    <path fill="#3F3D56" d="M110.356 312.876l.234.186c.328.245.5.654.45 1.068-.05.414-.314.767-.69.922a1.085 1.085 0 0 1-1.116-.175l-.24-.187a1.17 1.17 0 0 1-.199-1.609 1.091 1.091 0 0 1 1.561-.205z"/>
                    <path fill="#3F3D56" d="M112.351 314.46l.234.186a1.18 1.18 0 0 1 .202 1.612 1.09 1.09 0 0 1-1.558.203l-.234-.187a1.17 1.17 0 0 1-.178-1.586 1.09 1.09 0 0 1 1.534-.228zM114.346 316.05l.234.186c.327.245.5.654.45 1.068-.05.414-.314.767-.69.922a1.085 1.085 0 0 1-1.117-.176l-.234-.186a1.17 1.17 0 0 1-.177-1.587 1.09 1.09 0 0 1 1.534-.227z"/>
                    <path fill="#000" d="M107.021 313.123l.213.17c.435.37 1.07.346 1.477-.055a1.171 1.171 0 0 0 .119-1.519l-1.809 1.404zM109.021 314.707l.213.17c.435.37 1.07.347 1.477-.055a1.171 1.171 0 0 0 .119-1.519l-1.809 1.404zM111.016 316.296l.213.165a1.09 1.09 0 0 0 1.558-.203 1.19 1.19 0 0 0 0-1.37l-1.771 1.408z"/>
                    <path fill="#2691FD" d="M108.043 275.443c-1.842 0-3.336 1.539-3.336 3.437s1.494 3.437 3.336 3.437c-1.792.073-3.208 1.591-3.208 3.44 0 1.847 1.416 3.365 3.208 3.439-1.842 0-3.336 1.539-3.336 3.437s1.494 3.437 3.336 3.437c-1.842 0-3.336 1.538-3.336 3.437 0 1.898 1.494 3.436 3.336 3.436h16.09c1.842 0 3.335-1.538 3.335-3.436 0-1.899-1.493-3.437-3.335-3.437 1.842 0 3.335-1.54 3.335-3.437 0-1.898-1.493-3.437-3.335-3.437 1.792-.074 3.207-1.592 3.207-3.44 0-1.848-1.415-3.366-3.207-3.44 1.842 0 3.335-1.538 3.335-3.436s-1.493-3.437-3.335-3.437c1.842 0 3.335-1.539 3.335-3.437s-1.493-3.437-3.335-3.437c1.842 0 3.335-1.539 3.335-3.437s-1.493-3.437-3.335-3.437h-.734c-.426-2.954-3.665-5.256-7.606-5.256-3.942 0-7.181 2.302-7.602 5.256h-.148c-1.842 0-3.336 1.539-3.336 3.437s1.494 3.437 3.336 3.437c-1.842 0-3.336 1.539-3.336 3.437s1.494 3.437 3.336 3.437z"/>
                    <path fill="#000" d="M104.707 265.132c.006 1.896 1.496 3.431 3.336 3.437h16.09l-15.99-6.874h-.1c-1.84.006-3.33 1.542-3.336 3.437z"/>
                    <path fill="#000" d="M127.372 272.006c-.005 1.896-1.495 3.43-3.335 3.437h-16.09l15.99-6.874h.1c1.84.006 3.33 1.541 3.335 3.437zM127.372 285.775c-.008 1.895-1.496 3.428-3.335 3.437h-16.09l15.99-6.879h.1c1.84.01 3.33 1.546 3.335 3.442zM127.372 299.507c-.005 1.895-1.495 3.43-3.335 3.436h-16.09l15.99-6.873h.1c1.84.006 3.33 1.54 3.335 3.437zM104.707 278.88c.006 1.895 1.496 3.43 3.336 3.437h16.09l-15.99-6.874h-.1c-1.84.006-3.33 1.541-3.336 3.437z"/>
                    <path fill="#000" d="M104.707 292.633c.006 1.895 1.496 3.43 3.336 3.437h16.09l-15.99-6.874h-.1c-1.84.006-3.33 1.541-3.336 3.437z"/>
                    <path fill="#2691FD" d="M106.553 316.653l5.32-2.944a2.872 2.872 0 0 1-1.147-1.856 2.93 2.93 0 0 1 .47-2.145 1.253 1.253 0 0 0-.74-.623 1.212 1.212 0 0 0-.95.102l-.24.131c-.649-.893-2.128-1.063-3.41-.34-1.282.724-1.968 2.067-1.595 3.12l-.048.027a2.872 2.872 0 0 1 1.146 1.856 2.93 2.93 0 0 1-.47 2.145c.325.61 1.062.844 1.664.527z"/>
                    <path fill="#000" d="M103.68 313.863c.154.304.418.533.736.636.317.103.662.071.956-.088l5.32-2.938-6.474.614h-.032a1.28 1.28 0 0 0-.618.777c-.095.335-.054.695.113.999z"/>
                    <path fill="#000" d="M112.324 311.988a1.314 1.314 0 0 1-.505 1.743l-5.319 2.938 4.08-5.185h.032c.291-.169.636-.21.958-.116.321.095.593.318.754.62z"/>
                </g>
                <path fill="#3F3D56" d="M278.711 335.768a12.364 12.364 0 0 1-10.81-3.09 12.654 12.654 0 0 1-3.948-10.63c1.419-12.668 5.83-33.078 17.898-63.716 13.99-35.524 8.943-44.106-6.047-69.581-4.84-8.233-10.33-17.56-16.241-29.539-15.246-30.775-9.453-54.494-1.928-68.93C265.637 74.916 277.081 66.87 278.36 66l11.813 19.747-1.083 1.094c-.027 0 .542 0 1.364 1.516a47.64 47.64 0 0 0-11.19 14.48c-6.55 13.254-5.684 28.444 2.572 45.112 5.527 11.17 10.768 20.081 15.391 27.942 8.305 14.113 14.86 25.261 17.032 39.336 2.246 14.567-.542 30.239-9.252 52.404-11.483 29.15-15.159 47.394-16.28 57.186-.618 5.458-4.663 9.884-9.999 10.94l-.016.01z"/>
                <path fill="#2691FD" d="M224 50.434L274.753 0 326 50.434h-34.828V89h-32.344V50.68z"/>
                <path fill="#3F3D56" d="M379.02 330.879a6.5 6.5 0 0 1-5.654-1.6 6.525 6.525 0 0 1-2.063-5.511c.738-6.568 3.048-17.151 9.361-33.036 7.316-18.422 4.675-22.871-3.162-36.084-2.533-4.264-5.423-9.105-8.51-15.32-7.96-15.955-4.935-28.25-.997-35.735A36.316 36.316 0 0 1 378.842 191l6.177 10.24-.575.544s.293 0 .716.787a24.702 24.702 0 0 0-5.857 7.508c-3.422 6.873-2.967 14.744 1.35 23.393 2.891 5.791 5.63 10.414 8.049 14.489 4.339 7.318 7.772 13.098 8.91 20.4 1.172 7.55-.276 15.678-4.843 27.162-6.003 15.114-7.929 24.572-8.515 29.652a6.515 6.515 0 0 1-5.228 5.677l-.005.027z"/>
                <path fill="#2691FD" d="M351 182.067L377.369 156 404 182.067h-18.096V202h-16.808v-19.804z"/>
                <path fill="#3F3D56" d="M161.98 330.879a6.5 6.5 0 0 0 5.654-1.6 6.525 6.525 0 0 0 2.063-5.511c-.738-6.568-3.048-17.151-9.361-33.036-7.316-18.422-4.675-22.871 3.162-36.084 2.533-4.264 5.423-9.105 8.51-15.32 7.96-15.955 4.935-28.25.997-35.735A36.316 36.316 0 0 0 162.158 191l-6.177 10.24.575.544s-.293 0-.716.787a24.702 24.702 0 0 1 5.857 7.508c3.422 6.873 2.967 14.744-1.35 23.393-2.891 5.791-5.63 10.414-8.049 14.489-4.339 7.318-7.772 13.098-8.91 20.4-1.172 7.55.276 15.678 4.843 27.162 6.003 15.114 7.929 24.572 8.515 29.652a6.515 6.515 0 0 0 5.228 5.677l.005.027z"/>
                <path fill="#2691FD" d="M190 182.067L163.631 156 137 182.067h18.096V202h16.808v-19.804z"/>
                <ellipse cx="274.179" cy="158.507" fill="#000" opacity=".1" rx="11.484" ry="1.366" transform="rotate(-16.49 274.179 158.507)"/>
                <ellipse cx="279.099" cy="169.431" fill="#000" opacity=".1" rx="11.484" ry="1.366" transform="rotate(-16.49 279.1 169.431)"/>
                <ellipse cx="284.567" cy="177.621" fill="#000" opacity=".1" rx="11.484" ry="1.366" transform="rotate(-16.49 284.567 177.62)"/>
                <ellipse cx="288.947" cy="185.815" fill="#000" opacity=".1" rx="11.484" ry="1.366" transform="rotate(-16.49 288.947 185.815)"/>
                <path fill="#000" d="M100 324.51c-.006 3.026-2.61 5.479-5.828 5.49H66l27.962-11h.172c1.555-.001 3.047.579 4.147 1.612 1.1 1.034 1.719 2.436 1.719 3.898z" opacity=".1"/>
                <path fill="#2691FD" d="M151 84.411a10.549 10.549 0 0 0-6.409.72 8.97 8.97 0 0 1-7.664 0 10.288 10.288 0 0 0-9.012.183 5.378 5.378 0 0 1-2.593.686c-3.653 0-6.691-3.869-7.322-8.977a7.265 7.265 0 0 0 1.826-2.069c2.142-3.628 5.436-5.954 9.181-5.954 3.745 0 7.007 2.286 9.148 5.891 1.303 2.2 3.602 3.528 6.067 3.503h.098c2.908-.005 5.424 2.446 6.68 6.017z" opacity=".1"/>
                <path fill="#2691FD" d="M162.428 68.093l-5.948 3.776 3.609-6.577a5.852 5.852 0 0 0-3.598-1.288h-.093c-.413.01-.825-.02-1.233-.087l-2.02 1.277.865-1.573a7.192 7.192 0 0 1-3.527-2.68l-3.62 2.296 2.278-4.149c-2.109-2.532-4.957-4.088-8.084-4.088-3.751 0-7.12 2.23-9.256 5.71A6.927 6.927 0 0 1 125.684 64h-.18c-4.141 0-7.504 4.702-7.504 10.5C118 80.298 121.363 85 125.503 85a5.567 5.567 0 0 0 2.613-.658 10.837 10.837 0 0 1 9.08-.175 9.579 9.579 0 0 0 3.883.833 9.464 9.464 0 0 0 3.834-.817 10.832 10.832 0 0 1 8.998.176 5.605 5.605 0 0 0 2.585.641c4.146 0 7.503-4.702 7.503-10.5.02-2.234-.52-4.437-1.571-6.407z" opacity=".1"/>
                <path fill="#FBBEBE" d="M301.712 147.446c.324.044.637.152.925.321.377.295.66.715.809 1.199.383 1.205.565 2.477.539 3.754a8.856 8.856 0 0 1-.351 3.045c-.09.302-.248.575-.458.793-.185.163-.4.279-.63.338a1.545 1.545 0 0 1-1.48-.203 2.743 2.743 0 0 1-.655-1.688 4.212 4.212 0 0 0-.88-2.353c-.422-.433-1.017-.653-1.327-1.187-.366-.642-.173-1.475.061-2.184.198-.619.508-1.868 1.078-2.184.57-.315 1.764.225 2.369.35zM278.4 151.222c.2.685.56 1.319 1.05 1.855.3.33.67.728.512 1.12a.957.957 0 0 1-.282.365c-2.21 2.062-5.288 3.065-8.372 3.43a.326.326 0 0 1-.147 0c-.088-.04-.112-.146-.124-.241a2.84 2.84 0 0 1 0-.92 2.776 2.776 0 0 1 1.452-1.613 4.548 4.548 0 0 0 1.703-1.418c.447-.802.259-1.844.788-2.595a2.897 2.897 0 0 1 1.997-.98c.259-.04.823-.32 1.046-.191.223.129.288.936.376 1.188z"/>
                <path fill="#F86D70" d="M301.963 148.29a.296.296 0 0 1 .265-.285.944.944 0 0 1 .426.055c.338.087.682.148 1.03.18.418.013.834.06 1.244.138.416.084.769.342.962.703.08.21.117.434.109.659a9.971 9.971 0 0 1-.322 2.569c0 .06-.046.137-.11.16-.063.021-.115 0-.167 0a.212.212 0 0 0-.098.109 5.438 5.438 0 0 0-.368 1.718 48.875 48.875 0 0 1-.374 2.58 2.8 2.8 0 0 1-.576 1.412 2.5 2.5 0 0 1-1.555.68 11.452 11.452 0 0 1-3.661-.318 1.09 1.09 0 0 1-.616-.264.654.654 0 0 1-.15-.466c0-.55.576-.983 1.082-1.301l.749-.434a.363.363 0 0 0 .12-.104.379.379 0 0 0 .035-.215l-.046-.845c.932.024 1.775.535 2.194 1.329.098.18.19.395.385.466a.514.514 0 0 0 .605-.351 1.41 1.41 0 0 0 0-.741c-.403-2.07-.305-4.2-.576-6.292a1.35 1.35 0 0 0-.224-.659c-.115-.153-.334-.274-.363-.483zM273.117 156.084c-.094.163-.24.287-.324.46a.408.408 0 0 0 .068.512.435.435 0 0 0 .293.034c1.968-.265 3.815-1.164 5.3-2.579.246-.224.464-.483.648-.77.172-.28.318-.623.61-.741.179.822.271 1.662.277 2.505a1.857 1.857 0 0 1-.522 1.512c-.16.111-.337.193-.522.241l-.924.281a.873.873 0 0 1-.523.05c-.103-.049-.21-.09-.318-.123a.703.703 0 0 0-.355.045l-.794.253a4.32 4.32 0 0 0-.789.292c-.23.118-.438.27-.658.399a7.875 7.875 0 0 1-1.154.5l-1.4.522a4.658 4.658 0 0 1-1.19.332c-.282 0-.564 0-.846.05-.282.05-.412.118-.632.14-.353.01-.7-.1-.992-.314a1.012 1.012 0 0 1-.287-.28c-.199-.332 0-.776.172-1.124a4.223 4.223 0 0 1 1.415-1.573c.246-.146.523-.253.758-.382.715-.371 1.253-.995 1.927-1.422.673-.427 1.06.652.762 1.18z"/>
                <path fill="#FBBEBE" d="M294 96.92c.763.527 1.636.87 2.551 1.003.479.058.96.083 1.443.076a37.109 37.109 0 0 0 6.006-.504 7.5 7.5 0 0 1-1.89-2.961 4.997 4.997 0 0 1-.09-1.854c.115-.793.295-1.575.538-2.337a15.3 15.3 0 0 1-2.54-.065c-.48-.05-1.658-.488-2.078-.152-.42.336-.097 1.404-.086 1.914a6.139 6.139 0 0 1-.484 2.288A4.176 4.176 0 0 1 294 96.92z"/>
                <path fill="#000" d="M297.152 92.133a5.184 5.184 0 0 0 4.29.669c.12-.83.306-1.646.558-2.444-.878.051-1.759.028-2.633-.068-.497-.05-1.718-.51-2.153-.159-.436.352-.073 1.469-.062 2.002z" opacity=".1"/>
                <circle cx="300" cy="87" r="5" fill="#FBBEBE"/>
                <path fill="#F86D70" d="M279 113.622a2.395 2.395 0 0 0 1.135 2.05c.386.209.801.358 1.231.44 2.286.642 4.652.938 7.023.881a3.866 3.866 0 0 0 1.488-.315c.475-.215.819-.651.92-1.17a.664.664 0 0 1 .418-.684c.439-.337.647-.9.536-1.447.289.13.589-.163.722-.45.134-.29.241-.643.536-.762.206-.048.415-.079.626-.093.332-.087.535-.413.77-.663a5.775 5.775 0 0 1 1.778-1.087c1.852-.952 3.356-2.452 4.818-3.931a16.36 16.36 0 0 0 2.077-2.365c.166-.25.32-.506.46-.767a21.75 21.75 0 0 0 1.162-2.691c.225-.481.327-1.013.294-1.545a1.314 1.314 0 0 0 0-.141 2.966 2.966 0 0 0-.455-.935 3.868 3.868 0 0 0-2.06-1.724c-.868-.233-1.757.05-2.677.24a6.437 6.437 0 0 1-.9.14 8.248 8.248 0 0 1-2.8-.445l-1-.277c-.498-.142-.75-.756-1.253-.865a1.798 1.798 0 0 0-.68.038 9.14 9.14 0 0 0-2.965.984c-.2.118-.392.25-.573.397a3.722 3.722 0 0 0-1.338 2.007c-.209.886 0 1.827-.225 2.718a6.046 6.046 0 0 1-1.022 1.98l-2.452 3.577a21.712 21.712 0 0 1-1.81 2.387c-1.322 1.435-3.747 2.539-3.784 4.518z"/>
                <path fill="#FBBEBE" d="M284.54 79.307a4.95 4.95 0 0 0-.417-1.506 3.271 3.271 0 0 0-.614-.739 3.988 3.988 0 0 0-1.308-.934 1.455 1.455 0 0 0-1.51.196c-.39.402-.625.964-.654 1.563a4.356 4.356 0 0 0 .352 2.372c.403.802 1.097 1.338 1.676 1.979.425.462.794.988 1.097 1.563.138.3.307.581.503.837.198.256.492.389.79.357.245-.072.468-.222.644-.432.236-.237.88-.67.9-1.05.02-.381-.503-1.004-.608-1.293a16.139 16.139 0 0 1-.85-2.913z"/>
                <path fill="#434175" d="M266.805 138.913c.646 1.182 1.358 2.33 1.933 3.55.334.71.63 1.442 1.003 2.13.372.689.909 1.458 1.336 2.201a25.4 25.4 0 0 1 2.224 6.092 12.474 12.474 0 0 0 4.38-1.523c.089-.054.176-.108.258-.168.361-.256.664-.585.888-.965-.51-1.913-1.036-3.853-2.076-5.539-.334-.542-.723-1.084-1.095-1.626-1.014-1.572-1.222-3.556-2.372-5.03a.855.855 0 0 1 0-1.024c.132-.168.345-.33.301-.542-.043-.212-.191-.298-.126-.44.066-.14.099-.108.16-.156.19-.18.169-.488.185-.748a3.685 3.685 0 0 1 .838-1.8c.08-.127.185-.237.307-.325.104-.065.23-.092.334-.157.367-.228.34-.759.515-1.155.235-.542.816-.78 1.194-1.203.487-.542.608-1.284 1.095-1.75.053-.05.11-.095.17-.136a8.212 8.212 0 0 0-.301 2.455c-.05 2.835.668 5.773.328 8.591-.263 2.238 1.129 4.472 3.1 5.588.774.404 1.582.74 2.415 1.003 1.238.433 2.47.883 3.68 1.382.855.361 1.699.739 2.531 1.133a31.318 31.318 0 0 1 2.99 1.626 11.477 11.477 0 0 1 3.226 2.623 2.889 2.889 0 0 0 2.081-1.133 7.88 7.88 0 0 0 1.145-2.135 5.845 5.845 0 0 0 .548-2.011.385.385 0 0 0-.225-.363l-5.646-2.965-1.057-.542c-2.312-1.214-4.71-2.336-7.022-3.55-.153.043-.284-.13-.328-.282-.044-.152-.077-.341-.225-.412-.148-.07-.17-.032-.224-.092a.236.236 0 0 1-.039-.184c.077-1.084.882-2.125.718-3.225a3.828 3.828 0 0 1-.203-1.388c.12-.303.263-.596.427-.878.28-.672 0-1.485.307-2.168a4.84 4.84 0 0 0 .405-1.371 9.28 9.28 0 0 1 .866-2.71c.204-.434.471-.836.794-1.193.17-.178.361-.341.548-.542a4.31 4.31 0 0 0 .81-2.08 9.85 9.85 0 0 0 .115-4.077 5.95 5.95 0 0 1-.263-1.371c0-.618.28-1.339-.153-1.783a1.39 1.39 0 0 0-.63-.32 20.152 20.152 0 0 0-3.061-.542l-4.721-.607a4.418 4.418 0 0 1-1.572-.401A3.11 3.11 0 0 1 278.3 113c-.833.596-1.14 1.713-1.802 2.482-.323.38-.718.683-1.095 1.03-.43.451-.826.933-1.183 1.442a25.509 25.509 0 0 0-2.673 4.184c-.367.78-.652 1.594-.948 2.401-1.15 3.182-3.028 6.2-3.833 9.49-.192.808-.69 1.535-.767 2.353.009.904.289 1.785.805 2.531z"/>
                <path fill="#000" d="M292.804 112.08c.133.282.2.6.196.92-.12-.724-.95-1.072-1-1.753 0-.311 0-.297.196-.13.196.166.367.695.608.963zM289.523 113.18c.163.177.285.406.354.662.134.363.16.774.072 1.158-.114-.068-.15-.248-.186-.398a3.19 3.19 0 0 0-.246-.685c-.09-.188-.523-.624-.517-.827.006-.203.408-.015.523.09zM289 96.455c.35.286.735.53 1.146.727 1.067.519 2.247.794 3.325 1.296a15.59 15.59 0 0 1 1.542.865l3.193 1.945c.255.144.491.316.705.513.378.397.378 1.102.728 1.51.394.429.958.679 1.553.689a5.287 5.287 0 0 0 1.72-.281 9.07 9.07 0 0 0 .986-.347c.335-.137.652-.31.945-.518a2.607 2.607 0 0 0 1.147-1.698 3.284 3.284 0 0 0-.19-1.383 5.07 5.07 0 0 0-.343-.838 2.695 2.695 0 0 0-.27-.44c-.733-.998-2.023-1.467-3.273-1.704-.659-.121-1.33-.198-1.989-.309-.317.07-.639.118-.963.144a9.288 9.288 0 0 1-2.998-.452l-1.071-.281c-.534-.144-.803-.766-1.342-.877a2.03 2.03 0 0 0-.728.04c-1.11.156-2.183.493-3.175.997a4.859 4.859 0 0 0-.648.402z" opacity=".1"/>
                <path fill="#F86D70" d="M286.786 83c.135 1.256 1.21 2.18 1.867 3.265.32.553.563 1.107.833 1.66.34.594.715 1.166 1.125 1.715l1.175 1.66a17.417 17.417 0 0 0 2.25 2.806c1.542.26 2.813 1.383 4.287 1.926 1.199.346 2.426.59 3.667.73 1.227.238 2.492.708 3.212 1.71.266.397.469.832.602 1.29.16.444.223.917.186 1.388a2.62 2.62 0 0 1-1.125 1.699c-.574.4-1.216.694-1.896.869a4.948 4.948 0 0 1-1.687.282 2.08 2.08 0 0 1-1.525-.692c-.343-.42-.337-1.107-.714-1.51-.208-.2-.44-.373-.692-.515l-3.133-1.953a15.204 15.204 0 0 0-1.513-.87c-1.058-.508-2.217-.78-3.263-1.305-1.046-.526-2.025-1.378-2.25-2.518-.636-3.492-3.094-6.435-5.192-9.318.068 0 .045-.166.073-.233a3.013 3.013 0 0 1 1.536-1.527 9.12 9.12 0 0 1 2.177-.559z"/>
                <path fill="#434175" d="M298.012 82.346c-.042-.37.03-.744.206-1.07a2.325 2.325 0 0 1 1.635-.873c.598-.128 1.195-.23 1.799-.32.49-.1.993-.11 1.486-.028.648.232 1.27.53 1.857.889.766.278 1.556.482 2.36.61a3.56 3.56 0 0 1 2.116 1.15c.347.535.563 1.146.63 1.783.941 5.137-.074 10.403-.265 15.626-.074 2.029 0 4.201 1.164 5.887l-3.344-.086c-.851-.026-1.772-.07-2.45-.604a4.062 4.062 0 0 1-1.12-1.943 6.066 6.066 0 0 1-.43-1.74c-.052-1.23.636-2.434.413-3.638a4.058 4.058 0 0 0-1.534-2.264 14.08 14.08 0 0 1-2.026-1.825c-1-1.284-1.19-3.034-1.058-4.667.133-.96.188-1.93.164-2.9a3.686 3.686 0 0 0-.757-2.04 2.84 2.84 0 0 1-.846-1.947z"/>
                <path fill="#000" d="M298.227 80.882c.39-.505.965-.824 1.59-.882a1.565 1.565 0 0 0-.795.643 1.88 1.88 0 0 0-.207 1.09c.021.75.33 1.463.858 1.982.45.595.715 1.317.758 2.07.025.989-.03 1.978-.164 2.958-.122 1.634.069 3.437 1.06 4.745a14.18 14.18 0 0 0 2.028 1.857 4.149 4.149 0 0 1 1.516 2.26c.222 1.232-.467 2.457-.414 3.705.056.609.2 1.206.43 1.77a4.15 4.15 0 0 0 1.123 1.978c.678.544 1.589.593 2.452.615l2.374.066c.053.087.106.174.164.261l-3.348-.087c-.853-.027-1.775-.071-2.453-.616a4.15 4.15 0 0 1-1.123-1.977 6.258 6.258 0 0 1-.43-1.77c-.052-1.253.636-2.479.414-3.705a4.133 4.133 0 0 0-1.51-2.255 14.18 14.18 0 0 1-2.029-1.857c-1.001-1.308-1.192-3.089-1.06-4.75.134-.978.19-1.966.165-2.953a3.79 3.79 0 0 0-.758-2.075 2.914 2.914 0 0 1-.858-1.983 1.88 1.88 0 0 1 .217-1.09zM272 136.005L278.144 151c.348-.25.64-.573.856-.945-.491-1.873-.998-3.774-2.002-5.424-.323-.531-.698-1.062-1.057-1.593-.977-1.54-1.178-3.482-2.287-4.925a.847.847 0 0 1 0-1.004c.126-.164.332-.323.29-.53-.042-.207-.185-.292-.121-.43.063-.138.095-.107.153-.154.185-.175.164-.478.18-.733.105-.65.384-1.26.808-1.762.077-.124.177-.232.296-.318.1-.064.222-.09.322-.154.354-.223.327-.743.496-1.131.228-.53.788-.764 1.152-1.178.47-.531.587-1.258 1.057-1.715l.042-.106-.465-2.898L272 136.005z" opacity=".1"/>
            </g>
        </g>
    </g>
</svg>
