<svg xmlns="http://www.w3.org/2000/svg" width="320" height="120" viewBox="0 0 320 120">
    <defs>
        <linearGradient id="a" x1="50.001%" x2="50.001%" y1="100%" y2="0%">
            <stop offset="0%" stop-color="gray" stop-opacity=".25"/>
            <stop offset="54%" stop-color="gray" stop-opacity=".12"/>
            <stop offset="100%" stop-color="gray" stop-opacity=".1"/>
        </linearGradient>
        <linearGradient id="b" x1="50.088%" x2="50.088%" y1="99.99%" y2="-.033%">
            <stop offset="0%" stop-color="gray" stop-opacity=".25"/>
            <stop offset="54%" stop-color="gray" stop-opacity=".12"/>
            <stop offset="100%" stop-color="gray" stop-opacity=".1"/>
        </linearGradient>
        <linearGradient id="c" x1="49.953%" x2="49.953%" y1="100.017%" y2="-.034%">
            <stop offset="0%" stop-color="gray" stop-opacity=".25"/>
            <stop offset="54%" stop-color="gray" stop-opacity=".12"/>
            <stop offset="100%" stop-color="gray" stop-opacity=".1"/>
        </linearGradient>
        <linearGradient id="d" x1="50%" x2="50%" y1="100%" y2="-.003%">
            <stop offset="0%" stop-color="gray" stop-opacity=".25"/>
            <stop offset="54%" stop-color="gray" stop-opacity=".12"/>
            <stop offset="100%" stop-color="gray" stop-opacity=".1"/>
        </linearGradient>
    </defs>
    <g fill="none" fill-rule="evenodd" transform="translate(78)">
        <path fill="#2691FD" fill-rule="nonzero" d="M10.118 17.928c1.532 2.666.684 6.126-.98 8.71-1.665 2.586-4.032 4.637-5.876 7.103-3.666 4.92-4.614 12.69.01 16.733.995.87 2.226 1.56 2.833 2.735.838 1.62.218 3.572-.414 5.29l-.053.14c-2.39 6.478 1.131 13.657 7.729 15.689 3.65 1.125 6.946 2.948 9.385 5.896 2.131 2.578 3.363 5.757 4.768 8.79 2.542 5.481 5.822 10.721 10.354 14.712 4.533 3.99 10.447 6.635 16.485 6.417 13.79-.497 23.944-15.019 37.721-15.783.993-.056 2.05-.018 2.88.529 1.172.772 1.531 2.287 2.024 3.604 2.608 6.973 10.463 10.187 17.497 12.63l13.216 4.592c7.18 2.493 14.719 5.024 22.228 3.869 7.51-1.155 14.841-7.322 14.516-14.915-.268-6.237-5.437-11.727-4.76-17.934.469-4.29 3.681-7.892 4.219-12.174.56-4.456-1.876-8.735-4.68-12.244-8.068-10.098-19.566-16.755-30.788-23.175-7.905-4.524-15.85-9.065-24.36-12.315-20.978-7.992-44.034-7.648-66.382-9.829-3.844-.375-7.861-.817-11.383-2.515-2.703-1.304-4.817-4.318-7.783-4.957-2.26-.486-5.603.519-7.577 1.616-3.597 2.016-2.606 3.694-.829 6.786z" opacity=".1"/>
        <path fill="url(#a)" fill-rule="nonzero" d="M148.516 0H27.812a4.205 4.205 0 0 0-4.188 4.228v84.886a4.206 4.206 0 0 0 4.188 4.228h120.704a4.205 4.205 0 0 0 4.187-4.228V4.228A4.206 4.206 0 0 0 148.516 0z"/>
        <path fill="#F6F7F9" fill-rule="nonzero" d="M152.158 8.993v79.109a4.151 4.151 0 0 1-4.151 4.15H28.369a4.151 4.151 0 0 1-4.151-4.15V8.993h127.94z"/>
        <path fill="#DDE1EC" fill-rule="nonzero" d="M55.47 49.768V92.25H28.37c-2.292 0-4.151-1.895-4.151-4.232V49.768H55.47zM64.749 18.679h52.088v1.464H64.749zM64.749 29.096h31.415v1.464H64.749zM103.164 29.096h10.581v1.464h-10.581z"/>
        <path fill="#2691FD" fill-rule="nonzero" d="M33.821 65.638h10.581v1.464h-10.58z" opacity=".1"/>
        <path fill="#DDE1EC" fill-rule="nonzero" d="M103.164 42.769h10.581v1.464h-10.581zM103.164 56.442h10.581v1.464h-10.581zM103.164 33.654h10.581v1.464h-10.581zM121.394 33.654h10.581v1.464h-10.581zM103.164 38.211h10.581v1.464h-10.581zM121.394 38.211h10.581v1.464h-10.581zM121.394 46.675h10.581v1.464h-10.581zM121.394 51.234h10.581v1.464h-10.581zM121.394 61h10.581v1.464h-10.581zM64.749 33.654h31.415v1.464H64.749zM64.749 38.211h31.415v1.464H64.749zM64.749 42.769h31.415v1.464H64.749zM64.749 47.327h31.415v1.464H64.749zM64.749 51.884h31.415v1.464H64.749zM64.749 56.442h31.415v1.464H64.749zM64.749 61h31.415v1.464H64.749z"/>
        <path fill="#2691FD" fill-rule="nonzero" d="M24.218 8.912h31.253v41.67H24.218z"/>
        <path fill="#E8EAF1" fill-rule="nonzero" d="M152.158 4.761a4.15 4.15 0 0 0-4.151-4.15H28.369a4.151 4.151 0 0 0-4.151 4.151v4.72h127.94V4.762z"/>
        <circle cx="29.264" cy="5.006" r="1.628" fill="#FF5252" fill-rule="nonzero"/>
        <circle cx="34.635" cy="5.006" r="1.628" fill="#FF0" fill-rule="nonzero"/>
        <circle cx="40.007" cy="5.006" r="1.628" fill="#69F0AE" fill-rule="nonzero"/>
        <path fill="#FFF" fill-rule="nonzero" d="M48.961 29.748a9.073 9.073 0 0 1-2.18 5.914 9.161 9.161 0 0 1-1.6 1.473l-.075.056c-.104.074-.209.15-.316.213l-.073.047-.158.097a.8.8 0 0 1-.072.041 8.72 8.72 0 0 1-.776.412c-.027.015-.057.027-.086.04-.029.014-.062.03-.095.042-.033.012-.097.044-.15.063a9.091 9.091 0 0 1-3.241.707h-.297a9.103 9.103 0 0 1-2.128-.244l-.131-.032a9.046 9.046 0 0 1-1.43-.494c-.043-.02-.085-.037-.129-.058l-.13-.059-.115-.059-.12-.061-.134-.07-.15-.086-.024-.014a9.15 9.15 0 0 1-1.769-1.308c-.045-.044-.092-.086-.135-.132-.044-.047-.095-.093-.14-.141a9.115 9.115 0 1 1 15.654-6.347z"/>
        <path fill="url(#b)" fill-rule="nonzero" d="M46.258 32.995a2.603 2.603 0 0 1-.108.46c0-.056-.01-.116-.014-.18-.045-.67-.084-1.725.051-2.35.128-.587-.802-.408-1.422.117a1.636 1.636 0 0 0-.433.542 1.637 1.637 0 0 0-1.274-.66 4.192 4.192 0 0 1-2.617-1.148 3.876 3.876 0 0 1-.07-.363c0-.038-.013-.077-.017-.114.347-.31.59-.72.695-1.173v-.018c.038-.164.057-.331.057-.499 0-.07 0-.135-.007-.201 0-.024 0-.05-.008-.074-.007-.024 0-.057-.012-.084a.993.993 0 0 0 .11-.057c.213-.131.383-.323.487-.551v-.012c.037-.081.07-.164.096-.25.073-.244.115-.496.124-.75v-.098c0-.197-.039-.443-.23-.484-.255-.054-.44.33-.696.289a.39.39 0 0 1-.202-.122c-.174-.173-.29-.395-.465-.57a1.592 1.592 0 0 0-.994-.421 3.755 3.755 0 0 0-1.094.1 1.841 1.841 0 0 0-.564.193.673.673 0 0 0-.338.464.662.662 0 0 0 0 .127v.194a.72.72 0 0 1-.01.083.686.686 0 0 1-.348.414c-.159.095-.336.16-.488.27a1.278 1.278 0 0 0-.47.75c-.04.167-.057.338-.053.51-.002.154.007.308.026.462.064.516.21 1.019.43 1.49.06.131.13.257.213.375.02.03.042.057.064.083.142.158.305.296.485.41l.104.07a.3.3 0 0 0 .257.066.273.273 0 0 0 .078-.045.6.6 0 0 0 .188-.473v-.024a.15.15 0 0 1 0 .026v.034h.015c.004.077.004.153 0 .23a.84.84 0 0 1 0 .093v.053l-.024.02a7.943 7.943 0 0 1-1.952 1.218 2.403 2.403 0 0 0-1.384 1.537 5.39 5.39 0 0 1-.656 1.422c-.072.106-.27.902-.502 1.719.045.05.093.096.14.14l.135.133a9.15 9.15 0 0 0 1.77 1.308l.023.014.15.085.134.07c0-.112-.015-.215-.022-.313 0-.059-.01-.114-.015-.168.034-.057.064-.108.093-.15 0 .043.01.091.015.15.016.15.033.335.05.546 0 .067.006.138.016.21 0-.073-.008-.15-.014-.21l.114.059.131.059a8.107 8.107 0 0 0 .658.273c.291.107.592.2.901.28l.13.03a9.1 9.1 0 0 0 2.132.252h.297a9.087 9.087 0 0 0 1.628-.203 8.87 8.87 0 0 0 1.777-.574c.033-.013.063-.027.095-.042.031-.015.058-.025.085-.04-.15-.528-.231-.866-.231-.866l.198-.509.024-.061.06-.158c0 .02.01.04.017.059.124.434.369.824.706 1.124a.8.8 0 0 0 .072-.04l.157-.098.074-.046c.108-.07.212-.14.315-.214l.075-.055a9.161 9.161 0 0 0 1.573-1.44l.027-.033c.051-.06.1-.12.15-.182l-.668-2.49zm-1.31.685l.014.022-.012-.01-.002-.012z"/>
        <path fill="url(#c)" fill-rule="nonzero" d="M44.972 33.399v.012l.01.01c-.002-.009-.007-.015-.01-.022zm-9.185 4.505a20.214 20.214 0 0 0-.074-.874v-.06a3.454 3.454 0 0 0-.354.706l.024.014.15.085.134.07.12.062c0 .067.005.138.015.21-.008-.071-.01-.14-.015-.208v-.005zm1.999-8.586l.007.014v.01a.059.059 0 0 0-.007-.02v-.004z"/>
        <path fill="#E0A17E" fill-rule="nonzero" d="M40.4 27.785s-.542 2.436.948 3.723-3.519 2.295-4.402 1.218.613-1.627.613-1.627.75-.61 0-2.436l2.842-.878z"/>
        <path fill="#F0F1F5" fill-rule="nonzero" d="M41.752 38.66a9.088 9.088 0 0 1-1.614.197h-.298a9.1 9.1 0 0 1-2.126-.248l-.131-.032c-.306-.08-.607-.173-.901-.28l-.15-2.252.651-3.12.383-1.838.109-.513.11.15.023.033.03.039 1.202 1.6 1.23-1.325.063-.07.338-.364.127-.137.06.464.217 1.669.4 3.077.277 2.95z"/>
        <path fill="#000" fill-rule="nonzero" d="M45.104 37.191c-.103.074-.208.15-.315.213l-.074.047-.157.097a.8.8 0 0 1-.072.041.482.482 0 0 1-.062.038 2.415 2.415 0 0 1-.72-1.06 1.652 1.652 0 0 1-.044-.16.15.15 0 0 1 0-.026l-.086.226-.263.65s.078.318.218.823a8.87 8.87 0 0 1-1.777.574 9.086 9.086 0 0 1-1.614.197h-.083c-.076-.699-.102-1.401-.08-2.103l.199-3.78.1-1.908.056-1.051.057.056c.038.034.063.06.108.1.67.586 1.515.935 2.403.993.497.014.96.26 1.25.664.271.386.446.831.509 1.299l.045.413.012.117.016.15.374 3.39z" opacity=".1"/>
        <path fill="#293158" fill-rule="nonzero" d="M45.18 37.137l-.076.055c-.103.074-.208.15-.315.214l-.074.046-.157.098a2.49 2.49 0 0 1-.778-1.084 1.984 1.984 0 0 1-.062-.216l-.061.16-.085.218-.192.501s.089.36.245.917c-.032.015-.062.03-.095.042-.033.012-.097.043-.15.063a9.086 9.086 0 0 1-3.241.707 14.942 14.942 0 0 1-.094-2.24l.192-3.664.102-1.952.05-.92.008-.192a4.069 4.069 0 0 0 2.579 1.15c.49.015.947.254 1.238.648.279.39.458.841.522 1.316l.08.74v.01l.017.15.346 3.233z"/>
        <path fill="#000" fill-rule="nonzero" d="M37.877 30.348v.092l-.024.348-.084 1.193s-.05.344-.085 1.119c-.053 1.021-.085 2.79.037 5.512l-.13-.032a9.046 9.046 0 0 1-1.43-.494c-.044-.02-.086-.037-.13-.058-.043-.601-.096-.97-.096-.97s-.04.052-.102.151c-.025.04-.057.09-.09.15l-.007.014c-.03.05-.06.107-.093.17-.038.076-.076.151-.112.246l-.15-.086-.024-.013a9.15 9.15 0 0 1-1.769-1.309c.242-.851.45-1.707.526-1.817.28-.43.495-.9.638-1.392a2.36 2.36 0 0 1 1.352-1.502 5.482 5.482 0 0 0 1.77-1.322h.003z" opacity=".1"/>
        <path fill="#293158" fill-rule="nonzero" d="M37.879 30.306c-.581.493-1.23.9-1.924 1.212a2.36 2.36 0 0 0-1.352 1.502 5.22 5.22 0 0 1-.638 1.393c-.074.11-.284.967-.526 1.82.044.045.09.088.135.132a9.15 9.15 0 0 0 1.77 1.308l.024.014c.087-.224.198-.437.33-.637l.008-.012c.052-.078.085-.12.085-.12s.014.099.033.277c.02.18.045.451.07.766l.13.059a8.107 8.107 0 0 0 .658.273c.291.108.592.2.901.28-.123-2.695-.096-4.47-.047-5.517.04-.844.092-1.218.092-1.218l.19-1.096.055-.31.025-.15-.02.024z"/>
        <path fill="#000" fill-rule="nonzero" d="M38.845 30.155c-.338 0-.671-.076-.975-.224a4.381 4.381 0 0 0-.311-1.131l2.842-.879a5.44 5.44 0 0 0-.06 1.652c-.408.374-.942.581-1.496.582z" opacity=".1"/>
        <circle cx="38.845" cy="27.786" r="2.233" fill="#E0A17E" fill-rule="nonzero"/>
        <path fill="#000" fill-rule="nonzero" d="M43.569 38.15c-.293-.618-.455-1.024-.455-1.024l.562-.88c.044.124.109.245.193.36l.012.02-.32.502s.148.36.408.916c-.053.015-.103.03-.158.042-.055.012-.162.044-.242.063z" opacity=".1"/>
        <path fill="#E0A17E" fill-rule="nonzero" d="M46.019 33.944s-.203-1.963 0-2.91c.203-.948-2.368.134-1.828 1.42.29.713.652 1.393 1.083 2.03l.745-.54z"/>
        <path fill="#000" fill-rule="nonzero" d="M46.752 35.695a9.169 9.169 0 0 1-1.573 1.44l-.075.056c-.103.074-.208.15-.315.213a6.347 6.347 0 0 1-.646-.92l-.02-.035.543-2.843.057.059c.024.022.055.052.093.082h.008c.28.24.874.6 1.159-.237a2.53 2.53 0 0 0 .104-.45l.055.207.033.121.601 2.267-.024.04z" opacity=".1"/>
        <path fill="#293158" fill-rule="nonzero" d="M46.752 35.695a9.161 9.161 0 0 1-1.573 1.44l-.075.056c-.103.074-.208.15-.315.213l-.074.047a6.551 6.551 0 0 1-.591-.868l.02-.1.522-2.743s.027.031.073.075l.094.082c.039.033.084.07.133.102.311.214.784.374 1.024-.375.045-.14.077-.282.097-.427l.069.256.596 2.242z"/>
        <path fill="#000" fill-rule="nonzero" d="M46.752 35.695a9.161 9.161 0 0 1-1.573 1.44l-.075.056c-.103.074-.208.15-.315.213l-.074.047a6.551 6.551 0 0 1-.591-.868l.02-.1.522-2.743s.027.031.073.075l.094.082c.039.033.084.07.133.102.311.214.784.374 1.024-.375.045-.14.077-.282.097-.427l.069.256.596 2.242z" opacity=".02"/>
        <path fill="#000" fill-rule="nonzero" d="M35.713 37.044l-.007.012v-.023c.094-.329.18-.55.256-.617 0 0 .101.668.191 1.67-.043-.02-.085-.037-.129-.058l-.13-.059a15.09 15.09 0 0 0-.07-.766l-.033-.278s-.025.04-.078.119zM38.872 27.17a.613.613 0 0 1 .383-.069c.057.024.108.06.15.106.175.166.35.36.587.411.147.022.296.016.44-.02.253-.029.498-.104.724-.22.503-.3.664-.951.695-1.535.01-.197-.03-.45-.223-.493-.247-.052-.427.322-.676.281a.377.377 0 0 1-.196-.119c-.17-.17-.285-.387-.45-.558a1.548 1.548 0 0 0-.967-.415 3.617 3.617 0 0 0-1.065.1 1.75 1.75 0 0 0-.548.189.66.66 0 0 0-.33.45c-.017.13.017.266-.008.395a.664.664 0 0 1-.337.407c-.15.093-.327.15-.474.264-.234.182-.396.44-.458.73-.06.288-.069.585-.024.876.061.505.202.998.417 1.46.071.16.163.312.272.45.16.176.345.327.548.45a.333.333 0 0 0 .275.083.239.239 0 0 0 .077-.045c.192-.16.21-.45.15-.695-.06-.245-.162-.478-.174-.727a.35.35 0 0 1 .039-.203.901.901 0 0 1 .135-.136.817.817 0 0 0 .15-.254c.115-.23.193-.476.233-.73a.984.984 0 0 0-.13-.6c.21.197.512.262.785.167z" opacity=".1"/>
        <path fill="#463E3B" fill-rule="nonzero" d="M38.872 27.092a.613.613 0 0 1 .383-.069c.057.024.108.06.15.105.175.167.35.36.587.412.147.022.296.016.44-.02.253-.029.498-.104.724-.22.503-.3.664-.951.695-1.535.01-.197-.03-.45-.223-.493-.247-.052-.427.321-.676.28a.377.377 0 0 1-.196-.118c-.17-.17-.285-.387-.45-.558a1.548 1.548 0 0 0-.967-.415 3.617 3.617 0 0 0-1.065.1 1.75 1.75 0 0 0-.548.188.66.66 0 0 0-.33.451c-.017.13.017.266-.008.395a.664.664 0 0 1-.337.407c-.15.093-.327.15-.474.264-.234.182-.396.44-.458.73-.06.288-.069.585-.024.876.061.505.202.998.417 1.46.071.16.163.312.272.45.16.175.345.327.548.45a.333.333 0 0 0 .275.083.239.239 0 0 0 .077-.045c.192-.16.21-.45.15-.695-.06-.245-.162-.478-.174-.727a.35.35 0 0 1 .039-.203.901.901 0 0 1 .135-.136.817.817 0 0 0 .15-.254c.115-.23.193-.476.233-.73a.984.984 0 0 0-.13-.6c.21.197.512.262.785.167z"/>
        <ellipse cx="26.583" cy="83.67" fill="#CD9494" fill-rule="nonzero" rx="3.783" ry="1.389"/>
        <ellipse cx="26.583" cy="83.515" fill="#000" fill-rule="nonzero" opacity=".05" rx="1.93" ry="1"/>
        <path fill="#FF7361" fill-rule="nonzero" d="M22.798 83.365s4.17 2.316 7.567.31c0 0-.463 8.03-2.78 8.802h-3.086s-2.626-5.412-1.7-9.112z"/>
        <path fill="#2691FD" fill-rule="nonzero" d="M29.85 68.646c1.062 3.88-3.465 14.93-3.465 14.93s-9.52-7.209-10.582-11.086a7.282 7.282 0 0 1 14.047-3.844z"/>
        <path fill="#000" fill-rule="nonzero" d="M29.85 68.646c1.062 3.88-3.465 14.93-3.465 14.93s-9.52-7.209-10.582-11.086a7.282 7.282 0 0 1 14.047-3.844z" opacity=".1"/>
        <path stroke="#535461" d="M20.944 63.565s5.926 8.947 5.48 20.031"/>
        <path fill="#2691FD" fill-rule="nonzero" d="M31.362 75.735s-5.38-2.924-4.693 7.869c0 0 4.483-.161 6.073-3.818a3.172 3.172 0 0 0-1.3-4.006l-.08-.045z"/>
        <path stroke="#535461" d="M31.45 75.753s-.693 5.602-4.781 7.85"/>
        <path fill="#000" fill-rule="nonzero" d="M29.86 83.93c-.15 1.848-.797 7.585-2.736 8.233h-2.768c.089.196.143.31.143.31h3.089c2.314-.774 2.778-8.808 2.778-8.808a5.623 5.623 0 0 1-.506.266z" opacity=".05"/>
        <path fill="#DDE1EC" fill-rule="nonzero" d="M64.749 71.01h31.415v18.231H64.749z"/>
        <path fill="url(#d)" fill-rule="nonzero" d="M147.76 35.025a1.316 1.316 0 0 0 0-.177c-.055-.733-.752-1.263-1.443-1.545-.69-.283-1.462-.42-2.074-.849-1.033-.724-1.351-2.077-1.445-3.315a13.571 13.571 0 0 1 .018-2.373c.06-.672.16-1.37.15-2.044a3.927 3.927 0 0 0-.36-1.87c-.613-1.21-1.988-1.829-3.262-2.356-.49-.203-.991-.408-1.523-.43-.561-.025-1.108.157-1.64.337-.844.285-1.7.656-2.572.85-.49.108-1.026.027-1.502.2-.935.342-1.134 1.182-1.12 2.102v.175a5.49 5.49 0 0 0-.286-.245l-.057-.045a3.47 3.47 0 0 0-.32-.23l-.054-.035c-.23-.148-.47-.28-.72-.392l-.037-.016a5.197 5.197 0 0 0-.382-.15l-.024-.01a5.476 5.476 0 0 0-.82-.216 5.462 5.462 0 0 0-4.884 1.535l-1.032 1.052c-4.69-1.052-4.9 3.023-4.9 3.023l.034-.008-.012.029c.107.516.242 1.025.404 1.526l-36.22 36.996-3.662 11.348 2.056-.733 9.393-3.355 33.633-34.357c2.517 1.789 5.133 4.186 5.133 4.186s-1.622.857-1.021 4.786c.734 4.806-.37 11.647-.37 11.647v4.425l.208-.057c-.026.15-.053.3-.078.473a25.244 25.244 0 0 0-.13 6.716c.556 4.695 2.776 11.105 2.776 11.105s.832 2.253 1.018 4.062c.03.358.11.71.238 1.044a8.3 8.3 0 0 1 .648 3.135c0 1.964.257 4.912 1.427 7.92.939 2.416 1.286 3.83 1.39 4.656-.666.88-1.535 1.84-2.222 1.936-1.294.18-3.794.36-2.128 2.528.058.074.123.143.194.206-1.265.204-2.656.655-1.304 2.412 1.666 2.167 11.473 1.174 11.473 1.174s.063-1.201 0-2.526c.688-.048 1.113-.092 1.113-.092s.278-5.237-.925-5.869c-.223.024-.44.078-.65.16a29.665 29.665 0 0 1-.289-2.291l.476-.036v-7.855s-.556-4.875-2.59-7.042a4.378 4.378 0 0 1-.666-.901c.015-.627.017-1.502.009-2.513.08-.137.177-.264.287-.378 0 0 1.11-1.352 4.904-9.932 2.237-5.06 1.739-7.981.953-9.528-.15-.55-.54-2.12-1.051-5.009-.647-3.702.093-7.314.093-7.314s2.403-6.23 3.516-8.758c.258-.608.365-1.27.312-1.93.29-.211.43-.564.554-.9l1.14-3.042c.124-.329.25-.671.223-1.021l.001.001zm-15.482-5.476c.124.194.262.377.413.55 0 0-.17-.177-.45-.462l.037-.088zm-5.605 6.244l3.137-3.205c1.085.991 2.246 2.003 3.216 2.837a9.288 9.288 0 0 1-.367 1.257c-.42.209-.976.276-1.652-.092-1.07-.578-3.047-.75-4.334-.797z"/>
        <path fill="#FEBDD5" fill-rule="nonzero" d="M124.148 23.965s-2.326 1.343-1.61 3.23c0 0 2.417.716 3.4 2.506.984 1.79 8.593 8.233 8.593 8.233l5.548-2.78s-1.93-2.577-8.035-4.376c0 0-3.605-3.858-4.853-4.573-1.248-.715-3.043-2.24-3.043-2.24z"/>
        <path fill="#000" fill-rule="nonzero" d="M124.148 23.965s-2.326 1.343-1.61 3.23c0 0 2.417.716 3.4 2.506.984 1.79 8.593 8.233 8.593 8.233l5.548-2.78s-1.93-2.577-8.035-4.376c0 0-3.605-3.858-4.853-4.573-1.248-.715-3.043-2.24-3.043-2.24z" opacity=".05"/>
        <path fill="#2691FD" fill-rule="nonzero" d="M82.696 66.9l40.368-42.259a5.209 5.209 0 0 1 7.359-.168 5.209 5.209 0 0 1 .168 7.36L90.23 74.096l-11.075 4.055L82.696 66.9z"/>
        <path fill="#FFF" fill-rule="nonzero" d="M128.223 23.724a5.209 5.209 0 0 1 .168 7.359L88.025 73.34l-8.314 3.041-.562 1.767 11.075-4.055 40.372-42.244a5.209 5.209 0 0 0-.168-7.359 5.184 5.184 0 0 0-3.05-1.413c.302.186.586.402.845.646z" opacity=".1"/>
        <path fill="#EFC8C4" fill-rule="nonzero" d="M82.696 66.901l7.534 7.196-9.087 3.325-1.988.727 1.26-4z"/>
        <path fill="#727A9C" fill-rule="nonzero" d="M80.415 74.148c.276.053.539.159.775.31.273.197.472.538.396.866-.073.204-.179.395-.312.566a1.768 1.768 0 0 0-.13 1.532l-1.995.727 1.266-4.001z"/>
        <path fill="#FFB9B9" fill-rule="nonzero" d="M138.647 100.306s.27 3.938.717 4.385c.447.448-4.028.717-4.028.717l.626-5.107 2.685.005z"/>
        <path fill="#000" fill-rule="nonzero" d="M138.647 100.306s.27 3.938.717 4.385c.447.448-4.028.717-4.028.717l.626-5.107 2.685.005z" opacity=".05"/>
        <path fill="#CBCDDA" fill-rule="nonzero" d="M139.631 103.349s-.626 0-2.864 1.164c0 0-1.521-.27-2.148-2.417 0 0-1.879 3.222-3.133 3.4-1.254.18-3.669.358-2.059 2.507 1.61 2.15 11.098 1.164 11.098 1.164s.27-5.192-.894-5.818z"/>
        <path fill="#000" fill-rule="nonzero" d="M139.631 103.349s-.626 0-2.864 1.164c0 0-1.521-.27-2.148-2.417 0 0-1.879 3.222-3.133 3.4-1.254.18-3.669.358-2.059 2.507 1.61 2.15 11.098 1.164 11.098 1.164s.27-5.192-.894-5.818z" opacity=".05"/>
        <path fill="#FFB9B9" fill-rule="nonzero" d="M138.288 106.391l-.626 1.7-4.117-1.163.235-1.688.057-.407.15-1.127s3.49-.901 3.49-.45c.048.369.124.733.23 1.09.15.55.323 1.177.45 1.59l.131.455z"/>
        <path fill="#4C4C78" fill-rule="nonzero" d="M136.043 83.05c-.282.478-.6 1.374-.007 2.49.175.324.391.624.642.893 1.97 2.148 2.507 6.98 2.507 6.98v7.786l-1.343.104-2.147.165-3.23-13.243s-1.878-9.666-.983-11.366c.895-1.7 1.7-12.35 1.7-12.35l.743-.77 1.764-1.826h5.106c.408.293.747.672.993 1.11.856 1.418 1.625 4.366-.724 9.809-3.67 8.502-4.743 9.845-4.743 9.845-.107.114-.2.24-.278.374z"/>
        <path fill="#000" fill-rule="nonzero" d="M136.043 83.05c-.282.478-.6 1.374-.007 2.49.175.324.391.624.642.893 1.97 2.148 2.507 6.98 2.507 6.98v7.786l-1.343.104-2.147.165-3.23-13.243s-1.878-9.666-.983-11.366c.895-1.7 1.7-12.35 1.7-12.35l.743-.77 1.764-1.826h5.106c.408.293.747.672.993 1.11.856 1.418 1.625 4.366-.724 9.809-3.67 8.502-4.743 9.845-4.743 9.845-.107.114-.2.24-.278.374z" opacity=".05"/>
        <path fill="#000" fill-rule="nonzero" d="M137.713 104.349l-3.876.484.15-1.127s3.49-.901 3.49-.45c.05.37.128.735.236 1.093z" opacity=".1"/>
        <path fill="#4C4C78" fill-rule="nonzero" d="M135.783 71.578s.223 7.045.26 11.473c.008 1.002 0 1.87-.007 2.49.005.329-.02.658-.073.982-.268.805.27 2.595.27 2.595 2.237 5.907 1.61 11.098 1.61 11.098v3.938l-4.298.537s.717-.537-1.252-5.728c-1.131-2.983-1.376-5.904-1.38-7.852a8.402 8.402 0 0 0-.628-3.105 3.833 3.833 0 0 1-.222-1.037c-.18-1.79-.984-4.028-.984-4.028s-2.148-6.354-2.686-11.009a25.633 25.633 0 0 1 .125-6.657c.08-.56.187-1.117.323-1.666 0 0 8.748-5.506 12.053-1.7.32.372.573.795.75 1.252.182.452.323.918.423 1.394 1.015 5.056-4.284 7.023-4.284 7.023z"/>
        <circle cx="135.514" cy="27.815" r="4.564" fill="#FFB9B9" fill-rule="nonzero"/>
        <path fill="#FFB9B9" fill-rule="nonzero" d="M133.01 30.677s1.878 5.28 0 8.055c-1.88 2.774 5.995 1.879 5.995 1.879l3.043-3.67s-3.58 0-3.755-6.264c-.174-6.264-5.284 0-5.284 0z"/>
        <path fill="#000" fill-rule="nonzero" d="M142.048 64.06c-.65.224-1.317.392-1.995.5-1.114.17-2.428.178-3.197-.5-.451-.403-1.579-.451-2.928-.323-2.84.272-6.684 1.332-7.42 1.54.079-.56.187-1.116.323-1.665 0 0 8.748-5.506 12.052-1.7h1.909c.408.293.747.672.993 1.11.166.712.263 1.038.263 1.038zM138.288 106.391l-.626 1.7-4.117-1.163.235-1.688c.707 1.565 1.913 1.776 1.913 1.776 1.3-.676 2.058-.96 2.463-1.078l.132.453z" opacity=".1"/>
        <path fill="#CBCDDA" fill-rule="nonzero" d="M138.557 105.944s-.626 0-2.864 1.164c0 0-1.521-.269-2.148-2.417 0 0-1.878 3.222-3.132 3.4-1.255.18-3.67.355-2.058 2.507 1.611 2.152 11.097 1.164 11.097 1.164s.27-5.192-.895-5.818z"/>
        <path fill="#FFB9B9" fill-rule="nonzero" d="M117.325 28.689s.203-4.039 4.74-2.996l-1.164 2.182-3.576.814z"/>
        <path fill="#FEBDD5" fill-rule="nonzero" d="M138.473 38.017s-4.385-.716-5.55-1.611c0 0-.9 1.7-2.506.805-1.605-.896-5.37-.805-5.37-.805s-3.132-1.7-3.754-5.55c0 0-.626-2.326-.45-2.953 0 0-2.327-2.416-3.49.805.45 2.238.804 2.06.716 3.848l1.43 3.938s.091 1.343 2.686 3.133c2.595 1.79 5.55 4.564 5.55 4.564s-1.567.85-.984 4.743c.71 4.758-.358 11.545-.358 11.545v4.386s8.95-2.596 10.472-1.253c1.521 1.343 5.19 0 5.19 0s-.45-1.521-1.074-5.19c-.623-3.67.09-7.25.09-7.25s2.327-6.176 3.4-8.68c1.074-2.506-.804-5.908-2.685-7.16-1.88-1.253-2.578-.5-2.578-.5s3.287 2.38-.735 3.185z"/>
        <path fill="#000" fill-rule="nonzero" d="M130.578 26.697c-.002.187.03.372.093.547.104.2.247.377.419.521.67.655 1.258 1.433 1.494 2.34.16.614.15 1.257.141 1.892-.039 2.57-.15 5.344-1.733 7.36-.582.743-1.333 1.333-2.038 1.963a.614.614 0 0 0-.213.293.536.536 0 0 0 .066.354c.327.68 1.017 1.098 1.67 1.476.3.173.613.352.958.362.814.027 1.352-.833 2.092-1.171 1.079-.493 2.288.192 3.359.703.775.369 1.587.652 2.424.845 1.146.265 2.44.33 3.404-.342a2.6 2.6 0 0 0 1.06-1.66c.079-.437.067-.944.397-1.24.171-.15.404-.217.587-.352.287-.21.422-.563.544-.9l1.103-3.015c.142-.319.215-.664.214-1.012-.052-.726-.722-1.253-1.393-1.532-.672-.28-1.415-.416-2.007-.841-.999-.718-1.308-2.06-1.398-3.286a15.82 15.82 0 0 1 .018-2.531c.11-1.248.353-2.579-.203-3.702-.593-1.202-1.924-1.813-3.154-2.336-.473-.201-.96-.404-1.473-.426-.544-.024-1.073.15-1.586.335-.817.284-1.652.65-2.489.842-.473.108-.993.027-1.45.198-1.677.631-.906 2.965-.906 4.315z" opacity=".1"/>
        <path fill="#B96B6B" fill-rule="nonzero" d="M130.578 26.519c-.002.186.03.371.093.546.104.2.247.377.419.521.67.655 1.258 1.433 1.494 2.34.16.615.15 1.257.141 1.893-.039 2.57-.15 5.343-1.733 7.359-.582.743-1.333 1.334-2.038 1.963a.614.614 0 0 0-.215.287.536.536 0 0 0 .067.354c.327.68 1.016 1.098 1.67 1.477.3.172.612.351.958.362.814.027 1.351-.834 2.092-1.172 1.078-.493 2.287.192 3.358.703.775.369 1.588.652 2.424.845 1.146.265 2.44.33 3.405-.342a2.6 2.6 0 0 0 1.06-1.66c.078-.437.066-.944.397-1.24.17-.15.404-.216.587-.351.287-.21.422-.564.544-.902l1.102-3.014c.142-.318.215-.663.215-1.012-.053-.726-.723-1.253-1.394-1.532-.671-.28-1.415-.416-2.006-.841-1-.718-1.309-2.06-1.399-3.286a15.82 15.82 0 0 1 .018-2.53c.11-1.249.353-2.58-.202-3.703-.594-1.202-1.924-1.813-3.154-2.335-.473-.202-.96-.404-1.474-.427-.543-.024-1.072.15-1.586.335-.817.284-1.652.65-2.488.842-.473.109-.993.028-1.45.199-1.676.641-.905 2.97-.905 4.32z"/>
        <path fill="#000" fill-rule="nonzero" d="M126.97 50.944s.714-.17 4.294-.71c3.58-.541 9.845.716 9.845.716" opacity=".05"/>
    </g>
</svg>
