<svg xmlns="http://www.w3.org/2000/svg" width="320" height="120" viewBox="0 0 320 120">
    <defs>
        <linearGradient id="a" x1="50.459%" x2="50.459%" y1="63.093%" y2="37.093%">
            <stop offset="0%" stop-color="gray" stop-opacity=".25"/>
            <stop offset="54%" stop-color="gray" stop-opacity=".12"/>
            <stop offset="100%" stop-color="gray" stop-opacity=".1"/>
        </linearGradient>
        <linearGradient id="b" x1="50.003%" x2="50.003%" y1="99.987%" y2="0%">
            <stop offset="0%" stop-color="gray" stop-opacity=".25"/>
            <stop offset="54%" stop-color="gray" stop-opacity=".12"/>
            <stop offset="100%" stop-color="gray" stop-opacity=".1"/>
        </linearGradient>
    </defs>
    <g fill="none" fill-rule="evenodd" transform="translate(88)">
        <path fill="#2691FD" fill-rule="nonzero" d="M83.836 16.038c-9.235-.321-18.03-3.302-26.429-6.564C49.01 6.213 40.69 2.598 31.677.87 25.879-.24 19.249-.398 14.578 2.71 10.082 5.706 8.63 10.864 7.85 15.656c-.588 3.604-.933 7.398.677 10.771C9.644 28.77 11.628 30.74 13 32.984c4.776 7.807 1.4 17.436-3.774 25.06C6.8 61.62 3.982 65.035 2.11 68.839c-1.874 3.805-2.74 8.17-1.1 12.053 1.624 3.853 5.495 6.74 9.688 8.774 8.517 4.13 18.55 5.312 28.34 5.982 21.664 1.482 43.442.84 65.163.198 8.04-.238 16.112-.48 24.02-1.722 4.392-.69 8.925-1.785 12.114-4.43 4.047-3.358 5.05-9.043 2.338-13.254-4.55-7.061-17.123-8.815-20.306-16.393-1.75-4.172.047-8.818 2.591-12.688 5.456-8.298 14.601-15.58 15.082-25.066.331-6.515-4.065-13.04-10.863-16.123-7.124-3.23-17.005-2.825-22.259 2.524-5.415 5.508-14.927 7.627-23.081 7.344z" opacity=".1"/>
        <ellipse cx="69.131" cy="111.58" fill="#2691FD" fill-rule="nonzero" opacity=".1" rx="43.373" ry="5.867"/>
        <rect width="1.264" height="10.419" x="91.862" y="41.496" fill="#3A3768" fill-rule="nonzero" rx=".632"/>
        <rect width="1" height="3.43" x="49.851" y="33.333" fill="#3A3768" fill-rule="nonzero" rx=".5"/>
        <rect width="1" height="5.97" x="49.825" y="39.614" fill="#3A3768" fill-rule="nonzero" rx=".5"/>
        <rect width="1" height="6.021" x="49.838" y="47.673" fill="#3A3768" fill-rule="nonzero" rx=".5"/>
        <rect width="42.293" height="85.953" x="50.252" y="21.998" fill="#46546E" opacity=".9" rx="4"/>
        <path fill="#2691FD" fill-rule="nonzero" d="M86.578 24.231h-4.851v.584a2.765 2.765 0 0 1-2.767 2.765H63.532a2.765 2.765 0 0 1-2.767-2.765v-.584h-4.542a3.359 3.359 0 0 0-3.359 3.359v74.764a3.359 3.359 0 0 0 3.36 3.359h30.354a3.359 3.359 0 0 0 3.36-3.36V27.597a3.359 3.359 0 0 0-3.36-3.365z"/>
        <rect width="5.906" height="1.199" x="67.318" y="24.565" fill="#E6E8EC" fill-rule="nonzero" rx=".599"/>
        <circle cx="74.798" cy="25.164" r="1" fill="#E6E8EC" fill-rule="nonzero"/>
        <path fill="#2691FD" fill-rule="nonzero" d="M107.187 18.228s-12.015-.725-10.6 7.694c0 0-.285 1.488 1.068 2.163 0 0 .022-.623 1.233-.41.431.07.87.092 1.306.062a2.72 2.72 0 0 0 1.595-.652s3.377-1.396 4.69-6.915c0 0 .972-1.204.933-1.514l-2.027.866s.693 1.463.142 2.679c0 0-.065-2.626-.455-2.569-.078.012-1.053.507-1.053.507s1.191 2.547.293 4.399c0 0 .34-3.14-.665-4.215l-1.427.833s1.392 2.631.448 4.779c0 0 .242-3.293-.75-4.576l-1.292 1.009s1.308 2.592.51 4.373c0 0-.103-3.833-.79-4.122 0 0-1.131.999-1.304 1.407 0 0 .896 1.883.34 2.876 0 0-.341-2.554-.621-2.568 0 0-1.127 1.692-1.244 2.854 0 0 .048-1.725.971-3.014 0 0-1.09.187-1.726.893 0 0 .175-1.195 2.005-1.301 0 0 .931-1.284 1.18-1.361 0 0-1.818-.153-2.921.336 0 0 .97-1.128 3.255-.614l1.277-1.044s-2.395-.326-3.41.035c0 0 1.168-1 3.754-.271l1.39-.83s-2.043-.44-3.258-.286c0 0 1.284-.692 3.665.058l1-.446s-1.496-.294-1.934-.341c-.438-.047-.461-.167-.461-.167a5.187 5.187 0 0 1 2.81.312s2.108-.786 2.073-.919zM94.863 14.484s-5.422-.327-4.789 3.477c0 0-.127.673.482.978 0 0 .01-.285.558-.187.195.033.393.042.59.028.266-.017.519-.121.72-.296 0 0 1.527-.631 2.12-3.125 0 0 .439-.544.422-.684l-.917.391s.313.661.068 1.21c0 0-.03-1.185-.206-1.158-.036 0-.477.23-.477.23s.54 1.15.133 1.987c0 0 .154-1.418-.3-1.905l-.646.383s.63 1.188.203 2.158c0 0 .11-1.488-.338-2.067l-.584.457s.59 1.171.231 1.976c0 0-.048-1.732-.358-1.864 0 0-.51.451-.59.637 0 0 .406.856.155 1.3 0 0-.154-1.155-.286-1.16 0 0-.509.764-.562 1.284.026-.485.177-.954.44-1.362a1.535 1.535 0 0 0-.78.404s.08-.54.905-.588c0 0 .428-.58.534-.616 0 0-.822-.069-1.32.153 0 0 .438-.51 1.47-.279l.57-.47s-1.082-.143-1.54.015c0 0 .527-.45 1.696-.123l.628-.375s-.923-.198-1.473-.127c0 0 .581-.312 1.657.026l.45-.201s-.677-.133-.875-.154c-.199-.022-.209-.076-.209-.076a2.339 2.339 0 0 1 1.27.143s.965-.36.948-.42z"/>
        <ellipse cx="123.449" cy="110.488" fill="#2691FD" fill-rule="nonzero" opacity=".1" rx="3.843" ry="1"/>
        <ellipse cx="13.14" cy="115.816" fill="#2691FD" fill-rule="nonzero" opacity=".1" rx="3.843" ry="1"/>
        <ellipse cx="28.004" cy="119.299" fill="#2691FD" fill-rule="nonzero" opacity=".1" rx="3.843" ry="1"/>
        <ellipse cx="115.037" cy="117.446" fill="#2691FD" fill-rule="nonzero" rx="5.737" ry="1"/>
        <path fill="#2691FD" fill-rule="nonzero" d="M117.41 115.86a1.67 1.67 0 0 0 .547-.827c.071-.327-.069-.713-.383-.84-.35-.134-.726.11-1.01.355-.284.245-.61.526-.983.474.39-.353.566-.884.464-1.4a.59.59 0 0 0-.13-.285c-.194-.209-.548-.12-.78.045-.743.521-.95 1.53-.954 2.436-.075-.327-.011-.668-.014-.999-.003-.331-.093-.713-.377-.889a1.133 1.133 0 0 0-.57-.134c-.334-.013-.705.021-.934.265-.285.303-.208.81.037 1.142.246.33.621.543.966.773.277.165.512.39.69.658a.594.594 0 0 1 .051.118h2.085c.47-.238.905-.538 1.295-.893zM28.202 103.344s.785 1.026-.36 2.568c-1.147 1.543-2.091 2.854-1.713 3.82 0 0 1.73-2.875 3.139-2.915 1.41-.04.482-1.744-1.066-3.473z"/>
        <path fill="#000" fill-rule="nonzero" d="M28.202 103.344c.069.1.122.208.16.323 1.373 1.612 2.105 3.117.785 3.154-1.229.036-2.703 2.233-3.057 2.789.012.042.026.084.042.127 0 0 1.73-2.876 3.139-2.916 1.41-.04.48-1.748-1.069-3.477z" opacity=".1"/>
        <path fill="#FFD037" fill-rule="nonzero" d="M29.659 104.651c0 .361-.04.654-.09.654-.05 0-.09-.293-.09-.654 0-.36.05-.191.1-.191s.08-.17.08.191z"/>
        <path fill="#FFD037" fill-rule="nonzero" d="M30.16 105.082c-.317.173-.594.277-.617.233-.022-.045.213-.22.53-.393.317-.172.192-.047.215 0 .023.047.189-.013-.128.16z"/>
        <path fill="#2691FD" fill-rule="nonzero" d="M24.063 103.344s-.785 1.026.36 2.568c1.147 1.543 2.091 2.854 1.713 3.82 0 0-1.728-2.875-3.14-2.915-1.41-.04-.484-1.744 1.067-3.473z"/>
        <path fill="#000" fill-rule="nonzero" d="M24.063 103.344c-.069.1-.123.208-.161.323-1.373 1.612-2.104 3.117-.785 3.154 1.23.036 2.704 2.233 3.058 2.789a1.107 1.107 0 0 1-.043.127s-1.728-2.876-3.14-2.916c-1.41-.04-.48-1.748 1.07-3.477z" opacity=".1"/>
        <path fill="#FFD037" fill-rule="nonzero" d="M22.605 104.651c0 .361.04.654.09.654.05 0 .09-.293.09-.654 0-.36-.05-.191-.1-.191s-.08-.17-.08.191z"/>
        <path fill="#FFD037" fill-rule="nonzero" d="M22.105 105.082c.317.173.592.277.617.233.024-.045-.215-.22-.531-.393-.317-.172-.191-.047-.216 0-.024.047-.187-.013.13.16z"/>
        <path fill="#A8A8A8" fill-rule="nonzero" d="M22.854 109.602s2.192-.068 2.854-.538c.662-.469 3.372-1.033 3.534-.278.163.755 3.295 3.751.82 3.771-2.473.02-5.75-.385-6.409-.786-.659-.4-.799-2.169-.799-2.169z"/>
        <path fill="#000" fill-rule="nonzero" d="M30.106 112.295c-2.475.02-5.75-.385-6.41-.786-.5-.307-.702-1.404-.769-1.91h-.073s.143 1.767.798 2.17c.655.402 3.935.806 6.41.786.713 0 .96-.26.947-.637-.1.231-.373.373-.903.377z" opacity=".2"/>
        <path fill="url(#a)" fill-rule="nonzero" d="M40.413 63.596c.042.04.105.048.156.02a.55.55 0 0 1-.156-.02z"/>
        <path fill="url(#b)" fill-rule="nonzero" d="M57.512 35.201c-.302-.089-.73-.233-1.248-.414a6.682 6.682 0 0 0 1.156-2.358l-.044.017.044-.157c-.99.408-2.087-.286-2.785-1.172-.698-.886-1.173-1.989-1.936-2.806a8.946 8.946 0 0 0-1.026-.895c-.226-.177-.47-.361-.745-.37-.445-.012-.795.428-1.224.561a1.658 1.658 0 0 1-.856-.031c-1.11-.259-2.178-.734-3.304-.856a3.817 3.817 0 0 0-1.792.204c-.57.22-.827.655-1.284.998-.495.374-1.481.366-2.065.429-.707.08-1.42.11-2.131.09a4.834 4.834 0 0 0-1.228.045c-.847.188-1.528.87-2.163 1.527-.174.15-.299.349-.358.57a.758.758 0 0 0 0 .189c-.006.17.023.34.086.5.192.59.465 1.15.813 1.663.26.377.56.73.714 1.176.07.219.107.447.11.678a5.198 5.198 0 0 1-.076.729 9.275 9.275 0 0 1-.55 1.939c-.134.33-.285.66-.32 1.023a1.846 1.846 0 0 0 0 .217c-.043 1.117 1.071 1.923 1.284 3.035.016.092.027.185.031.278-.024.693-.414 1.371-.987 1.64.05.02.1.037.152.055-.049.031-.1.06-.152.086.104.04.21.074.32.105a7.508 7.508 0 0 0-1.629 2.024c-1.92 3.642-15.01 10.788-15.01 10.788s.074.042.193.113c-.048.03-.1.064-.156.103-1.133.764-3.793 2.996-1.389 5.81 0 0 1.877-3.004 3.19-4.28.06-.058.118-.11.173-.16a.39.39 0 0 1 .052.308l8.608-4.904s3.06-2.172 3.913-2.663c.293-.168 1.043-.636 1.939-.843l-.1.044c.321-.09.653-.138.987-.143 1.524.024 3.174 1.156 3.719 5.638.729 6.001.39 7.083.157 7.231a.41.41 0 0 1-.086-.016.128.128 0 0 0 .023.018.414.414 0 0 1-.094-.018.131.131 0 0 0 .125.032c.032.01.067.005.096-.012h.115c0 .055-.008.112-.013.167-.01 0-.068.033 0 .038a12.1 12.1 0 0 0 0 1.091c-.757.043-1.513.089-2.177.13l.06-.318.027-.143c.58-.047 1.133-.22 1.197-.7.143-1.05-1.284-1.61-2.49-1.68-1.205-.07-8.465.42-8.465.42s-1.089 1.428 2.363 1.872c.102.054.21.114.318.177 1.351.781 3.186 2.22 4.064 2.929l.122.098-.394.319c2.14.49 4.198 8.758 5.336 12.54 1.137 3.783 3.628 3.643 5.691 3.084 1.934-.527 2.18-6.219 2.203-6.933v-.073l3.438 4.296.26.327c.102.053.2.103.298.15 2.604 1.257 5.48-1.152 4.661-3.891-.826-2.768-2.11-6.86-2.966-8.589-.714-1.448-1.643-3.852-2.205-5.362.073-.03.144-.064.213-.103l-.036-.19.036-.02s-.828-4.358-.873-7.453v-.163-.101c.622-.143 1.016-.2 1.016-.2l.011-.134-.073.015.345-4.015s1.27-2.738.299-3.88a2.426 2.426 0 0 1-.571-1.185c-.163-1.05 0-2.798 2.264-4.252 3.486-2.242 4.84-4.064 4.84-4.064s.073-1.338-2.061-1.969zm-6.924 2.785v-1.855c.647-.031 1.307.045 1.957 0 .319-.022.635-.076.944-.16l.157.11c-.95.74-1.975 1.379-3.058 1.905zm-9.882 29.081c.255.18.512.367.765.554.157.915.295 1.56.305 1.605a12.876 12.876 0 0 0-1.07-2.159z"/>
        <path fill="#FFBDC6" fill-rule="nonzero" d="M46.293 65.896l-.154.836-.118.64-.216 1.17-2.088 1.462s-.189-.161-.5-.415c-.856-.705-2.655-2.14-3.977-2.911a4.45 4.45 0 0 0-1.093-.504l8.146-.278z"/>
        <path fill="#000" fill-rule="nonzero" d="M46.293 65.896l-.154.836c-.46.025-.922.001-1.378-.071l-4.874.07c-.23-.015-.445-.032-.647-.053a4.45 4.45 0 0 0-1.093-.504l8.146-.278z" opacity=".1"/>
        <path fill="#474463" fill-rule="nonzero" d="M44.761 66.518s2.436.418 2.578-.622c.143-1.04-1.254-1.603-2.437-1.672-1.183-.07-8.286.418-8.286.418s-1.252 1.67 3.272 1.95l4.873-.074z"/>
        <path fill="#000" fill-rule="nonzero" d="M46.293 65.896l-.154.836-.118.64-.216 1.17-2.088 1.462s-.189-.161-.5-.415c-.856-.705-2.655-2.14-3.977-2.911a4.45 4.45 0 0 0-1.093-.504l8.146-.278z" opacity=".1"/>
        <path fill="#000" fill-rule="nonzero" d="M46.293 65.896l-.154.836c-.46.025-.922.001-1.378-.071l-4.874.07c-.23-.015-.445-.032-.647-.053a4.45 4.45 0 0 0-1.093-.504l8.146-.278z" opacity=".1"/>
        <path fill="#000" fill-rule="nonzero" d="M44.761 66.515s2.437.417 2.577-.628c.14-1.044-1.254-1.6-2.437-1.67-1.183-.07-8.286.417-8.286.417s-1.253 1.671 3.272 1.95l4.874-.069z" opacity=".1"/>
        <path fill="#474463" fill-rule="nonzero" d="M37.346 32.193h12.742v15.109H37.346z"/>
        <path fill="#000" fill-rule="nonzero" d="M37.346 32.262h12.742v15.109H37.346z" opacity=".1"/>
        <path fill="#FFBDC6" fill-rule="nonzero" d="M22.412 58.058c-.21.053-.478.255-.776.55-1.285 1.27-3.124 4.254-3.124 4.254-2.351-2.8.251-5.014 1.36-5.774.27-.184.45-.286.45-.286l2.09 1.256zM46.154 36.962s.626 4.386 2.785 5.43c2.159 1.045-2.785 2.997-2.785 2.997L39.4 42.88s3.83-1.254 3.064-4.944l3.69-.974zM38.912 63.35l-.152.834-.125.642-.215 1.17-2.089 1.46s-.188-.159-.5-.413c-.855-.705-2.655-2.14-3.977-2.91a4.423 4.423 0 0 0-1.093-.504l8.151-.279z"/>
        <path fill="#000" fill-rule="nonzero" d="M38.912 63.35l-.152.834c-.461.025-.923 0-1.379-.072l-4.874.07a14.92 14.92 0 0 1-.648-.053 4.423 4.423 0 0 0-1.093-.503l8.146-.276z" opacity=".1"/>
        <path fill="#474463" fill-rule="nonzero" d="M37.381 63.977s2.437.416 2.576-.627c.138-1.043-1.253-1.602-2.437-1.672-1.185-.07-8.285.418-8.285.418s-1.254 1.67 3.272 1.95l4.874-.07z"/>
        <path fill="#000" fill-rule="nonzero" d="M38.635 64.826l-.215 1.17-2.089 1.46s-.188-.159-.5-.413l2.763-2.266.041.049z" opacity=".1"/>
        <path fill="#46546E" d="M52.432 80.765l-.286-.142-.256-.324-3.37-4.272v.074c-.022.713-.265 6.367-2.157 6.889-2.019.556-4.454.696-5.564-3.064-1.11-3.76-3.14-11.975-5.223-12.463l3.1-2.542s2.051 2.4 2.887 4.698c-.031-.143-1.448-6.764-.285-7.935h10.166s1.57 4.47 2.646 6.685c.837 1.719 2.095 5.784 2.904 8.535.801 2.717-2.014 5.116-4.562 3.861z"/>
        <path fill="#000" fill-rule="nonzero" d="M52.142 62.932c-1.57.93-8.46.551-10.701.4l-.611-.044c-.066 0 .01-.038.01-.038l.063-.632 1.67-4.246 8.947-5.188c-.181.546-.241 1.382-.227 2.34.042 3.076.85 7.408.85 7.408z" opacity=".1"/>
        <path fill="#F2F1F2" fill-rule="nonzero" d="M52.142 62.722c-1.57.93-8.46.551-10.701.4l-.611-.043-.101-.008.111-.029.55-.143 1.184-4.734 8.946-5.187c-.181.547-.241 1.383-.227 2.34.042 3.074.85 7.404.85 7.404z"/>
        <path fill="#000" fill-rule="nonzero" d="M51.288 55.316c-1.82.42-5.824 1.65-7.362 4.623-1.026 1.979-1.889 2.828-2.491 3.183l-.61-.043a.357.357 0 0 0 .01-.037l.55-.143 1.183-4.734 8.946-5.187c-.18.544-.24 1.38-.226 2.338zM20.323 56.805l2.089 1.253c-.21.053-.478.255-.776.55-.174-.509-1.267-1.218-1.764-1.52.27-.181.45-.283.45-.283zM40.452 63.16a.124.124 0 0 1-.143-.02c.046.014.095.02.143.02z" opacity=".1"/>
        <path fill="#FF748E" fill-rule="nonzero" d="M45.18 42.114s-1.882.208-3.204-1.184c0 0-5.565 1.602-7.45 5.222-1.885 3.62-14.697 10.723-14.697 10.723s2.229 1.253 2.02 1.88l8.425-4.875s2.996-2.157 3.828-2.645c.832-.488 5.432-3.482 6.407 4.664.974 8.146 0 7.172 0 7.172s1.393.488 3.412-3.412 8.284-4.804 8.284-4.804l.348-4.107s1.243-2.722.286-3.852a2.426 2.426 0 0 1-.558-1.179c-.159-1.043 0-2.781 2.217-4.225 3.412-2.229 4.735-4.038 4.735-4.038s.07-1.324-2.02-1.95c-2.089-.627-10.583-4.039-10.583-4.039l-.285 1.185 6.702 4.73s-3.342 2.71-5.993 2.645c0 0 .492 2.02-1.875 2.09z"/>
        <path fill="#000" fill-rule="nonzero" d="M46.469 38.87a13.598 13.598 0 0 1-.385-1.7l-3.69.975c.162.704.133 1.44-.084 2.128a3.968 3.968 0 0 0 4.159-1.402z" opacity=".1"/>
        <circle cx="43.404" cy="36.231" r="3.968" fill="#FFBDC6" fill-rule="nonzero"/>
        <path fill="#000" fill-rule="nonzero" d="M45.514 27.206c1.102.124 2.148.598 3.232.856.271.085.56.096.836.033.421-.131.764-.57 1.2-.558.269 0 .507.191.728.367.355.271.689.569.999.89.748.812 1.211 1.905 1.893 2.788.682.884 1.758 1.57 2.727 1.165-.66 2.568-2.818 4.524-5.154 4.684-.931.063-1.886-.131-2.788.143-.225.091-.462.149-.703.171-.52 0-.938-.477-1.262-.94-.759-1.09-1.36-2.329-2.214-3.323-.286-.329-.615-.641-1.015-.701-.4-.06-.766.13-1.121.314-.587.304-1.186.62-1.641 1.141-.455.523-.742 1.299-.554 1.998.102.38.333.722.337 1.119.009.632-.55 1.096-.66 1.712-.025.259-.034.519-.028.779-.048.845-.6 1.537-1.177 2.068-.225.206-.474.428-.54.747-.043.217 0 .448-.028.668-.084.548-.63.826-1.114.899a3.243 3.243 0 0 1-1.672-.198c.676-.321 1.093-1.23.936-2.047-.216-1.13-1.352-1.94-1.255-3.092.054-.352.16-.695.314-1.017.248-.62.428-1.267.537-1.926.085-.511.127-1.052-.033-1.537-.143-.444-.441-.795-.694-1.169a6.63 6.63 0 0 1-.803-1.646 1.141 1.141 0 0 1-.077-.544c.056-.221.178-.42.35-.57.62-.653 1.284-1.332 2.116-1.517.397-.067.8-.083 1.201-.047.697.022 1.395-.007 2.088-.089.57-.067 1.535-.057 2.019-.428.45-.347.705-.779 1.26-.999a3.684 3.684 0 0 1 1.76-.194zM47.72 68.189s2.298 4.526 1.601 5.917M51.885 80.293l-3.364-4.266v.074s-.194-1.381.446-.918c1.404 1.016 3.65 2.681 3.699 2.968.048.287-.455 1.433-.78 2.142z" opacity=".1"/>
        <g fill="#000" fill-rule="nonzero" opacity=".1">
            <path d="M47.128 40.025s.286 1.176-.633 1.764c1.412-.241 1.475-1.341 1.427-1.82-.263.043-.528.061-.794.056zM20.671 56.595s12.81-7.101 14.697-10.721c1.348-2.598 4.599-4.157 6.325-4.83-1.258.428-5.499 2.042-7.091 5.108-1.88 3.62-14.697 10.723-14.697 10.723l.766-.28zM49.622 39.472c2.18-.678 4.264-2.37 4.264-2.37l-6.69-4.738.153-.647-.64-.257-.279 1.184 6.685 4.734a16.152 16.152 0 0 1-3.493 2.094zM49.66 55.517a16.63 16.63 0 0 1 2.62-.662l.012-.134c-.896.197-1.776.463-2.631.796zM41.56 62.81h-.062a.126.126 0 0 1-.143-.019.5.5 0 0 0 .143.02c.228-.133.57-1.173-.143-7.191-.768-6.421-3.788-5.92-5.44-5.181 1.689-.466 4.013-.063 4.674 5.459.72 6.018.377 7.058.143 7.191.296-.01.584-.108.827-.278zM40.732 63.09a.5.5 0 0 1-.143-.02.126.126 0 0 0 .143.02z"/>
        </g>
        <path fill="#1C2D4D" d="M45.514 27.066c1.102.126 2.148.598 3.232.856.271.085.56.096.836.032.421-.13.764-.57 1.2-.558.269.009.507.191.728.367.355.271.689.569.999.89.748.812 1.211 1.905 1.893 2.788.682.883 1.758 1.57 2.727 1.164-.66 2.569-2.818 4.525-5.154 4.685-.931.064-1.886-.13-2.788.143-.224.092-.462.15-.703.17-.52 0-.938-.476-1.262-.94-.759-1.09-1.36-2.327-2.214-3.321-.286-.33-.615-.642-1.015-.702-.4-.06-.766.131-1.121.315-.587.304-1.186.618-1.641 1.142-.455.523-.742 1.297-.554 1.997.102.38.333.722.337 1.119.009.633-.55 1.096-.66 1.712a6.42 6.42 0 0 0-.028.78c-.048.844-.6 1.534-1.177 2.067-.225.205-.474.428-.54.746-.043.218 0 .448-.028.67-.084.547-.63.825-1.114.897a3.215 3.215 0 0 1-1.672-.199c.676-.32 1.093-1.23.936-2.044-.216-1.13-1.352-1.942-1.255-3.092.054-.353.16-.696.314-1.018a9.32 9.32 0 0 0 .537-1.927c.085-.51.127-1.05-.033-1.537-.143-.443-.441-.795-.694-1.169a6.645 6.645 0 0 1-.803-1.645 1.157 1.157 0 0 1-.077-.545c.057-.219.18-.415.35-.564.62-.652 1.284-1.33 2.116-1.516.397-.066.8-.082 1.201-.046a14.18 14.18 0 0 0 2.088-.089c.57-.067 1.535-.058 2.019-.428.45-.345.705-.779 1.26-.998a3.71 3.71 0 0 1 1.76-.202z"/>
        <circle cx="71.475" cy="65.976" r="10" fill="#FFF" fill-rule="nonzero"/>
        <path fill="#3ACC6C" fill-rule="nonzero" d="M84 65a13 13 0 1 1-13-13c7.18 0 13 5.82 13 13zm-14.023 6.737l9.773-10.024a.882.882 0 0 0 0-1.233l-1.202-1.224a.837.837 0 0 0-.6-.256.837.837 0 0 0-.601.256l-7.972 8.175-3.722-3.826a.838.838 0 0 0-1.202 0l-1.203 1.24a.89.89 0 0 0 0 1.234l5.526 5.665c.16.164.376.256.601.256a.839.839 0 0 0 .602-.256v-.007z"/>
    </g>
</svg>
