<svg xmlns="http://www.w3.org/2000/svg" width="320" height="120" viewBox="0 0 320 120">
    <defs>
        <linearGradient id="a" x1="37.904%" x2="62.097%" y1="101.732%" y2="-1.736%">
            <stop offset="0%" stop-color="gray" stop-opacity=".25"/>
            <stop offset="54%" stop-color="gray" stop-opacity=".12"/>
            <stop offset="100%" stop-color="gray" stop-opacity=".1"/>
        </linearGradient>
        <linearGradient id="b" x1="49.997%" x2="49.997%" y1="100.025%" y2=".023%">
            <stop offset="0%" stop-color="gray" stop-opacity=".25"/>
            <stop offset="54%" stop-color="gray" stop-opacity=".12"/>
            <stop offset="100%" stop-color="gray" stop-opacity=".1"/>
        </linearGradient>
        <linearGradient id="c" x1="49.997%" x2="49.997%" y1="99.985%" y2=".023%">
            <stop offset="0%" stop-color="gray" stop-opacity=".25"/>
            <stop offset="54%" stop-color="gray" stop-opacity=".12"/>
            <stop offset="100%" stop-color="gray" stop-opacity=".1"/>
        </linearGradient>
        <linearGradient id="d" x1="50%" x2="50%" y1="100%" y2="0%">
            <stop offset="0%" stop-color="gray" stop-opacity=".25"/>
            <stop offset="54%" stop-color="gray" stop-opacity=".12"/>
            <stop offset="100%" stop-color="gray" stop-opacity=".1"/>
        </linearGradient>
    </defs>
    <g fill="none" fill-rule="nonzero">
        <g transform="translate(95)">
            <path fill="url(#a)" d="M56.909.163L2.326.295A2.242 2.242 0 0 0 .09 2.545l.248 102.088a2.242 2.242 0 0 0 2.248 2.238l54.583-.133a2.242 2.242 0 0 0 2.238-2.251L59.158 2.398a2.242 2.242 0 0 0-2.25-2.235z" opacity=".5" transform="translate(33.653 7.059)"/>
            <path fill="#FFF" d="M48.176 8.717l30.194-.074c7.533-.018 13.655 6.073 13.673 13.607l.187 76.46c.018 7.533-6.073 13.654-13.607 13.673l-30.193.074c-7.533.018-13.655-6.074-13.673-13.607l-.187-76.46c-.019-7.533 6.073-13.655 13.606-13.673z"/>
            <path fill="#2691FD" d="M77.718 11.245a4.659 4.659 0 0 1-4.582 3.974l-19.852.048a4.659 4.659 0 0 1-4.596-3.952l-10.515.027a2.183 2.183 0 0 0-2.178 2.188l.228 94.173a2.183 2.183 0 0 0 2.19 2.178l50.233-.121a2.183 2.183 0 0 0 2.178-2.188l-.228-94.173a2.183 2.183 0 0 0-2.188-2.179l-10.69.025z" opacity=".4"/>
            <path fill="#DBDBDB" d="M56.755 12.62l12.005-.18a.4.4 0 1 1 .012.8l-12.005.18a.4.4 0 1 1-.012-.8z"/>
            <circle cx="71.885" cy="12.711" r="1" fill="#DBDBDB" transform="rotate(-.86 71.885 12.711)"/>
            <path fill="url(#b)" d="M32.515 16.355a16.227 16.227 0 1 0-25.28 13.461l.01.072c.53.508 1.155.906 1.84 1.17l.02-.071c.76.656 3.96 1.695 7.636 1.686h.08c2.328 0 4.856-.41 7.079-1.614 0 0 .02-.043.05-.123a5.78 5.78 0 0 0 1.53-1.048l.025-.183a16.209 16.209 0 0 0 7.01-13.35z" opacity=".5" transform="translate(37.592 66.484)"/>
            <circle cx="53.879" cy="82.841" r="15.741" fill="#F5F5F5"/>
            <path fill="#FDA57D" d="M47.865 89.314s-3.75.307-2.757 7.14c.513.493 1.12.88 1.784 1.138l2.11-7.139-1.137-1.14zM60.036 89.314s3.751.307 2.758 7.14a5.388 5.388 0 0 1-1.784 1.138L58.9 90.45l1.136-1.136z"/>
            <path fill="#333" d="M48.028 78.117s-1.784 5.194-2.758 4.701c0 0 9.393 8.114 17.688 0 0 0-1.46-2.597-3.57-4.706l-11.36.005z"/>
            <circle cx="54.049" cy="77.629" r="6.978" fill="#333"/>
            <path fill="#000" d="M59.964 89.314h-12.17l-1.135 4.869s-.667 2.254.164 3.245c.83.992 8.582 3.246 14.282.164a6.35 6.35 0 0 0 .164-4.056c-.657-2.272-.164-.164-.164-.164l-1.141-4.058z" opacity=".1"/>
            <path fill="#000" d="M60.126 89.314h-12.17l-1.136 4.869s-.667 2.254.164 3.245c.83.992 8.582 3.246 14.282.164a6.35 6.35 0 0 0 .164-4.056c-.657-2.272-.164-.164-.164-.164l-1.14-4.058z" opacity=".1"/>
            <path fill="#2691FD" d="M60.036 89.314h-12.17l-1.137 4.869s-.666 2.254.165 3.245c.83.992 8.582 3.246 14.281.164a6.35 6.35 0 0 0 .165-4.056c-.657-2.272-.165-.164-.165-.164l-1.139-4.058z"/>
            <path fill="#000" d="M51.598 85.274h4.873v4.711a1.617 1.617 0 0 1-1.617 1.617h-1.642a1.617 1.617 0 0 1-1.617-1.617v-4.711h.003z" opacity=".1"/>
            <path fill="#FDA57D" d="M51.598 85.095h4.873v4.711a1.617 1.617 0 0 1-1.617 1.617h-1.642a1.617 1.617 0 0 1-1.617-1.617v-4.711h.003z"/>
            <path fill="#000" d="M51.608 85.796a7.006 7.006 0 0 0 4.87.013v-.598h-4.87v.585z" opacity=".1"/>
            <circle cx="54.049" cy="79.144" r="6.978" fill="#FDA57D"/>
            <path fill="#333" d="M47.38 76.493h13.306s-1.136-5.373-6.166-5.03c-5.03.343-7.14 5.03-7.14 5.03z"/>
            <ellipse cx="47.217" cy="78.847" fill="#FDA57D" rx="1" ry="1.216"/>
            <ellipse cx="60.847" cy="78.847" fill="#FDA57D" rx="1" ry="1.216"/>
            <path fill="#000" d="M47.38 76.674h13.306s-1.136-5.373-6.166-5.03c-5.03.343-7.14 5.03-7.14 5.03z" opacity=".1"/>
            <path fill="url(#c)" d="M.154 16.391a16.227 16.227 0 1 1 25.28 13.461l-.01.072a5.555 5.555 0 0 1-1.84 1.184l-.02-.072c-.76.656-3.96 1.696-7.636 1.686h-.08c-2.328 0-4.856-.41-7.079-1.614 0 0-.02-.043-.049-.123a5.78 5.78 0 0 1-1.53-1.047 37.142 37.142 0 0 0-.026-.184A16.21 16.21 0 0 1 .154 16.39z" opacity=".5" transform="translate(56.799 23.639)"/>
            <circle cx="73.18" cy="40.032" r="15.741" fill="#F5F5F5"/>
            <path fill="#BE7C5E" d="M67.01 46.027s-3.751.307-2.758 7.14c.514.492 1.12.878 1.784 1.135l2.11-7.14-1.136-1.135zM79.179 46.027s3.75.307 2.758 7.14a5.388 5.388 0 0 1-1.785 1.135l-2.11-7.14 1.137-1.135z"/>
            <path fill="#333" d="M67.17 34.83s-.288.84-.697 1.805c-.893 2.134.126 10.295 2.262 11.163 2.397.985 5.548 1.602 8.823.409 2.845-1.038 3.724-10.342 1.71-12.6-.235-.265-.482-.53-.74-.786l-11.358.009z"/>
            <circle cx="73.192" cy="34.344" r="6.978" fill="#333"/>
            <path fill="#000" d="M79.108 46.027h-12.17L65.8 50.896s-.666 2.254.165 3.245c.83.992 8.582 3.246 14.281.164a6.35 6.35 0 0 0 .164-4.056c-.656-2.272-.164-.164-.164-.164l-1.139-4.058z" opacity=".1"/>
            <path fill="#000" d="M79.269 46.027h-12.17l-1.137 4.869s-.666 2.254.164 3.245c.831.992 8.583 3.246 14.282.164a6.35 6.35 0 0 0 .164-4.056c-.656-2.272-.164-.164-.164-.164l-1.14-4.058z" opacity=".1"/>
            <path fill="#F55F44" d="M79.179 46.027h-12.17l-1.135 4.869s-.667 2.254.164 3.245c.83.992 8.582 3.246 14.282.164a6.35 6.35 0 0 0 .164-4.056c-.657-2.272-.164-.164-.164-.164l-1.141-4.058z"/>
            <path fill="#000" d="M70.74 41.989h4.87v4.71c0 .894-.724 1.618-1.617 1.618H72.35a1.617 1.617 0 0 1-1.617-1.617v-4.711h.007z" opacity=".1"/>
            <path fill="#BE7C5E" d="M70.74 41.808h4.87v4.711c0 .893-.724 1.617-1.617 1.617H72.35a1.617 1.617 0 0 1-1.617-1.617v-4.711h.007z"/>
            <path fill="#000" d="M70.752 42.509a7.006 7.006 0 0 0 4.87.013v-.598h-4.87v.585z" opacity=".1"/>
            <circle cx="73.192" cy="35.857" r="6.978" fill="#BE7C5E"/>
            <path fill="#333" d="M66.522 33.208h13.307s-1.136-5.373-6.166-5.03c-5.03.343-7.141 5.03-7.141 5.03z"/>
            <ellipse cx="66.36" cy="35.56" fill="#BE7C5E" rx="1" ry="1.216"/>
            <ellipse cx="79.99" cy="35.56" fill="#BE7C5E" rx="1" ry="1.216"/>
            <path fill="#000" d="M66.522 33.388h13.307s-1.136-5.373-6.166-5.03c-5.03.344-7.141 5.03-7.141 5.03z" opacity=".1"/>
            <path fill="url(#d)" d="M0 .018v23.429h36.913s2.725 5.363 7.41 6.922c0 0-1.496-3.798.066-6.922h10.276V.018H0z" opacity=".5" transform="translate(.82 25.937)"/>
            <path fill="#FFF" d="M2.298 26.758v22.161h36.936s0 4.433 4.432 5.91c0 0-1.477-2.955 0-5.91h10.342V26.758H2.298z"/>
            <path fill="#2691FD" d="M6.731 31.19H36.28v2.955H6.731zM6.731 35.622h39.891v2.955H6.731zM6.731 40.055h35.458v2.955H6.731z"/>
            <path fill="url(#d)" d="M54.665.018v23.429H17.754s-2.725 5.363-7.412 6.922c0 0 1.495-3.798-.066-6.922H0V.018h54.665z" opacity=".5" transform="translate(71.737 71.08)"/>
            <path fill="#FFF" d="M124.925 71.902v22.16H87.989s0 4.433-4.432 5.91c0 0 1.477-2.954 0-5.91H73.215v-22.16h51.71z"/>
            <path fill="#2691FD" d="M79.289 76.334h29.549v2.955H79.289zM79.289 80.766h39.891v2.955H79.289zM79.289 85.198h35.458v2.955H79.289z"/>
            <g fill="#47E6B1" opacity=".5">
                <path d="M13.79 117.21h1V120h-1z"/>
                <path d="M15.43 118.358v.493h-2.79v-.493z"/>
            </g>
            <g fill="#47E6B1" opacity=".5">
                <path d="M103.912 31.518h1v2.791h-1z"/>
                <path d="M105.554 32.668v.492h-2.79v-.492z"/>
            </g>
            <g fill="#47E6B1" opacity=".5">
                <path d="M114.418 100.465h1v2.791h-1z"/>
                <path d="M116.06 101.614v.493h-2.79v-.493z"/>
            </g>
            <g fill="#47E6B1" opacity=".5">
                <path d="M83.393 0h1v2.791h-1z"/>
                <path d="M85.034 1.15v.492h-2.79v-.493z"/>
            </g>
            <path fill="#4D8AF0" d="M42.468 116.932a.602.602 0 0 1-.328-.729.302.302 0 0 0-.53-.268.29.29 0 0 0-.034.06.602.602 0 0 1-.728.328.302.302 0 0 0-.268.53.29.29 0 0 0 .06.033.602.602 0 0 1 .327.729.302.302 0 0 0 .53.268.29.29 0 0 0 .034-.06.602.602 0 0 1 .728-.328.302.302 0 0 0 .268-.53.29.29 0 0 0-.06-.033zM9.505 64.836a.602.602 0 0 1-.329-.729.302.302 0 0 0-.53-.268.29.29 0 0 0-.033.06.602.602 0 0 1-.728.328.302.302 0 0 0-.268.53.29.29 0 0 0 .06.033.602.602 0 0 1 .327.729.29.29 0 0 0-.013.067.302.302 0 0 0 .545.209.29.29 0 0 0 .033-.06.602.602 0 0 1 .729-.328.302.302 0 0 0 .268-.53.29.29 0 0 0-.061-.04zM27.398 79.118a.602.602 0 0 1-.328-.729.302.302 0 0 0-.53-.268.29.29 0 0 0-.033.06.602.602 0 0 1-.73.328.302.302 0 0 0-.268.53h.001a.29.29 0 0 0 .06.033.602.602 0 0 1 .328.729.29.29 0 0 0-.013.067.302.302 0 0 0 .545.209.29.29 0 0 0 .032-.06.602.602 0 0 1 .73-.328.302.302 0 0 0 .268-.53h-.001a.29.29 0 0 0-.06-.041zM129.505 117.86a.602.602 0 0 1-.329-.73.302.302 0 0 0-.53-.268.29.29 0 0 0-.033.06.602.602 0 0 1-.728.328.302.302 0 0 0-.268.53.29.29 0 0 0 .06.033.602.602 0 0 1 .327.73.29.29 0 0 0-.013.067.302.302 0 0 0 .545.208.29.29 0 0 0 .033-.059.602.602 0 0 1 .729-.328.302.302 0 0 0 .268-.53.29.29 0 0 0-.061-.042z" opacity=".5"/>
            <circle cx=".985" cy="108.181" r="1" fill="#F55F44" opacity=".5"/>
            <circle cx="112.12" cy="10.506" r="1" fill="#4D8AF0" opacity=".5"/>
            <circle cx="17.073" cy="12.476" r="1" fill="#47E6B1" opacity=".5"/>
            <circle cx="113.105" cy="56.799" r="1" fill="#F55F44" opacity=".5"/>
        </g>
        <path fill="#BE000F" d="M207.404 41a3.402 3.402 0 0 0-1.365 6.519 2.998 2.998 0 0 1 .06-.78l.437-1.854a1.298 1.298 0 0 1-.109-.537c0-.505.291-.881.656-.881.312 0 .458.232.458.51 0 .311-.2.779-.3 1.207a.525.525 0 0 0 .537.655c.644 0 1.079-.828 1.079-1.81 0-.744-.504-1.302-1.416-1.302a1.611 1.611 0 0 0-1.675 1.63c-.01.242.07.48.225.667a.156.156 0 0 1 .048.188c-.017.063-.053.214-.07.275a.115.115 0 0 1-.17.084c-.475-.193-.697-.714-.697-1.3 0-.966.815-2.124 2.431-2.124 1.299 0 2.154.935 2.154 1.948 0 1.336-.743 2.338-1.836 2.338a.977.977 0 0 1-.83-.424s-.198.78-.24.935a2.805 2.805 0 0 1-.343.73 3.402 3.402 0 1 0 .966-6.674z"/>
        <path fill="#55ACEE" d="M198 19.35a5.843 5.843 0 0 1-1.647.456 2.914 2.914 0 0 0 1.263-1.592 5.743 5.743 0 0 1-1.827.697 2.871 2.871 0 0 0-4.969 1.964c0 .221.024.442.073.658a8.145 8.145 0 0 1-5.922-3.006 2.88 2.88 0 0 0 .895 3.837 2.78 2.78 0 0 1-1.306-.356v.033a2.874 2.874 0 0 0 2.305 2.82 2.896 2.896 0 0 1-1.297.049 2.874 2.874 0 0 0 2.686 1.994A5.746 5.746 0 0 1 184 28.079a8.026 8.026 0 0 0 4.397 1.3c5.289 0 8.181-4.381 8.181-8.184v-.369A5.85 5.85 0 0 0 198 19.35z"/>
        <path fill="#3B5998" d="M104.127 77H89.886a.885.885 0 0 0-.886.885v14.23c0 .489.396.885.886.885h7.11v-6.332h-1.913v-2.335h1.913v-1.71c0-2.07 1.433-3.194 3.281-3.194.886 0 1.835.068 2.053.098v2.138h-1.471c-1.001 0-1.194.479-1.194 1.176v1.488h2.392l-.313 2.334h-2.079v6.333h4.454a.885.885 0 0 0 .881-.885V77.885a.885.885 0 0 0-.873-.885z"/>
        <path fill="#DD4B39" d="M83.833 52.083l-.023-.106H81.43v.982h1.377c-.142.682-.735.966-1.277.966a1.457 1.457 0 0 1-1.038-.385 1.532 1.532 0 0 1-.018-2.126 1.428 1.428 0 0 1 1.042-.386c.324-.006.638.109.882.32l.73-.724a2.465 2.465 0 0 0-1.635-.623A2.44 2.44 0 0 0 79 52.475c-.001.637.24 1.25.677 1.715.495.494 1.17.766 1.87.754a2.3 2.3 0 0 0 1.675-.703 2.47 2.47 0 0 0 .644-1.714 2.805 2.805 0 0 0-.031-.443l-.002-.001zm2.944-.105h-.867v-.865h-.623v.865h-.866v.624h.866v.865h.623v-.865h.872l-.005-.624z"/>
        <path fill="#E53C5F" d="M87.501 8.006H82.5a2.507 2.507 0 0 0-2.498 2.5v4.997A2.507 2.507 0 0 0 82.499 18H87.5a2.464 2.464 0 0 0 1.764-.734c.47-.467.733-1.101.734-1.763v-4.997a2.507 2.507 0 0 0-2.498-2.5zm0-1V7A3.507 3.507 0 0 1 91 10.506v4.997A3.507 3.507 0 0 1 87.501 19H82.5A3.507 3.507 0 0 1 79 15.503v-4.997a3.507 3.507 0 0 1 3.499-3.5H87.5zm.749 3.494a.75.75 0 1 1 0-1.5.75.75 0 0 1 0 1.5zM85 11a2 2 0 1 0 0 4 2 2 0 0 0 0-4zm0-1a2.999 2.999 0 0 1 1.151 5.77 3.002 3.002 0 0 1-3.924-3.917A3.001 3.001 0 0 1 85.001 10z"/>
        <path fill="#007BB6" d="M243.72 57.002h-13.352A1.304 1.304 0 0 0 229 58.25v13.382c.02.747.621 1.348 1.368 1.368h13.347c.73-.03 1.3-.639 1.283-1.368V58.259a1.227 1.227 0 0 0-1.278-1.257zm-9.75 13.347h-2.293v-7.13h2.292v7.13zm-1.07-8.211a1.232 1.232 0 1 1 1.257-1.232 1.176 1.176 0 0 1-1.282 1.227l.025.005zm9.443 8.21h-2.301v-3.9c0-.932-.334-1.57-1.163-1.57a1.249 1.249 0 0 0-1.172.856c-.062.18-.09.37-.081.56v4.063h-2.293V63.22h2.293v.992a2.322 2.322 0 0 1 2.07-1.16c1.5 0 2.638.993 2.638 3.131l.009 4.166z"/>
    </g>
</svg>
