<svg xmlns="http://www.w3.org/2000/svg" width="570" height="409" viewBox="0 0 570 409">
    <defs>
        <linearGradient id="a" x1="49.996%" x2="49.996%" y1="100.001%" y2=".016%">
            <stop offset="0%" stop-color="gray" stop-opacity=".25"/>
            <stop offset="54%" stop-color="gray" stop-opacity=".12"/>
            <stop offset="100%" stop-color="gray" stop-opacity=".1"/>
        </linearGradient>
    </defs>
    <g fill="none" fill-rule="evenodd">
        <ellipse cx="285" cy="374.5" fill="#2691FD" fill-rule="nonzero" opacity=".1" rx="285" ry="34.5"/>
        <path stroke="#535461" stroke-width="2" d="M487 390s15.212-18.7 13.98-37.254c-.567-7.778 1.493-15.525 5.87-22.077A61.743 61.743 0 0 1 514 322"/>
        <path fill="#2691FD" fill-rule="nonzero" d="M512.333 310.146c-1.028 2.564.654 11.854.654 11.854s7.633-5.58 8.656-8.15a4.987 4.987 0 0 0-.72-4.946 5.019 5.019 0 0 0-8.59 1.242zM500.116 322.523c.535 2.958 6.994 10.477 6.994 10.477s3.367-9.634 2.832-12.597c-.538-2.96-3.178-4.884-5.897-4.298-2.719.585-4.487 3.459-3.949 6.418h.02zM490.24 347.27C492.053 349.33 501 352 501 352s-1.54-9.26-3.352-11.32a4.923 4.923 0 0 0-6.98-.432 4.996 4.996 0 0 0-.427 7.023zM487.772 367.546C489.272 369.87 498 374 498 374s.041-9.353-1.458-11.657c-1.499-2.322-4.677-3.04-7.098-1.602-2.422 1.436-3.17 4.483-1.672 6.805z"/>
        <path fill="#2691FD" fill-rule="nonzero" d="M515.897 336.633c-2.561 1.054-11.897-.499-11.897-.499s5.491-7.7 8.072-8.754a5.016 5.016 0 0 1 3.824 9.273v-.02zM514.068 359.99c-2.972.244-12.068-4.041-12.068-4.041s8.15-5.686 11.126-5.93c2.972-.24 5.593 1.795 5.853 4.547.26 2.752-1.939 5.178-4.911 5.419v.005zM505.371 382.886c-2.6.706-11.371-2.106-11.371-2.106s6.296-6.908 8.897-7.614c2.598-.705 5.258.898 5.942 3.582.683 2.684-.87 5.433-3.468 6.138z"/>
        <path fill="#000" fill-rule="nonzero" d="M512.333 310.146c-1.028 2.564.654 11.854.654 11.854s7.633-5.58 8.656-8.15a4.987 4.987 0 0 0-.72-4.946 5.019 5.019 0 0 0-8.59 1.242zM500.116 322.523c.535 2.958 6.994 10.477 6.994 10.477s3.367-9.634 2.832-12.597c-.538-2.96-3.178-4.884-5.897-4.298-2.719.585-4.487 3.459-3.949 6.418h.02zM490.24 347.27C492.053 349.33 501 352 501 352s-1.54-9.26-3.352-11.32a4.923 4.923 0 0 0-6.98-.432 4.996 4.996 0 0 0-.427 7.023zM487.772 367.546C489.272 369.87 498 374 498 374s.041-9.353-1.458-11.657c-1.499-2.322-4.677-3.04-7.098-1.602-2.422 1.436-3.17 4.483-1.672 6.805z" opacity=".25"/>
        <path fill="#000" fill-rule="nonzero" d="M515.897 336.633c-2.561 1.054-11.897-.499-11.897-.499s5.491-7.7 8.072-8.754a5.016 5.016 0 0 1 3.824 9.273v-.02zM514.068 359.99c-2.972.244-12.068-4.041-12.068-4.041s8.15-5.686 11.126-5.93c2.972-.24 5.593 1.795 5.853 4.547.26 2.752-1.939 5.178-4.911 5.419v.005zM505.371 382.886c-2.6.706-11.371-2.106-11.371-2.106s6.296-6.908 8.897-7.614c2.598-.705 5.258.898 5.942 3.582.683 2.684-.87 5.433-3.468 6.138z" opacity=".25"/>
        <path stroke="#535461" stroke-width="2" d="M487 391s21.673-11.443 28.307-29.358a37.067 37.067 0 0 1 14.556-18.376A62.645 62.645 0 0 1 540 338"/>
        <path fill="#2691FD" fill-rule="nonzero" d="M543.973 328.358C542.093 330.21 540 339 540 339s8.708-1.937 10.575-3.784a4.835 4.835 0 0 0 1.28-4.608 4.755 4.755 0 0 0-3.292-3.428 4.668 4.668 0 0 0-4.571 1.178h-.019zM527.08 331.273c-.612 2.953 2.503 12.727 2.503 12.727s6.681-7.357 7.292-10.31c.613-2.952-1.087-5.886-3.796-6.554-2.71-.667-5.402 1.185-6.015 4.137h.015zM507.255 351.397c.835 2.587 8.058 8.603 8.058 8.603s2.355-8.984 1.5-11.572c-.542-1.673-1.956-2.936-3.71-3.313a5.094 5.094 0 0 0-4.788 1.484 4.832 4.832 0 0 0-1.08 4.798h.02zM497.042 368.165c.38 2.97 6.44 10.835 6.44 10.835s3.867-9.35 3.492-12.315c-.244-1.92-1.415-3.553-3.073-4.284-1.658-.731-3.55-.45-4.964.74-1.414 1.189-2.134 3.104-1.89 5.024h-.005zM536.47 351.998c-2.979-.07-11.47-5.277-11.47-5.277s8.775-4.79 11.749-4.72c2.976.071 5.326 2.367 5.25 5.128-.078 2.76-2.553 4.94-5.53 4.87zM522.466 372.73c-2.581-.896-8.466-8.258-8.466-8.258s9.08-2.152 11.661-1.252a4.998 4.998 0 0 1 3.246 3.786 5.078 5.078 0 0 1-1.597 4.755 4.87 4.87 0 0 1-4.844.968zM506.677 389.935c-2.957-.44-10.677-6.669-10.677-6.669s9.45-3.669 12.434-3.23c2.96.442 4.974 3.015 4.496 5.749-.478 2.733-3.265 4.591-6.226 4.15h-.027z"/>
        <path fill="#2691FD" fill-rule="nonzero" d="M324.085 48.287c-28.145-.976-54.95-10.036-80.543-19.95-25.592-9.914-50.95-20.9-78.423-26.124-17.664-3.379-37.871-3.856-52.107 5.59-13.69 9.065-18.123 24.757-20.502 39.32-1.794 10.956-2.848 22.486 2.038 32.74 3.408 7.114 9.456 13.11 13.64 19.93 14.55 23.73 4.264 52.994-11.505 76.17-7.398 10.87-15.978 21.236-21.69 32.812-5.712 11.575-8.346 24.828-3.353 36.632 4.953 11.687 16.748 20.488 29.526 26.667 25.954 12.557 56.555 16.15 86.366 18.182 66.022 4.507 132.395 2.54 198.59.6 24.502-.722 49.106-1.454 73.206-5.23 13.385-2.098 27.203-5.431 36.914-13.47 12.335-10.204 15.392-27.486 7.133-40.281-13.864-21.464-52.194-26.795-61.885-49.829-5.33-12.678.148-26.8 7.898-38.558 16.625-25.23 44.495-47.36 45.967-76.191 1.02-19.818-12.391-39.636-33.118-49.006-21.715-9.817-51.827-8.582-67.845 7.673-16.468 16.744-45.458 23.182-70.307 22.323z" opacity=".1"/>
        <path fill="#2691FD" fill-rule="nonzero" d="M301 161h-12c.008-.952.066-1.903.174-2.848.376-3.364 1.534-8.822 5.124-11.383 3.353-2.391 7.72 1.216 6.007 5.032l-.043.104c-.642 1.38-.661 3.096-.449 4.669A19.985 19.985 0 0 0 301 161z"/>
        <path fill="#000" fill-rule="nonzero" d="M301 161h-12c.008-.848.066-1.694.174-2.536a27.247 27.247 0 0 1 10.615-1.405c.233 1.353.64 2.676 1.211 3.941z" opacity=".1"/>
        <path fill="#2691FD" fill-rule="nonzero" d="M310.808 174.694c-3.342 2.702-8.015 2.743-12.796 1.585-9.791-2.377-20.012-9.818-20.012-9.818a22.787 22.787 0 0 1 2.238-2.15c4.03-3.438 13.267-9.515 25.633-6.494a12.665 12.665 0 0 1 7.485 4.97c2.047 2.975 3.114 7.333-2.548 11.907z"/>
        <path fill="#000" fill-rule="nonzero" d="M307 169.102s-7.57-5.814-18 1.898" opacity=".1"/>
        <path fill="#2691FD" fill-rule="nonzero" d="M100 221.553s-23.657-18.064-24.846-1.687c-1.19 16.377 4.763 31.746 9.868 33.094C90.127 254.307 100 221.553 100 221.553z"/>
        <path fill="#000" fill-rule="nonzero" d="M100 221.553s-23.657-18.064-24.846-1.687c-1.19 16.377 4.763 31.746 9.868 33.094C90.127 254.307 100 221.553 100 221.553z" opacity=".2"/>
        <path fill="#000" fill-rule="nonzero" d="M85 228s.566 13.992 5.372 11.758C95.177 237.524 88.117 228.626 85 228z" opacity=".1"/>
        <path fill="#2691FD" fill-rule="nonzero" d="M158.466 351.335a26.955 26.955 0 0 1-2.558 6.6 33.88 33.88 0 0 1-.957 1.665c-5.582 9.104-18.487 12.883-18.487 10.875 0-2.007-1.274-7.196-4.518-5.69-3.244 1.505-8.187 1.174-8.187 1.174-8.928-.668-7.419-9.3-4.462-16.611a66.77 66.77 0 0 1 3.367-7.026c1.116-2.007 1.95-3.322 1.95-3.322l34.113 5.355s.762 2.64-.26 6.98z"/>
        <path fill="#000" fill-rule="nonzero" d="M298 176c-9.785-2.383-20-9.844-20-9.844a22.806 22.806 0 0 1 2.237-2.156c1.49.784 2.989 1.618 4.494 2.502A85.42 85.42 0 0 1 298 176zM158.476 350c-9.168-.792-22.446-2.97-35.476-8.762a71.36 71.36 0 0 1 1.93-3.238l33.79 5.22s.77 2.548-.244 6.78z" opacity=".1"/>
        <path fill="#2691FD" fill-rule="nonzero" d="M301.877 306.88s-.614 10.889-6.787 23.195a58.907 58.907 0 0 1-21.195 23.684s-5.457 4.418-5.8-7.812c0 0-2.39-2.547-18.769 8.587 0 0-9.883 6.012-7.165-19.073v-.046c0-.016-.246.158-.697.428h-.03a92.014 92.014 0 0 1-6.593 3.648c-5.4 2.701-12.396 5.448-15.867 3.715a51.812 51.812 0 0 1-5.804 18.135c-3.44 6.232-8.865 12.327-17.362 15.078a12.246 12.246 0 0 1-12.386-3.006l-.972-.968s-7.51 5.095-11.26 3.393c-3.753-1.702-6.829-6.45-1.71-15.286 0 0 .27-.734.603-1.81.835-2.726 2.048-7.643.082-8.382 0 0-79.509 4.077-90.083-66.243-10.575-70.32 59.373-96.134 79.16-93.418 0 0 52.551-65.902 125.232-23.44s17.403 139.62 17.403 139.62z"/>
        <path stroke="#000" d="M160 191s86.653-.338 80.707 112" opacity=".1"/>
        <path fill="#000" fill-rule="nonzero" d="M156 358.121a36.914 36.914 0 0 1-.935 1.77c-5.452 9.67-18.055 13.684-18.055 11.552 0-2.133-1.244-7.645-4.413-6.046-3.168 1.6-7.995 1.248-7.995 1.248-8.72-.71-7.247-9.878-4.358-17.645 8.176 4.377 22.963 10.896 35.756 9.121zM214 360.562c-3.41 6.144-8.79 12.153-17.216 14.865a12.193 12.193 0 0 1-12.283-2.964l-.964-.954s-7.446 5.024-11.167 3.346c-3.72-1.678-6.77-6.36-1.695-15.072 0 0 .27-.723.6-1.783 6.633 2.316 24.204 7.244 42.725 2.562z" opacity=".2"/>
        <path fill="#000" fill-rule="nonzero" d="M242 336c30.733-16.13 36-29 36-29" opacity=".1"/>
        <path fill="#000" fill-rule="nonzero" d="M295 330a58.617 58.617 0 0 1-21.036 23.6s-5.415 4.401-5.755-7.784c0 0-2.372-2.539-18.628 8.555 0 0-9.809 5.991-7.112-19.004l8.128-4.504c17.515 9.733 35.112 3.798 44.403-.863z" opacity=".2"/>
        <path fill="#2691FD" fill-rule="nonzero" d="M168 200.783s17.493-26.483 30.695-18.167c13.203 8.317-2.397 39.384-2.397 39.384s-25.9-.51-28.298-21.217z"/>
        <path fill="#000" fill-rule="nonzero" d="M168 200.783s17.493-26.483 30.695-18.167c13.203 8.317-2.397 39.384-2.397 39.384s-25.9-.51-28.298-21.217z" opacity=".2"/>
        <path fill="#000" fill-rule="nonzero" d="M197 193s-23.93 11.278-16.607 17.872C187.716 217.466 197 193 197 193z" opacity=".1"/>
        <path d="M257 163.496a93.48 93.48 0 0 0-17.215 3.104l-.158.046c-7.978 2.25-17.036 6.037-23.264 12.354 0 0-14.45-6.208-18.363-5.173 0 0 11.732-14.46 43.28-14.827h.076s8.161.704 15.644 4.496z"/>
        <ellipse cx="136.218" cy="275.146" fill="#000" fill-rule="nonzero" opacity=".1" rx="31.807" ry="26.319" transform="rotate(-13 136.218 275.146)"/>
        <ellipse cx="136.218" cy="274.128" fill="#2691FD" fill-rule="nonzero" rx="31.807" ry="26.319" transform="rotate(-13 136.218 274.128)"/>
        <ellipse cx="136.218" cy="274.128" fill="#000" fill-rule="nonzero" opacity=".2" rx="31.807" ry="26.319" transform="rotate(-13 136.218 274.128)"/>
        <path fill="#000" fill-rule="nonzero" d="M123 274s.307 9.198 2.904 6.506c2.598-2.692.151-6.515-2.904-6.506zM139 267s.303 9.198 2.903 6.506c2.6-2.691.151-6.534-2.903-6.506zM168 322.642s6.758 6.775 15-2.642" opacity=".1"/>
        <path fill="#000" fill-rule="nonzero" d="M198 173.827c3.886-1.035 18.24 5.173 18.24 5.173 6.186-6.317 15.2-10.103 23.108-12.354L241 159c-31.367.367-43 14.827-43 14.827z" opacity=".15"/>
        <path fill="#000" fill-rule="nonzero" d="M241.643 159L240 166a109.73 109.73 0 0 1 18-2.86c-7.824-3.506-16.357-4.14-16.357-4.14z" opacity=".3"/>
        <path fill="#000" fill-rule="nonzero" d="M241.912 159L240 166l.183-.043L242 159z" opacity=".15"/>
        <g fill="#FFF" fill-rule="nonzero" opacity=".1">
            <path d="M173.765 364.321s.27-.733.601-1.809c.83-2.726 2.037-7.643.082-8.382 0 0-.907.046-2.546.04a25.265 25.265 0 0 1-1.105 5.285c-.331 1.075-.601 1.809-.601 1.809-5.093 8.836-2.037 13.59 1.7 15.288l.2.07c-1.503-2.573-1.625-6.583 1.67-12.3zM84.822 287.883c-10.525-70.323 61.312-98.901 81-96.164l-5.806-.296c-19.687-2.716-89.284 23.1-78.758 93.423 3.31 22.111 13.403 36.864 25.68 46.704-10.642-9.784-19.131-23.737-22.116-43.667zM246.072 339.23v-.047c0-.015-.245.158-.693.428h-.03a99.814 99.814 0 0 1-3.26 1.901c-.509 11.593 2.49 14.106 4.848 14.325-1.196-2.706-1.823-7.675-.865-16.608zM271.88 349.717s-.611-.648-3.31.152c.702 5.056 2.648 5.606 4.033 5.305a21.417 21.417 0 0 1-.723-5.457z"/>
        </g>
        <path fill="#000" fill-rule="nonzero" d="M170 350s44.549-2.665 49-7" opacity=".1"/>
        <ellipse cx="277" cy="338" fill="#FBD56F" fill-rule="nonzero" rx="19" ry="20"/>
        <ellipse cx="277" cy="338" fill="#000" fill-rule="nonzero" opacity=".1" rx="19" ry="20"/>
        <ellipse cx="280" cy="338.5" fill="#FBD56F" fill-rule="nonzero" rx="19" ry="19.5"/>
        <path fill="#FBD56F" fill-rule="nonzero" d="M287.66 356.556l-1.977-1.103s-.925 3.872-.622 6.636a1.375 1.375 0 0 0 1.012 1.19c4.551 1.133 26.206 5.965 41.105-.844.44-.2.74-.62.789-1.103.187-1.697-.46-5.198-.719-5.879-.54-1.468-39.587 1.103-39.587 1.103z"/>
        <path fill="#000" fill-rule="nonzero" d="M287.66 356.556l-1.977-1.103s-.925 3.872-.622 6.636a1.375 1.375 0 0 0 1.012 1.19c4.551 1.133 26.206 5.965 41.105-.844.44-.2.74-.62.789-1.103.187-1.697-.46-5.198-.719-5.879-.54-1.468-39.587 1.103-39.587 1.103z" opacity=".1"/>
        <ellipse cx="307" cy="355.5" fill="#FBD56F" fill-rule="nonzero" rx="21" ry="4.5"/>
        <path fill="#FBD56F" fill-rule="nonzero" d="M295.656 349.556l-1.973-1.103s-.925 3.872-.622 6.637c.058.568.461 1.04 1.012 1.184 4.551 1.138 26.207 5.97 41.106-.839.439-.202.738-.62.79-1.103.181-1.697-.466-5.198-.724-5.879-.561-1.468-39.59 1.103-39.59 1.103z"/>
        <path fill="#000" fill-rule="nonzero" d="M295.656 349.556l-1.973-1.103s-.925 3.872-.622 6.637c.058.568.461 1.04 1.012 1.184 4.551 1.138 26.207 5.97 41.106-.839.439-.202.738-.62.79-1.103.181-1.697-.466-5.198-.724-5.879-.561-1.468-39.59 1.103-39.59 1.103z" opacity=".1"/>
        <ellipse cx="314" cy="348.5" fill="#FBD56F" fill-rule="nonzero" rx="21" ry="4.5"/>
        <path fill="#FBD56F" fill-rule="nonzero" d="M302.66 340.556l-1.977-1.103s-.925 3.872-.622 6.636a1.375 1.375 0 0 0 1.011 1.19c4.552 1.133 26.21 5.965 41.102-.844.44-.201.741-.62.794-1.103.182-1.697-.465-5.198-.723-5.879-.541-1.468-39.585 1.103-39.585 1.103z"/>
        <path fill="#000" fill-rule="nonzero" d="M302.66 340.556l-1.977-1.103s-.925 3.872-.622 6.636a1.375 1.375 0 0 0 1.011 1.19c4.552 1.133 26.21 5.965 41.102-.844.44-.201.741-.62.794-1.103.182-1.697-.465-5.198-.723-5.879-.541-1.468-39.585 1.103-39.585 1.103z" opacity=".1"/>
        <ellipse cx="322" cy="340.5" fill="#FBD56F" fill-rule="nonzero" rx="21" ry="4.5"/>
        <path fill="#FBD56F" fill-rule="nonzero" d="M294.66 331.562l-1.978-1.108s-.92 3.877-.622 6.635a1.38 1.38 0 0 0 1.011 1.189c4.552 1.133 26.209 5.964 41.103-.838.44-.2.742-.62.794-1.103.182-1.697-.465-5.197-.723-5.883-.536-1.473-39.586 1.108-39.586 1.108z"/>
        <path fill="#000" fill-rule="nonzero" d="M294.66 331.562l-1.978-1.108s-.92 3.877-.622 6.635a1.38 1.38 0 0 0 1.011 1.189c4.552 1.133 26.209 5.964 41.103-.838.44-.2.742-.62.794-1.103.182-1.697-.465-5.197-.723-5.883-.536-1.473-39.586 1.108-39.586 1.108z" opacity=".1"/>
        <ellipse cx="313" cy="329.5" fill="#FBD56F" fill-rule="nonzero" rx="21" ry="4.5"/>
        <path fill="#FBD56F" fill-rule="nonzero" d="M312.656 322.564l-1.973-1.108s-.925 3.876-.622 6.634a1.37 1.37 0 0 0 1.012 1.188c4.551 1.133 26.207 5.963 41.101-.838.44-.202.74-.62.794-1.102.182-1.696-.465-5.201-.723-5.882-.541-1.478-39.59 1.108-39.59 1.108z"/>
        <path fill="#000" fill-rule="nonzero" d="M312.656 322.564l-1.973-1.108s-.925 3.876-.622 6.634a1.37 1.37 0 0 0 1.012 1.188c4.551 1.133 26.207 5.963 41.101-.838.44-.202.74-.62.794-1.102.182-1.696-.465-5.201-.723-5.882-.541-1.478-39.59 1.108-39.59 1.108z" opacity=".1"/>
        <ellipse cx="332" cy="321.5" fill="#FBD56F" fill-rule="nonzero" rx="21" ry="4.5"/>
        <path fill="#FBD56F" fill-rule="nonzero" d="M301.66 317.56l-1.978-1.108s-.92 3.877-.622 6.636a1.38 1.38 0 0 0 1.011 1.19c4.552 1.132 26.209 5.965 41.103-.839.44-.2.742-.62.794-1.103.182-1.697-.465-5.203-.723-5.884-.536-1.468-39.586 1.108-39.586 1.108z"/>
        <path fill="#000" fill-rule="nonzero" d="M301.66 317.56l-1.978-1.108s-.92 3.877-.622 6.636a1.38 1.38 0 0 0 1.011 1.19c4.552 1.132 26.209 5.965 41.103-.839.44-.2.742-.62.794-1.103.182-1.697-.465-5.203-.723-5.884-.536-1.468-39.586 1.108-39.586 1.108z" opacity=".1"/>
        <ellipse cx="320" cy="316.5" fill="#FBD56F" fill-rule="nonzero" rx="21" ry="4.5"/>
        <path fill="#FBD56F" fill-rule="nonzero" d="M308.656 308.56l-1.973-1.108s-.925 3.877-.622 6.636a1.37 1.37 0 0 0 1.012 1.19c4.551 1.132 26.207 5.965 41.106-.839.44-.201.74-.62.79-1.103.181-1.697-.466-5.198-.724-5.884-.536-1.468-39.59 1.108-39.59 1.108z"/>
        <path fill="#000" fill-rule="nonzero" d="M308.656 308.56l-1.973-1.108s-.925 3.877-.622 6.636a1.37 1.37 0 0 0 1.012 1.19c4.551 1.132 26.207 5.965 41.106-.839.44-.201.74-.62.79-1.103.181-1.697-.466-5.198-.724-5.884-.536-1.468-39.59 1.108-39.59 1.108z" opacity=".1"/>
        <ellipse cx="328" cy="307.5" fill="#FBD56F" fill-rule="nonzero" rx="21" ry="4.5"/>
        <path fill="#FBD56F" fill-rule="nonzero" d="M312.66 297.56l-1.978-1.108s-.92 3.877-.622 6.636a1.38 1.38 0 0 0 1.011 1.19c4.552 1.132 26.209 5.965 41.103-.839.44-.2.742-.62.794-1.103.182-1.697-.465-5.198-.723-5.884-.541-1.468-39.586 1.108-39.586 1.108z"/>
        <path fill="#000" fill-rule="nonzero" d="M312.66 297.56l-1.978-1.108s-.92 3.877-.622 6.636a1.38 1.38 0 0 0 1.011 1.19c4.552 1.132 26.209 5.965 41.103-.839.44-.2.742-.62.794-1.103.182-1.697-.465-5.198-.723-5.884-.541-1.468-39.586 1.108-39.586 1.108z" opacity=".1"/>
        <ellipse cx="332" cy="295.5" fill="#FBD56F" fill-rule="nonzero" rx="21" ry="4.5"/>
        <path fill="#FBD56F" fill-rule="nonzero" d="M347.66 359.56l-1.977-1.108s-.925 3.877-.622 6.636a1.375 1.375 0 0 0 1.012 1.19c4.551 1.132 26.206 5.965 41.105-.839.439-.204.738-.624.789-1.108.187-1.697-.46-5.198-.719-5.879-.54-1.468-39.587 1.108-39.587 1.108z"/>
        <path fill="#000" fill-rule="nonzero" d="M347.66 359.56l-1.977-1.108s-.925 3.877-.622 6.636a1.375 1.375 0 0 0 1.012 1.19c4.551 1.132 26.206 5.965 41.105-.839.439-.204.738-.624.789-1.108.187-1.697-.46-5.198-.719-5.879-.54-1.468-39.587 1.108-39.587 1.108z" opacity=".1"/>
        <ellipse cx="367" cy="358.5" fill="#FBD56F" fill-rule="nonzero" rx="21" ry="4.5"/>
        <path fill="#FBD56F" fill-rule="nonzero" d="M354.66 350.56l-1.978-1.108s-.92 3.877-.622 6.636a1.38 1.38 0 0 0 1.011 1.19c4.552 1.132 26.209 5.965 41.103-.839.44-.2.742-.62.794-1.103.182-1.697-.465-5.203-.723-5.884-.536-1.468-39.586 1.108-39.586 1.108z"/>
        <path fill="#000" fill-rule="nonzero" d="M354.66 350.56l-1.978-1.108s-.92 3.877-.622 6.636a1.38 1.38 0 0 0 1.011 1.19c4.552 1.132 26.209 5.965 41.103-.839.44-.2.742-.62.794-1.103.182-1.697-.465-5.203-.723-5.884-.536-1.468-39.586 1.108-39.586 1.108z" opacity=".1"/>
        <ellipse cx="373" cy="349.5" fill="#FBD56F" fill-rule="nonzero" rx="21" ry="4.5"/>
        <path fill="#FBD56F" fill-rule="nonzero" d="M346.656 341.545l-1.973-1.104s-.925 3.877-.622 6.644a1.366 1.366 0 0 0 1.012 1.186c4.551 1.139 26.207 5.977 41.106-.84.44-.2.74-.62.79-1.104.181-1.699-.466-5.204-.724-5.886-.536-1.44-39.59 1.104-39.59 1.104z"/>
        <path fill="#000" fill-rule="nonzero" d="M346.656 341.545l-1.973-1.104s-.925 3.877-.622 6.644a1.366 1.366 0 0 0 1.012 1.186c4.551 1.139 26.207 5.977 41.106-.84.44-.2.74-.62.79-1.104.181-1.699-.466-5.204-.724-5.886-.536-1.44-39.59 1.104-39.59 1.104z" opacity=".1"/>
        <ellipse cx="366" cy="340.5" fill="#FBD56F" fill-rule="nonzero" rx="21" ry="4.5"/>
        <path fill="#FBD56F" fill-rule="nonzero" d="M365.66 333.56l-1.977-1.106s-.925 3.882-.622 6.623c.057.57.46 1.046 1.012 1.192 4.551 1.141 26.207 5.98 41.106-.84.44-.201.74-.622.789-1.106.182-1.702-.46-5.212-.718-5.894-.541-1.417-39.59 1.13-39.59 1.13z"/>
        <path fill="#000" fill-rule="nonzero" d="M365.66 333.56l-1.977-1.106s-.925 3.882-.622 6.623c.057.57.46 1.046 1.012 1.192 4.551 1.141 26.207 5.98 41.106-.84.44-.201.74-.622.789-1.106.182-1.702-.46-5.212-.718-5.894-.541-1.417-39.59 1.13-39.59 1.13z" opacity=".1"/>
        <ellipse cx="384" cy="332.5" fill="#FBD56F" fill-rule="nonzero" rx="21" ry="4.5"/>
        <path fill="#FBD56F" fill-rule="nonzero" d="M352.656 328.556l-1.973-1.103s-.925 3.873-.622 6.638a1.37 1.37 0 0 0 1.012 1.184c4.551 1.139 26.207 5.967 41.106-.838.44-.2.74-.62.79-1.103.181-1.698-.466-5.2-.724-5.88-.536-1.47-39.59 1.102-39.59 1.102z"/>
        <path fill="#000" fill-rule="nonzero" d="M352.656 328.556l-1.973-1.103s-.925 3.873-.622 6.638a1.37 1.37 0 0 0 1.012 1.184c4.551 1.139 26.207 5.967 41.106-.838.44-.2.74-.62.79-1.103.181-1.698-.466-5.2-.724-5.88-.536-1.47-39.59 1.102-39.59 1.102z" opacity=".1"/>
        <ellipse cx="372" cy="326.5" fill="#FBD56F" fill-rule="nonzero" rx="21" ry="4.5"/>
        <path fill="#FBD56F" fill-rule="nonzero" d="M361.66 317.556l-1.977-1.103s-.925 3.872-.622 6.636a1.375 1.375 0 0 0 1.012 1.19c4.551 1.133 26.207 5.965 41.101-.844.44-.201.741-.62.794-1.103.182-1.697-.465-5.198-.723-5.879-.536-1.468-39.584 1.103-39.584 1.103z"/>
        <path fill="#000" fill-rule="nonzero" d="M361.66 317.556l-1.977-1.103s-.925 3.872-.622 6.636a1.375 1.375 0 0 0 1.012 1.19c4.551 1.133 26.207 5.965 41.101-.844.44-.201.741-.62.794-1.103.182-1.697-.465-5.198-.723-5.879-.536-1.468-39.584 1.103-39.584 1.103z" opacity=".1"/>
        <ellipse cx="379" cy="316.5" fill="#FBD56F" fill-rule="nonzero" rx="21" ry="4.5"/>
        <path fill="#FBD56F" fill-rule="nonzero" d="M365.656 306.556l-1.973-1.103s-.925 3.872-.622 6.636a1.375 1.375 0 0 0 1.012 1.19c4.551 1.133 26.207 5.965 41.106-.844.44-.2.74-.62.79-1.103.181-1.697-.466-5.198-.724-5.879-.536-1.468-39.59 1.103-39.59 1.103z"/>
        <path fill="#000" fill-rule="nonzero" d="M365.656 306.556l-1.973-1.103s-.925 3.872-.622 6.636a1.375 1.375 0 0 0 1.012 1.19c4.551 1.133 26.207 5.965 41.106-.844.44-.2.74-.62.79-1.103.181-1.697-.466-5.198-.724-5.879-.536-1.468-39.59 1.103-39.59 1.103z" opacity=".1"/>
        <ellipse cx="384" cy="305.5" fill="#FBD56F" fill-rule="nonzero" rx="21" ry="4.5"/>
        <path fill="#FBD56F" fill-rule="nonzero" d="M207.362 160.755c0-10.953 8.722-19.85 19.489-19.85 1.055.002 2.108.089 3.149.26a18.75 18.75 0 0 0-6.517-1.165C212.722 140 204 149.085 204 160.291c0 8.418 4.924 15.635 11.934 18.709.337-.29.757-.636 1.255-1.018-6.142-3.642-9.876-10.187-9.827-17.227z"/>
        <path fill="#000" fill-rule="nonzero" d="M207.362 160.755c0-10.953 8.722-19.85 19.489-19.85 1.055.002 2.108.089 3.149.26a18.75 18.75 0 0 0-6.517-1.165C212.722 140 204 149.085 204 160.291c0 8.418 4.924 15.635 11.934 18.709.337-.29.757-.636 1.255-1.018-6.142-3.642-9.876-10.187-9.827-17.227z" opacity=".1"/>
        <path fill="#FBD56F" fill-rule="nonzero" d="M243.5 159.394a20.858 20.858 0 0 1-1.08 6.606c1.232-.284 2.517-.516 3.84-.784.491-1.756.74-3.566.74-5.383 0-9.994-7.36-18.276-17-19.833 7.868 2.846 13.5 10.447 13.5 19.394z"/>
        <path fill="#FBD56F" fill-rule="nonzero" d="M208 160.798A19.92 19.92 0 0 0 217.663 178c3.605-2.855 11.554-8.103 24.317-11.141a21.362 21.362 0 0 0 1.02-6.508c0-8.814-5.318-16.303-12.747-19.092a18.847 18.847 0 0 0-3.096-.259c-10.585.015-19.157 8.88-19.157 19.798z"/>
        <path fill="url(#a)" fill-rule="nonzero" d="M491.753 387.087c-2.915-.102-3.022-1.233-6.768-3.186-2.12-1.101-5.33-4.303-7.726-6.877l-.56-.607h1.02s-.939-8.223-.103-10.196c.836-1.973.21-13.57.21-13.57s.509-8.846-.419-10.9c-.927-2.055.311-15.213.311-15.213s.836-7.815 1.02-23.752c.183-15.936-9.174-16.446-9.174-16.446s-1.248-.097-3.144-.28l-.57-.056c1.228-2.55 1.946-4.497 1.946-4.497s-1.564-14.907-1.982-17.476c-.418-2.57-2.91-13.178-2.91-13.178s-1.768-4.522-2.813-7.709c-1.045-3.186-4.164-6.887-4.164-6.887s-5.605-11.103-7.185-12.745c-.724-.76-1.743-1.723-2.625-2.55l-.458-.417a18.36 18.36 0 0 0 .377-3.518s-5.835-5.76-6.253-7.198c-.418-1.438-5.932-6.786-5.932-6.786s-3.129-5.755-6.665-5.857a28.858 28.858 0 0 0-5.02.148c.729-2.692 1.59-5.511 2.36-7.933.086-.27.173-.51.254-.79a17.872 17.872 0 0 0 6.401-7.744c.071-.168.138-.337.204-.51h.112c.147-.003.293-.017.438-.04 1.167-.2 2.156-1.53 1.616-2.55.071.12.202.192.341.189.387 0 .861-.576.953-1.07 0-.087.025-.174.036-.26.01-.087.035-.215.05-.322.016-.107 0-.204 0-.306v-.31-.296-.342-.27c0-.092 0-.275-.03-.413v-.168a9.18 9.18 0 0 0-.336-1.657c-.571-1.912-1.779-3.808-1.315-5.746v-.06c.387-1.53 1.692-2.6 2.487-3.947.076-.127.143-.26.209-.392 0-.026.025-.051.035-.072.051-.102.092-.204.133-.305l.081-.2c.036-.086.062-.178.092-.27.03-.091.056-.163.077-.25.02-.086.04-.162.06-.244.021-.082.047-.194.067-.296.02-.102 0-.142.036-.214.035-.071.03-.224.04-.336.01-.112 0-.123 0-.184v-.53-.418-.122c0-.148 0-.296-.04-.444v-.061a7.389 7.389 0 0 0-1.493-3.543 9.125 9.125 0 0 0-7.497-3.248c-.781.09-1.57.105-2.354.046-1.31-.194-2.416-1.02-3.455-1.825l-8.725-6.724a10.844 10.844 0 0 0-3.297-1.958c-1.233-.377-2.71-.25-3.623.653-1.636 1.61-.596 4.384-1.249 6.571-.57 1.897-2.4 3.181-4.29 3.818-1.891.638-3.92.78-5.866 1.244a3.205 3.205 0 0 0-1.565.72 3.06 3.06 0 0 0-.682 2.186 11.76 11.76 0 0 0 1.355 5.562c.367.694.81 1.402 1.203 2.116l.097.178.127.245c.066.138.133.27.194.403l.076.173.117.29c0 .062.046.123.067.18.02.055.07.229.107.34.205.662.224 1.368.056 2.04-.301 1.106-1.162 1.958-1.927 2.82a5.542 5.542 0 0 0-1.284 2.385c-.037.21-.037.423 0 .632v.077a1.407 1.407 0 0 0 .133.341.953.953 0 0 0 .132.153l.077.056a.836.836 0 0 0 .132.082l.087.04.214.057h.06c.113.008.225.008.337 0h.102c.106-.007.212-.02.316-.041h.117c.173-.032.343-.075.51-.128.585-.175 1.155-.4 1.702-.673v.515c.029 2.017.41 4.013 1.126 5.899a17.843 17.843 0 0 0 5.428 7.51c-.031.173-.062.351-.097.535-.51 2.462-1.555 4.934-2.202 4.746a8.696 8.696 0 0 0-1.931-.214h-.566a7.85 7.85 0 0 0-1.773 0 1.864 1.864 0 0 1-.775-.107 10.535 10.535 0 0 0-5.203-.291c-3.598.74-9.076 2.09-10.58 3.706-2.293 2.468-5.605 4.833-9.371 15.11 0 0-1.875 6.271-3.333 7.097.321-.167.651-.317.989-.448a2.66 2.66 0 0 1-.78.856c.527-.27 1.074-.498 1.636-.683-1.136 6.699.55 25.857.55 25.857s-1.355 3.304.413 5.261c1.055 1.158 1.626 2.967 1.921 4.252l-.26.398c-.937 1.453-2.19 3.35-3.011 4.394-1.458 1.85-1.045 7.714-1.045 7.714s-.31 2.773-1.35 3.803c-1.04 1.03-.836 4.833-.836 4.833l-2.665 10.038s-2.503 2.258-2.503 3.288c0 1.03-1.977 3.905-1.977 3.905s-3.022 4.935 0 4.216a9.442 9.442 0 0 0 3.058-1.53v.627c-.087 5.374.51 12.94 4.464 12.94 6.115 0 21.974 7.295 21.974 7.295 3.226 2.467 7.598 1.646 7.598 1.646s-7.74 7.693-7.516 10.885c.224 3.191-4.373 8.427-4.373 8.427l-14.167 27.657c.08 1.927.422 3.834 1.02 5.669l-.204.173c-5.443 4.976-5.917 14.82-5.917 14.82l-1.249 5.037 18.953 8.33s24.578.51 28.848-.617 3.333-5.863-2.293-6.785c-5.626-.923-6.976-3.396-8.852-4.522-1.263-.765-5.753-5.695-8.54-8.82-.041-.05-.082-.092-.123-.138l.647-3.568c1.249-.617 3.124-6.786 3.124-6.786s0-2.467 1.249-3.186c1.248-.719 3.852-8.121 3.852-8.121s5.606-9.355 5.315-10.589c-.29-1.233 4.077-7.504 4.077-7.504s7.395-7.198 7.079-8.483c-.316-1.285 5.937-7.866 5.937-7.866a20.813 20.813 0 0 0 5.529-6.368l1.804-.296c8.179-1.34 21.765-3.762 23.284-4.44 2.084-.923 1.666 3.191.835 6.684-.83 3.492-1.457 20.254-.51 22.43.949 2.178.51 5.66.51 5.66l-1.248 18.811.83 4.013s-2.812 2.258-1.666 3.594c1.147 1.335.107 7.096.107 7.096a4.65 4.65 0 0 1 .342-.107c-.097.224-.194.459-.28.699-1.616 4.588-.689 12.153-.689 12.153v5.965s28.85.51 35.199.51c6.35 0 15.105-3.085 15.624-5.552.52-2.467-7.307-4.558-10.222-4.665zm-82.047-107.023l-1.885.158a14.85 14.85 0 0 1 1.88-.158h.005zm11.522-78.912a85.21 85.21 0 0 1 .943-3.783l-.943 3.783zm3.568 81.793a7.641 7.641 0 0 1-5.606 0s.102-7.194.938-10.196c.835-3.003 1.977-8.432 1.977-8.432s.938-7.505 1.875-10.9c.938-3.395 4.587-22.309 6.457-23.543 1.87-1.233 2.915.928 2.915.928s.28 0 .749-.056c.092.194.189.408.3.627 2.223 4.491 8.74 13.719 8.74 13.719a15 15 0 0 1 4.79 4.73c1.774 2.978 2.294 9.973 2.294 9.973s3.96 15.523 5.83 17.68c.937 1.08.51 1.723-.128 2.095a9.225 9.225 0 0 0-3.287 3.059c-.265.423-.55.887-.835 1.386a26.646 26.646 0 0 1-1.891-.51c-5.142-1.728-22.316-1.794-25.123-.535l.005-.025z"/>
        <path fill="#1C2D4D" d="M449.26 391.483v6s28.217.517 34.432.517c6.216 0 14.774-3.103 15.284-5.586.51-2.482-7.133-4.551-9.985-4.654-2.853-.104-2.955-1.242-6.623-3.207-2.068-1.107-5.212-4.33-7.555-6.92-1.809-2.002-3.143-3.62-3.143-3.62s-15.177-.31-19.558 2.172c-1.019.569-1.707 1.69-2.18 3.103-1.58 4.603-.673 12.195-.673 12.195z"/>
        <path fill="#000" fill-rule="nonzero" d="M450 379c3.2-1.067 21.919-1.476 25-1.545-1.817-1.903-3.158-3.443-3.158-3.443s-15.249-.295-19.651 2.066c-1.014.521-1.715 1.589-2.191 2.922z" opacity=".1"/>
        <path fill="#939AA9" d="M369 285.016l1.643 1.012.615.369 2.39 1.436c12.785 7.658 47.647 28.425 49.559 28.259.508-.04 2.004-.269 4.068-.602l1.765-.289c7.984-1.32 21.252-3.702 22.737-4.37 2.035-.91 1.628 3.136.814 6.576-.814 3.439-1.424 19.928-.508 22.052.915 2.124.508 5.564.508 5.564l-1.22 18.511.813 3.946s-2.746 2.225-1.627 3.54.102 6.98.102 6.98c3.254-1.214 25.32-1.619 25.32-1.619s-.915-8.092-.101-10.014c.814-1.922.203-13.353.203-13.353s.509-8.7-.407-10.723c-.915-2.023.306-14.966.306-14.966s.813-7.688 1.017-23.362c.203-15.675-8.95-16.185-8.95-16.185s-1.221-.097-3.052-.274c-3.626-.344-9.663-1.011-13.7-1.881a22.21 22.21 0 0 1-2.447-.642c-4.984-1.69-21.766-1.756-24.507-.542-1.76.7-3.723.7-5.482 0L416.723 281l-20.398 1.73-2.162.182-20.083 1.704-1.383.117-3.697.283z"/>
        <path fill="#000" fill-rule="nonzero" d="M450.164 300.514c6.173 2.79 12.065-7.105 14.836-12.686-3.778-.334-10.067-.983-14.274-1.828-2.792 4.304-6.48 11.836-.562 14.514z" opacity=".1"/>
        <path fill="#EE8E9E" fill-rule="nonzero" d="M434 231.86c.126.692.365 1.358.71 1.971 2.148 4.392 8.446 13.421 8.446 13.421a14.588 14.588 0 0 1 4.628 4.628c1.71 2.918 2.213 9.759 2.213 9.759s3.823 15.187 5.634 17.3c.906 1.056.503 1.684-.125 2.052a8.984 8.984 0 0 0-3.175 2.968c-2.64 4.245-6.851 12.656-.925 15.543 8.048 3.924 15.594-16.64 15.594-16.64s-1.51-14.588-1.912-17.103c-.402-2.515-2.812-12.878-2.812-12.878s-1.71-4.426-2.716-7.545c-1.006-3.12-4.024-6.74-4.024-6.74s-5.433-10.861-6.942-12.471c-.7-.75-1.68-1.69-2.515-2.485l-1.791-1.64S433.9 229.45 434 231.86z"/>
        <path fill="#1C2D4D" d="M363 389.596l18.781 8.288s24.35.512 28.58-.614c4.231-1.125 3.302-5.832-2.27-6.753-5.573-.92-6.914-3.377-8.772-4.502-1.253-.757-5.701-5.664-8.462-8.774l-2.27-2.558s-3.612-9.516-13.616-7.367a10.276 10.276 0 0 0-4.871 2.558c-5.392 4.947-5.862 14.744-5.862 14.744L363 389.596z"/>
        <path fill="#000" fill-rule="nonzero" d="M371 286.905l2.411 1.456c12.899 7.76 48.07 28.807 49.998 28.638.513-.041 2.022-.272 4.105-.61l1.78-.292.067-.118a23.218 23.218 0 0 0 2.35-5.746c2.16-8.196-8.486-14.47-8.486-14.47l-2.258-1.754c-2.565-4.316-21.035-8.396-21.035-8.396l-2.381-1.599-1.267-.85-.339-.226-2.888-1.938-14.464 1.025-4.3 2.758-.45.292-1.596 1.025-1.247.805zM371 370.692c3.993 12.847 20.687 8.654 20.687 8.654l.313-1.63-2.297-2.428s-3.654-9.027-13.775-6.988a10.651 10.651 0 0 0-4.928 2.392z" opacity=".1"/>
        <path fill="#939AA9" d="M367.32 309.121c5.955 0 21.293 7.204 21.293 7.204 3.13 2.436 7.369 1.624 7.369 1.624s-7.47 7.61-7.268 10.755c.202 3.146-4.234 8.32-4.234 8.32l-13.728 27.29c1.01 19.375 20.788 14.002 20.788 14.002l.808-4.566c1.211-.609 3.028-6.697 3.028-6.697s0-2.435 1.211-3.145c1.212-.71 3.735-8.016 3.735-8.016s5.451-9.233 5.148-10.45c-.303-1.218 3.937-7.403 3.937-7.403s7.167-7.102 6.864-8.37c-.303-1.27 5.753-7.763 5.753-7.763a20.493 20.493 0 0 0 5.355-6.286 23.06 23.06 0 0 0 2.337-5.702c1.711-6.535-4.764-11.82-7.353-13.627-.626-.441-1.01-.675-1.01-.675l-2.22-1.735c-1.146-1.943-5.552-3.84-9.973-5.327-3.2-1.07-6.43-1.933-8.495-2.45-1.403-.325-2.24-.538-2.24-.538l-2.342-1.583-.823-.553-.752-.507-2.867-1.923-6.329.452-7.898.563-4.225 2.75-2.018 1.308-7.889 5.074s-.207 1.953-.272 4.566v.619c-.096 5.327.469 12.79 4.31 12.79z"/>
        <path fill="#EE8E9E" fill-rule="nonzero" d="M398 194.841l2.154 7.6s3.795 13.073 4.205 13.985c.41.912 10.359 10.134 10.77 10.336.41.203 5.825 3.238 5.825 3.238s.43-16.72 0-21.58a13.682 13.682 0 0 1 .267-3.187c.65-3.81 2.307-9.399 3.682-13.706 1.148-3.602 2.097-6.308 2.097-6.308s-23.995-1.013-23.174 1.318c.307.881.21 2.35-.093 3.83-.512 2.427-1.538 4.87-2.164 4.677a8.82 8.82 0 0 0-1.902-.208c-.862-.025-1.667.005-1.667.005z"/>
        <path fill="#000" fill-rule="nonzero" d="M403 190.117c5.953 4.734 14.46 5.184 20.927 1.106 1.135-3.435 2.073-6.014 2.073-6.014s-23.72-.966-22.909 1.256c.304.84.208 2.241-.091 3.652z" opacity=".1"/>
        <path fill="#EE8E9E" fill-rule="nonzero" d="M431.987 176.151a18.108 18.108 0 0 1-.875 5.573c-.146.464-.315.92-.505 1.367-2.788 6.736-9.32 11.056-16.484 10.905-7.165-.151-13.516-4.744-16.028-11.591a17.909 17.909 0 0 1-1.092-5.918v-.33c-.108-6.45 3.203-12.457 8.661-15.714a17.202 17.202 0 0 1 17.672 0c5.458 3.257 8.769 9.264 8.661 15.713l-.01-.005z"/>
        <path fill="#000" fill-rule="nonzero" d="M397 195.013l2.133 7.563s3.76 13.009 4.166 13.916c.406.908 10.26 10.084 10.667 10.286.406.202 5.77 3.222 5.77 3.222s.427-16.639 0-21.474a13.676 13.676 0 0 1 .264-3.171l-1.382 5.591.102 11.193.813.606-1.829 2.722v-2.017s-6.502-6.252-7.518-8.874c-1.016-2.621-4.673-7.371-4.673-7.371s-4.165-6.948-4.267-8.158c-.076-.943-1.828-3.126-2.595-4.034-.854-.03-1.651 0-1.651 0zM433 231c.125.702.364 1.378.707 2 2.193-.23 9.65-1.649 11.293-10.336L443.217 221s-10.316 7.554-10.216 10zM361 296c2.054-1.417 4.046-3.345 5.222-3.88 1.746-.793 4.416-3.37 4.416-3.37s.678-.446 1.715-1.03c1.905-1.08 5.032-2.642 7.424-2.835 2.142-.173 9.243-.614 14.891-.951l7.312-.436s6.675-2.28 9.55-.793c2.06.995 4.23 1.76 6.47 2.28v-.59l-2.157-3.37-22.777 1.873-2.922-1.898-14.474.991-4.298 2.686-3.707.307 1.658.991-8.025 4.956s-.252 2.215-.298 5.069z" opacity=".1"/>
        <path fill="#2691FD" d="M358.343 295.926a9.385 9.385 0 0 0 3.016-1.516c2.058-1.44 4.04-3.405 5.218-3.946 1.75-.808 4.426-3.436 4.426-3.436s5.456-3.637 9.161-3.94c1.03-.081 3.119-.228 5.661-.39 2.543-.161 5.662-.358 8.4-.505l4.364-.267 3.803-.233s6.69-2.324 9.572-.808a30.61 30.61 0 0 0 6.485 2.324s.103-7.073.926-10.004c.824-2.93 1.956-8.28 1.956-8.28s.927-7.377 1.853-10.711c.926-3.335 4.524-21.928 6.376-23.14 1.853-1.213 2.882.91 2.882.91s12.352-.203 12.558-13.536c0 0-5.764-5.658-6.176-7.073-.412-1.415-5.867-6.67-5.867-6.67s-3.088-5.658-6.587-5.759a28.515 28.515 0 0 0-4.956.152l-2.965 11.873.103 11.216.823.606-1.852 2.728v-2.02s-6.588-6.265-7.617-8.893c-1.03-2.627-4.735-7.386-4.735-7.386s-4.22-6.962-4.323-8.175c-.103-1.212-2.985-4.461-2.985-4.461a7.716 7.716 0 0 0-1.75 0c-.26.02-.522-.017-.767-.106a10.435 10.435 0 0 0-5.146-.283c-3.556.722-8.97 2.051-10.453 3.638-2.264 2.425-5.558 4.749-9.263 14.854l19.963 7.073-1.74 3.193-15.887 29.647s-.515.844-1.24 1.945c-.927 1.43-2.167 3.294-2.98 4.32-1.441 1.819-1.03 7.578-1.03 7.578s-.308 2.729-1.337 3.739c-1.03 1.01-.824 4.75-.824 4.75l-2.676 9.8s-2.47 2.224-2.47 3.234c0 1.01-1.956 3.84-1.956 3.84s-2.964 4.845.036 4.118z"/>
        <path fill="#000" fill-rule="nonzero" d="M462 305s-6.14 2.182-7.804 5.306C452.533 313.43 462 305 462 305zM460 298c-.197.3-8.498 8.743-7.976 10.78C452.546 310.819 460 298 460 298zM413 304s-9.157 4.645-9.957 6.69c-.8 2.045 9.957-6.69 9.957-6.69zM413 310s-8.74 3.13-9.913 3.912C401.915 314.694 413 310 413 310zM408 317.56s-3.647 2.793-5.663.599c-2.015-2.194 5.663-.599 5.663-.599zM424 243c-.22.305-13.956 23.19-17.583 24.92C402.791 269.647 424 243 424 243zM422 251c0 .52-11.885 27.685-13.833 27.997C406.218 279.31 422 251 422 251zM375 269s-5.523 12.277-7.689 12.974C365.145 282.672 375 269 375 269zM374 263s-1.75 4-2.815 4 2.815-4 2.815-4zM431.987 176.087a17.975 17.975 0 0 1-.875 5.55c-.146.463-.315.918-.505 1.363a5.104 5.104 0 0 1-2.443-1.095 6.13 6.13 0 0 1-1.836-1.994 25.28 25.28 0 0 1-.896-2.596c-.821-2.025-2.658-3.44-4.8-3.695.582 1.028-.343 2.39-1.481 2.57-1.138.18-2.246-.514-3.035-1.373-.789-.858-1.35-1.902-2.13-2.76-.778-.858-1.891-1.542-3.034-1.372-1.012.154-1.785.935-2.63 1.516-.845.58-2.023.971-2.832.35-.456-.345-.678-.93-1.113-1.306-1.118-.951-2.858.03-3.682 1.26-1.27 1.9-2.023 3.052-3.692 3.91v-.328c-.108-6.425 3.203-12.41 8.661-15.654a17.259 17.259 0 0 1 17.672 0c5.458 3.245 8.769 9.229 8.661 15.654h-.01z" opacity=".1"/>
        <path fill="#1C2D4D" d="M400.7 172.588c.825-1.223 2.567-2.196 3.687-1.248.435.366.658.947 1.114 1.294.81.616 1.996.229 2.837-.347.84-.576 1.626-1.35 2.634-1.503 1.14-.178 2.249.51 3.039 1.36.79.851 1.347 1.885 2.132 2.736.785.851 1.895 1.529 3.04 1.355 1.144-.173 2.066-1.528 1.484-2.547a5.946 5.946 0 0 1 4.801 3.663c.254.873.554 1.732.897 2.573a6.1 6.1 0 0 0 1.844 1.971c.927.688 2.056 1.264 3.19 1.065 1.135-.198 2.098-1.528 1.571-2.547.36.555 1.14-.22 1.256-.871a9.355 9.355 0 0 0-.233-4.3c-.557-1.895-1.732-3.77-1.281-5.696.36-1.528 1.651-2.613 2.436-3.963 1.393-2.395 1.013-5.604-.669-7.805a8.796 8.796 0 0 0-7.293-3.215c-.76.085-1.527.099-2.29.041-1.271-.189-2.35-1.019-3.363-1.809l-8.495-6.653a10.403 10.403 0 0 0-3.206-1.946c-1.195-.372-2.634-.245-3.546.647-1.59 1.6-.582 4.35-1.22 6.516-.553 1.875-2.33 3.148-4.17 3.78-1.838.632-3.808.774-5.703 1.233a3.112 3.112 0 0 0-1.52.713 3.069 3.069 0 0 0-.663 2.17 11.829 11.829 0 0 0 1.317 5.507c.983 1.9 2.533 3.852 1.99 5.925-.293 1.096-1.134 1.936-1.873 2.792-1.6 1.855-2.143 4.585.876 3.638 2.923-.917 3.738-2.104 5.38-4.53z"/>
        <g fill="#000" fill-rule="nonzero" opacity=".1">
            <path d="M433.935 177.418c-.12.653-.885 1.429-1.245.873.5 1.02-.43 2.342-1.55 2.55-1.12.21-2.23-.382-3.15-1.065a6.075 6.075 0 0 1-1.815-1.98c-.42-.801-.555-1.73-.885-2.577-.814-2.009-2.63-3.412-4.745-3.668.58 1.02-.34 2.378-1.465 2.551-1.125.174-2.22-.51-3-1.362-.78-.852-1.335-1.883-2.105-2.74-.77-.857-1.87-1.53-3-1.362-1 .158-1.765.928-2.6 1.505-.835.576-2 .97-2.8.352-.45-.347-.665-.929-1.095-1.296-1.11-.949-2.83.025-3.645 1.245-1.615 2.428-2.42 3.627-5.29 4.55-.94.302-1.53.236-1.85-.055-.625 1.474-.34 2.77 1.85 2.066 2.87-.923 3.675-2.117 5.29-4.546.815-1.224 2.535-2.199 3.645-1.25.43.368.645.95 1.095 1.296.805.617 1.97.23 2.8-.347.83-.576 1.605-1.352 2.6-1.505 1.125-.179 2.22.51 3 1.362.78.852 1.33 1.888 2.105 2.74.775.852 1.87 1.53 3 1.357 1.13-.173 2.045-1.53 1.465-2.55 2.117.251 3.934 1.656 4.745 3.668.248.874.544 1.734.885 2.576a6.074 6.074 0 0 0 1.815 1.975c.92.688 2.03 1.265 3.15 1.066 1.12-.199 2.07-1.53 1.55-2.551.36.556 1.125-.22 1.245-.873.155-.88.185-1.779.09-2.668a5.656 5.656 0 0 1-.09.663zM396.5 168.622c0-.03 0-.05.025-.081.545-2.072-1-4.026-1.965-5.929a11.997 11.997 0 0 1-1.24-4.311 6.245 6.245 0 0 0-.06.806 12.048 12.048 0 0 0 1.3 5.515c.68 1.301 1.605 2.628 1.94 4zM434.84 163.439c-.775 1.352-2.05 2.444-2.405 3.97a4.517 4.517 0 0 0 0 1.953c.37-1.495 1.62-2.576 2.385-3.913a6.748 6.748 0 0 0 .77-4.306 6.26 6.26 0 0 1-.75 2.296z"/>
        </g>
        <path fill="#000" fill-rule="nonzero" d="M373 254.95c.135.565.239 1.136.312 1.712 0 0 8.09 18.903 9.114 20.021.312.348 1.5 2.044 2.995 4.236l1.715 2.523c3.072 4.598 6.548 9.794 6.548 9.794l7.598 6.621s16.48 1.313 21.718-4.02c-.635-.445-1.024-.68-1.024-.68l-2.253-1.747c-1.162-1.957-5.631-3.868-10.116-5.364-4.147.03-7.542.367-7.542.367l-1.075-2.835-1.126-2.958-5.75-15.03s-3.696-19-4.925-19.925c-1.229-.924-.917-3.78-.917-3.78s2.248-8.072 1.429-9.196c-.82-1.124 1.33-9.395 1.33-9.395a8.349 8.349 0 0 0-.982-2.294l-15.805 29.979s-.537.858-1.244 1.972z" opacity=".1"/>
        <path fill="#EE8E9E" fill-rule="nonzero" d="M390.33 225.63s-2.163 8.232-1.338 9.35c.824 1.119-1.443 9.152-1.443 9.152s-.304 2.848.927 3.763c1.232.915 4.956 19.829 4.956 19.829l7.98 20.744s24.973-2.44 22.402 5.288c-2.57 7.728-23.18 6.101-23.18 6.101l-7.624-6.61s-10.303-15.354-11.333-16.473c-1.03-1.119-9.17-19.926-9.17-19.926s-.412-3.762-2.163-5.694c-1.752-1.932-.412-5.202-.412-5.202s-2.164-24.588.103-27.537c2.266-2.948 17.926-1.632 20.296 7.215z"/>
        <path fill="#000" fill-rule="nonzero" d="M377.84 209.431l-6.526 3.949s-1.864 6.338-3.314 7.17c0 0 13.05-7.274 22.884 9.45 0 0-.31-2.177 1.036-3.216 1.347-1.04 1.036-5.507 1.036-5.507.358-.706.67-1.435.932-2.182.932-2.286-3.915-15.379-16.049-9.664z" opacity=".1"/>
        <path fill="#2691FD" d="M377.838 208.431l-6.524 3.949s-1.864 6.338-3.314 7.17c0 0 13.048-7.274 22.881 9.45 0 0-.31-2.177 1.036-3.216 1.346-1.04 1.035-5.507 1.035-5.507.358-.706.67-1.435.932-2.182.953-2.286-3.935-15.379-16.046-9.664z"/>
        <ellipse cx="321" cy="367" fill="#FBD56F" fill-rule="nonzero" rx="19" ry="20"/>
        <ellipse cx="321" cy="367" fill="#000" fill-rule="nonzero" opacity=".1" rx="19" ry="20"/>
        <ellipse cx="323" cy="367.5" fill="#FBD56F" fill-rule="nonzero" rx="19" ry="19.5"/>
        <ellipse cx="45.5" cy="374.5" fill="#2691FD" fill-rule="nonzero" rx="23.5" ry="3.5"/>
        <path fill="#2691FD" fill-rule="nonzero" d="M55.683 368.448c1.012-.904 1.948-1.955 2.242-3.264.294-1.31-.284-2.844-1.564-3.318-1.438-.533-2.976.43-4.14 1.402-1.165.973-2.496 2.077-4.02 1.872 1.595-1.395 2.314-3.495 1.894-5.532-.06-.412-.236-.8-.507-1.123-.794-.821-2.242-.49-3.199.18-3.037 2.062-3.882 6.045-3.897 9.626-.309-1.295-.05-2.638-.056-3.967-.005-1.33-.385-2.795-1.518-3.509a4.82 4.82 0 0 0-2.354-.532c-1.367-.05-2.885.083-3.817 1.045-1.159 1.202-.86 3.21.147 4.53 1.008 1.32 2.531 2.14 3.953 3.054a8.688 8.688 0 0 1 2.825 2.6c.087.155.156.319.207.488h8.56a23.815 23.815 0 0 0 5.244-3.552z"/>
        <path fill="#FBD56F" fill-rule="nonzero" d="M217 151.95l19.363-9.95 7.15 6.719 1.7 4.802 1.787 8.07-1.573 3.534-12.383 2.314s-6.597-.392-7.618.131c-1.022.524-5.189 1.43-5.189 1.43L217 160.826v-8.876z"/>
    </g>
</svg>
